<svg width="280" height="280" viewBox="0 0 280 280" fill="none" xmlns="http://www.w3.org/2000/svg">
<g filter="url(#filter0_b_683_7264)">
<rect width="280" height="280" rx="16" fill="white" fill-opacity="0.5"/>
<rect x="4" y="4" width="272" height="272" rx="12" stroke="#E23744" stroke-width="8"/>
<rect x="86" y="45" width="108" height="108" rx="16" fill="#D9D9D9"/>
<path d="M163.276 72.3695H167.116V76.2093C167.116 77.2276 167.52 78.2043 168.241 78.9244C168.961 79.6445 169.937 80.049 170.956 80.049C171.974 80.049 172.951 79.6445 173.671 78.9244C174.391 78.2043 174.795 77.2276 174.795 76.2093V72.3695H178.635C179.654 72.3695 180.63 71.9649 181.35 71.2448C182.07 70.5248 182.475 69.5481 182.475 68.5297C182.475 67.5113 182.07 66.5347 181.35 65.8146C180.63 65.0945 179.654 64.6899 178.635 64.6899H174.795V60.8502C174.795 59.8318 174.391 58.8551 173.671 58.135C172.951 57.4149 171.974 57.0104 170.956 57.0104C169.937 57.0104 168.961 57.4149 168.241 58.135C167.52 58.8551 167.116 59.8318 167.116 60.8502V64.6899H163.276C162.258 64.6899 161.281 65.0945 160.561 65.8146C159.841 66.5347 159.436 67.5113 159.436 68.5297C159.436 69.5481 159.841 70.5248 160.561 71.2448C161.281 71.9649 162.258 72.3695 163.276 72.3695ZM121.039 80.049V118.447C121.039 119.465 121.443 120.442 122.163 121.162C122.883 121.882 123.86 122.287 124.878 122.287C125.897 122.287 126.873 121.882 127.594 121.162C128.314 120.442 128.718 119.465 128.718 118.447V80.049C128.718 79.0307 128.314 78.054 127.594 77.3339C126.873 76.6138 125.897 76.2093 124.878 76.2093C123.86 76.2093 122.883 76.6138 122.163 77.3339C121.443 78.054 121.039 79.0307 121.039 80.049ZM177.099 87.7286C176.605 87.8293 176.136 88.0265 175.718 88.3087C175.3 88.591 174.941 88.9528 174.663 89.3736C174.385 89.7943 174.193 90.2658 174.097 90.761C174.001 91.2561 174.003 91.7654 174.104 92.2595C175.604 99.5405 174.715 107.111 171.571 113.847C168.426 120.583 163.193 126.125 156.649 129.651C150.105 133.178 142.598 134.5 135.243 133.421C127.888 132.343 121.077 128.922 115.82 123.665C110.564 118.409 107.142 111.597 106.064 104.242C104.986 96.8872 106.308 89.3804 109.834 82.8362C113.36 76.292 118.903 71.0593 125.639 67.9149C132.375 64.7705 139.945 63.8819 147.226 65.3811C148.244 65.5848 149.302 65.3756 150.166 64.7995C151.03 64.2234 151.63 63.3277 151.834 62.3093C152.037 61.2909 151.828 60.2333 151.252 59.3692C150.676 58.5051 149.78 57.9052 148.762 57.7016C145.952 57.178 143.095 56.9464 140.238 57.0104C131.884 57.0104 123.718 59.4876 116.772 64.1287C109.826 68.7698 104.412 75.3664 101.215 83.0843C98.0183 90.8022 97.1819 99.2948 98.8116 107.488C100.441 115.681 104.464 123.207 110.371 129.114C116.278 135.021 123.804 139.044 131.997 140.674C140.191 142.304 148.683 141.467 156.401 138.27C164.119 135.073 170.716 129.66 175.357 122.714C179.998 115.768 182.475 107.602 182.475 99.2479C182.483 96.4106 182.2 93.5799 181.63 90.8004C181.538 90.2993 181.348 89.8215 181.069 89.3949C180.791 88.9682 180.43 88.6012 180.008 88.3153C179.587 88.0294 179.112 87.8303 178.613 87.7296C178.113 87.6289 177.599 87.6285 177.099 87.7286ZM136.398 87.7286V91.5684C136.415 94.41 137.481 97.1451 139.393 99.2479C137.481 101.351 136.415 104.086 136.398 106.927V110.767C136.398 113.822 137.611 116.752 139.772 118.913C141.932 121.073 144.862 122.287 147.917 122.287H151.757C154.812 122.287 157.742 121.073 159.902 118.913C162.063 116.752 163.276 113.822 163.276 110.767V106.927C163.259 104.086 162.193 101.351 160.281 99.2479C162.193 97.1451 163.259 94.41 163.276 91.5684V87.7286C163.276 84.6735 162.063 81.7435 159.902 79.5832C157.742 77.4229 154.812 76.2093 151.757 76.2093H147.917C144.862 76.2093 141.932 77.4229 139.772 79.5832C137.611 81.7435 136.398 84.6735 136.398 87.7286ZM155.597 110.767C155.597 111.786 155.192 112.762 154.472 113.482C153.752 114.202 152.775 114.607 151.757 114.607H147.917C146.899 114.607 145.922 114.202 145.202 113.482C144.482 112.762 144.077 111.786 144.077 110.767V106.927C144.077 105.909 144.482 104.932 145.202 104.212C145.922 103.492 146.899 103.088 147.917 103.088H151.757C152.775 103.088 153.752 103.492 154.472 104.212C155.192 104.932 155.597 105.909 155.597 106.927V110.767ZM155.597 87.7286V91.5684C155.597 92.5867 155.192 93.5634 154.472 94.2835C153.752 95.0036 152.775 95.4081 151.757 95.4081H147.917C146.899 95.4081 145.922 95.0036 145.202 94.2835C144.482 93.5634 144.077 92.5867 144.077 91.5684V87.7286C144.077 86.7102 144.482 85.7336 145.202 85.0135C145.922 84.2934 146.899 83.8888 147.917 83.8888H151.757C152.775 83.8888 153.752 84.2934 154.472 85.0135C155.192 85.7336 155.597 86.7102 155.597 87.7286Z" fill="#636363"/>
<path d="M123.848 198.951H113.946L112.122 204H108.995L117.203 181.427H120.624L128.799 204H125.672L123.848 198.951ZM123.001 196.541L118.897 185.075L114.793 196.541H123.001ZM139.738 185.857C141.28 185.857 142.626 186.194 143.777 186.867C144.95 187.54 145.818 188.387 146.383 189.407V186.15H149.38V204.391C149.38 206.02 149.032 207.464 148.337 208.723C147.642 210.004 146.644 211.003 145.341 211.72C144.059 212.436 142.561 212.795 140.846 212.795C138.5 212.795 136.546 212.241 134.982 211.133C133.419 210.026 132.496 208.517 132.214 206.606H135.145C135.471 207.692 136.144 208.56 137.165 209.212C138.185 209.885 139.412 210.221 140.846 210.221C142.474 210.221 143.799 209.711 144.819 208.69C145.862 207.67 146.383 206.237 146.383 204.391V200.645C145.797 201.687 144.928 202.556 143.777 203.251C142.626 203.946 141.28 204.293 139.738 204.293C138.153 204.293 136.709 203.902 135.406 203.121C134.125 202.339 133.115 201.242 132.377 199.831C131.638 198.419 131.269 196.812 131.269 195.01C131.269 193.186 131.638 191.59 132.377 190.222C133.115 188.832 134.125 187.757 135.406 186.997C136.709 186.237 138.153 185.857 139.738 185.857ZM146.383 195.043C146.383 193.696 146.111 192.524 145.569 191.525C145.026 190.526 144.287 189.766 143.354 189.245C142.442 188.702 141.432 188.43 140.324 188.43C139.217 188.43 138.207 188.691 137.295 189.212C136.383 189.733 135.656 190.493 135.113 191.492C134.57 192.491 134.298 193.664 134.298 195.01C134.298 196.378 134.57 197.572 135.113 198.593C135.656 199.592 136.383 200.363 137.295 200.906C138.207 201.427 139.217 201.687 140.324 201.687C141.432 201.687 142.442 201.427 143.354 200.906C144.287 200.363 145.026 199.592 145.569 198.593C146.111 197.572 146.383 196.389 146.383 195.043ZM170.675 194.391C170.675 194.956 170.642 195.553 170.577 196.183H156.31C156.419 197.941 157.016 199.32 158.102 200.319C159.209 201.296 160.545 201.785 162.108 201.785C163.39 201.785 164.454 201.492 165.301 200.906C166.169 200.298 166.777 199.494 167.125 198.495H170.317C169.839 200.211 168.884 201.611 167.45 202.697C166.017 203.761 164.237 204.293 162.108 204.293C160.415 204.293 158.895 203.913 157.548 203.153C156.224 202.393 155.181 201.318 154.421 199.928C153.661 198.517 153.281 196.888 153.281 195.043C153.281 193.197 153.65 191.579 154.389 190.189C155.127 188.799 156.158 187.735 157.483 186.997C158.829 186.237 160.371 185.857 162.108 185.857C163.802 185.857 165.301 186.226 166.603 186.964C167.906 187.703 168.905 188.723 169.6 190.026C170.317 191.308 170.675 192.762 170.675 194.391ZM167.613 193.772C167.613 192.643 167.363 191.677 166.864 190.873C166.365 190.048 165.681 189.429 164.812 189.017C163.965 188.582 163.02 188.365 161.978 188.365C160.48 188.365 159.199 188.843 158.135 189.798C157.092 190.754 156.495 192.078 156.343 193.772H167.613ZM75.2728 252.228C73.7744 252.228 72.4281 251.967 71.2338 251.446C70.0612 250.903 69.1383 250.165 68.4651 249.231C67.7919 248.276 67.4445 247.179 67.4228 245.941H70.5823C70.6909 247.006 71.1252 247.907 71.8852 248.645C72.667 249.362 73.7962 249.72 75.2728 249.72C76.6843 249.72 77.7917 249.372 78.5952 248.678C79.4204 247.961 79.833 247.049 79.833 245.941C79.833 245.073 79.5941 244.367 79.1164 243.824C78.6386 243.281 78.0415 242.869 77.3249 242.586C76.6083 242.304 75.6419 242 74.4259 241.674C72.9276 241.284 71.7224 240.893 70.8103 240.502C69.92 240.111 69.1491 239.503 68.4977 238.678C67.8679 237.831 67.5531 236.702 67.5531 235.29C67.5531 234.052 67.8679 232.956 68.4977 232C69.1274 231.045 70.0069 230.307 71.1361 229.785C72.287 229.264 73.6007 229.004 75.0774 229.004C77.2054 229.004 78.9426 229.536 80.289 230.6C81.657 231.664 82.4279 233.075 82.6016 234.834H79.3444C79.2358 233.966 78.7798 233.206 77.9763 232.554C77.1729 231.881 76.1088 231.544 74.7842 231.544C73.5464 231.544 72.5367 231.87 71.7549 232.522C70.9732 233.151 70.5823 234.042 70.5823 235.192C70.5823 236.018 70.8103 236.691 71.2663 237.212C71.7441 237.733 72.3195 238.135 72.9927 238.417C73.6876 238.678 74.6539 238.982 75.8917 239.329C77.39 239.742 78.5952 240.154 79.5072 240.567C80.4193 240.958 81.201 241.577 81.8525 242.424C82.5039 243.249 82.8297 244.378 82.8297 245.811C82.8297 246.919 82.5365 247.961 81.9502 248.938C81.3639 249.915 80.4953 250.708 79.3444 251.316C78.1935 251.924 76.8363 252.228 75.2728 252.228ZM103.478 242.391C103.478 242.956 103.445 243.553 103.38 244.183H89.1134C89.222 245.941 89.8191 247.32 90.9049 248.319C92.0124 249.296 93.3478 249.785 94.9113 249.785C96.1925 249.785 97.2566 249.492 98.1035 248.906C98.9721 248.298 99.5801 247.494 99.9275 246.495H103.12C102.642 248.211 101.686 249.611 100.253 250.697C98.82 251.761 97.0394 252.293 94.9113 252.293C93.2175 252.293 91.6975 251.913 90.3511 251.153C89.0265 250.393 87.9842 249.318 87.2242 247.928C86.4641 246.517 86.0841 244.888 86.0841 243.043C86.0841 241.197 86.4533 239.579 87.1916 238.189C87.9299 236.799 88.9614 235.735 90.286 234.997C91.6323 234.237 93.1741 233.857 94.9113 233.857C96.6051 233.857 98.1035 234.226 99.4064 234.964C100.709 235.703 101.708 236.723 102.403 238.026C103.12 239.308 103.478 240.762 103.478 242.391ZM100.416 241.772C100.416 240.643 100.166 239.677 99.6669 238.873C99.1675 238.048 98.4835 237.429 97.6149 237.017C96.768 236.582 95.8234 236.365 94.781 236.365C93.2827 236.365 92.0015 236.843 90.9375 237.798C89.8951 238.754 89.298 240.078 89.146 241.772H100.416ZM110.355 227.896V252H107.39V227.896H110.355ZM131.693 242.391C131.693 242.956 131.66 243.553 131.595 244.183H117.328C117.437 245.941 118.034 247.32 119.12 248.319C120.227 249.296 121.563 249.785 123.126 249.785C124.407 249.785 125.471 249.492 126.318 248.906C127.187 248.298 127.795 247.494 128.142 246.495H131.334C130.857 248.211 129.901 249.611 128.468 250.697C127.035 251.761 125.254 252.293 123.126 252.293C121.432 252.293 119.912 251.913 118.566 251.153C117.241 250.393 116.199 249.318 115.439 247.928C114.679 246.517 114.299 244.888 114.299 243.043C114.299 241.197 114.668 239.579 115.406 238.189C116.145 236.799 117.176 235.735 118.501 234.997C119.847 234.237 121.389 233.857 123.126 233.857C124.82 233.857 126.318 234.226 127.621 234.964C128.924 235.703 129.923 236.723 130.618 238.026C131.334 239.308 131.693 240.762 131.693 242.391ZM128.631 241.772C128.631 240.643 128.381 239.677 127.882 238.873C127.382 238.048 126.698 237.429 125.83 237.017C124.983 236.582 124.038 236.365 122.996 236.365C121.498 236.365 120.216 236.843 119.152 237.798C118.11 238.754 117.513 240.078 117.361 241.772H128.631ZM134.498 243.043C134.498 241.197 134.867 239.59 135.605 238.222C136.344 236.832 137.364 235.757 138.667 234.997C139.992 234.237 141.501 233.857 143.195 233.857C145.388 233.857 147.19 234.389 148.602 235.453C150.035 236.517 150.98 237.994 151.436 239.883H148.244C147.94 238.797 147.342 237.939 146.452 237.31C145.583 236.68 144.498 236.365 143.195 236.365C141.501 236.365 140.133 236.951 139.091 238.124C138.048 239.275 137.527 240.914 137.527 243.043C137.527 245.192 138.048 246.854 139.091 248.026C140.133 249.199 141.501 249.785 143.195 249.785C144.498 249.785 145.583 249.481 146.452 248.873C147.321 248.265 147.918 247.396 148.244 246.267H151.436C150.958 248.091 150.002 249.557 148.569 250.665C147.136 251.75 145.345 252.293 143.195 252.293C141.501 252.293 139.992 251.913 138.667 251.153C137.364 250.393 136.344 249.318 135.605 247.928C134.867 246.539 134.498 244.91 134.498 243.043ZM159.006 236.593V247.114C159.006 247.983 159.191 248.602 159.56 248.971C159.929 249.318 160.57 249.492 161.482 249.492H163.664V252H160.993C159.343 252 158.105 251.62 157.28 250.86C156.455 250.1 156.042 248.851 156.042 247.114V236.593H153.729V234.15H156.042V229.655H159.006V234.15H163.664V236.593H159.006ZM168.786 231.251C168.222 231.251 167.744 231.056 167.353 230.665C166.962 230.274 166.767 229.796 166.767 229.232C166.767 228.667 166.962 228.189 167.353 227.798C167.744 227.408 168.222 227.212 168.786 227.212C169.329 227.212 169.785 227.408 170.155 227.798C170.545 228.189 170.741 228.667 170.741 229.232C170.741 229.796 170.545 230.274 170.155 230.665C169.785 231.056 169.329 231.251 168.786 231.251ZM170.22 234.15V252H167.256V234.15H170.22ZM183.056 252.293C181.384 252.293 179.864 251.913 178.496 251.153C177.15 250.393 176.086 249.318 175.304 247.928C174.544 246.517 174.164 244.888 174.164 243.043C174.164 241.218 174.555 239.612 175.337 238.222C176.14 236.81 177.226 235.735 178.594 234.997C179.962 234.237 181.493 233.857 183.187 233.857C184.88 233.857 186.411 234.237 187.779 234.997C189.147 235.735 190.222 236.799 191.004 238.189C191.808 239.579 192.209 241.197 192.209 243.043C192.209 244.888 191.797 246.517 190.972 247.928C190.168 249.318 189.071 250.393 187.682 251.153C186.292 251.913 184.75 252.293 183.056 252.293ZM183.056 249.687C184.12 249.687 185.119 249.438 186.053 248.938C186.987 248.439 187.736 247.69 188.301 246.691C188.887 245.692 189.18 244.476 189.18 243.043C189.18 241.609 188.898 240.393 188.333 239.394C187.769 238.395 187.03 237.657 186.118 237.179C185.206 236.68 184.218 236.43 183.154 236.43C182.068 236.43 181.069 236.68 180.157 237.179C179.267 237.657 178.55 238.395 178.008 239.394C177.465 240.393 177.193 241.609 177.193 243.043C177.193 244.497 177.454 245.724 177.975 246.723C178.518 247.722 179.234 248.471 180.125 248.971C181.015 249.448 181.992 249.687 183.056 249.687ZM204.803 233.824C206.975 233.824 208.734 234.487 210.08 235.811C211.427 237.114 212.1 239.003 212.1 241.479V252H209.168V241.902C209.168 240.122 208.723 238.765 207.833 237.831C206.942 236.875 205.726 236.398 204.185 236.398C202.621 236.398 201.372 236.886 200.439 237.863C199.527 238.841 199.071 240.263 199.071 242.13V252H196.107V234.15H199.071V236.691C199.657 235.779 200.45 235.073 201.448 234.574C202.469 234.074 203.587 233.824 204.803 233.824Z" fill="black"/>
</g>
<defs>
<filter id="filter0_b_683_7264" x="-60" y="-60" width="400" height="400" filterUnits="userSpaceOnUse" color-interpolation-filters="sRGB">
<feFlood flood-opacity="0" result="BackgroundImageFix"/>
<feGaussianBlur in="BackgroundImageFix" stdDeviation="30"/>
<feComposite in2="SourceAlpha" operator="in" result="effect1_backgroundBlur_683_7264"/>
<feBlend mode="normal" in="SourceGraphic" in2="effect1_backgroundBlur_683_7264" result="shape"/>
</filter>
</defs>
</svg>
