<svg width="335" height="31" viewBox="0 0 335 31" fill="none" xmlns="http://www.w3.org/2000/svg">
<path d="M12.376 24.192C10.6907 24.192 9.13333 23.9147 7.704 23.36C6.27467 22.784 5.03733 21.984 3.992 20.96C2.94667 19.936 2.12533 18.7307 1.528 17.344C0.952 15.9573 0.664 14.4427 0.664 12.8C0.664 11.1573 0.952 9.64267 1.528 8.256C2.12533 6.86933 2.94667 5.664 3.992 4.64C5.05867 3.616 6.30667 2.82667 7.736 2.272C9.16533 1.696 10.7227 1.408 12.408 1.408C14.0293 1.408 15.5547 1.68533 16.984 2.24C18.4133 2.77333 19.6187 3.584 20.6 4.672L19.096 6.176C18.1787 5.23733 17.1653 4.56533 16.056 4.16C14.9467 3.73333 13.752 3.52 12.472 3.52C11.128 3.52 9.88 3.75467 8.728 4.224C7.576 4.672 6.57333 5.32267 5.72 6.176C4.86667 7.008 4.19467 7.98933 3.704 9.12C3.23467 10.2293 3 11.456 3 12.8C3 14.144 3.23467 15.3813 3.704 16.512C4.19467 17.6213 4.86667 18.6027 5.72 19.456C6.57333 20.288 7.576 20.9387 8.728 21.408C9.88 21.856 11.128 22.08 12.472 22.08C13.752 22.08 14.9467 21.8667 16.056 21.44C17.1653 21.0133 18.1787 20.3307 19.096 19.392L20.6 20.896C19.6187 21.984 18.4133 22.8053 16.984 23.36C15.5547 23.9147 14.0187 24.192 12.376 24.192ZM37.046 24V20.288L36.95 19.68V13.472C36.95 12.0427 36.5447 10.944 35.734 10.176C34.9447 9.408 33.7607 9.024 32.182 9.024C31.094 9.024 30.0593 9.20533 29.078 9.568C28.0967 9.93067 27.2647 10.4107 26.582 11.008L25.558 9.312C26.4113 8.58667 27.4353 8.032 28.63 7.648C29.8247 7.24267 31.0833 7.04 32.406 7.04C34.582 7.04 36.2567 7.584 37.43 8.672C38.6247 9.73867 39.222 11.3707 39.222 13.568V24H37.046ZM31.254 24.16C29.9953 24.16 28.8967 23.9573 27.958 23.552C27.0407 23.1253 26.3367 22.5493 25.846 21.824C25.3553 21.0773 25.11 20.224 25.11 19.264C25.11 18.3893 25.3127 17.6 25.718 16.896C26.1447 16.1707 26.8273 15.5947 27.766 15.168C28.726 14.72 30.006 14.496 31.606 14.496H37.398V16.192H31.67C30.0487 16.192 28.918 16.48 28.278 17.056C27.6593 17.632 27.35 18.3467 27.35 19.2C27.35 20.16 27.7233 20.928 28.47 21.504C29.2167 22.08 30.262 22.368 31.606 22.368C32.886 22.368 33.9847 22.08 34.902 21.504C35.8407 20.9067 36.5233 20.0533 36.95 18.944L37.462 20.512C37.0353 21.6213 36.2887 22.5067 35.222 23.168C34.1767 23.8293 32.854 24.16 31.254 24.16ZM46.993 24V0.255999H49.265V24H46.993ZM64.0347 24.16C62.4134 24.16 60.9521 23.7973 59.6507 23.072C58.3707 22.3253 57.3574 21.312 56.6107 20.032C55.8641 18.7307 55.4907 17.248 55.4907 15.584C55.4907 13.8987 55.8641 12.416 56.6107 11.136C57.3574 9.856 58.3707 8.85333 59.6507 8.128C60.9307 7.40267 62.3921 7.04 64.0347 7.04C65.6988 7.04 67.1708 7.40267 68.4508 8.128C69.7521 8.85333 70.7654 9.856 71.4907 11.136C72.2374 12.416 72.6108 13.8987 72.6108 15.584C72.6108 17.248 72.2374 18.7307 71.4907 20.032C70.7654 21.312 69.7521 22.3253 68.4508 23.072C67.1494 23.7973 65.6774 24.16 64.0347 24.16ZM64.0347 22.144C65.2507 22.144 66.3281 21.8773 67.2668 21.344C68.2054 20.7893 68.9414 20.0213 69.4747 19.04C70.0294 18.0373 70.3067 16.8853 70.3067 15.584C70.3067 14.2613 70.0294 13.1093 69.4747 12.128C68.9414 11.1467 68.2054 10.3893 67.2668 9.856C66.3281 9.30133 65.2614 9.024 64.0667 9.024C62.8721 9.024 61.8054 9.30133 60.8667 9.856C59.9281 10.3893 59.1814 11.1467 58.6267 12.128C58.0721 13.1093 57.7947 14.2613 57.7947 15.584C57.7947 16.8853 58.0721 18.0373 58.6267 19.04C59.1814 20.0213 59.9281 20.7893 60.8667 21.344C61.8054 21.8773 62.8614 22.144 64.0347 22.144ZM78.8493 24V7.2H81.0253V11.776L80.8013 10.976C81.2706 9.696 82.0599 8.72533 83.1693 8.064C84.2786 7.38133 85.6546 7.04 87.2973 7.04V9.248C87.2119 9.248 87.1266 9.248 87.0413 9.248C86.9559 9.22667 86.8706 9.216 86.7853 9.216C85.0146 9.216 83.6279 9.76 82.6253 10.848C81.6226 11.9147 81.1213 13.44 81.1213 15.424V24H78.8493ZM93.043 24V7.2H95.315V24H93.043ZM94.195 3.488C93.7257 3.488 93.331 3.328 93.011 3.008C92.691 2.688 92.531 2.304 92.531 1.856C92.531 1.408 92.691 1.03466 93.011 0.735998C93.331 0.415998 93.7257 0.255999 94.195 0.255999C94.6643 0.255999 95.059 0.405332 95.379 0.703999C95.699 1.00267 95.859 1.376 95.859 1.824C95.859 2.29333 95.699 2.688 95.379 3.008C95.0803 3.328 94.6857 3.488 94.195 3.488ZM110.373 24.16C108.623 24.16 107.087 23.7973 105.765 23.072C104.442 22.3253 103.407 21.312 102.661 20.032C101.914 18.7307 101.541 17.248 101.541 15.584C101.541 13.92 101.893 12.448 102.597 11.168C103.322 9.888 104.303 8.88533 105.541 8.16C106.799 7.41333 108.207 7.04 109.765 7.04C111.343 7.04 112.741 7.40267 113.957 8.128C115.194 8.832 116.165 9.83467 116.869 11.136C117.573 12.416 117.925 13.8987 117.925 15.584C117.925 15.6907 117.914 15.808 117.893 15.936C117.893 16.0427 117.893 16.16 117.893 16.288H103.269V14.592H116.677L115.781 15.264C115.781 14.048 115.514 12.9707 114.981 12.032C114.469 11.072 113.765 10.3253 112.869 9.792C111.973 9.25867 110.938 8.992 109.765 8.992C108.613 8.992 107.578 9.25867 106.661 9.792C105.743 10.3253 105.029 11.072 104.517 12.032C104.005 12.992 103.749 14.0907 103.749 15.328V15.68C103.749 16.96 104.026 18.0907 104.581 19.072C105.157 20.032 105.946 20.7893 106.949 21.344C107.973 21.8773 109.135 22.144 110.437 22.144C111.461 22.144 112.41 21.9627 113.285 21.6C114.181 21.2373 114.949 20.6827 115.589 19.936L116.869 21.408C116.122 22.304 115.183 22.9867 114.053 23.456C112.943 23.9253 111.717 24.16 110.373 24.16ZM134.604 24V1.6H136.556L146.796 19.072H145.772L155.916 1.6H157.868V24H155.596V5.152H156.14L146.796 21.152H145.676L136.268 5.152H136.876V24H134.604ZM173.423 24.16C171.673 24.16 170.137 23.7973 168.815 23.072C167.492 22.3253 166.457 21.312 165.711 20.032C164.964 18.7307 164.591 17.248 164.591 15.584C164.591 13.92 164.943 12.448 165.647 11.168C166.372 9.888 167.353 8.88533 168.591 8.16C169.849 7.41333 171.257 7.04 172.815 7.04C174.393 7.04 175.791 7.40267 177.007 8.128C178.244 8.832 179.215 9.83467 179.919 11.136C180.623 12.416 180.975 13.8987 180.975 15.584C180.975 15.6907 180.964 15.808 180.943 15.936C180.943 16.0427 180.943 16.16 180.943 16.288H166.319V14.592H179.727L178.831 15.264C178.831 14.048 178.564 12.9707 178.031 12.032C177.519 11.072 176.815 10.3253 175.919 9.792C175.023 9.25867 173.988 8.992 172.815 8.992C171.663 8.992 170.628 9.25867 169.711 9.792C168.793 10.3253 168.079 11.072 167.567 12.032C167.055 12.992 166.799 14.0907 166.799 15.328V15.68C166.799 16.96 167.076 18.0907 167.631 19.072C168.207 20.032 168.996 20.7893 169.999 21.344C171.023 21.8773 172.185 22.144 173.487 22.144C174.511 22.144 175.46 21.9627 176.335 21.6C177.231 21.2373 177.999 20.6827 178.639 19.936L179.919 21.408C179.172 22.304 178.233 22.9867 177.103 23.456C175.993 23.9253 174.767 24.16 173.423 24.16ZM192.511 24.16C190.933 24.16 189.717 23.7333 188.863 22.88C188.01 22.0267 187.583 20.8213 187.583 19.264V3.488H189.855V19.136C189.855 20.1173 190.101 20.8747 190.591 21.408C191.103 21.9413 191.829 22.208 192.767 22.208C193.77 22.208 194.602 21.92 195.263 21.344L196.063 22.976C195.615 23.3813 195.071 23.68 194.431 23.872C193.813 24.064 193.173 24.16 192.511 24.16ZM184.575 9.088V7.2H194.975V9.088H184.575ZM208.342 24.16C206.592 24.16 205.056 23.7973 203.734 23.072C202.411 22.3253 201.376 21.312 200.63 20.032C199.883 18.7307 199.51 17.248 199.51 15.584C199.51 13.92 199.862 12.448 200.566 11.168C201.291 9.888 202.272 8.88533 203.51 8.16C204.768 7.41333 206.176 7.04 207.734 7.04C209.312 7.04 210.71 7.40267 211.926 8.128C213.163 8.832 214.134 9.83467 214.838 11.136C215.542 12.416 215.894 13.8987 215.894 15.584C215.894 15.6907 215.883 15.808 215.862 15.936C215.862 16.0427 215.862 16.16 215.862 16.288H201.238V14.592H214.646L213.75 15.264C213.75 14.048 213.483 12.9707 212.95 12.032C212.438 11.072 211.734 10.3253 210.838 9.792C209.942 9.25867 208.907 8.992 207.734 8.992C206.582 8.992 205.547 9.25867 204.63 9.792C203.712 10.3253 202.998 11.072 202.486 12.032C201.974 12.992 201.718 14.0907 201.718 15.328V15.68C201.718 16.96 201.995 18.0907 202.55 19.072C203.126 20.032 203.915 20.7893 204.918 21.344C205.942 21.8773 207.104 22.144 208.406 22.144C209.43 22.144 210.379 21.9627 211.254 21.6C212.15 21.2373 212.918 20.6827 213.558 19.936L214.838 21.408C214.091 22.304 213.152 22.9867 212.022 23.456C210.912 23.9253 209.686 24.16 208.342 24.16ZM222.118 24V7.2H224.294V11.776L224.07 10.976C224.539 9.696 225.329 8.72533 226.438 8.064C227.547 7.38133 228.923 7.04 230.566 7.04V9.248C230.481 9.248 230.395 9.248 230.31 9.248C230.225 9.22667 230.139 9.216 230.054 9.216C228.283 9.216 226.897 9.76 225.894 10.848C224.891 11.9147 224.39 13.44 224.39 15.424V24H222.118ZM239.965 30.208C238.792 28.2667 237.874 26.0267 237.213 23.488C236.573 20.928 236.253 18.176 236.253 15.232C236.253 12.288 236.573 9.536 237.213 6.976C237.874 4.39467 238.792 2.15466 239.965 0.255999H242.141C240.882 2.45333 239.954 4.78933 239.357 7.264C238.781 9.71733 238.493 12.3733 238.493 15.232C238.493 18.0907 238.781 20.7573 239.357 23.232C239.954 25.6853 240.882 28.0107 242.141 30.208H239.965ZM250.752 18.432L250.656 15.552L264.224 1.6H266.944L257.056 11.968L255.712 13.408L250.752 18.432ZM248.704 24V1.6H251.072V24H248.704ZM264.8 24L255.136 12.864L256.736 11.136L267.616 24H264.8ZM278.769 24.16C277.105 24.16 275.612 23.7973 274.289 23.072C272.988 22.3253 271.964 21.312 271.217 20.032C270.47 18.7307 270.097 17.248 270.097 15.584C270.097 13.8987 270.47 12.416 271.217 11.136C271.964 9.856 272.988 8.85333 274.289 8.128C275.612 7.40267 277.105 7.04 278.769 7.04C280.198 7.04 281.489 7.31733 282.641 7.872C283.793 8.42667 284.7 9.25867 285.361 10.368L283.665 11.52C283.089 10.6667 282.374 10.0373 281.521 9.632C280.668 9.22667 279.74 9.024 278.737 9.024C277.542 9.024 276.465 9.30133 275.505 9.856C274.545 10.3893 273.788 11.1467 273.233 12.128C272.678 13.1093 272.401 14.2613 272.401 15.584C272.401 16.9067 272.678 18.0587 273.233 19.04C273.788 20.0213 274.545 20.7893 275.505 21.344C276.465 21.8773 277.542 22.144 278.737 22.144C279.74 22.144 280.668 21.9413 281.521 21.536C282.374 21.1307 283.089 20.512 283.665 19.68L285.361 20.832C284.7 21.92 283.793 22.752 282.641 23.328C281.489 23.8827 280.198 24.16 278.769 24.16ZM301.952 24V20.288L301.856 19.68V13.472C301.856 12.0427 301.451 10.944 300.64 10.176C299.851 9.408 298.667 9.024 297.088 9.024C296 9.024 294.966 9.20533 293.984 9.568C293.003 9.93067 292.171 10.4107 291.488 11.008L290.464 9.312C291.318 8.58667 292.342 8.032 293.536 7.648C294.731 7.24267 295.99 7.04 297.312 7.04C299.488 7.04 301.163 7.584 302.336 8.672C303.531 9.73867 304.128 11.3707 304.128 13.568V24H301.952ZM296.16 24.16C294.902 24.16 293.803 23.9573 292.864 23.552C291.947 23.1253 291.243 22.5493 290.752 21.824C290.262 21.0773 290.016 20.224 290.016 19.264C290.016 18.3893 290.219 17.6 290.624 16.896C291.051 16.1707 291.734 15.5947 292.672 15.168C293.632 14.72 294.912 14.496 296.512 14.496H302.304V16.192H296.576C294.955 16.192 293.824 16.48 293.184 17.056C292.566 17.632 292.256 18.3467 292.256 19.2C292.256 20.16 292.63 20.928 293.376 21.504C294.123 22.08 295.168 22.368 296.512 22.368C297.792 22.368 298.891 22.08 299.808 21.504C300.747 20.9067 301.43 20.0533 301.856 18.944L302.368 20.512C301.942 21.6213 301.195 22.5067 300.128 23.168C299.083 23.8293 297.76 24.16 296.16 24.16ZM311.899 24V0.255999H314.171V24H311.899ZM322.317 24.16C321.848 24.16 321.442 23.9893 321.101 23.648C320.781 23.3067 320.621 22.8907 320.621 22.4C320.621 21.888 320.781 21.472 321.101 21.152C321.442 20.832 321.848 20.672 322.317 20.672C322.786 20.672 323.181 20.832 323.501 21.152C323.842 21.472 324.013 21.888 324.013 22.4C324.013 22.8907 323.842 23.3067 323.501 23.648C323.181 23.9893 322.786 24.16 322.317 24.16ZM330.762 30.208H328.586C329.866 28.0107 330.794 25.6853 331.37 23.232C331.968 20.7573 332.266 18.0907 332.266 15.232C332.266 12.3733 331.968 9.71733 331.37 7.264C330.794 4.78933 329.866 2.45333 328.586 0.255999H330.762C331.978 2.15466 332.906 4.39467 333.546 6.976C334.186 9.536 334.506 12.288 334.506 15.232C334.506 18.176 334.186 20.928 333.546 23.488C332.906 26.0267 331.978 28.2667 330.762 30.208Z" fill="black"/>
</svg>
