<svg width="280" height="280" viewBox="0 0 280 280" fill="none" xmlns="http://www.w3.org/2000/svg">
<g filter="url(#filter0_b_683_6013)">
<rect width="280" height="280" rx="16" fill="white" fill-opacity="0.5"/>
<rect x="4" y="4" width="272" height="272" rx="12" stroke="#E23744" stroke-width="8"/>
<rect x="97.5" y="57" width="85" height="102" rx="16" fill="#D9D9D9"/>
<path d="M164.942 75.3964L162.595 71.6362C163.145 71.2853 163.512 70.6726 163.512 69.973C163.512 68.8833 162.63 68 161.539 68H117.492C115.436 68 113.563 68.8377 112.218 70.1848C110.871 71.5265 110 73.4039 110 75.4561V140.899C110 144.487 112.909 147.396 116.497 147.396H164.14C167.162 147.396 169.613 144.947 169.613 141.926V80.7882C169.613 78.0396 167.58 75.7907 164.942 75.3964ZM123.639 95.9654L127.98 101.105C128.321 101.511 128.893 101.589 129.256 101.281L129.434 101.132C129.797 100.825 129.818 100.248 129.475 99.8429L125.11 94.6738C124.23 93.632 124.599 92.7867 125.205 92.275C125.811 91.7633 126.707 91.5406 127.587 92.5825L131.952 97.7516C132.293 98.1568 132.867 98.2339 133.23 97.9265L133.406 97.7777C133.768 97.4712 133.79 96.8944 133.447 96.4892L129.105 91.3483C127.53 89.483 129.983 87.5209 131.522 89.3439C133.366 91.5276 135.622 94.199 135.622 94.199C138.466 97.543 138.477 99.0247 138.166 101.077C137.916 102.731 137.501 103.906 139.266 105.996L139.826 106.659L137.351 109.589L136.376 108.436C134.612 106.346 133.384 106.558 131.711 106.529C129.636 106.492 128.178 106.229 125.357 102.866C125.357 102.866 123.102 100.195 121.257 98.0112C119.719 96.1891 122.063 94.0989 123.639 95.9654ZM131.872 137.507H130.47V133.268L129.079 136.21H128.078L126.646 133.252V137.507H125.246V130.037H126.589L128.577 134.272L130.526 130.037H131.871V137.507H131.872ZM138.894 131.327H135.407V133.102H138.381V134.382H135.407V136.217H138.894V137.507H134.007V130.037H138.894V131.327ZM146.368 137.507H145.132L142.069 132.841V137.507H140.669V130.037H141.906L144.969 134.693V130.037H146.368V137.507ZM141.853 114.922L144.328 111.991L151.618 120.625L148.73 123.066L141.853 114.922ZM153.856 134.937C153.856 135.326 153.785 135.687 153.648 136.009C153.509 136.333 153.313 136.613 153.067 136.841C152.822 137.068 152.529 137.248 152.196 137.376C151.866 137.502 151.505 137.566 151.125 137.566C150.747 137.566 150.386 137.502 150.054 137.376C149.721 137.248 149.43 137.067 149.189 136.84C148.946 136.612 148.752 136.333 148.615 136.009C148.476 135.687 148.407 135.326 148.407 134.937V130.037H149.806V134.887C149.806 135.325 149.926 135.67 150.163 135.913C150.402 136.158 150.716 136.276 151.125 136.276C151.534 136.276 151.851 136.157 152.094 135.911C152.338 135.666 152.455 135.33 152.455 134.887V130.037H153.856L153.856 134.937ZM157.033 96.1305C156.038 98.5564 154.249 103.007 152.25 105.377C147.6 111.209 147.537 105.926 143.705 110.33L132.949 123.066L130.075 120.637L130.027 120.665C130.027 120.665 130.04 120.649 130.059 120.626C130.513 120.089 136.91 112.515 142.414 105.995C147.859 99.5473 152.405 94.163 153.363 93.0299C155.327 90.7017 158.586 92.3541 157.033 96.1305ZM114.096 75.5442V75.4561C114.096 74.5923 114.465 73.7286 115.108 73.0866C115.749 72.4435 116.592 72.0948 117.492 72.0948H158.054L160.207 75.5442H114.096Z" fill="#646464"/>
<path d="M75.9349 192.484C78.0629 192.484 79.9016 192.885 81.451 193.688C83.019 194.472 84.2136 195.601 85.035 197.076C85.875 198.551 86.295 200.287 86.295 202.284C86.295 204.281 85.875 206.017 85.035 207.492C84.2136 208.948 83.019 210.068 81.451 210.852C79.9016 211.617 78.0629 212 75.9349 212H69.8589V192.484H75.9349ZM75.9349 209.9C78.4549 209.9 80.3776 209.237 81.7029 207.912C83.0283 206.568 83.691 204.692 83.691 202.284C83.691 199.857 83.019 197.963 81.6749 196.6C80.3496 195.237 78.4363 194.556 75.9349 194.556H72.4069V209.9H75.9349ZM88.7038 204.272C88.7038 202.704 89.0212 201.332 89.6558 200.156C90.2905 198.961 91.1585 198.037 92.2598 197.384C93.3798 196.731 94.6212 196.404 95.9838 196.404C97.3278 196.404 98.4945 196.693 99.4838 197.272C100.473 197.851 101.21 198.579 101.696 199.456V196.656H104.272V212H101.696V209.144C101.192 210.04 100.436 210.787 99.4278 211.384C98.4385 211.963 97.2812 212.252 95.9558 212.252C94.5932 212.252 93.3612 211.916 92.2598 211.244C91.1585 210.572 90.2905 209.629 89.6558 208.416C89.0212 207.203 88.7038 205.821 88.7038 204.272ZM101.696 204.3C101.696 203.143 101.462 202.135 100.996 201.276C100.529 200.417 99.8945 199.764 99.0918 199.316C98.3078 198.849 97.4398 198.616 96.4878 198.616C95.5358 198.616 94.6678 198.84 93.8838 199.288C93.0998 199.736 92.4745 200.389 92.0078 201.248C91.5412 202.107 91.3078 203.115 91.3078 204.272C91.3078 205.448 91.5412 206.475 92.0078 207.352C92.4745 208.211 93.0998 208.873 93.8838 209.34C94.6678 209.788 95.5358 210.012 96.4878 210.012C97.4398 210.012 98.3078 209.788 99.0918 209.34C99.8945 208.873 100.529 208.211 100.996 207.352C101.462 206.475 101.696 205.457 101.696 204.3ZM109.894 194.164C109.408 194.164 108.998 193.996 108.662 193.66C108.326 193.324 108.158 192.913 108.158 192.428C108.158 191.943 108.326 191.532 108.662 191.196C108.998 190.86 109.408 190.692 109.894 190.692C110.36 190.692 110.752 190.86 111.07 191.196C111.406 191.532 111.574 191.943 111.574 192.428C111.574 192.913 111.406 193.324 111.07 193.66C110.752 193.996 110.36 194.164 109.894 194.164ZM111.126 196.656V212H108.578V196.656H111.126ZM118.016 191.28V212H115.468V191.28H118.016ZM135.575 196.656L126.335 219.224H123.703L126.727 211.832L120.539 196.656H123.367L128.183 209.088L132.943 196.656H135.575ZM156.633 192.484V194.556H148.149V201.136H155.037V203.208H148.149V212H145.601V192.484H156.633ZM166.403 212.252C164.965 212.252 163.659 211.925 162.483 211.272C161.325 210.619 160.411 209.695 159.739 208.5C159.085 207.287 158.759 205.887 158.759 204.3C158.759 202.732 159.095 201.351 159.767 200.156C160.457 198.943 161.391 198.019 162.567 197.384C163.743 196.731 165.059 196.404 166.515 196.404C167.971 196.404 169.287 196.731 170.463 197.384C171.639 198.019 172.563 198.933 173.235 200.128C173.925 201.323 174.271 202.713 174.271 204.3C174.271 205.887 173.916 207.287 173.207 208.5C172.516 209.695 171.573 210.619 170.379 211.272C169.184 211.925 167.859 212.252 166.403 212.252ZM166.403 210.012C167.317 210.012 168.176 209.797 168.979 209.368C169.781 208.939 170.425 208.295 170.911 207.436C171.415 206.577 171.667 205.532 171.667 204.3C171.667 203.068 171.424 202.023 170.939 201.164C170.453 200.305 169.819 199.671 169.035 199.26C168.251 198.831 167.401 198.616 166.487 198.616C165.553 198.616 164.695 198.831 163.911 199.26C163.145 199.671 162.529 200.305 162.063 201.164C161.596 202.023 161.363 203.068 161.363 204.3C161.363 205.551 161.587 206.605 162.035 207.464C162.501 208.323 163.117 208.967 163.883 209.396C164.648 209.807 165.488 210.012 166.403 210.012ZM184.313 212.252C182.875 212.252 181.569 211.925 180.393 211.272C179.235 210.619 178.321 209.695 177.649 208.5C176.995 207.287 176.669 205.887 176.669 204.3C176.669 202.732 177.005 201.351 177.677 200.156C178.367 198.943 179.301 198.019 180.477 197.384C181.653 196.731 182.969 196.404 184.425 196.404C185.881 196.404 187.197 196.731 188.373 197.384C189.549 198.019 190.473 198.933 191.145 200.128C191.835 201.323 192.181 202.713 192.181 204.3C192.181 205.887 191.826 207.287 191.117 208.5C190.426 209.695 189.483 210.619 188.289 211.272C187.094 211.925 185.769 212.252 184.313 212.252ZM184.313 210.012C185.227 210.012 186.086 209.797 186.889 209.368C187.691 208.939 188.335 208.295 188.821 207.436C189.325 206.577 189.577 205.532 189.577 204.3C189.577 203.068 189.334 202.023 188.849 201.164C188.363 200.305 187.729 199.671 186.945 199.26C186.161 198.831 185.311 198.616 184.397 198.616C183.463 198.616 182.605 198.831 181.821 199.26C181.055 199.671 180.439 200.305 179.973 201.164C179.506 202.023 179.273 203.068 179.273 204.3C179.273 205.551 179.497 206.605 179.945 207.464C180.411 208.323 181.027 208.967 181.793 209.396C182.558 209.807 183.398 210.012 184.313 210.012ZM194.579 204.272C194.579 202.704 194.896 201.332 195.531 200.156C196.165 198.961 197.033 198.037 198.135 197.384C199.255 196.731 200.505 196.404 201.887 196.404C203.081 196.404 204.192 196.684 205.219 197.244C206.245 197.785 207.029 198.504 207.571 199.4V191.28H210.147V212H207.571V209.116C207.067 210.031 206.32 210.787 205.331 211.384C204.341 211.963 203.184 212.252 201.859 212.252C200.496 212.252 199.255 211.916 198.135 211.244C197.033 210.572 196.165 209.629 195.531 208.416C194.896 207.203 194.579 205.821 194.579 204.272ZM207.571 204.3C207.571 203.143 207.337 202.135 206.871 201.276C206.404 200.417 205.769 199.764 204.967 199.316C204.183 198.849 203.315 198.616 202.363 198.616C201.411 198.616 200.543 198.84 199.759 199.288C198.975 199.736 198.349 200.389 197.883 201.248C197.416 202.107 197.183 203.115 197.183 204.272C197.183 205.448 197.416 206.475 197.883 207.352C198.349 208.211 198.975 208.873 199.759 209.34C200.543 209.788 201.411 210.012 202.363 210.012C203.315 210.012 204.183 209.788 204.967 209.34C205.769 208.873 206.404 208.211 206.871 207.352C207.337 206.475 207.571 205.457 207.571 204.3ZM84.3594 254.196C83.0714 254.196 81.9141 253.972 80.8874 253.524C79.8794 253.057 79.0861 252.423 78.5074 251.62C77.9288 250.799 77.6301 249.856 77.6114 248.792H80.3274C80.4208 249.707 80.7941 250.481 81.4474 251.116C82.1194 251.732 83.0901 252.04 84.3594 252.04C85.5728 252.04 86.5248 251.741 87.2154 251.144C87.9248 250.528 88.2795 249.744 88.2795 248.792C88.2795 248.045 88.0741 247.439 87.6634 246.972C87.2528 246.505 86.7395 246.151 86.1235 245.908C85.5074 245.665 84.6768 245.404 83.6314 245.124C82.3434 244.788 81.3074 244.452 80.5234 244.116C79.7581 243.78 79.0954 243.257 78.5354 242.548C77.9941 241.82 77.7234 240.849 77.7234 239.636C77.7234 238.572 77.9941 237.629 78.5354 236.808C79.0768 235.987 79.8328 235.352 80.8034 234.904C81.7928 234.456 82.9221 234.232 84.1915 234.232C86.0208 234.232 87.5141 234.689 88.6715 235.604C89.8475 236.519 90.5101 237.732 90.6594 239.244H87.8594C87.7661 238.497 87.3741 237.844 86.6834 237.284C85.9928 236.705 85.0781 236.416 83.9395 236.416C82.8754 236.416 82.0074 236.696 81.3354 237.256C80.6634 237.797 80.3274 238.563 80.3274 239.552C80.3274 240.261 80.5234 240.84 80.9154 241.288C81.3261 241.736 81.8208 242.081 82.3994 242.324C82.9968 242.548 83.8274 242.809 84.8914 243.108C86.1794 243.463 87.2154 243.817 87.9995 244.172C88.7835 244.508 89.4555 245.04 90.0154 245.768C90.5755 246.477 90.8555 247.448 90.8555 248.68C90.8555 249.632 90.6035 250.528 90.0995 251.368C89.5954 252.208 88.8488 252.889 87.8594 253.412C86.8701 253.935 85.7034 254.196 84.3594 254.196ZM108.605 245.74C108.605 246.225 108.577 246.739 108.521 247.28H96.257C96.3504 248.792 96.8637 249.977 97.797 250.836C98.749 251.676 99.897 252.096 101.241 252.096C102.342 252.096 103.257 251.844 103.985 251.34C104.732 250.817 105.254 250.127 105.553 249.268H108.297C107.886 250.743 107.065 251.947 105.833 252.88C104.601 253.795 103.07 254.252 101.241 254.252C99.785 254.252 98.4784 253.925 97.321 253.272C96.1824 252.619 95.2864 251.695 94.633 250.5C93.9797 249.287 93.653 247.887 93.653 246.3C93.653 244.713 93.9704 243.323 94.605 242.128C95.2397 240.933 96.1264 240.019 97.265 239.384C98.4224 238.731 99.7477 238.404 101.241 238.404C102.697 238.404 103.985 238.721 105.105 239.356C106.225 239.991 107.084 240.868 107.681 241.988C108.297 243.089 108.605 244.34 108.605 245.74ZM105.973 245.208C105.973 244.237 105.758 243.407 105.329 242.716C104.9 242.007 104.312 241.475 103.565 241.12C102.837 240.747 102.025 240.56 101.129 240.56C99.841 240.56 98.7397 240.971 97.825 241.792C96.929 242.613 96.4157 243.752 96.285 245.208H105.973ZM114.516 233.28V254H111.968V233.28H114.516ZM132.859 245.74C132.859 246.225 132.831 246.739 132.775 247.28H120.511C120.604 248.792 121.118 249.977 122.051 250.836C123.003 251.676 124.151 252.096 125.495 252.096C126.596 252.096 127.511 251.844 128.239 251.34C128.986 250.817 129.508 250.127 129.807 249.268H132.551C132.14 250.743 131.319 251.947 130.087 252.88C128.855 253.795 127.324 254.252 125.495 254.252C124.039 254.252 122.732 253.925 121.575 253.272C120.436 252.619 119.54 251.695 118.887 250.5C118.234 249.287 117.907 247.887 117.907 246.3C117.907 244.713 118.224 243.323 118.859 242.128C119.494 240.933 120.38 240.019 121.519 239.384C122.676 238.731 124.002 238.404 125.495 238.404C126.951 238.404 128.239 238.721 129.359 239.356C130.479 239.991 131.338 240.868 131.935 241.988C132.551 243.089 132.859 244.34 132.859 245.74ZM130.227 245.208C130.227 244.237 130.012 243.407 129.583 242.716C129.154 242.007 128.566 241.475 127.819 241.12C127.091 240.747 126.279 240.56 125.383 240.56C124.095 240.56 122.994 240.971 122.079 241.792C121.183 242.613 120.67 243.752 120.539 245.208H130.227ZM135.27 246.3C135.27 244.713 135.588 243.332 136.222 242.156C136.857 240.961 137.734 240.037 138.854 239.384C139.993 238.731 141.29 238.404 142.746 238.404C144.632 238.404 146.181 238.861 147.394 239.776C148.626 240.691 149.438 241.96 149.83 243.584H147.086C146.825 242.651 146.312 241.913 145.546 241.372C144.8 240.831 143.866 240.56 142.746 240.56C141.29 240.56 140.114 241.064 139.218 242.072C138.322 243.061 137.874 244.471 137.874 246.3C137.874 248.148 138.322 249.576 139.218 250.584C140.114 251.592 141.29 252.096 142.746 252.096C143.866 252.096 144.8 251.835 145.546 251.312C146.293 250.789 146.806 250.043 147.086 249.072H149.83C149.42 250.64 148.598 251.9 147.366 252.852C146.134 253.785 144.594 254.252 142.746 254.252C141.29 254.252 139.993 253.925 138.854 253.272C137.734 252.619 136.857 251.695 136.222 250.5C135.588 249.305 135.27 247.905 135.27 246.3ZM156.338 240.756V249.8C156.338 250.547 156.497 251.079 156.814 251.396C157.131 251.695 157.682 251.844 158.466 251.844H160.342V254H158.046C156.627 254 155.563 253.673 154.854 253.02C154.145 252.367 153.79 251.293 153.79 249.8V240.756H151.802V238.656H153.79V234.792H156.338V238.656H160.342V240.756H156.338ZM164.745 236.164C164.26 236.164 163.849 235.996 163.513 235.66C163.177 235.324 163.009 234.913 163.009 234.428C163.009 233.943 163.177 233.532 163.513 233.196C163.849 232.86 164.26 232.692 164.745 232.692C165.212 232.692 165.604 232.86 165.921 233.196C166.257 233.532 166.425 233.943 166.425 234.428C166.425 234.913 166.257 235.324 165.921 235.66C165.604 235.996 165.212 236.164 164.745 236.164ZM165.977 238.656V254H163.429V238.656H165.977ZM177.012 254.252C175.575 254.252 174.268 253.925 173.092 253.272C171.935 252.619 171.02 251.695 170.348 250.5C169.695 249.287 169.368 247.887 169.368 246.3C169.368 244.732 169.704 243.351 170.376 242.156C171.067 240.943 172 240.019 173.176 239.384C174.352 238.731 175.668 238.404 177.124 238.404C178.58 238.404 179.896 238.731 181.072 239.384C182.248 240.019 183.172 240.933 183.844 242.128C184.535 243.323 184.88 244.713 184.88 246.3C184.88 247.887 184.525 249.287 183.816 250.5C183.125 251.695 182.183 252.619 180.988 253.272C179.793 253.925 178.468 254.252 177.012 254.252ZM177.012 252.012C177.927 252.012 178.785 251.797 179.588 251.368C180.391 250.939 181.035 250.295 181.52 249.436C182.024 248.577 182.276 247.532 182.276 246.3C182.276 245.068 182.033 244.023 181.548 243.164C181.063 242.305 180.428 241.671 179.644 241.26C178.86 240.831 178.011 240.616 177.096 240.616C176.163 240.616 175.304 240.831 174.52 241.26C173.755 241.671 173.139 242.305 172.672 243.164C172.205 244.023 171.972 245.068 171.972 246.3C171.972 247.551 172.196 248.605 172.644 249.464C173.111 250.323 173.727 250.967 174.492 251.396C175.257 251.807 176.097 252.012 177.012 252.012ZM195.706 238.376C197.573 238.376 199.085 238.945 200.242 240.084C201.399 241.204 201.978 242.828 201.978 244.956V254H199.458V245.32C199.458 243.789 199.075 242.623 198.31 241.82C197.545 240.999 196.499 240.588 195.174 240.588C193.83 240.588 192.757 241.008 191.954 241.848C191.17 242.688 190.778 243.911 190.778 245.516V254H188.23V238.656H190.778V240.84C191.282 240.056 191.963 239.449 192.822 239.02C193.699 238.591 194.661 238.376 195.706 238.376Z" fill="black"/>
</g>
<defs>
<filter id="filter0_b_683_6013" x="-60" y="-60" width="400" height="400" filterUnits="userSpaceOnUse" color-interpolation-filters="sRGB">
<feFlood flood-opacity="0" result="BackgroundImageFix"/>
<feGaussianBlur in="BackgroundImageFix" stdDeviation="30"/>
<feComposite in2="SourceAlpha" operator="in" result="effect1_backgroundBlur_683_6013"/>
<feBlend mode="normal" in="SourceGraphic" in2="effect1_backgroundBlur_683_6013" result="shape"/>
</filter>
</defs>
</svg>
