<svg width="60" height="60" viewBox="0 0 60 60" fill="none" xmlns="http://www.w3.org/2000/svg">
<g clip-path="url(#clip0_415_1069)">
<path d="M31.8639 12.9735C31.8264 12.9581 31.409 12.7953 31.3845 12.7865C31.0136 12.6525 31.0282 12.4141 30.9815 12.1473C30.9298 11.8605 30.9023 11.5698 30.8991 11.2784C31.8969 10.897 32.7084 9.54361 32.8466 9.16703C32.8669 9.10506 32.9086 8.98857 32.9456 8.85012C32.9954 8.84131 33.0233 8.83656 33.0233 8.83656C33.1891 8.80895 33.345 8.73887 33.4757 8.63315C33.6366 8.49645 33.7662 8.3266 33.8554 8.1352C34.0446 7.75664 34.126 7.33335 34.0908 6.91162C34.0859 6.80381 34.0584 6.69824 34.0101 6.60176C33.9684 6.53186 33.9116 6.4722 33.8438 6.42715C33.7761 6.38209 33.6991 6.35279 33.6185 6.34139C33.5363 6.32946 33.4525 6.33539 33.3728 6.3588C33.2931 6.3822 33.2194 6.42252 33.1567 6.477C33.1567 6.477 33.4876 3.27667 29.1999 3.27667C25.1681 3.27667 25.4134 6.477 25.4134 6.477C25.3508 6.42252 25.2771 6.3822 25.1974 6.3588C25.1177 6.33539 25.0339 6.32946 24.9517 6.34139C24.8711 6.35277 24.7941 6.38206 24.7263 6.42712C24.6586 6.47218 24.6017 6.53185 24.5601 6.60176C24.5115 6.69819 24.4838 6.80376 24.4787 6.91162C24.4435 7.33333 24.5249 7.75661 24.714 8.1352C24.8033 8.32656 24.9328 8.49641 25.0937 8.63315C25.2244 8.73887 25.3802 8.80895 25.5461 8.83656L25.6935 8.85893C25.8371 9.39314 26.0921 9.89094 26.4416 10.3197C26.7419 10.6938 27.1181 11.0001 27.5453 11.2182C27.5459 11.5297 27.5184 11.8406 27.463 12.1471C27.4164 12.414 27.4309 12.6524 27.0601 12.7864C27.0354 12.7952 26.8628 12.8519 26.7915 12.8763C26.7915 12.8763 26.6262 14.5913 29.0854 14.5913C31.5446 14.5913 31.8639 12.9735 31.8639 12.9735Z" fill="white"/>
<path d="M26.4416 10.3197C26.0921 9.89102 25.8371 9.39332 25.6935 8.85921L25.546 8.83683C25.3802 8.80922 25.2244 8.73915 25.0937 8.63342C25.0302 8.58071 24.9724 8.52164 24.921 8.45713C24.913 8.46432 24.9048 8.47069 24.8969 8.47842C24.795 8.67965 24.7291 8.89721 24.7024 9.1212C24.6854 9.26337 24.6782 9.40655 24.6807 9.54972C24.6813 9.57892 24.6824 9.60812 24.684 9.63732C24.7009 9.94921 24.7739 10.268 24.7894 10.5794C24.8051 10.9184 24.7168 11.2524 24.3933 11.3622C24.3805 11.3666 24.3779 11.4079 24.3783 11.4185C24.3803 11.4445 24.3893 11.4695 24.4042 11.4909C24.448 11.5512 24.5047 11.6009 24.5701 11.6364C25.0267 11.8925 25.557 11.9852 26.0734 11.8992C26.6149 11.8169 27.0746 11.5549 27.2787 11.2483L27.3496 11.1346C27.3507 11.1271 27.3508 11.1199 27.3517 11.1125C27.0053 10.9021 26.6975 10.6339 26.4416 10.3197Z" fill="#957F6E"/>
<path d="M33.7651 3.92989C33.7506 3.84473 33.7356 3.76595 33.7211 3.69516C33.3199 1.72764 31.3388 0.165851 29.2599 0.279897C27.1818 0.165851 25.2001 1.72764 24.7985 3.69516C24.6957 4.31174 24.6971 4.94119 24.8025 5.55731L25.0015 6.33665C25.1518 6.32726 25.2999 6.37743 25.4136 6.47632C26.2348 5.90677 27.628 4.91684 28.3495 4.29644C28.2901 4.66475 28.0792 5.29098 28.3449 5.2267C29.4538 4.96986 30.5166 4.45198 31.1592 3.64417C31.2884 4.12755 31.4638 4.59738 31.683 5.04716C31.9151 5.44571 32.5895 6.34234 33.1559 6.47632C33.2186 6.42184 33.2923 6.38153 33.372 6.35812C33.4517 6.33472 33.5355 6.32878 33.6177 6.34072C33.6419 6.34438 33.6659 6.34964 33.6895 6.35645C33.9788 5.68818 33.8814 4.60807 33.7651 3.92989Z" fill="#957F6E"/>
<path d="M25.0613 5.50212C24.9718 5.01818 24.958 4.52327 25.0206 4.03512C25.0778 3.53573 25.2416 3.05445 25.5009 2.62386C26.0386 1.71813 26.8908 1.042 27.895 0.724413C28.4033 0.585791 28.9296 0.525386 29.456 0.545276C29.9822 0.54506 30.503 0.650428 30.9877 0.855138C31.9493 1.25883 32.7307 1.99923 33.1856 2.93765C33.4034 3.43422 33.5342 3.96453 33.5722 4.50541C33.631 5.08852 33.6581 5.72587 33.4313 6.27833C33.4127 6.34773 33.4221 6.4217 33.4577 6.48416C33.4932 6.54662 33.552 6.59253 33.6212 6.61193C33.6906 6.62921 33.7639 6.61913 33.826 6.58378C33.8882 6.54843 33.9343 6.49053 33.9549 6.42208C34.1769 5.88073 34.1755 5.25003 34.1312 4.67587C34.1029 4.13172 34.0012 3.59389 33.8291 3.07692C33.4125 1.97076 32.5987 1.05951 31.5465 0.521002C31.0239 0.250564 30.4548 0.08147 29.8693 0.0226465C29.577 -0.000292446 29.2837 -0.00676661 28.9906 0.00325471C28.6912 0.0082173 28.3931 0.043474 28.1008 0.108486C26.9514 0.374901 25.9388 1.05166 25.253 2.01173C24.8773 2.52428 24.625 3.11668 24.5159 3.74275C24.4068 4.37338 24.4144 5.01865 24.5382 5.64654C24.6139 5.98719 25.1371 5.84303 25.0613 5.50239V5.50212Z" fill="#211715"/>
<path d="M30.9136 3.77408C31.0929 4.38581 31.2946 5.0016 31.6717 5.52192C32.019 6.00102 32.4832 6.58305 33.0842 6.73791C33.4225 6.82497 33.5668 6.30193 33.2285 6.21474C33.0011 6.13523 32.797 6.00036 32.6348 5.82229C32.4379 5.62963 32.2592 5.41923 32.101 5.19375C31.7701 4.72482 31.5968 4.1767 31.4365 3.62993C31.3385 3.29566 30.8151 3.43791 30.9136 3.77408Z" fill="#211715"/>
<path d="M30.9781 3.43832C30.5172 3.98942 29.921 4.41129 29.248 4.66258C29.0771 4.73038 28.9035 4.79081 28.7273 4.84388C28.6301 4.87326 28.5322 4.90038 28.4337 4.92525C28.3875 4.93 28.3423 4.94109 28.2991 4.9582C28.2369 4.96724 28.2614 4.9846 28.3728 5.01027C28.3969 5.00697 28.4215 5.0124 28.442 5.02557C28.4625 5.03875 28.4776 5.05881 28.4847 5.08214C28.4825 5.08296 28.4765 5.11374 28.4847 5.06072C28.4889 5.0336 28.4863 5.00525 28.4893 4.97813C28.4951 4.92389 28.507 4.86965 28.5179 4.8154C28.548 4.66624 28.5847 4.51842 28.6102 4.3679C28.6241 4.31064 28.6191 4.25044 28.5959 4.19625C28.5728 4.14206 28.5328 4.09678 28.4819 4.06713C28.431 4.03749 28.3719 4.02506 28.3134 4.03171C28.2548 4.03835 28.2 4.06371 28.157 4.10401C27.2334 4.86485 26.2718 5.57847 25.2761 6.24213C24.9913 6.43984 25.2625 6.91026 25.5499 6.71051C26.5836 6.02073 27.5818 5.27914 28.5407 4.48859L28.0873 4.2247C28.0339 4.53917 27.8663 4.92986 27.9685 5.24786C27.9981 5.33763 28.0611 5.41262 28.1443 5.45738C28.2276 5.50214 28.3248 5.51325 28.416 5.48842C28.642 5.44097 28.8645 5.37794 29.0817 5.29979C29.9445 5.0077 30.7851 4.54297 31.3613 3.82168C31.4102 3.7698 31.4374 3.70121 31.4374 3.62993C31.4374 3.55865 31.4102 3.49006 31.3613 3.43818C31.3102 3.38775 31.2413 3.35948 31.1695 3.35948C31.0977 3.35948 31.0288 3.38775 30.9777 3.43818L30.9781 3.43832Z" fill="#211715"/>
<path d="M24.6622 8.34173C24.4424 8.80804 24.3619 9.32788 24.4303 9.83883C24.4752 10.1082 24.5051 10.3798 24.5197 10.6525C24.5197 10.8034 24.5003 10.9907 24.3618 11.0798C24.265 11.1422 24.1777 11.1653 24.1329 11.284C24.1126 11.3405 24.1054 11.4009 24.1118 11.4606C24.1183 11.5203 24.1382 11.5778 24.1701 11.6287C24.2944 11.8313 24.5428 11.9422 24.7552 12.027C25.2263 12.2053 25.7381 12.2467 26.2317 12.1465C26.7405 12.0672 27.1994 11.7953 27.5132 11.3871C27.7137 11.1005 27.2437 10.8292 27.0448 11.1134C26.8065 11.4536 26.3109 11.6128 25.917 11.6478C25.668 11.6718 25.4169 11.6535 25.1741 11.5936C25.071 11.5687 24.9702 11.5347 24.8731 11.4922C24.8299 11.4725 24.7876 11.4502 24.7464 11.4265C24.7172 11.4098 24.6886 11.3921 24.6607 11.3735C24.6219 11.3295 24.619 11.3346 24.652 11.3888L24.615 11.5258L24.6276 11.4997L24.4649 11.6244C25.0073 11.4163 25.1003 10.8777 25.0405 10.3559C24.9727 9.76981 24.8549 9.17097 25.1299 8.61633C25.2845 8.30444 24.8168 8.02956 24.6615 8.34254L24.6622 8.34173Z" fill="#211715"/>
<path d="M33.3481 6.66807C33.379 6.64393 33.4145 6.62619 33.4523 6.61589C33.4902 6.60559 33.5298 6.60293 33.5687 6.60807C33.6076 6.61321 33.6451 6.62604 33.679 6.64581C33.7129 6.66559 33.7425 6.69192 33.7662 6.72326C33.8144 6.82365 33.8353 6.93497 33.8268 7.04601C33.8314 7.17894 33.8223 7.31199 33.7996 7.44306C33.7135 7.91471 33.4755 8.48127 32.951 8.57538C32.8819 8.59493 32.8233 8.64087 32.7878 8.70329C32.7522 8.7657 32.7427 8.83958 32.7612 8.90898C32.7815 8.97755 32.8276 9.0356 32.8898 9.07099C32.952 9.10637 33.0254 9.11634 33.0948 9.09883C33.9106 8.95264 34.2999 8.03241 34.3613 7.29295C34.3931 6.90999 34.3596 6.47673 34.0288 6.22925C33.8714 6.11613 33.6802 6.06001 33.4866 6.07014C33.293 6.08027 33.1086 6.15605 32.9639 6.28498C32.9136 6.3361 32.8853 6.40498 32.8853 6.47673C32.8853 6.54848 32.9136 6.61736 32.9639 6.66848C33.0155 6.71794 33.0842 6.74556 33.1557 6.74556C33.2271 6.74556 33.2958 6.71794 33.3474 6.66848L33.3481 6.66807Z" fill="#211715"/>
<path d="M32.7461 8.40764C32.7312 8.60691 32.6887 8.80316 32.6199 8.99075C32.6115 9.01665 32.5534 9.1688 32.59 9.08567C32.5719 9.12636 32.5529 9.16704 32.5327 9.20772C32.4094 9.44746 32.2667 9.67676 32.1062 9.89335C31.7369 10.3997 31.2353 10.9366 30.6031 11.0849C30.2641 11.1647 30.4072 11.6878 30.7473 11.608C31.5116 11.4287 32.1042 10.8042 32.5537 10.1955C32.9417 9.67014 33.2616 9.07482 33.2885 8.40764C33.3028 8.05859 32.7597 8.05926 32.7461 8.40764Z" fill="#211715"/>
<path d="M25.6048 6.28457C25.46 6.15571 25.2757 6.07998 25.0821 6.06985C24.8885 6.05972 24.6973 6.11579 24.5399 6.22883C24.2087 6.4755 24.1756 6.91026 24.2074 7.29254C24.2686 8.03187 24.6581 8.95223 25.4739 9.09842C25.5433 9.11555 25.6165 9.10541 25.6786 9.07008C25.7407 9.03475 25.7868 8.97693 25.8075 8.90857C25.826 8.83917 25.8165 8.76529 25.7809 8.70288C25.7454 8.64046 25.6868 8.59452 25.6177 8.57497C25.0931 8.48086 24.8553 7.91416 24.7692 7.44265C24.7479 7.31895 24.7388 7.19345 24.7421 7.06797C24.734 6.95554 24.7517 6.84275 24.7937 6.73817C24.816 6.70404 24.8451 6.67491 24.8792 6.65263C24.9133 6.63035 24.9516 6.61543 24.9918 6.60879C25.032 6.60216 25.0732 6.60397 25.1126 6.6141C25.1521 6.62424 25.189 6.64248 25.221 6.66766C25.2728 6.71679 25.3415 6.74418 25.4128 6.74418C25.4842 6.74418 25.5529 6.71679 25.6046 6.66766C25.655 6.61652 25.6832 6.54765 25.6832 6.47591C25.6832 6.40417 25.655 6.3353 25.6046 6.28416L25.6048 6.28457Z" fill="#211715"/>
<path d="M25.3077 8.37794C25.4302 9.16859 25.7614 9.91226 26.2671 10.5323C26.8077 11.1725 27.5237 11.6333 28.3664 11.7243C28.4382 11.7238 28.5069 11.6951 28.5577 11.6444C28.6084 11.5936 28.6372 11.5249 28.6376 11.4531C28.636 11.3817 28.6069 11.3136 28.5564 11.2631C28.5059 11.2126 28.4378 11.1835 28.3664 11.1819C27.653 11.1049 27.0578 10.6456 26.6153 10.1064C26.1777 9.57331 25.9477 8.90504 25.8304 8.23365C25.8109 8.16453 25.765 8.10586 25.7025 8.07034C25.6401 8.03481 25.5662 8.02528 25.4968 8.0438C25.4283 8.06425 25.3703 8.11037 25.3349 8.17255C25.2995 8.23472 25.2895 8.30816 25.307 8.37753L25.3077 8.37794Z" fill="#211715"/>
<path d="M36.8309 15.6836L35.0981 14.1241L34.8781 15.6206C34.7006 17.0192 34.4516 18.6883 34.1697 20.5824C34.6753 21.2605 35.4656 21.9963 36.2507 21.8811C37.2896 21.7289 37.4746 20.3972 37.5299 19.5655C37.6059 18.4255 37.6638 17.4094 37.4433 16.2343L36.8309 15.6836Z" fill="white"/>
<path d="M32.5217 42.7242C32.8509 45.3414 32.3084 47.9779 31.9829 50.5958C31.7611 52.38 31.7232 54.4217 32.9849 55.7025C33.2553 55.9721 33.3557 56.5877 33.1621 56.8943C32.8687 57.3591 32.208 57.1098 31.7326 56.8931C31.1591 56.6317 30.6102 56.3151 30.0349 56.058C29.6719 55.8953 29.4487 55.7045 29.0337 55.7726C28.6965 55.8279 28.4784 56.035 28.1966 56.2396C27.6271 56.6529 27.0201 57.0435 26.2913 57.0149C25.7606 56.994 25.029 56.4093 25.4235 55.8351C25.574 55.6164 25.8312 55.4978 25.993 55.2643C26.1729 55.0023 26.3187 54.7184 26.427 54.4195C26.8736 53.2088 26.7878 51.8526 26.6314 50.5954C26.3078 47.9778 25.7653 45.3417 26.0943 42.7242" fill="white"/>
<path d="M25.8231 42.7242C25.5872 44.6421 25.8096 46.5692 26.0718 48.4719C26.1948 49.3643 26.3387 50.256 26.4232 51.1531C26.5106 51.8967 26.5058 52.6483 26.4087 53.3906C26.2866 54.1772 26.0009 54.9317 25.4392 55.5106C25.1959 55.7613 25.5792 56.1452 25.8227 55.8942C26.9211 54.7626 27.0948 53.12 27.0025 51.6166C26.9473 50.7237 26.8067 49.8363 26.6823 48.951C26.5477 47.9927 26.4138 47.0337 26.3349 46.0688C26.2313 44.9558 26.2417 43.8351 26.3659 42.7242C26.3655 42.6524 26.3368 42.5837 26.286 42.5329C26.2353 42.4821 26.1665 42.4534 26.0947 42.453C26.0233 42.4547 25.9553 42.4838 25.9048 42.5343C25.8543 42.5848 25.8252 42.6528 25.8235 42.7242H25.8231Z" fill="#211715"/>
<path d="M29.0169 42.6727C29.0162 46.1011 29.0282 49.5301 28.9712 52.9582C28.9547 53.9583 28.9312 54.9583 28.9007 55.958C28.8899 56.3071 29.4323 56.3067 29.4431 55.958C29.553 52.4186 29.5581 48.8783 29.5588 45.3382C29.5588 44.4497 29.5588 43.5612 29.5588 42.6727C29.5588 42.3236 29.0164 42.3231 29.0164 42.6727H29.0169Z" fill="#211715"/>
<path d="M32.2505 42.7242C32.4927 44.6928 32.2528 46.6704 31.9801 48.6231C31.7495 50.2697 31.4128 51.9726 31.7006 53.6342C31.8286 54.4805 32.2095 55.2683 32.7932 55.8944C33.0373 56.1454 33.4201 55.7616 33.1768 55.5107C32.1389 54.4402 32.0629 52.8408 32.1688 51.4357C32.3074 49.5945 32.6932 47.7796 32.8343 45.9373C32.9271 44.8675 32.9132 43.7911 32.7929 42.7241C32.7907 42.6528 32.7615 42.5851 32.7111 42.5347C32.6607 42.4843 32.5929 42.455 32.5217 42.4529C32.4499 42.4533 32.3811 42.482 32.3304 42.5328C32.2796 42.5835 32.2509 42.6524 32.2505 42.7242Z" fill="#211715"/>
<path d="M23.6995 59.1539C23.6846 59.1345 23.6705 59.1143 23.6572 59.0935C23.5766 58.9502 23.5281 58.791 23.5151 58.6271C23.5022 58.4632 23.5251 58.2984 23.5822 58.1442C23.6987 57.8367 23.8633 57.5496 24.0697 57.2936C24.5398 56.6509 25.037 56.0291 25.5614 55.4281C25.7657 55.1938 25.9965 54.9496 26.3019 54.8921C26.2527 55.0761 26.1788 55.5308 26.341 55.6306C26.5032 55.7304 26.7507 55.7303 26.9412 55.7335C27.7754 55.748 28.6669 55.1504 29.1299 54.7326C29.1615 54.7043 29.2203 54.7441 29.2207 54.7893C29.2249 55.3268 29.2701 55.5591 29.2674 56.153C29.2598 56.311 29.2248 56.4666 29.1641 56.6127C29.0318 56.9704 28.6394 57.1429 28.3245 57.3585C27.5053 57.9191 27.0739 58.9419 26.2156 59.4403C25.9052 59.6167 25.5569 59.7154 25.2002 59.7282C24.8435 59.741 24.489 59.6674 24.1668 59.5137C23.9854 59.4314 23.8254 59.3083 23.6995 59.1539Z" fill="#645D5C"/>
<path d="M34.9853 59.1539C35.0002 59.1345 35.0143 59.1143 35.0276 59.0935C35.1082 58.9501 35.1566 58.791 35.1696 58.6271C35.1825 58.4632 35.1597 58.2984 35.1026 58.1442C34.9861 57.8367 34.8215 57.5496 34.6151 57.2936C34.145 56.6509 33.6477 56.0291 33.1234 55.4281C32.9192 55.1938 32.6884 54.9496 32.3828 54.8921C32.4322 55.0761 32.5156 55.5659 32.3533 55.6651C32.1909 55.7642 31.9237 55.7613 31.7331 55.7646C30.9059 55.779 30.0309 55.1554 29.5668 54.7427C29.5309 54.7108 29.4644 54.7349 29.4639 54.7761C29.4577 55.3165 29.3938 55.5084 29.3961 56.1071C29.4108 56.2809 29.4527 56.4512 29.5203 56.612C29.6527 56.9697 30.0451 57.1422 30.3598 57.3578C31.179 57.9184 31.6105 58.9412 32.4689 59.4397C32.7793 59.616 33.1276 59.7147 33.4843 59.7275C33.8409 59.7403 34.1954 59.6667 34.5176 59.513C34.6991 59.431 34.8592 59.3081 34.9853 59.1539Z" fill="#645D5C"/>
<path d="M23.9337 59.0171C23.7125 58.7148 23.7666 58.3327 23.9272 58.0136C24.1415 57.6329 24.3908 57.2729 24.6717 56.9383C24.9458 56.5808 25.2291 56.2307 25.5215 55.8879C25.7537 55.6147 26.0035 55.2357 26.3741 55.1523L26.0405 54.8187C25.97 55.0935 25.9009 55.4774 26.0676 55.7307C26.2817 56.0551 26.865 56.029 27.2025 55.9883C27.998 55.8934 28.7324 55.4477 29.3211 54.9226L29.2013 54.9923L29.2285 54.9828H29.0853L29.115 54.993L28.9952 54.9233L29.0191 54.9473L28.9492 54.8275C28.9661 54.9439 28.9699 55.0617 28.9606 55.1789C28.9663 55.2985 28.9742 55.418 28.9804 55.5376C28.9949 55.808 29.0336 56.1071 28.959 56.3699C28.9246 56.4851 28.8678 56.5924 28.7917 56.6855C28.7156 56.7786 28.6219 56.8557 28.5158 56.9124C28.2932 57.0467 28.0804 57.1968 27.8792 57.3616C27.1211 58.022 26.6567 59.121 25.6145 59.393C25.0434 59.5422 24.2838 59.4437 23.8923 58.9607C23.8412 58.9103 23.7724 58.882 23.7006 58.882C23.6288 58.882 23.5599 58.9103 23.5088 58.9607C23.4595 59.0124 23.4319 59.0811 23.4319 59.1525C23.4319 59.224 23.4595 59.2927 23.5088 59.3443C23.8042 59.7082 24.2937 59.903 24.7473 59.9681C25.2356 60.0404 25.7344 59.9688 26.1826 59.762C26.9801 59.3932 27.4281 58.5996 28.0133 57.9872C28.1543 57.8347 28.3112 57.6978 28.4815 57.5789C28.6496 57.4655 28.8265 57.3668 28.9879 57.2436C29.4029 56.9273 29.5448 56.4771 29.5381 55.9672C29.5355 55.765 29.5245 55.5632 29.513 55.3613C29.5012 55.1535 29.5336 54.9002 29.4776 54.701C29.4617 54.6454 29.4321 54.5947 29.3913 54.5537C29.3506 54.5127 29.3001 54.4826 29.2446 54.4664C29.1813 54.4521 29.1152 54.4551 29.0535 54.4752C28.9917 54.4952 28.9365 54.5315 28.8936 54.5803C28.7522 54.7018 28.6035 54.8146 28.4485 54.9181C28.0359 55.1915 27.5505 55.4405 27.046 55.4606C26.9253 55.4665 26.8043 55.4636 26.6839 55.452C26.6337 55.4452 26.5838 55.4354 26.5348 55.4226C26.4294 55.3983 26.5354 55.3944 26.5258 55.4422C26.5394 55.3728 26.5123 55.2687 26.5205 55.19C26.5296 55.1136 26.5441 55.0379 26.5639 54.9636C26.5757 54.9174 26.5752 54.8691 26.5626 54.8232C26.55 54.7773 26.5257 54.7355 26.4921 54.7018C26.4584 54.6682 26.4166 54.6438 26.3707 54.6312C26.3248 54.6186 26.2764 54.6182 26.2303 54.63C25.7618 54.7353 25.4548 55.1333 25.159 55.4804C24.8159 55.8831 24.4843 56.2951 24.1642 56.7164C23.641 57.4023 22.8254 58.4164 23.4654 59.291C23.5032 59.3516 23.5626 59.3954 23.6316 59.4134C23.7006 59.4315 23.7739 59.4225 23.8365 59.3883C23.8982 59.3516 23.943 59.2921 23.9612 59.2226C23.9794 59.1532 23.9695 59.0794 23.9337 59.0171Z" fill="#211715"/>
<path d="M35.2194 59.2909C35.8597 58.4161 35.0432 57.4022 34.5207 56.7163C34.1998 56.2956 33.8682 55.8836 33.5259 55.4802C33.2304 55.1333 32.9234 54.7352 32.4546 54.6298C32.4084 54.6181 32.3601 54.6185 32.3142 54.6311C32.2683 54.6437 32.2265 54.668 32.1928 54.7017C32.1592 54.7353 32.1348 54.7772 32.1223 54.823C32.1097 54.8689 32.1092 54.9173 32.121 54.9634C32.1638 55.1085 32.1824 55.2597 32.176 55.4109C32.175 55.4344 32.1714 55.4576 32.1652 55.4802C32.1458 55.4715 32.2807 55.4277 32.1764 55.4507C32.0774 55.474 31.9764 55.4876 31.8747 55.4913C31.4277 55.4995 30.9873 55.3827 30.603 55.1542C30.4078 55.045 30.2206 54.9222 30.0427 54.7867C29.8988 54.6776 29.729 54.4592 29.5352 54.458C29.2098 54.4557 29.1971 54.7531 29.1862 54.9964C29.1775 55.1887 29.157 55.3799 29.1429 55.5716C29.1099 56.0239 29.1053 56.5209 29.3725 56.9141C29.6196 57.2771 30.0376 57.4294 30.3653 57.6994C31.0372 58.2546 31.445 59.0626 32.1657 59.568C32.6159 59.8784 33.1571 60.0292 33.703 59.9963C34.2334 59.9639 34.8309 59.7726 35.1767 59.3466C35.2257 59.2948 35.2529 59.2262 35.2529 59.1548C35.2529 59.0835 35.2257 59.0149 35.1767 58.963C35.1256 58.9126 35.0567 58.8844 34.985 58.8844C34.9132 58.8844 34.8443 58.9126 34.7932 58.963C34.4473 59.3891 33.7963 59.5178 33.2754 59.4389C32.733 59.3565 32.31 59.0442 31.9478 58.6485C31.594 58.2619 31.2954 57.8259 30.9147 57.4639C30.7174 57.2813 30.5021 57.1193 30.2721 56.9802C30.0903 56.8663 29.875 56.745 29.7819 56.5407C29.6463 56.2434 29.6609 55.9349 29.6822 55.617C29.6903 55.495 29.7024 55.373 29.7122 55.2509C29.7176 55.1831 29.7225 55.1145 29.7257 55.0461C29.7194 54.9713 29.7228 54.8959 29.7359 54.822L29.6113 54.984L29.6384 54.9669L29.5016 55.004L29.5351 55.0007L29.3982 54.9637C29.4593 55.0022 29.5158 55.0473 29.5669 55.0982C29.6459 55.1615 29.7261 55.2236 29.8076 55.2844C29.9669 55.4029 30.1332 55.5116 30.3057 55.6099C30.6789 55.8321 31.0941 55.9744 31.5251 56.0277C31.8506 56.0606 32.4209 56.0835 32.6235 55.7687C32.7934 55.5049 32.7166 55.1042 32.6436 54.8204L32.31 55.1539C32.6719 55.2353 32.9144 55.5981 33.1417 55.8648C33.4406 56.2159 33.7308 56.5743 34.0124 56.9399C34.2862 57.2679 34.5308 57.6191 34.7436 57.9896C34.912 58.3144 34.9789 58.7059 34.7504 59.0182C34.7146 59.0804 34.7048 59.1542 34.723 59.2236C34.7412 59.2931 34.7859 59.3525 34.8476 59.3892C34.9103 59.4241 34.984 59.4333 35.0533 59.415C35.1227 59.3966 35.1822 59.3522 35.2194 59.2909Z" fill="#211715"/>
<path d="M24.9362 25.3732C24.7477 26.0349 24.4364 27.787 24.2841 28.6497C23.5403 32.8646 24.6593 41.5657 24.6707 42.6217C26.3017 42.7862 32.4794 42.8012 33.8143 42.6119C33.9108 41.5356 34.9198 32.8646 34.176 28.6497C34.0237 27.7871 33.7133 26.0652 33.525 25.4033" fill="#645D5C"/>
<path d="M24.6748 25.3011C24.502 25.9149 24.3934 26.5487 24.2761 27.1752C24.1616 27.7864 24.0395 28.3987 23.9542 29.0147C23.8006 30.2425 23.7353 31.4797 23.7587 32.7168C23.7741 35.2835 23.9787 37.8463 24.2126 40.4007C24.2804 41.1365 24.3897 41.8826 24.3995 42.6224C24.4014 42.6937 24.4306 42.7616 24.4811 42.812C24.5315 42.8625 24.5994 42.8917 24.6707 42.8936C25.8074 43.0067 26.9615 43.0021 28.1024 43.0147C29.5199 43.0296 30.9389 43.0282 32.3557 42.9789C32.8674 42.9705 33.3783 42.9355 33.8864 42.8741C33.9434 42.8578 33.9936 42.8236 34.0294 42.7764C34.0653 42.7293 34.085 42.6718 34.0855 42.6126C34.245 40.8443 34.4333 39.0806 34.5498 37.3085C34.6392 35.9498 34.7028 34.5889 34.7162 33.2267C34.7437 31.9645 34.6921 30.7018 34.5617 29.446C34.4842 28.7768 34.3571 28.1147 34.2341 27.4526C34.1024 26.7441 33.9818 26.0254 33.7866 25.3313C33.6917 24.9958 33.1687 25.1383 33.2636 25.4754C33.4373 26.0924 33.5484 26.7295 33.6669 27.3587C33.7798 27.9576 33.9 28.5575 33.9839 29.1612C34.1314 30.3614 34.1959 31.5703 34.1768 32.7793C34.1742 35.3232 33.9952 37.8668 33.7611 40.3988C33.6933 41.1369 33.6101 41.8737 33.5442 42.6119L33.7434 42.3503C33.6955 42.3571 33.8045 42.3432 33.7539 42.3488C33.7343 42.351 33.7146 42.3536 33.6951 42.3558C33.6514 42.3606 33.6078 42.365 33.5641 42.3693C33.4683 42.3781 33.3725 42.3855 33.2766 42.3918C33.0293 42.4085 32.7815 42.42 32.5337 42.4295C31.8811 42.4548 31.228 42.4661 30.5749 42.4728C29.1497 42.4872 27.7234 42.4801 26.2988 42.4367C25.7564 42.4202 25.2119 42.4044 24.6715 42.3507L24.9427 42.622C24.9347 42.0087 24.8478 41.3909 24.791 40.7811C24.6849 39.6349 24.5841 38.4884 24.5021 37.3403C24.4055 35.9866 24.332 34.6305 24.3085 33.2733C24.2715 32.013 24.3144 30.7516 24.4371 29.4967C24.5073 28.8593 24.6341 28.2179 24.7514 27.5814C24.8828 26.8684 25.002 26.1439 25.1989 25.4456C25.2938 25.109 24.7704 24.9654 24.6759 25.3014L24.6748 25.3011Z" fill="#211715"/>
<path d="M24.9773 25.6444H33.4934C33.8424 25.6444 33.843 25.1019 33.4934 25.1019H24.9773C24.6283 25.1019 24.6277 25.6444 24.9773 25.6444Z" fill="#211715"/>
<path d="M27.274 11.3182C27.2718 11.4275 27.2665 11.5365 27.2574 11.6455C27.2534 11.6949 27.2485 11.7442 27.2429 11.7935C27.2402 11.8181 27.2372 11.8427 27.2341 11.8674C27.2317 11.8865 27.2317 11.887 27.2341 11.869L27.2299 11.8986C27.2081 12.0456 27.1917 12.1988 27.1556 12.3432C27.1522 12.3568 27.1485 12.3703 27.1445 12.3832C27.1404 12.3961 27.1184 12.4322 27.1415 12.3968C27.1712 12.3515 27.1068 12.4486 27.1091 12.4517C27.1049 12.446 27.1552 12.4026 27.1137 12.4438C27.103 12.4544 27.0923 12.465 27.0813 12.4756C27.0394 12.5163 27.1278 12.4505 27.0729 12.4805C27.0569 12.4891 27.0415 12.4992 27.0254 12.5076C27.0093 12.516 26.9782 12.5287 27.0128 12.5152C27 12.5202 26.9876 12.5247 26.9748 12.5287C26.9523 12.5366 26.9295 12.5439 26.907 12.5515C26.8445 12.5723 26.782 12.5929 26.7196 12.614C26.6852 12.6235 26.653 12.6396 26.6248 12.6616C26.5967 12.6835 26.5731 12.7107 26.5555 12.7417C26.5378 12.7727 26.5265 12.8069 26.5221 12.8423C26.5176 12.8778 26.5202 12.9137 26.5297 12.9481C26.5392 12.9825 26.5553 13.0147 26.5772 13.0429C26.5991 13.071 26.6264 13.0946 26.6574 13.1122C26.72 13.1479 26.7943 13.1571 26.8638 13.138C27.0168 13.0951 27.1658 13.0392 27.3094 12.9711C27.4801 12.8775 27.6077 12.7212 27.6652 12.5352C27.7055 12.3834 27.7334 12.2285 27.7487 12.0721C27.7876 11.8225 27.8102 11.5707 27.8165 11.3182C27.8165 11.2462 27.788 11.1773 27.7371 11.1264C27.6862 11.0755 27.6173 11.047 27.5453 11.047C27.4734 11.047 27.4044 11.0755 27.3535 11.1264C27.3027 11.1773 27.274 11.2462 27.274 11.3182Z" fill="#211715"/>
<path d="M30.6282 11.3182C30.639 11.6331 30.6718 11.947 30.7262 12.2574C30.7399 12.4586 30.812 12.6515 30.9337 12.8123C31.0691 12.9425 31.2346 13.0372 31.4155 13.0878C31.541 13.1365 31.6671 13.1843 31.7918 13.2351C31.8613 13.254 31.9353 13.2446 31.9978 13.209C32.0603 13.1734 32.1062 13.1146 32.1254 13.0453C32.1424 12.9759 32.1321 12.9027 32.0968 12.8407C32.0615 12.7787 32.0038 12.7325 31.9356 12.7117C31.8253 12.6668 31.7139 12.6245 31.6029 12.5814C31.5562 12.563 31.5094 12.5447 31.4625 12.5271C31.4517 12.523 31.4409 12.5194 31.4303 12.515C31.4762 12.534 31.4032 12.4993 31.3942 12.4943C31.3789 12.4855 31.3214 12.4372 31.3704 12.4821C31.3568 12.4692 31.3433 12.4556 31.3297 12.4424C31.289 12.4037 31.3542 12.4881 31.3283 12.4405C31.3202 12.4254 31.3115 12.4102 31.3031 12.3953C31.278 12.3505 31.3179 12.4525 31.3022 12.3882C31.2973 12.3686 31.2908 12.3493 31.2862 12.3295C31.268 12.2521 31.259 12.1726 31.2466 12.0941C31.2024 11.8376 31.1771 11.5782 31.1709 11.318C31.1709 11.2461 31.1423 11.1771 31.0915 11.1263C31.0406 11.0754 30.9716 11.0468 30.8997 11.0468C30.8278 11.0468 30.7588 11.0754 30.7079 11.1263C30.657 11.1771 30.6285 11.2461 30.6285 11.318L30.6282 11.3182Z" fill="#211715"/>
<path d="M37.4434 16.2343C37.6639 17.4099 37.6061 18.4255 37.5301 19.5655C37.4747 20.3972 37.2898 21.7289 36.2509 21.8811C35.4654 21.9963 34.6747 21.2602 34.17 20.5809C34.106 21.0109 34.0404 21.4524 33.9734 21.9053C33.924 22.2389 34.1587 24.0072 34.3711 25.5714L34.7089 27.8828L34.7161 27.9322C33.5122 28.0949 32.2971 28.1816 31.1841 28.0814C31.0349 28.0773 30.8883 28.0421 30.7536 27.978C30.6207 27.8885 30.5095 27.7704 30.4282 27.6324C30.1243 27.2007 29.5617 26.0557 29.2508 25.3801L29.2163 25.3258C28.9023 26.1271 28.3743 27.16 28.1314 27.6325C28.059 27.777 27.9458 27.8972 27.806 27.9782C27.6713 28.0423 27.5246 28.0775 27.3755 28.0815C26.2778 28.1797 24.7975 28.0966 23.6252 27.9386L23.6366 27.8746L24.0462 25.5644C24.0734 25.3978 24.2768 24.0932 24.3904 23.3664C23.6862 23.4898 22.6361 23.4786 22.2138 23.1389C21.6258 22.666 21.321 22.1701 21.2998 21.3935C21.2913 21.0274 21.3068 20.6612 21.3463 20.2971C21.5683 18.6753 21.9765 17.0844 22.5631 15.5562L22.8237 14.9843C22.9666 14.6512 23.1766 14.3511 23.4406 14.1029C24.2263 13.5272 25.7514 12.9857 26.8006 12.6017C26.8286 12.6588 26.8479 12.6974 26.8479 12.6974C26.9619 13.0255 28.1032 14.5043 28.5786 15.0749C28.7278 15.2363 28.9719 15.5495 29.1559 15.8026C29.2007 15.7551 29.2271 15.7276 29.2271 15.7276C29.5838 15.3567 31.3367 12.9621 31.5269 12.6388L31.6497 12.4301L31.7155 12.4573C32.7439 12.8903 33.7472 13.3809 34.7204 13.9268C34.9071 14.0098 35.0858 14.1094 35.2546 14.2245L37.4434 16.2343Z" fill="white"/>
<path d="M31.5265 12.6399C31.3366 12.9632 29.5833 15.3578 29.2267 15.7287C29.2267 15.7287 29.1996 15.7558 29.1555 15.8036C28.9709 15.5513 28.7271 15.2373 28.5782 15.076C28.1028 14.5053 26.9615 13.0265 26.8475 12.6985C26.8475 12.6985 26.8293 12.6622 26.7999 12.6036L26.7085 12.6369C25.7531 12.986 24.4499 13.4566 23.6505 13.9621C23.762 14.4367 24.308 18.1328 24.5257 19.6257L24.6695 21.6372L24.3903 23.3651C24.2765 24.0913 24.0724 25.3992 24.0458 25.5653L23.6363 27.8751L23.6249 27.9391C24.7972 28.0971 26.2775 28.1802 27.3753 28.082C27.5244 28.078 27.671 28.0428 27.8057 27.9787C27.9456 27.8977 28.0587 27.7775 28.1311 27.633C28.374 27.1596 28.9041 26.1239 29.2172 25.3207C29.2381 25.3591 29.2502 25.3808 29.2502 25.3808C29.561 26.0563 30.1236 27.2014 30.4275 27.633C30.5088 27.7711 30.62 27.8892 30.753 27.9787C30.8877 28.0428 31.0343 28.078 31.1834 28.082C32.2964 28.1816 33.5115 28.0948 34.7154 27.9329L34.7082 27.8834L34.3711 25.5714C34.1587 24.0065 33.9236 22.2389 33.9733 21.9053C34.3357 19.4596 34.6611 17.3364 34.8781 15.6206L35.0983 14.1248L35.0992 14.1199C34.9771 14.05 34.8488 13.9967 34.7203 13.9268C33.7469 13.3813 32.7436 12.8911 31.7151 12.4585" fill="#645D5C"/>
<path d="M29.1899 24.4893C29.1847 24.5404 29.1891 24.4971 29.1908 24.4872C29.188 24.5041 29.1855 24.5213 29.1818 24.538C29.1738 24.5748 29.1662 24.6116 29.157 24.6482C29.1357 24.7331 29.1101 24.817 29.0827 24.9002C29.016 25.1018 28.9381 25.3001 28.8558 25.4959C28.6734 25.9298 28.4691 26.3555 28.2604 26.7776C28.173 26.9542 28.0845 27.1302 27.9948 27.3056C27.901 27.4894 27.8176 27.698 27.6058 27.7701C27.3506 27.8569 27.0335 27.8379 26.7668 27.8462C26.4596 27.8558 26.1522 27.8548 25.8447 27.8462C25.1317 27.8263 24.4202 27.7706 23.7128 27.6793C23.641 27.6796 23.5722 27.7083 23.5214 27.7591C23.4706 27.8099 23.4419 27.8787 23.4416 27.9505C23.4433 28.0219 23.4725 28.0898 23.523 28.1403C23.5735 28.1908 23.6414 28.2199 23.7128 28.2217C24.3806 28.3074 25.0516 28.3617 25.7259 28.3844C26.0632 28.3956 26.4012 28.398 26.7387 28.3885C27.0504 28.3916 27.3618 28.3664 27.669 28.3131C28.2153 28.1947 28.4148 27.6773 28.6388 27.23C28.8639 26.7802 29.0831 26.3269 29.2826 25.8651C29.4724 25.4273 29.6822 24.968 29.732 24.4883C29.7315 24.4165 29.7028 24.3478 29.652 24.2971C29.6013 24.2463 29.5325 24.2176 29.4607 24.2171C29.3893 24.2187 29.3212 24.2477 29.2707 24.2983C29.2202 24.3488 29.1911 24.4169 29.1895 24.4883L29.1899 24.4893Z" fill="#211715"/>
<path d="M29.0162 25.5177C29.3291 26.2311 29.6844 26.9251 30.0802 27.596C30.1719 27.753 30.2787 27.9007 30.3989 28.0372C30.5784 28.218 30.8182 28.3265 31.0726 28.3419C31.5967 28.3974 32.1243 28.4127 32.6508 28.3877C33.2953 28.3665 33.9375 28.3043 34.5764 28.2221C34.6476 28.2199 34.7153 28.1906 34.7657 28.1402C34.8161 28.0898 34.8454 28.0221 34.8476 27.9509C34.8472 27.8791 34.8185 27.8103 34.7677 27.7596C34.7169 27.7088 34.6482 27.6801 34.5764 27.6797C33.8942 27.7716 33.2077 27.8282 32.5196 27.8491C32.1989 27.8568 31.8779 27.8542 31.5575 27.8373C31.3096 27.8237 30.9638 27.8523 30.7818 27.6539C30.5038 27.3506 30.3199 26.934 30.1325 26.5726C29.9056 26.1351 29.6895 25.6921 29.4841 25.2437C29.4474 25.182 29.3879 25.1372 29.3184 25.119C29.249 25.1007 29.1752 25.1106 29.1129 25.1463C29.0521 25.1838 29.008 25.2432 28.9899 25.3124C28.9718 25.3815 28.981 25.4549 29.0157 25.5174L29.0162 25.5177Z" fill="#211715"/>
<path d="M34.8374 14.0527C34.5683 15.8803 34.3244 17.7111 34.0532 19.5384C33.9413 20.2922 33.8254 21.0455 33.7172 21.7999C33.6604 22.1953 33.7291 22.6085 33.7722 23.0023C33.8807 23.9931 34.0132 24.9822 34.1574 25.9681L34.4477 27.955C34.4671 28.0242 34.513 28.0829 34.5755 28.1184C34.6379 28.154 34.7119 28.1635 34.7813 28.1448C34.8497 28.1243 34.9076 28.0781 34.943 28.016C34.9783 27.9539 34.9884 27.8806 34.9711 27.8112C34.7569 26.3448 34.5372 24.8795 34.3609 23.4078C34.2914 22.9505 34.2504 22.4894 34.2382 22.0271C34.255 21.7673 34.2899 21.509 34.3425 21.2541C34.3975 20.8834 34.4526 20.5132 34.5078 20.1433C34.7009 18.8453 34.8943 17.5473 35.0681 16.2465C35.0896 16.0852 35.1108 15.9239 35.1317 15.7625C35.1358 15.7311 35.1396 15.6996 35.1438 15.6676C35.1377 15.7135 35.14 15.6938 35.1413 15.684C35.1436 15.6674 35.1463 15.6507 35.1488 15.6339C35.1727 15.4704 35.1968 15.307 35.2209 15.1436L35.3603 14.1971C35.3771 14.1278 35.3668 14.0547 35.3315 13.9927C35.2962 13.9307 35.2386 13.8845 35.1705 13.8635C35.1011 13.8449 35.0272 13.8544 34.9647 13.8899C34.9023 13.9255 34.8563 13.9842 34.8369 14.0534L34.8374 14.0527Z" fill="#211715"/>
<path d="M23.0575 15.1217C23.1952 14.8278 23.374 14.4827 23.6442 14.2903C23.9422 14.0883 24.2578 13.9134 24.587 13.7678C25.2995 13.4336 26.0421 13.1676 26.7806 12.8977C27.1061 12.7789 26.9654 12.2545 26.6365 12.3747C25.8375 12.6666 25.0348 12.9568 24.2656 13.3219C23.9276 13.4726 23.6051 13.6561 23.3028 13.8697C22.9816 14.1091 22.7559 14.491 22.5889 14.8479C22.5545 14.9104 22.5455 14.9838 22.5636 15.0528C22.5817 15.1219 22.6255 15.1813 22.6861 15.219C22.7483 15.2548 22.8221 15.2646 22.8915 15.2463C22.961 15.2281 23.0204 15.1834 23.0571 15.1217H23.0575Z" fill="#211715"/>
<path d="M24.1288 23.2925C23.9261 24.5858 23.7164 25.8754 23.4878 27.1643L23.3746 27.8031C23.3575 27.8724 23.3677 27.9457 23.403 28.0077C23.4383 28.0698 23.4961 28.116 23.5644 28.1367C23.6338 28.1552 23.7077 28.1457 23.7701 28.1102C23.8326 28.0746 23.8785 28.016 23.898 27.9468C24.0708 26.9732 24.2506 26.0006 24.404 25.0236C24.4867 24.4946 24.5694 23.9657 24.6523 23.437C24.6692 23.3676 24.6589 23.2945 24.6236 23.2324C24.5883 23.1704 24.5306 23.1242 24.4624 23.1034C24.393 23.0848 24.3191 23.0943 24.2566 23.1298C24.1942 23.1653 24.1483 23.2241 24.1288 23.2932V23.2925Z" fill="#211715"/>
<path d="M23.3894 14.0281C23.5179 14.5822 23.5831 15.1564 23.6698 15.7179C23.8096 16.6229 23.9458 17.5283 24.0786 18.4343C24.1409 18.8552 24.2028 19.2762 24.2642 19.6972C24.2836 19.7664 24.3295 19.8251 24.392 19.8606C24.4544 19.8962 24.5284 19.9057 24.5978 19.887C24.6662 19.8665 24.7241 19.8204 24.7594 19.7582C24.7948 19.6961 24.8049 19.6228 24.7876 19.5534C24.5469 17.9035 24.3084 16.2528 24.0408 14.6069C24.0016 14.3661 23.968 14.1221 23.9128 13.8843C23.834 13.5444 23.3108 13.6883 23.3898 14.0285L23.3894 14.0281Z" fill="#211715"/>
<path d="M28.0435 17.1737C28.0416 17.1468 28.0456 17.1199 28.0551 17.0947C28.0647 17.0696 28.0796 17.0468 28.0989 17.028C28.1181 17.0092 28.1413 16.9948 28.1666 16.9858C28.192 16.9769 28.2191 16.9735 28.2459 16.9761C28.2864 16.9759 28.326 16.9878 28.3597 17.0103C28.3935 17.0328 28.4197 17.0648 28.4351 17.1023C28.4504 17.1398 28.4543 17.181 28.446 17.2207C28.4378 17.2604 28.418 17.2967 28.389 17.325C28.36 17.3533 28.3232 17.3724 28.2833 17.3796C28.2435 17.3869 28.2023 17.3821 28.1652 17.3658C28.1281 17.3496 28.0967 17.3226 28.075 17.2883C28.0533 17.2541 28.0424 17.2142 28.0435 17.1737Z" fill="#211715"/>
<path d="M28.3148 17.1737C28.3149 17.1621 28.3157 17.1506 28.3172 17.1391L28.3074 17.2111C28.3101 17.1925 28.315 17.1743 28.3221 17.1569L28.295 17.2215C28.3013 17.2071 28.3093 17.1934 28.319 17.1809L28.2765 17.2358C28.285 17.2254 28.2945 17.2159 28.305 17.2076L28.2507 17.25C28.2622 17.2415 28.2747 17.2342 28.2878 17.2283L28.2229 17.2554C28.2415 17.2479 28.261 17.2427 28.2809 17.24L28.2087 17.2498C28.2312 17.2469 28.254 17.2469 28.2765 17.2498L28.2044 17.2401C28.2223 17.2425 28.2398 17.2471 28.2566 17.2537L28.1918 17.2266C28.2051 17.2323 28.2178 17.2395 28.2296 17.2481L28.1747 17.2058C28.1868 17.2152 28.1978 17.226 28.2072 17.2381L28.1648 17.1838C28.1739 17.1961 28.1817 17.2093 28.1878 17.2233L28.1607 17.1585C28.1692 17.179 28.1751 17.2006 28.1781 17.2226L28.1683 17.1505C28.1713 17.1719 28.1716 17.1936 28.1692 17.215L28.1789 17.1429C28.1765 17.1609 28.172 17.1785 28.1653 17.1954L28.1924 17.1306C28.186 17.1459 28.1776 17.1604 28.1676 17.1737L28.2101 17.1188C28.201 17.1302 28.1907 17.1407 28.1794 17.1499L28.2337 17.1075C28.2211 17.1172 28.2075 17.1253 28.193 17.1318L28.2578 17.1047C28.2394 17.1122 28.2202 17.1175 28.2006 17.1202L28.2727 17.1105C28.2506 17.1131 28.2282 17.1131 28.2061 17.1105L28.2781 17.1201C28.2608 17.1177 28.2439 17.1132 28.2277 17.1066L28.2925 17.1337C28.2797 17.1281 28.2675 17.1211 28.2563 17.1128L28.3112 17.1551C28.2998 17.1461 28.2894 17.1358 28.2804 17.1243L28.3229 17.1786C28.3127 17.1651 28.3042 17.1503 28.2977 17.1348L28.3248 17.1994C28.3166 17.1794 28.3109 17.1584 28.3078 17.1369L28.3175 17.2091C28.3159 17.1967 28.315 17.1843 28.3149 17.1719C28.314 17.1002 28.2855 17.0315 28.2354 16.9802C28.1846 16.9293 28.1156 16.9008 28.0437 16.9008C27.9718 16.9008 27.9028 16.9293 27.8519 16.9802C27.8019 17.0316 27.7734 17.1002 27.7725 17.1719C27.7736 17.2132 27.7785 17.2544 27.7871 17.2948C27.797 17.3355 27.8116 17.375 27.8308 17.4123C27.8501 17.4508 27.8752 17.4862 27.9051 17.5172C27.912 17.5248 27.9195 17.5317 27.9276 17.5381C27.9522 17.5602 27.9791 17.5797 28.0077 17.5962C28.0693 17.6281 28.1368 17.6468 28.206 17.6514C28.2573 17.6548 28.3088 17.6505 28.3588 17.6388C28.4045 17.629 28.4483 17.6115 28.4882 17.5871C28.5156 17.5699 28.5415 17.5503 28.5656 17.5287C28.574 17.5216 28.5818 17.5138 28.5888 17.5054C28.6459 17.4438 28.6848 17.3676 28.7014 17.2853C28.7101 17.2428 28.7134 17.1993 28.7111 17.1559C28.7089 17.1101 28.7007 17.0648 28.6867 17.0211C28.6653 16.9589 28.6322 16.9013 28.5891 16.8515C28.5824 16.8431 28.575 16.8353 28.567 16.8282C28.5422 16.8057 28.5155 16.7855 28.4872 16.7678C28.458 16.7517 28.4273 16.738 28.3957 16.7271C28.3831 16.7225 28.37 16.7189 28.3568 16.7164C28.3213 16.7093 28.2853 16.7048 28.2491 16.7029C28.2112 16.7035 28.1734 16.7075 28.1362 16.7148C28.1205 16.7168 28.1051 16.7204 28.0902 16.7255C28.0568 16.7365 28.0246 16.7505 27.9938 16.7674C27.9354 16.8029 27.8856 16.851 27.848 16.9082C27.8411 16.9174 27.8351 16.9273 27.8301 16.9377C27.815 16.9678 27.8023 16.9989 27.7919 17.0309C27.786 17.0539 27.7819 17.0773 27.7796 17.1009C27.7758 17.1242 27.7734 17.1478 27.7725 17.1715C27.7733 17.2433 27.8017 17.312 27.8519 17.3634C27.9028 17.4142 27.9718 17.4428 28.0437 17.4428C28.1156 17.4428 28.1846 17.4142 28.2354 17.3634C28.2847 17.3123 28.313 17.2446 28.3148 17.1737Z" fill="#211715"/>
<path d="M28.0435 22.3821C28.0416 22.3552 28.0456 22.3283 28.0551 22.3031C28.0647 22.278 28.0796 22.2552 28.0989 22.2364C28.1181 22.2176 28.1413 22.2032 28.1666 22.1942C28.192 22.1853 28.2191 22.1819 28.2459 22.1845C28.2864 22.1843 28.326 22.1962 28.3597 22.2187C28.3935 22.2412 28.4197 22.2732 28.4351 22.3107C28.4504 22.3482 28.4543 22.3894 28.446 22.4291C28.4378 22.4688 28.418 22.5051 28.389 22.5334C28.36 22.5617 28.3232 22.5807 28.2833 22.588C28.2435 22.5953 28.2023 22.5905 28.1652 22.5742C28.1281 22.5579 28.0967 22.531 28.075 22.4967C28.0533 22.4625 28.0424 22.4226 28.0435 22.3821Z" fill="#211715"/>
<path d="M28.3148 22.3821C28.3149 22.3705 28.3157 22.3589 28.3172 22.3474L28.3074 22.4195C28.3101 22.4009 28.315 22.3827 28.3221 22.3653L28.295 22.4301C28.3012 22.4156 28.3093 22.4019 28.319 22.3894L28.2765 22.4436C28.285 22.4333 28.2945 22.4239 28.305 22.4156L28.2507 22.4579C28.2623 22.4493 28.2747 22.4421 28.2878 22.4363L28.2229 22.4634C28.2415 22.4559 28.261 22.4508 28.2809 22.4481L28.2087 22.4577C28.2312 22.4549 28.254 22.4549 28.2765 22.4577L28.2044 22.4481C28.2222 22.4506 28.2398 22.4551 28.2566 22.4617L28.1918 22.4346C28.2051 22.4403 28.2178 22.4475 28.2296 22.4561L28.1747 22.4137C28.1869 22.423 28.1978 22.4339 28.2072 22.4461L28.1648 22.3912C28.1739 22.4034 28.1817 22.4167 28.1878 22.4308L28.1607 22.3659C28.1692 22.3864 28.1751 22.4079 28.1781 22.4299L28.1683 22.3579C28.1713 22.3793 28.1716 22.401 28.1692 22.4225L28.1789 22.3503C28.1765 22.3683 28.172 22.3859 28.1653 22.4028L28.1924 22.338C28.186 22.3533 28.1776 22.3677 28.1676 22.381L28.2101 22.3267C28.201 22.3382 28.1907 22.3487 28.1794 22.3579L28.2337 22.3155C28.2211 22.3251 28.2074 22.3333 28.193 22.3398L28.2578 22.3126C28.2395 22.3202 28.2202 22.3254 28.2006 22.3281L28.2727 22.3185C28.2506 22.321 28.2283 22.321 28.2061 22.3185L28.2781 22.3281C28.2608 22.3257 28.2439 22.3211 28.2277 22.3145L28.2925 22.3417C28.2797 22.3361 28.2675 22.3291 28.2563 22.3208L28.3112 22.3632C28.2998 22.3542 28.2894 22.3439 28.2804 22.3324L28.3229 22.3874C28.3127 22.3738 28.3042 22.3591 28.2977 22.3434L28.3248 22.4082C28.3166 22.3882 28.3109 22.3672 28.3078 22.3457L28.3175 22.4177C28.3159 22.4055 28.315 22.3931 28.3149 22.3807C28.314 22.309 28.2855 22.2403 28.2354 22.189C28.1846 22.1381 28.1156 22.1096 28.0437 22.1096C27.9718 22.1096 27.9028 22.1381 27.8519 22.189C27.8019 22.2404 27.7734 22.309 27.7725 22.3807C27.7736 22.422 27.7785 22.4631 27.7871 22.5034C27.797 22.5443 27.8116 22.5838 27.8308 22.6211C27.8502 22.6596 27.8752 22.6949 27.9051 22.726C27.912 22.7335 27.9196 22.7405 27.9276 22.7469C27.9522 22.769 27.9791 22.7885 28.0077 22.805C28.0693 22.8369 28.1368 22.8556 28.206 22.8602C28.2573 22.8636 28.3088 22.8593 28.3588 22.8475C28.4046 22.8377 28.4483 22.8203 28.4882 22.7959C28.5156 22.7786 28.5415 22.7591 28.5656 22.7375C28.574 22.7303 28.5817 22.7225 28.5888 22.7142C28.6459 22.6525 28.6848 22.5763 28.7014 22.4939C28.7101 22.4514 28.7134 22.4079 28.7111 22.3646C28.7089 22.3188 28.7007 22.2735 28.6867 22.2298C28.6653 22.1675 28.6321 22.11 28.5891 22.0601C28.5824 22.0518 28.575 22.044 28.567 22.037C28.5423 22.0145 28.5156 21.9943 28.4872 21.9766C28.458 21.9604 28.4274 21.9468 28.3957 21.9359C28.3831 21.9311 28.3701 21.9276 28.3568 21.9252C28.3213 21.918 28.2853 21.9135 28.2491 21.9117C28.2112 21.9123 28.1734 21.9163 28.1362 21.9236C28.1205 21.9256 28.1051 21.9292 28.0902 21.9343C28.0568 21.9452 28.0245 21.9593 27.9938 21.9762C27.9354 22.0117 27.8856 22.0598 27.848 22.1168C27.8411 22.1262 27.8351 22.1361 27.8301 22.1465C27.8151 22.1765 27.8023 22.2076 27.7919 22.2395C27.786 22.2625 27.7819 22.2859 27.7796 22.3095C27.7758 22.333 27.7734 22.3566 27.7725 22.3803C27.7733 22.4521 27.8017 22.5208 27.8519 22.5721C27.9028 22.6229 27.9718 22.6515 28.0437 22.6515C28.1156 22.6515 28.1846 22.6229 28.2354 22.5721C28.2848 22.5209 28.3131 22.4531 28.3148 22.3821Z" fill="#211715"/>
<path d="M28.0435 24.2391C28.0416 24.2122 28.0456 24.1853 28.0551 24.1601C28.0647 24.135 28.0796 24.1122 28.0989 24.0934C28.1181 24.0746 28.1413 24.0602 28.1666 24.0512C28.192 24.0423 28.2191 24.0389 28.2459 24.0415C28.2864 24.0413 28.326 24.0532 28.3597 24.0757C28.3935 24.0982 28.4197 24.1302 28.4351 24.1677C28.4504 24.2052 28.4543 24.2464 28.446 24.2861C28.4378 24.3258 28.418 24.3621 28.389 24.3904C28.36 24.4187 28.3232 24.4378 28.2833 24.445C28.2435 24.4523 28.2023 24.4475 28.1652 24.4312C28.1281 24.415 28.0967 24.388 28.075 24.3537C28.0533 24.3195 28.0424 24.2796 28.0435 24.2391Z" fill="#211715"/>
<path d="M28.3148 24.2391C28.3149 24.2275 28.3157 24.216 28.3172 24.2045L28.3074 24.2765C28.3101 24.2579 28.315 24.2397 28.3221 24.2223L28.295 24.2869C28.3013 24.2725 28.3093 24.2588 28.319 24.2463L28.2765 24.3012C28.285 24.2908 28.2945 24.2813 28.305 24.273L28.2507 24.3154C28.2622 24.3068 28.2747 24.2996 28.2878 24.2937L28.2229 24.3209C28.2415 24.3133 28.261 24.3081 28.2809 24.3054L28.2087 24.3152C28.2312 24.3123 28.254 24.3123 28.2765 24.3152L28.2044 24.3055C28.2223 24.3079 28.2398 24.3125 28.2566 24.3191L28.1918 24.292C28.2051 24.2977 28.2178 24.3049 28.2296 24.3135L28.1747 24.2712C28.1868 24.2806 28.1978 24.2914 28.2072 24.3035L28.1648 24.2492C28.1739 24.2615 28.1817 24.2747 28.1878 24.2887L28.1607 24.2239C28.1692 24.2444 28.1751 24.266 28.1781 24.288L28.1683 24.2159C28.1713 24.2373 28.1716 24.259 28.1692 24.2804L28.1789 24.2083C28.1765 24.2263 28.172 24.2439 28.1653 24.2608L28.1924 24.196C28.186 24.2113 28.1776 24.2258 28.1676 24.2391L28.2101 24.1842C28.201 24.1956 28.1907 24.2061 28.1794 24.2153L28.2337 24.1729C28.2211 24.1826 28.2075 24.1907 28.193 24.1972L28.2578 24.1701C28.2394 24.1776 28.2202 24.1829 28.2006 24.1856L28.2727 24.1759C28.2506 24.1785 28.2282 24.1785 28.2061 24.1759L28.2781 24.1855C28.2608 24.1831 28.2439 24.1786 28.2277 24.172L28.2925 24.1991C28.2797 24.1935 28.2675 24.1865 28.2563 24.1782L28.3112 24.2205C28.2998 24.2115 28.2894 24.2012 28.2804 24.1897L28.3229 24.2446C28.3127 24.2311 28.3042 24.2164 28.2977 24.2008L28.3248 24.2655C28.3166 24.2455 28.3109 24.2245 28.3078 24.203L28.3175 24.2751C28.3159 24.2628 28.315 24.2504 28.3149 24.238C28.314 24.1662 28.2855 24.0976 28.2354 24.0462C28.1846 23.9954 28.1156 23.9668 28.0437 23.9668C27.9718 23.9668 27.9028 23.9954 27.8519 24.0462C27.8019 24.0976 27.7734 24.1663 27.7725 24.238C27.7736 24.2793 27.7785 24.3204 27.7871 24.3609C27.797 24.4016 27.8116 24.4411 27.8308 24.4784C27.8501 24.5169 27.8752 24.5522 27.9051 24.5832C27.912 24.5908 27.9195 24.5978 27.9276 24.6041C27.9522 24.6262 27.9791 24.6457 28.0077 24.6623C28.0693 24.6941 28.1368 24.7129 28.206 24.7175C28.2573 24.7208 28.3088 24.7166 28.3588 24.7049C28.4045 24.695 28.4483 24.6776 28.4882 24.6532C28.5156 24.6359 28.5415 24.6164 28.5656 24.5948C28.574 24.5877 28.5818 24.5799 28.5888 24.5715C28.6459 24.5099 28.6848 24.4337 28.7014 24.3514C28.7101 24.3088 28.7134 24.2654 28.7111 24.222C28.7089 24.1762 28.7007 24.1309 28.6867 24.0872C28.6653 24.0249 28.6322 23.9674 28.5891 23.9176C28.5824 23.9091 28.575 23.9013 28.567 23.8942C28.5422 23.8718 28.5155 23.8516 28.4872 23.8339C28.458 23.8177 28.4273 23.8041 28.3957 23.7932C28.3831 23.7885 28.37 23.785 28.3568 23.7825C28.3213 23.7754 28.2853 23.7709 28.2491 23.7689C28.2112 23.7696 28.1734 23.7736 28.1362 23.7809C28.1205 23.7829 28.1051 23.7865 28.0902 23.7916C28.0568 23.8026 28.0246 23.8166 27.9938 23.8335C27.9354 23.869 27.8856 23.9171 27.848 23.9742C27.8411 23.9835 27.8351 23.9934 27.8301 24.0038C27.815 24.0339 27.8023 24.065 27.7919 24.097C27.786 24.1199 27.7819 24.1433 27.7796 24.1669C27.7758 24.1903 27.7734 24.2139 27.7725 24.2376C27.7733 24.3094 27.8017 24.3781 27.8519 24.4295C27.9028 24.4803 27.9718 24.5089 28.0437 24.5089C28.1156 24.5089 28.1846 24.4803 28.2354 24.4295C28.2848 24.3782 28.3132 24.3103 28.3148 24.2391Z" fill="#211715"/>
<path d="M31.2923 12.503C31.0714 12.8743 30.797 13.2199 30.5432 13.5686C30.1864 14.0582 29.7938 14.5894 29.4433 15.0396C29.312 15.2082 29.1825 15.3819 29.0349 15.5369C28.7942 15.7897 29.1772 16.1743 29.4184 15.9204C29.7438 15.5535 30.0476 15.1682 30.3285 14.7662C30.702 14.269 31.0693 13.767 31.4306 13.2603C31.543 13.1017 31.6611 12.9441 31.7606 12.7768C31.9396 12.4761 31.4709 12.203 31.2923 12.503Z" fill="#211715"/>
<path d="M26.5859 12.7707C26.6602 12.9486 26.7555 13.1171 26.8697 13.2724C27.0334 13.5151 27.2068 13.7514 27.3822 13.9858C27.7193 14.4365 28.0589 14.891 28.4289 15.3148C28.6239 15.5385 28.8038 15.7758 28.9769 16.0169C29.0143 16.0692 29.0518 16.1215 29.0877 16.1748C29.0964 16.191 29.1067 16.2064 29.1184 16.2206C29.159 16.2547 29.0956 16.1728 29.1074 16.1336C29.1059 16.1577 29.1079 16.1819 29.1131 16.2054C29.1274 16.4315 29.1288 16.6589 29.1331 16.8854C29.1696 18.7591 29.1738 20.6336 29.1828 22.5076C29.1859 23.168 29.19 23.8286 29.19 24.4891C29.19 24.8382 29.7324 24.8387 29.7324 24.4891C29.7324 22.9432 29.7209 21.3973 29.7092 19.8514C29.7023 18.9362 29.6956 18.0207 29.6796 17.1057C29.675 16.8363 29.6712 16.5666 29.6598 16.2972C29.6575 16.2414 29.6554 16.1855 29.6494 16.1299C29.6223 15.8831 29.3692 15.636 29.2248 15.4463C28.8401 14.941 28.4212 14.463 28.0359 13.9576C27.8325 13.6905 27.6314 13.4212 27.4393 13.1459C27.3637 13.0374 27.2892 12.9289 27.219 12.8164C27.1919 12.7739 27.1662 12.7311 27.1419 12.6871C27.1321 12.6694 27.1233 12.6509 27.1131 12.6329C27.0749 12.5668 27.1213 12.6593 27.1091 12.6262C26.9891 12.3017 26.4645 12.4421 26.586 12.7705L26.5859 12.7707Z" fill="#211715"/>
<path d="M31.6431 12.7199C32.2533 12.9739 32.8533 13.2546 33.4425 13.5555C33.7188 13.6967 33.9932 13.8419 34.2664 13.9895C34.5615 14.1244 34.8461 14.2814 35.1176 14.459C35.1799 14.4948 35.2537 14.5047 35.3232 14.4865C35.3927 14.4683 35.4522 14.4234 35.4888 14.3616C35.5233 14.2991 35.5325 14.2257 35.5144 14.1566C35.4963 14.0875 35.4522 14.028 35.3914 13.9906C35.1198 13.813 34.8353 13.6561 34.5402 13.5211C34.25 13.3649 33.9586 13.2108 33.6649 13.0615C33.0501 12.749 32.4242 12.4609 31.7872 12.1972C31.7178 12.1785 31.6439 12.188 31.5814 12.2235C31.519 12.2591 31.473 12.3178 31.4537 12.387C31.4363 12.4564 31.4464 12.5298 31.4818 12.5919C31.5171 12.654 31.575 12.7002 31.6435 12.7208L31.6431 12.7199Z" fill="#211715"/>
<path d="M37.1819 16.3065C37.2975 16.9689 37.3448 17.6414 37.3231 18.3135C37.3176 18.8824 37.2822 19.4506 37.2171 20.0159C37.1273 20.7094 36.8246 21.782 35.9068 21.6063C35.2815 21.4864 34.7691 20.9314 34.4032 20.4455C34.3654 20.385 34.3059 20.3413 34.2369 20.3233C34.1679 20.3052 34.0947 20.3141 34.0321 20.3482C33.9704 20.3849 33.9256 20.4444 33.9074 20.5138C33.8892 20.5832 33.899 20.657 33.9348 20.7193C34.3417 21.2601 34.8342 21.7809 35.4736 22.0395C35.7338 22.1524 36.0209 22.1882 36.3009 22.1428C36.5808 22.0974 36.8419 21.9727 37.0531 21.7834C37.4142 21.449 37.5919 20.9472 37.6872 20.4764C37.7853 19.9044 37.8397 19.3258 37.8499 18.7456C37.9005 17.882 37.8518 17.0155 37.7048 16.163C37.6419 15.8201 37.119 15.9653 37.1818 16.3072L37.1819 16.3065Z" fill="#211715"/>
<path d="M29.9896 20.3211C30.21 20.1232 30.4681 19.9719 30.7485 19.8764C31.0288 19.7808 31.3256 19.743 31.621 19.7651H31.6389C32.5226 19.9338 32.8719 19.6274 33.3782 19.4683C33.7071 19.365 34.1647 19.1583 34.4736 19.028C34.9211 18.8388 35.77 18.1879 35.1431 17.85C34.9615 17.7839 34.6226 17.7228 34.4392 17.7849C34.3564 17.7601 34.272 17.7414 34.1865 17.7287C33.822 17.7369 33.4195 17.8714 33.0683 17.9487C32.8989 18.0029 32.7248 18.0412 32.5483 18.0633C32.4795 18.0664 32.3061 18.0687 32.0953 18.0711C32.1703 18.0292 32.2147 18.0047 32.2147 18.0047C32.2883 17.9495 32.34 17.87 32.3605 17.7802C32.381 17.6905 32.3689 17.5964 32.3265 17.5147C32.2199 17.3687 31.7705 17.333 31.5768 17.3197C31.2075 17.2944 30.4377 17.2432 29.9796 17.4538C29.7568 17.5562 29.5744 17.798 29.4433 17.9659C29.3121 18.1338 29.1461 18.2607 28.9922 18.4359L28.4956 18.904L29.1716 20.8206L29.9896 20.3211Z" fill="white"/>
<path d="M29.1841 18.6279C29.3299 18.4668 29.4981 18.327 29.635 18.1579C29.7349 18.0191 29.8488 17.891 29.9751 17.7758C30.2204 17.5766 30.6092 17.5724 30.9096 17.5673C31.1874 17.5637 31.4652 17.5762 31.7415 17.6048C31.8599 17.6167 31.9924 17.6745 32.1012 17.6799C32.1387 17.6818 32.1208 17.7148 32.105 17.664C32.0827 17.5919 32.0952 17.6819 32.0994 17.6718C32.0887 17.697 32.1075 17.751 32.0778 17.7708C31.7889 17.9636 32.0602 18.4336 32.3516 18.2391C32.7068 18.0021 32.7675 17.3993 32.3447 17.1973C32.014 17.0394 31.5962 17.0432 31.2359 17.0294C30.7873 17.0122 30.299 17.0184 29.8817 17.203C29.6654 17.3116 29.4784 17.4706 29.3363 17.6665C29.1698 17.8733 28.9781 18.0481 28.8005 18.2444C28.5667 18.5021 28.9497 18.8875 29.1841 18.6279Z" fill="#211715"/>
<path d="M30.1814 20.5129C30.3788 20.3424 30.608 20.2127 30.8557 20.131C31.1034 20.0493 31.3648 20.0174 31.6249 20.037C31.9235 20.0813 32.2268 20.0848 32.5264 20.0473C32.7374 20.0024 32.943 19.9351 33.1396 19.8465C33.6427 19.6402 34.1584 19.4714 34.6538 19.2432C35.0305 19.0696 35.5111 18.7344 35.6174 18.3075C35.7859 17.6303 34.867 17.3824 34.367 17.524H34.512C34.4306 17.5117 34.3549 17.4774 34.2724 17.4662C34.1758 17.4565 34.0783 17.4592 33.9824 17.4745C33.7665 17.5038 33.5526 17.5467 33.3421 17.6031C33.0408 17.7024 32.7292 17.7671 32.4133 17.7961C31.9251 17.8052 31.4352 17.7983 30.9469 17.8181C30.599 17.8316 30.5973 18.3741 30.9469 18.3605C31.4708 18.3392 31.9962 18.3589 32.5199 18.3361C32.7305 18.3149 32.9385 18.2729 33.1408 18.2108C33.3753 18.154 33.6087 18.0888 33.8453 18.0421C33.9387 18.0212 34.0337 18.0081 34.1293 18.0028C34.2101 18.0087 34.29 18.0235 34.3675 18.047C34.4612 18.0498 34.555 18.0444 34.6477 18.0309C34.7364 18.0326 34.8246 18.0442 34.9108 18.0653C34.9716 18.0735 35.0294 18.0968 35.0789 18.1331C35.1118 18.1612 35.1034 18.1642 35.0916 18.1408C35.1137 18.1846 35.0948 18.168 35.0954 18.1507C35.0943 18.1834 35.0953 18.1857 35.0604 18.2432C35.0199 18.3071 34.9711 18.3652 34.9153 18.4161C34.6947 18.6117 34.4401 18.765 34.1641 18.8685C33.8122 19.0197 33.4527 19.1426 33.0972 19.2829C32.8391 19.4066 32.5646 19.4923 32.282 19.5374C32.061 19.5412 31.8401 19.5267 31.6215 19.4941C31.3838 19.4816 31.1454 19.5012 30.913 19.5524C30.499 19.6486 30.1158 19.8471 29.7984 20.1298C29.5306 20.3545 29.916 20.7365 30.1819 20.5134L30.1814 20.5129Z" fill="#211715"/>
<path d="M32.3002 18.98C33.0507 18.868 33.7922 18.7025 34.519 18.4846C34.5876 18.4641 34.6456 18.418 34.681 18.3558C34.7163 18.2937 34.7263 18.2202 34.7089 18.1509C34.6892 18.0818 34.6433 18.0233 34.5809 17.9878C34.5185 17.9523 34.4447 17.9427 34.3753 17.961C33.6485 18.179 32.907 18.3446 32.1565 18.4565C32.0874 18.4761 32.0287 18.522 31.9932 18.5844C31.9577 18.6468 31.9482 18.7207 31.9666 18.7901C31.987 18.8587 32.0331 18.9167 32.0953 18.9521C32.1575 18.9875 32.2309 18.9974 32.3002 18.98Z" fill="#211715"/>
<path d="M21.3459 20.2977C21.3064 20.6617 21.2909 21.028 21.2994 21.394C21.3206 22.1707 21.6249 22.6666 22.2134 23.1394C22.7379 23.5614 24.2314 23.4766 24.8276 23.2565C26.4892 22.6435 29.0969 21.3489 30.2868 20.5873C30.0698 20.3146 28.9495 18.1213 28.768 17.9104C27.8751 18.2374 25.5874 19.2882 24.4452 19.669" fill="white"/>
<path d="M22.658 14.6938C22.0776 15.8318 21.7199 17.088 21.4322 18.3281C21.3127 18.8434 21.2064 19.3626 21.1288 19.8858C21.016 20.5071 20.9936 21.1414 21.0624 21.7691C21.1649 22.3768 21.4934 22.9232 21.9819 23.2989C22.4064 23.6472 22.9839 23.7082 23.5159 23.7101C24.0335 23.7223 24.549 23.6398 25.037 23.4667C25.6278 23.2425 26.2084 22.9905 26.7831 22.7279C28.0391 22.1772 29.2555 21.5402 30.4236 20.8215C30.4585 20.7999 30.4883 20.7707 30.5105 20.7361C30.5328 20.7015 30.5471 20.6624 30.5524 20.6216C30.5576 20.5808 30.5537 20.5393 30.5409 20.5002C30.5282 20.4611 30.5068 20.4254 30.4785 20.3956C30.5456 20.4822 30.4736 20.3832 30.4592 20.361C30.4335 20.3203 30.4091 20.2796 30.3848 20.2389C30.3235 20.1356 30.2646 20.0311 30.2061 19.9262C30.0447 19.6374 29.8877 19.3462 29.7299 19.0554C29.5793 18.7772 29.429 18.4994 29.2742 18.2229C29.1847 18.0456 29.0792 17.8768 28.959 17.7187C28.9256 17.684 28.8834 17.6592 28.8368 17.6469C28.7903 17.6346 28.7413 17.6354 28.6951 17.649C27.2356 18.1865 25.8485 18.912 24.3724 19.4074C24.0431 19.5179 24.1843 20.0419 24.5165 19.9304C25.9928 19.4351 27.3797 18.71 28.8393 18.172L28.5754 18.1023C28.5355 18.0544 28.5599 18.0798 28.5876 18.1243C28.6109 18.1617 28.6342 18.199 28.6568 18.2368C28.7156 18.3356 28.7719 18.4358 28.828 18.5361C28.9872 18.8209 29.1422 19.1089 29.2979 19.3961C29.5476 19.8565 29.7725 20.3634 30.0949 20.7793L30.1498 20.3533C29.183 20.9495 28.1807 21.4863 27.1485 21.9606C26.5906 22.2271 26.0276 22.4841 25.456 22.72C25.0085 22.9046 24.5712 23.0861 24.0864 23.1382C23.5967 23.1906 23.0367 23.212 22.5688 23.0307C22.3603 22.9295 22.1771 22.7829 22.0326 22.6018C21.8587 22.4135 21.7292 22.1886 21.6539 21.9437C21.5809 21.6579 21.5524 21.3625 21.5694 21.068C21.5737 20.7571 21.596 20.4466 21.6361 20.1382C21.6879 19.7438 21.7888 19.2247 21.8837 18.7896C22.167 17.4901 22.5195 16.1577 23.1263 14.9678C23.2845 14.6574 22.8168 14.3826 22.6579 14.694L22.658 14.6938Z" fill="#211715"/>
<path d="M36.8519 15.2538C36.9208 14.7646 37.557 13.3871 37.557 13.3871C37.6613 13.1851 37.7911 12.9659 38.01 12.9045C38.0728 12.8869 38.1388 12.884 38.2029 12.8961C38.267 12.9082 38.3274 12.9349 38.3795 12.9742C38.4316 13.0135 38.4739 13.0642 38.5031 13.1226C38.5323 13.1809 38.5476 13.2451 38.5479 13.3104C38.5395 13.4375 38.5003 13.5608 38.4337 13.6695C38.3644 13.8015 38.2894 13.9304 38.2086 14.0559C38.273 14.032 38.343 14.0274 38.4099 14.0428C38.4768 14.0582 38.5378 14.0928 38.5852 14.1425C38.6614 14.2274 38.7056 14.3363 38.7102 14.4503C38.7138 14.502 38.7114 14.554 38.7032 14.6051C38.6689 14.7668 38.6101 14.9223 38.5288 15.0662L38.3489 15.4258C38.3066 15.5302 38.2403 15.6231 38.1555 15.6971C38.1555 15.6971 38.1522 15.6995 38.1463 15.7036C38.2086 15.7213 38.2635 15.7588 38.3027 15.8104C38.3491 15.8802 38.3761 15.961 38.381 16.0446C38.3814 16.1473 38.3462 16.2471 38.2815 16.3268C38.1556 16.4803 38.0197 16.6253 37.8746 16.7608C37.8295 16.7998 37.7765 16.8286 37.7192 16.8451C37.6619 16.8617 37.6016 16.8656 37.5427 16.8565C37.4974 16.8446 37.4552 16.8233 37.4187 16.7941C37.4187 16.7941 36.6862 16.4307 36.8519 15.2538Z" fill="white"/>
<path d="M37.7911 13.524C37.8352 13.4313 37.889 13.3437 37.9517 13.2625C37.9679 13.2444 37.985 13.227 38.0029 13.2103C38.0418 13.174 37.9998 13.2111 38.0403 13.1841C38.0693 13.1652 38.1039 13.1569 38.1383 13.1608C38.1099 13.1582 38.1703 13.1677 38.1777 13.1703C38.1899 13.1754 38.2018 13.1811 38.2134 13.1874C38.2101 13.1848 38.2454 13.2184 38.2528 13.2281C38.2303 13.2009 38.2709 13.2687 38.2588 13.2367C38.2773 13.2681 38.2832 13.3054 38.2752 13.341C38.2658 13.392 38.2482 13.4412 38.2231 13.4867C37.9849 13.9583 37.6694 14.3867 37.2895 14.754C37.0396 14.9981 37.4232 15.382 37.673 15.1375C37.9264 14.889 38.1551 14.6165 38.3559 14.3239C38.4567 14.1776 38.5496 14.026 38.6343 13.8699C38.7372 13.7063 38.8003 13.5208 38.8185 13.3284C38.8196 13.2333 38.8013 13.139 38.7648 13.0513C38.7283 12.9635 38.6744 12.884 38.6062 12.8178C38.538 12.7515 38.457 12.6999 38.3682 12.6659C38.2794 12.632 38.1846 12.6165 38.0896 12.6204C37.7127 12.6426 37.4835 12.9422 37.3227 13.251C37.288 13.3135 37.2787 13.3869 37.2968 13.4561C37.3149 13.5252 37.359 13.5847 37.4199 13.6221C37.4823 13.6577 37.556 13.6674 37.6254 13.6492C37.6948 13.631 37.7543 13.5863 37.7911 13.5248V13.524Z" fill="#211715"/>
<path d="M38.0366 15.9546C38.0469 15.9566 38.057 15.9592 38.0672 15.9622C38.0943 15.9717 38.0884 15.9684 38.0497 15.9527C38.0641 15.9622 38.0794 15.9704 38.0953 15.9772C38.1191 15.9938 38.1143 15.9898 38.0804 15.9656C38.0957 15.982 38.0957 15.9807 38.0804 15.9619C38.0553 15.9176 38.0926 15.989 38.0969 15.9961C38.1263 16.0484 38.0846 15.9448 38.0993 16.0035C38.1034 16.0159 38.1069 16.0284 38.1099 16.041C38.1158 16.0713 38.1155 16.066 38.1091 16.0254C38.1134 16.026 38.1068 16.0782 38.1091 16.0796C38.1159 16.037 38.1167 16.0307 38.1114 16.0608L38.1073 16.0784C38.1045 16.0902 38.1011 16.1018 38.0973 16.1134C38.0871 16.1405 38.0896 16.1364 38.1045 16.0998C38.0944 16.1148 38.0857 16.1307 38.0786 16.1473C38.0504 16.1978 38.1069 16.1165 38.0848 16.1414C38.0795 16.1474 38.0745 16.1536 38.0694 16.1597C38.0368 16.198 38.0038 16.236 37.9704 16.2737C37.8919 16.3664 37.8083 16.4547 37.7199 16.5381C37.7118 16.5453 37.7027 16.5516 37.6951 16.5595C37.761 16.4932 37.7335 16.5308 37.7059 16.5491C37.6979 16.5544 37.6482 16.5915 37.64 16.5873L37.6706 16.5751C37.6592 16.5797 37.6475 16.5838 37.6357 16.5873C37.5679 16.6074 37.6357 16.5903 37.6357 16.5914C37.6234 16.5924 37.611 16.5928 37.5987 16.5925C37.5686 16.5903 37.5738 16.5912 37.6143 16.5953C37.6075 16.5938 37.6008 16.5919 37.5942 16.5895C37.5753 16.583 37.5844 16.587 37.6213 16.6017C37.6112 16.5968 37.6013 16.5915 37.5915 16.5858C37.5665 16.5697 37.5727 16.5753 37.6099 16.6026C37.5579 16.5536 37.4897 16.5253 37.4182 16.5232C37.3646 16.5232 37.3121 16.5391 37.2675 16.5689C37.223 16.5987 37.1882 16.6411 37.1677 16.6906C37.1472 16.7402 37.1418 16.7947 37.1522 16.8473C37.1627 16.8999 37.1885 16.9482 37.2264 16.9861C37.3232 17.0694 37.4434 17.1206 37.5705 17.1326C37.6865 17.139 37.8021 17.1138 37.9049 17.0596C38.0284 16.9926 38.1381 16.903 38.2284 16.7953C38.4297 16.5801 38.6791 16.3381 38.6503 16.017C38.6456 15.8819 38.5973 15.752 38.5126 15.6467C38.428 15.5414 38.3116 15.4662 38.1807 15.4325C38.1113 15.4134 38.0372 15.4226 37.9747 15.4581C37.9121 15.4936 37.8662 15.5526 37.8471 15.6219C37.828 15.6913 37.8372 15.7654 37.8727 15.828C37.9083 15.8905 37.9672 15.9364 38.0366 15.9555V15.9546Z" fill="#211715"/>
<path d="M38.9813 14.4503C38.9776 14.3359 38.9479 14.2238 38.8945 14.1226C38.8411 14.0214 38.7654 13.9336 38.6731 13.866C38.5906 13.8106 38.4958 13.7762 38.397 13.7659C38.2982 13.7555 38.1984 13.7695 38.1062 13.8066C37.7798 13.9443 37.6723 14.3238 37.5409 14.6202C37.3939 14.9518 37.1526 15.3613 37.3821 15.7102C37.4396 15.8048 37.5195 15.8838 37.6147 15.9403C37.7099 15.9969 37.8175 16.0292 37.928 16.0344C38.0391 16.035 38.1486 16.0075 38.2462 15.9544C38.3438 15.9014 38.4265 15.8246 38.4865 15.7311C38.5991 15.5494 38.698 15.3596 38.7824 15.1632C38.9086 14.9463 38.9771 14.7006 38.9813 14.4496C38.9813 14.3777 38.9527 14.3087 38.9019 14.2578C38.851 14.207 38.782 14.1784 38.7101 14.1784C38.6382 14.1784 38.5692 14.207 38.5183 14.2578C38.4675 14.3087 38.4389 14.3777 38.4389 14.4496C38.4388 14.5701 38.4114 14.689 38.3586 14.7973C38.2946 14.9348 38.2239 15.0695 38.156 15.2052C38.1267 15.2638 38.0986 15.3233 38.0664 15.3806C38.0608 15.3906 38.0095 15.4675 38.0372 15.4332C38.0292 15.4431 38.0204 15.4524 38.0114 15.4616C37.9957 15.4776 37.9823 15.5053 37.9979 15.4752C37.9944 15.4817 37.9468 15.4988 37.9979 15.4795C37.9872 15.4836 37.9733 15.4851 37.9633 15.4901C37.9308 15.5065 38.0005 15.4931 37.9633 15.4915C37.9513 15.4906 37.9392 15.4906 37.9271 15.4915C37.9184 15.5012 38.0039 15.4825 37.9271 15.4915C37.9249 15.4939 37.8687 15.471 37.9237 15.495C37.913 15.4904 37.9027 15.4814 37.892 15.4776C37.8676 15.4688 37.9133 15.504 37.8819 15.4705C37.8716 15.4593 37.8601 15.4469 37.8493 15.4367C37.8527 15.4399 37.8714 15.4714 37.8558 15.4456C37.8422 15.4229 37.8286 15.4009 37.8162 15.3778C37.8479 15.4399 37.8139 15.3115 37.822 15.3995C37.8198 15.3759 37.8295 15.3887 37.8208 15.3949C37.8181 15.4176 37.8197 15.4125 37.8255 15.3795L37.832 15.3515C37.8471 15.2903 37.8658 15.23 37.8879 15.1709C37.8917 15.1609 37.9286 15.0725 37.9091 15.1167C37.9226 15.0849 37.9362 15.0536 37.951 15.0217C38.0451 14.8126 38.1361 14.6023 38.2325 14.3944C38.2349 14.3889 38.2596 14.3537 38.2361 14.3842C38.2476 14.37 38.2599 14.3564 38.2729 14.3436C38.2852 14.3308 38.2987 14.3192 38.3111 14.3065C38.3492 14.268 38.2955 14.3166 38.3183 14.3018C38.3411 14.287 38.3048 14.3074 38.3012 14.308C38.3114 14.3064 38.3613 14.303 38.3267 14.3006C38.2884 14.2979 38.3342 14.3027 38.3435 14.3037C38.3825 14.3076 38.279 14.2886 38.3456 14.306C38.3505 14.3072 38.3863 14.3166 38.3541 14.306C38.3189 14.295 38.3723 14.317 38.38 14.3211C38.4 14.3312 38.4013 14.3495 38.3768 14.3178C38.3864 14.3301 38.3997 14.3398 38.4095 14.3524C38.383 14.3181 38.4084 14.3551 38.4109 14.3613C38.4298 14.4063 38.4109 14.3512 38.4199 14.3795C38.4238 14.392 38.4278 14.4045 38.431 14.4171C38.4325 14.4233 38.4425 14.5011 38.4377 14.4489C38.4391 14.5204 38.4682 14.5885 38.5187 14.6391C38.5693 14.6896 38.6374 14.7187 38.7089 14.7201C38.7805 14.7197 38.8492 14.6912 38.9001 14.6408C38.951 14.5903 38.9802 14.5219 38.9813 14.4503Z" fill="#211715"/>
<path d="M33.7134 15.9881C34.0117 14.5536 34.5436 11.9578 34.8465 10.5048C34.8592 10.4439 34.8837 10.3861 34.9187 10.3347C34.9537 10.2833 34.9986 10.2394 35.0506 10.2053C35.1027 10.1713 35.161 10.1479 35.2221 10.1365C35.2832 10.125 35.346 10.1258 35.4068 10.1387C36.2275 10.3118 37.3369 10.5463 38.0445 10.6957C38.1672 10.7215 38.2745 10.795 38.343 10.8999C38.4115 11.0049 38.4355 11.1327 38.4097 11.2554C38.0665 12.8984 37.5747 15.2539 37.266 16.7228C37.2405 16.8454 37.1673 16.9528 37.0625 17.0215C36.9578 17.0901 36.8301 17.1144 36.7075 17.0889C35.9711 16.9365 34.8156 16.7001 34.0803 16.5479C34.0194 16.5353 33.9616 16.5108 33.9102 16.4759C33.8588 16.4409 33.8147 16.3962 33.7806 16.3441C33.7465 16.2921 33.7231 16.2339 33.7115 16.1728C33.7 16.1117 33.7006 16.0489 33.7134 15.9881Z" fill="white"/>
<path d="M33.975 16.0608C34.2127 14.9195 34.4484 13.7779 34.6822 12.636C34.7997 12.0664 34.9172 11.4974 35.0347 10.9288C35.0684 10.7668 35.0655 10.442 35.2725 10.4017C35.4049 10.4018 35.5363 10.4247 35.661 10.4695L36.1709 10.5772L37.1563 10.7856L37.5881 10.8769C37.7341 10.8962 37.8782 10.9275 38.0191 10.9703C38.2598 11.0665 38.0951 11.4374 38.0585 11.6126C37.9941 11.9211 37.9297 12.2296 37.8651 12.538C37.6012 13.8021 37.3367 15.066 37.0718 16.3298C37.0612 16.471 37.0267 16.6094 36.9699 16.7391C36.8913 16.8565 36.7673 16.8249 36.6505 16.8008C36.318 16.732 35.9854 16.6635 35.6526 16.5953L34.6077 16.3804C34.4355 16.3449 33.9305 16.3397 33.975 16.0608C33.9919 15.9914 33.9815 15.9182 33.9462 15.8562C33.9109 15.7941 33.8532 15.7479 33.785 15.727C33.7156 15.7085 33.6417 15.718 33.5793 15.7536C33.5169 15.7891 33.4709 15.8478 33.4514 15.9169C33.4139 16.0936 33.4406 16.2779 33.5267 16.4367C33.6129 16.5955 33.7528 16.7184 33.9214 16.7833C34.2319 16.8748 34.5488 16.943 34.8694 16.9875L35.9535 17.2103L36.416 17.3052C36.594 17.3603 36.7818 17.3761 36.9665 17.3516C37.3474 17.2649 37.4938 16.9535 37.5668 16.6058C37.6343 16.2842 37.7018 15.9627 37.7691 15.6413C37.9228 14.9079 38.0762 14.1744 38.2294 13.4408C38.3749 12.7448 38.5322 12.0499 38.6659 11.3514C38.7096 11.1731 38.6872 10.9849 38.6029 10.8218C38.5186 10.6587 38.378 10.5317 38.2073 10.4643C37.893 10.3695 37.572 10.2984 37.247 10.2518L36.0967 10.0087C35.78 9.94189 35.3932 9.79015 35.0734 9.89687C34.714 10.0169 34.6065 10.3274 34.5365 10.6637C34.4761 10.9545 34.4159 11.2452 34.3559 11.5358C34.0542 12.996 33.7527 14.4565 33.4514 15.9169C33.3809 16.2572 33.9036 16.4028 33.975 16.0608Z" fill="#211715"/>
<path d="M36.2416 11.1495C36.4179 11.1766 36.7899 11.2567 36.9305 11.2768L36.2416 11.1495Z" fill="white"/>
<path d="M36.1696 11.4109C36.4002 11.4465 36.6273 11.5048 36.8584 11.5383C36.9291 11.555 37.0034 11.5453 37.0675 11.5111C37.0983 11.4932 37.1252 11.4693 37.1467 11.4409C37.1682 11.4125 37.184 11.3802 37.193 11.3457C37.202 11.3112 37.2042 11.2753 37.1993 11.24C37.1945 11.2047 37.1827 11.1707 37.1647 11.14C37.1475 11.1094 37.1242 11.0826 37.0964 11.0612C37.0685 11.0397 37.0367 11.0242 37.0027 11.0154C36.7721 10.9819 36.5446 10.9236 36.3138 10.888C36.2432 10.8711 36.1688 10.8808 36.1048 10.9151C36.0741 10.9331 36.0471 10.957 36.0256 10.9853C36.0041 11.0137 35.9883 11.046 35.9793 11.0805C35.9702 11.1149 35.9681 11.1508 35.9729 11.1861C35.9777 11.2214 35.9895 11.2554 36.0074 11.2862C36.0248 11.3168 36.0482 11.3436 36.0761 11.365C36.1041 11.3864 36.1361 11.402 36.1702 11.4108L36.1696 11.4109Z" fill="#211715"/>
<path d="M34.7572 15.8766C34.9379 15.9067 36.0617 16.1333 36.2575 16.1749L34.7572 15.8766Z" fill="white"/>
<path d="M34.685 16.1382C35.1868 16.2228 35.6874 16.3306 36.1854 16.4365C36.2197 16.446 36.2556 16.4486 36.291 16.4442C36.3263 16.4398 36.3605 16.4285 36.3914 16.4109C36.4224 16.3934 36.4496 16.3698 36.4715 16.3417C36.4934 16.3136 36.5096 16.2815 36.519 16.2471C36.5285 16.2128 36.5311 16.1769 36.5267 16.1416C36.5224 16.1062 36.511 16.0721 36.4935 16.0411C36.4759 16.0101 36.4524 15.9829 36.4243 15.961C36.3962 15.9391 36.364 15.923 36.3297 15.9135C35.8316 15.8076 35.3313 15.6996 34.8293 15.6151C34.7599 15.5978 34.6866 15.6078 34.6244 15.6432C34.5623 15.6786 34.5161 15.7365 34.4956 15.805C34.4774 15.8744 34.4871 15.9481 34.5225 16.0105C34.558 16.0728 34.6165 16.1188 34.6854 16.1386L34.685 16.1382Z" fill="#211715"/>
<path d="M28.7286 13.2081C28.6412 13.4155 28.6049 13.6409 28.623 13.8653C28.1378 14.0035 27.365 14.4371 27.2307 14.6864C27.1405 15.047 27.2831 16.2579 27.3735 16.4628C27.7194 16.3831 29.1262 15.6627 29.2138 15.3708L29.256 15.2303L29.322 15.3888C29.4079 15.5952 29.5703 16.0994 29.6994 16.264C29.8163 16.4132 30.72 16.6257 30.9404 16.6597C31.1149 16.6869 31.3879 16.7728 31.4413 16.561C31.4797 16.4099 31.1679 14.9867 31.0181 14.8037C30.743 14.5078 30.3949 14.2895 30.0088 14.1708C30.0912 13.8628 30.0927 13.5387 30.0131 13.23C30.0131 13.23 30.0276 12.8828 29.3606 12.8828C28.6935 12.8828 28.7286 13.2081 28.7286 13.2081Z" fill="#79C6E0"/>
<path d="M28.4611 13.6318C28.0903 13.7566 27.7386 13.932 27.4158 14.153C27.2669 14.2461 27.1354 14.3645 27.0273 14.5029C26.9599 14.6215 26.9276 14.7567 26.934 14.8929C26.9246 15.1965 26.9403 15.5004 26.9809 15.8015C26.9917 16.0508 27.0358 16.2975 27.112 16.5351C27.1329 16.6033 27.1791 16.661 27.2411 16.6963C27.3031 16.7316 27.3763 16.7419 27.4456 16.725C27.6715 16.6587 27.8897 16.5686 28.0965 16.4563C28.3733 16.3234 28.6417 16.1737 28.9003 16.0081C29.0926 15.8832 29.3237 15.7396 29.4381 15.5327C29.4947 15.4046 29.529 15.2677 29.5393 15.128C29.5789 14.9621 29.5841 14.7899 29.5547 14.6218C29.4616 14.2858 28.9381 14.4285 29.0316 14.766C29.0381 14.7917 29.0378 14.7843 29.0306 14.7433C29.0317 14.7582 29.0321 14.7732 29.032 14.7882C29.0309 14.8153 29.0303 14.8418 29.0284 14.8686C29.0245 14.9287 29.0171 14.9885 29.0061 15.0476C28.9951 15.1129 28.983 15.1782 28.9673 15.2425C28.9572 15.2839 28.9239 15.3239 28.9723 15.2539C28.9655 15.2637 28.9614 15.2753 28.9545 15.2851C28.9319 15.3171 29.0039 15.2367 28.9511 15.2874C28.9387 15.2993 28.9271 15.3122 28.9147 15.3243C28.8801 15.3569 28.8439 15.3878 28.8062 15.4168C28.8562 15.3777 28.7754 15.4385 28.7666 15.4448C28.7459 15.4595 28.725 15.4739 28.7041 15.4882C28.6477 15.5266 28.5904 15.5637 28.5323 15.5993C28.2985 15.7432 28.0575 15.8749 27.8101 15.994C27.7539 16.0212 27.6973 16.0478 27.6404 16.0739C27.6141 16.0858 27.5876 16.0975 27.5612 16.1092L27.5182 16.1277C27.5453 16.1165 27.5498 16.1145 27.5317 16.1218C27.4569 16.154 27.3799 16.1807 27.3012 16.2018L27.6348 16.3916C27.6085 16.3204 27.5895 16.2466 27.5783 16.1714C27.5536 16.0423 27.5402 15.9444 27.5285 15.8473C27.4911 15.5641 27.4726 15.2787 27.4732 14.993C27.4738 14.9368 27.4779 14.8812 27.4808 14.8252C27.484 14.7582 27.4627 14.8471 27.4818 14.8083C27.5115 14.7478 27.47 14.8176 27.4786 14.8007C27.4871 14.7837 27.485 14.79 27.4661 14.8155C27.4759 14.8038 27.486 14.7926 27.4965 14.7817C27.5183 14.7611 27.5391 14.7397 27.5616 14.7197C27.6061 14.6804 27.6535 14.6444 27.7033 14.6121C27.9819 14.4197 28.2852 14.266 28.6051 14.1551C28.9337 14.0433 28.7926 13.5192 28.4608 13.632L28.4611 13.6318Z" fill="#211715"/>
<path d="M28.6011 14.9771C28.7989 14.8322 28.9696 14.6535 29.1055 14.4493C29.1391 14.3851 29.1487 14.311 29.1326 14.2404C29.1232 14.206 29.1071 14.1738 29.0852 14.1456C29.0633 14.1175 29.0361 14.0939 29.0051 14.0763C28.9742 14.0586 28.94 14.0473 28.9046 14.0429C28.8693 14.0385 28.8334 14.041 28.799 14.0505L28.7342 14.0776C28.694 14.1012 28.6605 14.1347 28.6369 14.1749C28.6201 14.1995 28.6025 14.2234 28.5843 14.2469L28.6266 14.1926C28.5326 14.3182 28.4232 14.4317 28.3012 14.5303L28.3561 14.4878C28.3469 14.495 28.3375 14.5014 28.3279 14.5087C28.2687 14.5469 28.2247 14.6044 28.2033 14.6715C28.1844 14.742 28.1942 14.8171 28.2304 14.8804C28.2664 14.9415 28.3248 14.9862 28.3931 15.0051C28.428 15.015 28.4645 15.0177 28.5004 15.013C28.5363 15.0083 28.5709 14.9964 28.6021 14.9779L28.6011 14.9771Z" fill="#211715"/>
<path d="M30.0296 14.4657C30.2633 14.5519 30.4803 14.6779 30.671 14.8381C30.7074 14.87 30.7425 14.9032 30.7755 14.9385C30.789 14.9533 30.8315 15.0182 30.789 14.948C30.794 14.9545 30.7985 14.9614 30.8026 14.9686C30.8109 14.9877 30.8217 15.007 30.8311 15.0257C30.8472 15.0574 30.8071 14.9579 30.825 15.0121C30.8306 15.0292 30.8378 15.0459 30.8439 15.0628C30.9579 15.3996 31.0466 15.7444 31.1095 16.0944C31.1255 16.1751 31.1405 16.2559 31.1537 16.3371C31.1562 16.3529 31.1706 16.4509 31.1648 16.4074C31.159 16.3638 31.1695 16.4498 31.1708 16.4664C31.1705 16.4874 31.1714 16.5085 31.1735 16.5294C31.1786 16.5556 31.1798 16.4845 31.1941 16.4669C31.2082 16.4535 31.2233 16.4413 31.2392 16.4303C31.2617 16.409 31.2608 16.4318 31.223 16.4293C31.1869 16.4292 31.1509 16.4252 31.1157 16.4174C30.7655 16.359 30.4205 16.2728 30.084 16.1597C30.0638 16.1527 30.0433 16.1454 30.0237 16.138C30.004 16.1307 29.9558 16.1109 30.0013 16.1306C29.9657 16.1151 29.9325 16.0961 29.8979 16.0791C29.8708 16.0655 29.8594 16.0357 29.9066 16.0886C29.8788 16.0575 29.9382 16.155 29.91 16.094C29.8885 16.0475 29.8579 16.0038 29.8357 15.957C29.7432 15.7634 29.6713 15.5309 29.5837 15.3172C29.5628 15.249 29.5166 15.1914 29.4546 15.1561C29.3926 15.1208 29.3195 15.1105 29.2502 15.1274C29.1809 15.1468 29.1222 15.1927 29.0866 15.2551C29.0511 15.3176 29.0416 15.3916 29.0603 15.461C29.1613 15.7074 29.2424 15.9612 29.3543 16.2034C29.3898 16.2934 29.4429 16.3755 29.5104 16.4448C29.5779 16.5141 29.6585 16.5693 29.7476 16.6073C30.1328 16.7612 30.5341 16.871 30.944 16.9347C31.2314 16.9871 31.5814 16.9998 31.6939 16.6601C31.7239 16.5084 31.7184 16.3518 31.6779 16.2025C31.6151 15.7999 31.5219 15.4027 31.3991 15.0143C31.3504 14.8265 31.2542 14.6544 31.1199 14.5144C30.8468 14.2609 30.5248 14.0661 30.1735 13.9419C30.1041 13.9234 30.0302 13.9329 29.9678 13.9684C29.9054 14.004 29.8594 14.0626 29.8399 14.1317C29.8224 14.2011 29.8324 14.2745 29.8678 14.3367C29.9032 14.3989 29.9612 14.4449 30.0298 14.4653L30.0296 14.4657Z" fill="#211715"/>
<path d="M29.3826 14.8152C29.4809 14.9018 29.5731 14.9952 29.6583 15.0947C29.7636 15.2098 29.8673 15.3267 29.9775 15.4372C30.0289 15.4873 30.0976 15.5158 30.1693 15.5167C30.223 15.5167 30.2754 15.5008 30.32 15.471C30.3647 15.4412 30.3994 15.3988 30.42 15.3492C30.4405 15.2997 30.4458 15.2451 30.4354 15.1925C30.4249 15.1399 30.399 15.0915 30.361 15.0536C30.2508 14.9431 30.1471 14.8263 30.0418 14.7111C29.9566 14.6116 29.8644 14.5183 29.7661 14.4317C29.7141 14.3826 29.6459 14.3543 29.5744 14.3522C29.5026 14.3527 29.4338 14.3812 29.3826 14.4317C29.3319 14.4826 29.3033 14.5516 29.3032 14.6235C29.3028 14.6591 29.3097 14.6945 29.3233 14.7274C29.337 14.7604 29.3572 14.7902 29.3826 14.8152Z" fill="#211715"/>
<path d="M28.4944 13.0713C28.4404 13.173 28.4038 13.283 28.386 13.3968C28.3586 13.5389 28.3466 13.6836 28.3503 13.8283C28.3533 13.9859 28.3871 14.1415 28.45 14.2862C28.4815 14.3548 28.5269 14.4161 28.5834 14.4661C28.6399 14.5162 28.7061 14.554 28.778 14.5771C28.903 14.6183 29.0328 14.6437 29.1642 14.6525C29.3039 14.667 29.4446 14.6683 29.5846 14.6563C29.725 14.6487 29.8636 14.6213 29.9963 14.5749C30.0767 14.5536 30.1466 14.5039 30.193 14.435C30.2123 14.3994 30.2288 14.3625 30.2424 14.3244C30.263 14.2709 30.2791 14.2158 30.2906 14.1597C30.3257 13.9919 30.3434 13.8209 30.3432 13.6494C30.3487 13.4828 30.3255 13.3165 30.2745 13.1578C30.2659 13.1225 30.2503 13.0894 30.2285 13.0603C30.2068 13.0311 30.1795 13.0067 30.1481 12.9883C30.1168 12.97 30.0821 12.9581 30.0461 12.9535C30.0101 12.9488 29.9735 12.9514 29.9385 12.9611C29.9035 12.9708 29.8708 12.9875 29.8424 13.0101C29.814 13.0327 29.7904 13.0608 29.773 13.0927C29.7556 13.1245 29.7448 13.1596 29.7412 13.1957C29.7377 13.2319 29.7414 13.2684 29.7522 13.303C29.7657 13.3403 29.7764 13.3784 29.7842 13.4172C29.7869 13.4308 29.7968 13.4972 29.791 13.45C29.7849 13.3999 29.791 13.4553 29.7921 13.4621C29.7933 13.4732 29.7942 13.4842 29.7952 13.4952C29.803 13.5939 29.8036 13.693 29.7971 13.7918C29.7887 13.8374 29.7845 13.8836 29.7845 13.93C29.7818 13.91 29.7936 13.8702 29.7862 13.9156C29.7846 13.9263 29.783 13.937 29.7812 13.9477C29.7777 13.9682 29.7739 13.9884 29.7697 14.0092C29.7619 14.0482 29.752 14.0869 29.7403 14.125C29.7359 14.1385 29.7119 14.199 29.7337 14.1487C29.7556 14.0984 29.7317 14.1509 29.7255 14.1623L29.8227 14.065C29.7857 14.0822 29.8527 14.053 29.8527 14.053C29.8445 14.0551 29.8359 14.0595 29.828 14.0622C29.8128 14.0677 29.7975 14.0725 29.7819 14.0771C29.7462 14.0875 29.71 14.0958 29.6734 14.1027C29.6531 14.1065 29.631 14.1075 29.611 14.113C29.6152 14.1118 29.681 14.1052 29.6348 14.1095L29.6101 14.1122C29.5653 14.1167 29.5204 14.1195 29.4756 14.121C29.3908 14.124 29.3059 14.1223 29.2213 14.1159C29.2023 14.1144 29.1833 14.1128 29.1643 14.1107L29.1325 14.1072C29.0866 14.1025 29.1544 14.1099 29.158 14.1107C29.1203 14.1015 29.0807 14.0984 29.0427 14.0898C29.0131 14.0832 28.9838 14.0756 28.9552 14.0662C28.9417 14.0616 28.9265 14.0543 28.9121 14.0507C28.9097 14.0507 28.97 14.0803 28.9528 14.0676C28.9458 14.0635 28.9386 14.0598 28.9312 14.0566C28.9201 14.0505 28.8853 14.0279 28.9286 14.0574C28.9655 14.0827 28.9475 14.0698 28.9369 14.0589C28.9202 14.042 28.9615 14.092 28.9609 14.0902C28.9539 14.0752 28.9453 14.061 28.9352 14.0479C28.9319 14.04 28.9281 14.0323 28.9238 14.0249C28.9276 14.0264 28.9479 14.0894 28.9357 14.0532C28.9242 14.0202 28.9144 13.9866 28.9065 13.9525C28.9029 13.9357 28.9 13.9188 28.8969 13.9019C28.893 13.8803 28.9009 13.8627 28.9004 13.929C28.9004 13.9165 28.8977 13.9034 28.8966 13.8909C28.8902 13.8128 28.8899 13.7342 28.8957 13.656C28.8973 13.633 28.8994 13.6098 28.9019 13.5867C28.9027 13.5791 28.9038 13.5717 28.9045 13.5641C28.9074 13.5296 28.8939 13.6311 28.9019 13.5844C28.9086 13.5451 28.9155 13.5061 28.9244 13.4673C28.9323 13.4336 28.9414 13.4003 28.9525 13.3675C28.955 13.3607 28.9577 13.3539 28.9598 13.3471C28.9701 13.3142 28.9438 13.3839 28.9437 13.3841C28.9512 13.3719 28.9562 13.357 28.9632 13.3452C28.9995 13.2831 29.0097 13.2091 28.9914 13.1395C28.9732 13.0699 28.928 13.0104 28.8659 12.9741C28.8038 12.9378 28.7298 12.9277 28.6602 12.9459C28.5906 12.9642 28.5311 13.0093 28.4948 13.0714L28.4944 13.0713Z" fill="#211715"/>
<path d="M28.0781 13.9729C27.5323 13.4522 27.1744 13.0996 26.7795 12.4575C26.9264 12.1649 27.1226 11.8998 27.3595 11.6739C27.8415 12.1558 28.4051 12.5485 29.0241 12.8338C29.0586 12.8494 29.0969 12.8686 29.108 12.9048C29.1135 12.9374 29.1066 12.9709 29.0888 12.9987C29.0672 13.0434 28.3054 13.7569 28.0781 13.9729Z" fill="white"/>
<path d="M30.5561 14.0771C31.0002 13.5763 31.395 13.034 31.7352 12.4575C31.5884 12.1649 31.3921 11.8998 31.1552 11.6739C30.6732 12.1558 30.1096 12.5486 29.4906 12.8338C29.4562 12.8494 29.4178 12.8686 29.4067 12.9048C29.4012 12.9374 29.4081 12.9709 29.4259 12.9987C29.4475 13.0434 30.2888 13.8506 30.5561 14.0771Z" fill="white"/>
<path d="M28.2699 13.7812C27.79 13.3505 27.3678 12.8596 27.0137 12.3207V12.5945C27.1505 12.3229 27.3323 12.0765 27.5514 11.8656H27.1678C27.4333 12.1306 27.7228 12.3704 28.0327 12.5819C28.1789 12.6823 28.3293 12.7761 28.484 12.8633C28.5591 12.9055 28.6352 12.9459 28.7122 12.9845C28.7471 13.002 28.7822 13.0191 28.8173 13.0358C28.8405 13.0466 28.8638 13.0575 28.8871 13.068C28.9281 13.0912 28.9236 13.0821 28.8736 13.0409L28.8366 12.9041C28.8345 12.8779 28.8844 12.8216 28.8855 12.8208C28.8751 12.8306 28.8653 12.841 28.8564 12.8522C28.8256 12.8846 28.7936 12.9158 28.7614 12.9471C28.6646 13.042 28.5664 13.1357 28.4682 13.2293C28.2746 13.4137 28.0796 13.5965 27.8851 13.7807C27.6316 14.0216 28.0155 14.4044 28.2686 14.1641C28.5607 13.8867 28.8568 13.613 29.1443 13.3307C29.2994 13.1784 29.4673 12.9876 29.3341 12.7552C29.2491 12.606 29.0581 12.5546 28.9137 12.4799C28.7582 12.3985 28.6064 12.3107 28.459 12.216C28.13 12.0049 27.825 11.7585 27.5492 11.4814C27.4977 11.4318 27.429 11.404 27.3574 11.404C27.2859 11.404 27.2171 11.4318 27.1656 11.4814C26.9532 11.6838 26.7713 11.9159 26.6255 12.1705C26.5802 12.2371 26.5434 12.3091 26.5158 12.3849C26.5065 12.4335 26.5079 12.4836 26.5201 12.5316C26.5322 12.5797 26.5547 12.6245 26.586 12.6628C26.6602 12.7801 26.7378 12.8951 26.8199 13.007C27.1399 13.4233 27.4961 13.8105 27.8842 14.1641C28.1385 14.4058 28.523 14.0227 28.2699 13.7812Z" fill="#211715"/>
<path d="M30.7478 14.2688C31.1026 13.8689 31.4268 13.4428 31.7177 12.9941C31.795 12.8751 31.8746 12.756 31.9457 12.633C32.0477 12.4567 31.9761 12.3233 31.8834 12.165C31.7381 11.9129 31.5575 11.683 31.3469 11.4823C31.2955 11.4325 31.2267 11.4048 31.1552 11.4048C31.0836 11.4048 31.0149 11.4325 30.9634 11.4823C30.7067 11.7406 30.4242 11.972 30.1205 12.173C29.9705 12.2725 29.8162 12.3647 29.6576 12.4497C29.5113 12.5279 29.3105 12.5819 29.2066 12.7165C29.0272 12.9491 29.2016 13.1661 29.365 13.3291C29.521 13.4849 29.6806 13.6373 29.8406 13.7889C30.0124 13.9517 30.1841 14.1156 30.3643 14.2691C30.416 14.3183 30.4847 14.3457 30.556 14.3457C30.6274 14.3457 30.6961 14.3183 30.7478 14.2691C30.7981 14.218 30.8263 14.1491 30.8263 14.0774C30.8263 14.0056 30.7981 13.9368 30.7478 13.8856C30.5209 13.6924 30.3059 13.4842 30.0906 13.2782C29.9822 13.175 29.8753 13.0714 29.7694 12.9663C29.7341 12.9313 29.6989 12.8965 29.6647 12.8606C29.6543 12.8496 29.6445 12.8368 29.6332 12.8267C29.6061 12.8032 29.6796 12.8829 29.6779 12.905L29.6408 13.0419C29.5911 13.0827 29.5866 13.0918 29.6273 13.069C29.6452 13.0609 29.6629 13.0527 29.6807 13.0443C29.7226 13.0246 29.7642 13.0044 29.8057 12.9837C29.8781 12.9475 29.9497 12.9096 30.0207 12.8698C30.1786 12.7815 30.3323 12.686 30.4817 12.5831C30.7917 12.3712 31.0813 12.131 31.3469 11.8656H30.9634C31.1826 12.0765 31.3645 12.3229 31.5015 12.5945V12.3207C31.1691 12.8745 30.7888 13.3981 30.3648 13.8853C30.3155 13.937 30.2879 14.0057 30.2879 14.0771C30.2879 14.1485 30.3155 14.2172 30.3648 14.2688C30.416 14.3189 30.4847 14.347 30.5563 14.347C30.6279 14.347 30.6966 14.3189 30.7478 14.2688Z" fill="#211715"/>
<path d="M28.5629 9.65848C28.8049 9.78421 29.0746 9.84716 29.3473 9.84155C29.6359 9.85259 29.92 9.76666 30.1541 9.59746C30.205 9.5466 30.2335 9.47762 30.2335 9.40571C30.2335 9.33379 30.205 9.26482 30.1541 9.21396C30.1023 9.16502 30.0337 9.13776 29.9624 9.13776C29.8911 9.13776 29.8225 9.16502 29.7706 9.21396C29.8643 9.14087 29.7679 9.21179 29.7382 9.22752C29.7153 9.23959 29.6541 9.25857 29.7398 9.22942C29.7185 9.23674 29.6978 9.24569 29.6764 9.25261C29.6189 9.27105 29.5543 9.27335 29.4985 9.29329C29.5271 9.28312 29.5428 9.288 29.5021 9.29193C29.4848 9.2937 29.4673 9.29519 29.4498 9.29627C29.4076 9.29898 29.3654 9.30007 29.3232 9.2998C29.2856 9.2998 29.2479 9.29844 29.2102 9.29573C29.1928 9.29465 29.1756 9.29315 29.1582 9.29139C29.1485 9.29044 29.1386 9.28936 29.1288 9.28814C29.1075 9.28556 29.1152 9.28678 29.1539 9.29153C29.0971 9.28664 29.0413 9.27423 28.9878 9.25464C28.9644 9.24773 28.9418 9.23932 28.9187 9.23145C28.8581 9.2107 28.9761 9.25857 28.921 9.23294C28.8926 9.21938 28.8645 9.20582 28.8367 9.19077C28.8059 9.17279 28.7719 9.16105 28.7366 9.15621C28.7014 9.15137 28.6655 9.15353 28.631 9.16256C28.5965 9.1716 28.5642 9.18733 28.5358 9.20887C28.5074 9.2304 28.4836 9.25731 28.4656 9.28807C28.4476 9.31882 28.4359 9.35282 28.431 9.38811C28.4262 9.4234 28.4284 9.4593 28.4374 9.49376C28.4464 9.52822 28.4622 9.56056 28.4837 9.58894C28.5052 9.61732 28.5321 9.64118 28.5629 9.65916V9.65848Z" fill="#211715"/>
<path d="M29.1739 7.85653C29.2083 7.98043 29.2358 8.10615 29.2563 8.23311L29.2466 8.16096C29.249 8.17817 29.2495 8.19559 29.248 8.2129L29.2577 8.14089C29.2566 8.14883 29.2547 8.15664 29.2521 8.16422L29.2792 8.0994C29.2769 8.10467 29.2741 8.10971 29.2709 8.11445L29.3133 8.05953C29.3097 8.06406 29.3056 8.06816 29.301 8.07173L29.3559 8.02929C29.3464 8.03522 29.3364 8.04048 29.3261 8.04502L29.3909 8.0179C29.3748 8.02474 29.3579 8.02966 29.3406 8.03254L29.4127 8.02278C29.3971 8.02461 29.3812 8.02461 29.3656 8.02278L29.4377 8.03241C29.4199 8.02997 29.4024 8.02563 29.3847 8.02319C29.3496 8.0119 29.3121 8.01026 29.2762 8.01844C29.2403 8.02001 29.2055 8.0311 29.1753 8.05058C29.1132 8.08689 29.0681 8.14637 29.0498 8.21595C29.0316 8.28553 29.0418 8.35951 29.0781 8.4216L29.1205 8.47652C29.1536 8.5098 29.1949 8.53387 29.2401 8.54636C29.2876 8.55273 29.3336 8.56453 29.382 8.5667C29.4575 8.56684 29.532 8.54859 29.5989 8.51354C29.6431 8.49295 29.6821 8.46287 29.7133 8.42546C29.7445 8.38805 29.767 8.34423 29.7793 8.29711C29.7953 8.22314 29.7947 8.14651 29.7774 8.07282C29.7569 7.95159 29.729 7.8313 29.6978 7.71238C29.6783 7.6443 29.6337 7.58616 29.573 7.54965C29.5097 7.51343 29.4346 7.50369 29.3641 7.52253C29.2957 7.5414 29.2374 7.58609 29.2013 7.64715C29.1659 7.71077 29.1562 7.78556 29.1742 7.85612L29.1739 7.85653Z" fill="#211715"/>
<path d="M27.2584 6.76937C27.1956 6.97373 27.2365 7.44388 27.6237 7.48388C28.1353 7.48076 28.1625 6.91243 27.9898 6.64529C27.8492 6.42642 27.4347 6.33542 27.2584 6.76937Z" fill="#211715"/>
<path d="M31.3557 6.7695C31.4186 6.97373 31.3777 7.44388 30.9905 7.48388C30.4789 7.48076 30.4516 6.91243 30.6244 6.64529C30.7649 6.42642 31.1796 6.33542 31.3557 6.7695Z" fill="#211715"/>
</g>
<defs>
<clipPath id="clip0_415_1069">
<rect width="60" height="60" fill="white"/>
</clipPath>
</defs>
</svg>
