<svg width="280" height="280" viewBox="0 0 280 280" fill="none" xmlns="http://www.w3.org/2000/svg">
<g filter="url(#filter0_b_683_5976)">
<rect width="280" height="280" rx="16" fill="white" fill-opacity="0.5"/>
<rect x="4" y="4" width="272" height="272" rx="12" stroke="#E23744" stroke-width="8"/>
<circle cx="139" cy="96" r="60" fill="#D9D9D9"/>
<path d="M167.417 72.9422L171.506 68.9198L175.201 72.5547L178.897 68.9198L167.829 58.0336L164.134 61.6685L167.829 65.3034L163.383 69.6763C158.881 66.4843 153.779 64.2701 148.339 63.1999V57.1295H153.554V52H127.46V57.1295H132.675V63.1999C127.254 64.2701 122.133 66.4843 117.631 69.6763L113.185 65.3034L116.88 61.6685L113.185 58.0336L102.117 68.9198L105.813 72.5547L109.508 68.9198L113.597 72.9422C105.906 80.1198 101.367 90.0097 101.367 100.914C101.367 122.244 118.925 139.588 140.498 139.588C162.07 139.588 179.629 122.244 179.629 100.914C179.666 90.5448 175.502 80.4888 167.417 72.9422ZM137.909 57.111H143.124V62.4988C142.261 62.4434 141.398 62.4065 140.516 62.4065C139.635 62.4065 138.772 62.4434 137.909 62.4988V57.111ZM140.516 134.44C121.814 134.44 106.6 119.403 106.6 100.896C106.6 82.5 121.814 67.536 140.516 67.536C159.219 67.536 174.432 82.5 174.432 100.896C174.451 119.403 159.219 134.44 140.516 134.44Z" fill="#414141"/>
<path d="M143.124 93.6632V72.6841H137.909V93.6632C134.87 94.7149 132.694 97.5749 132.694 100.915C132.694 105.158 136.202 108.609 140.516 108.609C144.831 108.609 148.339 105.158 148.339 100.915C148.357 97.5749 146.163 94.7149 143.124 93.6632ZM140.516 103.479C139.072 103.479 137.909 102.335 137.909 100.915C137.909 99.4938 139.072 98.3498 140.516 98.3498C141.961 98.3498 143.124 99.4938 143.124 100.915C143.124 102.335 141.961 103.479 140.516 103.479Z" fill="#414141"/>
<path d="M137.909 124.016H143.124V129.145H137.909V124.016Z" fill="#414141"/>
<path d="M111.815 98.3501H117.03V103.48H111.815V98.3501Z" fill="#414141"/>
<path d="M164.002 98.3501H169.217V103.48H164.002V98.3501Z" fill="#414141"/>
<path d="M122.076 122.687L118.381 119.052L122.076 115.417L125.772 119.052L122.076 122.687Z" fill="#414141"/>
<path d="M158.975 86.3934L155.28 82.7584L158.975 79.1235L162.671 82.7584L158.975 86.3934Z" fill="#414141"/>
<path d="M158.975 122.687L155.28 119.052L158.975 115.417L162.671 119.052L158.975 122.687Z" fill="#414141"/>
<path d="M122.076 86.3934L118.381 82.7584L122.076 79.1235L125.772 82.7584L122.076 86.3934Z" fill="#414141"/>
<path d="M105.719 185.484V187.556H97.2353V194.136H104.123V196.208H97.2353V205H94.6873V185.484H105.719ZM122.797 196.74C122.797 197.225 122.769 197.739 122.713 198.28H110.449C110.542 199.792 111.055 200.977 111.989 201.836C112.941 202.676 114.089 203.096 115.433 203.096C116.534 203.096 117.449 202.844 118.177 202.34C118.923 201.817 119.446 201.127 119.745 200.268H122.489C122.078 201.743 121.257 202.947 120.025 203.88C118.793 204.795 117.262 205.252 115.433 205.252C113.977 205.252 112.67 204.925 111.513 204.272C110.374 203.619 109.478 202.695 108.825 201.5C108.171 200.287 107.845 198.887 107.845 197.3C107.845 195.713 108.162 194.323 108.797 193.128C109.431 191.933 110.318 191.019 111.457 190.384C112.614 189.731 113.939 189.404 115.433 189.404C116.889 189.404 118.177 189.721 119.297 190.356C120.417 190.991 121.275 191.868 121.873 192.988C122.489 194.089 122.797 195.34 122.797 196.74ZM120.165 196.208C120.165 195.237 119.95 194.407 119.521 193.716C119.091 193.007 118.503 192.475 117.757 192.12C117.029 191.747 116.217 191.56 115.321 191.56C114.033 191.56 112.931 191.971 112.017 192.792C111.121 193.613 110.607 194.752 110.477 196.208H120.165ZM134.168 205L130.528 199.288L127.028 205H124.368L129.324 197.384L124.368 189.656H127.252L130.892 195.34L134.364 189.656H137.024L132.096 197.244L137.052 205H134.168ZM140.874 187.164C140.389 187.164 139.978 186.996 139.642 186.66C139.306 186.324 139.138 185.913 139.138 185.428C139.138 184.943 139.306 184.532 139.642 184.196C139.978 183.86 140.389 183.692 140.874 183.692C141.341 183.692 141.733 183.86 142.05 184.196C142.386 184.532 142.554 184.943 142.554 185.428C142.554 185.913 142.386 186.324 142.05 186.66C141.733 186.996 141.341 187.164 140.874 187.164ZM142.106 189.656V205H139.558V189.656H142.106ZM148.997 192.512C149.52 191.597 150.285 190.851 151.293 190.272C152.301 189.693 153.449 189.404 154.737 189.404C156.118 189.404 157.36 189.731 158.461 190.384C159.562 191.037 160.43 191.961 161.065 193.156C161.7 194.332 162.017 195.704 162.017 197.272C162.017 198.821 161.7 200.203 161.065 201.416C160.43 202.629 159.553 203.572 158.433 204.244C157.332 204.916 156.1 205.252 154.737 205.252C153.412 205.252 152.245 204.963 151.237 204.384C150.248 203.805 149.501 203.068 148.997 202.172V205H146.449V184.28H148.997V192.512ZM159.413 197.272C159.413 196.115 159.18 195.107 158.713 194.248C158.246 193.389 157.612 192.736 156.809 192.288C156.025 191.84 155.157 191.616 154.205 191.616C153.272 191.616 152.404 191.849 151.601 192.316C150.817 192.764 150.182 193.427 149.697 194.304C149.23 195.163 148.997 196.161 148.997 197.3C148.997 198.457 149.23 199.475 149.697 200.352C150.182 201.211 150.817 201.873 151.601 202.34C152.404 202.788 153.272 203.012 154.205 203.012C155.157 203.012 156.025 202.788 156.809 202.34C157.612 201.873 158.246 201.211 158.713 200.352C159.18 199.475 159.413 198.448 159.413 197.272ZM167.919 184.28V205H165.371V184.28H167.919ZM186.261 196.74C186.261 197.225 186.233 197.739 186.177 198.28H173.913C174.007 199.792 174.52 200.977 175.453 201.836C176.405 202.676 177.553 203.096 178.897 203.096C179.999 203.096 180.913 202.844 181.641 202.34C182.388 201.817 182.911 201.127 183.209 200.268H185.953C185.543 201.743 184.721 202.947 183.489 203.88C182.257 204.795 180.727 205.252 178.897 205.252C177.441 205.252 176.135 204.925 174.977 204.272C173.839 203.619 172.943 202.695 172.289 201.5C171.636 200.287 171.309 198.887 171.309 197.3C171.309 195.713 171.627 194.323 172.261 193.128C172.896 191.933 173.783 191.019 174.921 190.384C176.079 189.731 177.404 189.404 178.897 189.404C180.353 189.404 181.641 189.721 182.761 190.356C183.881 190.991 184.74 191.868 185.337 192.988C185.953 194.089 186.261 195.34 186.261 196.74ZM183.629 196.208C183.629 195.237 183.415 194.407 182.985 193.716C182.556 193.007 181.968 192.475 181.221 192.12C180.493 191.747 179.681 191.56 178.785 191.56C177.497 191.56 176.396 191.971 175.481 192.792C174.585 193.613 174.072 194.752 173.941 196.208H183.629ZM99.5489 224.484V226.556H94.2289V244H91.6809V226.556H86.3329V224.484H99.5489ZM104.001 226.164C103.516 226.164 103.105 225.996 102.769 225.66C102.433 225.324 102.265 224.913 102.265 224.428C102.265 223.943 102.433 223.532 102.769 223.196C103.105 222.86 103.516 222.692 104.001 222.692C104.468 222.692 104.86 222.86 105.177 223.196C105.513 223.532 105.681 223.943 105.681 224.428C105.681 224.913 105.513 225.324 105.177 225.66C104.86 225.996 104.468 226.164 104.001 226.164ZM105.233 228.656V244H102.685V228.656H105.233ZM128.028 228.376C129.223 228.376 130.287 228.628 131.22 229.132C132.153 229.617 132.891 230.355 133.432 231.344C133.973 232.333 134.244 233.537 134.244 234.956V244H131.724V235.32C131.724 233.789 131.341 232.623 130.576 231.82C129.829 230.999 128.812 230.588 127.524 230.588C126.199 230.588 125.144 231.017 124.36 231.876C123.576 232.716 123.184 233.939 123.184 235.544V244H120.664V235.32C120.664 233.789 120.281 232.623 119.516 231.82C118.769 230.999 117.752 230.588 116.464 230.588C115.139 230.588 114.084 231.017 113.3 231.876C112.516 232.716 112.124 233.939 112.124 235.544V244H109.576V228.656H112.124V230.868C112.628 230.065 113.3 229.449 114.14 229.02C114.999 228.591 115.941 228.376 116.968 228.376C118.256 228.376 119.395 228.665 120.384 229.244C121.373 229.823 122.111 230.672 122.596 231.792C123.025 230.709 123.735 229.869 124.724 229.272C125.713 228.675 126.815 228.376 128.028 228.376ZM139.74 226.164C139.254 226.164 138.844 225.996 138.508 225.66C138.172 225.324 138.004 224.913 138.004 224.428C138.004 223.943 138.172 223.532 138.508 223.196C138.844 222.86 139.254 222.692 139.74 222.692C140.206 222.692 140.598 222.86 140.916 223.196C141.252 223.532 141.42 223.943 141.42 224.428C141.42 224.913 141.252 225.324 140.916 225.66C140.598 225.996 140.206 226.164 139.74 226.164ZM140.972 228.656V244H138.424V228.656H140.972ZM152.79 228.376C154.657 228.376 156.169 228.945 157.326 230.084C158.484 231.204 159.062 232.828 159.062 234.956V244H156.542V235.32C156.542 233.789 156.16 232.623 155.394 231.82C154.629 230.999 153.584 230.588 152.258 230.588C150.914 230.588 149.841 231.008 149.038 231.848C148.254 232.688 147.862 233.911 147.862 235.516V244H145.314V228.656H147.862V230.84C148.366 230.056 149.048 229.449 149.906 229.02C150.784 228.591 151.745 228.376 152.79 228.376ZM169.552 228.404C170.878 228.404 172.035 228.693 173.024 229.272C174.032 229.851 174.779 230.579 175.264 231.456V228.656H177.84V244.336C177.84 245.736 177.542 246.977 176.944 248.06C176.347 249.161 175.488 250.02 174.368 250.636C173.267 251.252 171.979 251.56 170.504 251.56C168.488 251.56 166.808 251.084 165.464 250.132C164.12 249.18 163.327 247.883 163.084 246.24H165.604C165.884 247.173 166.463 247.92 167.34 248.48C168.218 249.059 169.272 249.348 170.504 249.348C171.904 249.348 173.043 248.909 173.92 248.032C174.816 247.155 175.264 245.923 175.264 244.336V241.116C174.76 242.012 174.014 242.759 173.024 243.356C172.035 243.953 170.878 244.252 169.552 244.252C168.19 244.252 166.948 243.916 165.828 243.244C164.727 242.572 163.859 241.629 163.224 240.416C162.59 239.203 162.272 237.821 162.272 236.272C162.272 234.704 162.59 233.332 163.224 232.156C163.859 230.961 164.727 230.037 165.828 229.384C166.948 228.731 168.19 228.404 169.552 228.404ZM175.264 236.3C175.264 235.143 175.031 234.135 174.564 233.276C174.098 232.417 173.463 231.764 172.66 231.316C171.876 230.849 171.008 230.616 170.056 230.616C169.104 230.616 168.236 230.84 167.452 231.288C166.668 231.736 166.043 232.389 165.576 233.248C165.11 234.107 164.876 235.115 164.876 236.272C164.876 237.448 165.11 238.475 165.576 239.352C166.043 240.211 166.668 240.873 167.452 241.34C168.236 241.788 169.104 242.012 170.056 242.012C171.008 242.012 171.876 241.788 172.66 241.34C173.463 240.873 174.098 240.211 174.564 239.352C175.031 238.475 175.264 237.457 175.264 236.3ZM187.578 244.252C186.402 244.252 185.348 244.056 184.414 243.664C183.481 243.253 182.744 242.693 182.202 241.984C181.661 241.256 181.362 240.425 181.306 239.492H183.938C184.013 240.257 184.368 240.883 185.002 241.368C185.656 241.853 186.505 242.096 187.55 242.096C188.521 242.096 189.286 241.881 189.846 241.452C190.406 241.023 190.686 240.481 190.686 239.828C190.686 239.156 190.388 238.661 189.79 238.344C189.193 238.008 188.269 237.681 187.018 237.364C185.88 237.065 184.946 236.767 184.218 236.468C183.509 236.151 182.893 235.693 182.37 235.096C181.866 234.48 181.614 233.677 181.614 232.688C181.614 231.904 181.848 231.185 182.314 230.532C182.781 229.879 183.444 229.365 184.302 228.992C185.161 228.6 186.141 228.404 187.242 228.404C188.941 228.404 190.313 228.833 191.358 229.692C192.404 230.551 192.964 231.727 193.038 233.22H190.49C190.434 232.417 190.108 231.773 189.51 231.288C188.932 230.803 188.148 230.56 187.158 230.56C186.244 230.56 185.516 230.756 184.974 231.148C184.433 231.54 184.162 232.053 184.162 232.688C184.162 233.192 184.321 233.612 184.638 233.948C184.974 234.265 185.385 234.527 185.87 234.732C186.374 234.919 187.065 235.133 187.942 235.376C189.044 235.675 189.94 235.973 190.63 236.272C191.321 236.552 191.909 236.981 192.394 237.56C192.898 238.139 193.16 238.895 193.178 239.828C193.178 240.668 192.945 241.424 192.478 242.096C192.012 242.768 191.349 243.3 190.49 243.692C189.65 244.065 188.68 244.252 187.578 244.252Z" fill="black"/>
</g>
<defs>
<filter id="filter0_b_683_5976" x="-60" y="-60" width="400" height="400" filterUnits="userSpaceOnUse" color-interpolation-filters="sRGB">
<feFlood flood-opacity="0" result="BackgroundImageFix"/>
<feGaussianBlur in="BackgroundImageFix" stdDeviation="30"/>
<feComposite in2="SourceAlpha" operator="in" result="effect1_backgroundBlur_683_5976"/>
<feBlend mode="normal" in="SourceGraphic" in2="effect1_backgroundBlur_683_5976" result="shape"/>
</filter>
</defs>
</svg>
