<svg width="283" height="25" viewBox="0 0 283 25" fill="none" xmlns="http://www.w3.org/2000/svg">
<path d="M274.579 24.16C272.83 24.16 271.294 23.7974 269.971 23.072C268.648 22.3254 267.614 21.312 266.867 20.032C266.12 18.7307 265.747 17.248 265.747 15.584C265.747 13.92 266.099 12.448 266.803 11.168C267.528 9.88804 268.51 8.88537 269.747 8.16004C271.006 7.41337 272.414 7.04004 273.971 7.04004C275.55 7.04004 276.947 7.40271 278.163 8.12804C279.4 8.83204 280.371 9.83471 281.075 11.136C281.779 12.416 282.131 13.8987 282.131 15.584C282.131 15.6907 282.12 15.808 282.099 15.936C282.099 16.0427 282.099 16.16 282.099 16.288H267.475V14.592H280.883L279.987 15.264C279.987 14.048 279.72 12.9707 279.187 12.032C278.675 11.072 277.971 10.3254 277.075 9.79204C276.179 9.25871 275.144 8.99204 273.971 8.99204C272.819 8.99204 271.784 9.25871 270.867 9.79204C269.95 10.3254 269.235 11.072 268.723 12.032C268.211 12.992 267.955 14.0907 267.955 15.328V15.68C267.955 16.96 268.232 18.0907 268.787 19.072C269.363 20.032 270.152 20.7894 271.155 21.344C272.179 21.8774 273.342 22.144 274.643 22.144C275.667 22.144 276.616 21.9627 277.491 21.6C278.387 21.2374 279.155 20.6827 279.795 19.936L281.075 21.408C280.328 22.304 279.39 22.9867 278.259 23.456C277.15 23.9254 275.923 24.16 274.579 24.16Z" fill="black"/>
<path d="M255.069 24.16C253.405 24.16 251.912 23.7974 250.589 23.072C249.288 22.3254 248.264 21.312 247.517 20.032C246.77 18.7307 246.397 17.248 246.397 15.584C246.397 13.8987 246.77 12.416 247.517 11.136C248.264 9.85604 249.288 8.85337 250.589 8.12804C251.912 7.40271 253.405 7.04004 255.069 7.04004C256.498 7.04004 257.789 7.31737 258.941 7.87204C260.093 8.42671 261 9.25871 261.661 10.368L259.965 11.52C259.389 10.6667 258.674 10.0374 257.821 9.63204C256.968 9.22671 256.04 9.02404 255.037 9.02404C253.842 9.02404 252.765 9.30137 251.805 9.85604C250.845 10.3894 250.088 11.1467 249.533 12.128C248.978 13.1094 248.701 14.2614 248.701 15.584C248.701 16.9067 248.978 18.0587 249.533 19.04C250.088 20.0214 250.845 20.7894 251.805 21.344C252.765 21.8774 253.842 22.144 255.037 22.144C256.04 22.144 256.968 21.9414 257.821 21.536C258.674 21.1307 259.389 20.512 259.965 19.68L261.661 20.832C261 21.92 260.093 22.752 258.941 23.328C257.789 23.8827 256.498 24.16 255.069 24.16Z" fill="black"/>
<path d="M233.444 7.04004C234.809 7.04004 236.004 7.30671 237.028 7.84004C238.073 8.35204 238.884 9.14137 239.46 10.208C240.057 11.2747 240.356 12.6187 240.356 14.24V24H238.084V14.464C238.084 12.6934 237.636 11.36 236.74 10.464C235.865 9.54671 234.628 9.08804 233.028 9.08804C231.833 9.08804 230.788 9.33337 229.892 9.82404C229.017 10.2934 228.335 10.9867 227.844 11.904C227.375 12.8 227.14 13.888 227.14 15.168V24H224.868V7.20004H227.044V11.808L226.692 10.944C227.225 9.72804 228.079 8.77871 229.252 8.09604C230.425 7.39204 231.823 7.04004 233.444 7.04004Z" fill="black"/>
<path d="M211.092 24.16C209.342 24.16 207.806 23.7974 206.484 23.072C205.161 22.3254 204.126 21.312 203.38 20.032C202.633 18.7307 202.26 17.248 202.26 15.584C202.26 13.92 202.612 12.448 203.316 11.168C204.041 9.88804 205.022 8.88537 206.26 8.16004C207.518 7.41337 208.926 7.04004 210.484 7.04004C212.062 7.04004 213.46 7.40271 214.676 8.12804C215.913 8.83204 216.884 9.83471 217.588 11.136C218.292 12.416 218.644 13.8987 218.644 15.584C218.644 15.6907 218.633 15.808 218.612 15.936C218.612 16.0427 218.612 16.16 218.612 16.288H203.988V14.592H217.396L216.5 15.264C216.5 14.048 216.233 12.9707 215.7 12.032C215.188 11.072 214.484 10.3254 213.588 9.79204C212.692 9.25871 211.657 8.99204 210.484 8.99204C209.332 8.99204 208.297 9.25871 207.38 9.79204C206.462 10.3254 205.748 11.072 205.236 12.032C204.724 12.992 204.468 14.0907 204.468 15.328V15.68C204.468 16.96 204.745 18.0907 205.3 19.072C205.876 20.032 206.665 20.7894 207.668 21.344C208.692 21.8774 209.854 22.144 211.156 22.144C212.18 22.144 213.129 21.9627 214.004 21.6C214.9 21.2374 215.668 20.6827 216.308 19.936L217.588 21.408C216.841 22.304 215.902 22.9867 214.772 23.456C213.662 23.9254 212.436 24.16 211.092 24.16Z" fill="black"/>
<path d="M189.918 24V7.20004H192.094V11.776L191.87 10.976C192.339 9.69604 193.129 8.72537 194.238 8.06404C195.347 7.38137 196.723 7.04004 198.366 7.04004V9.24804C198.281 9.24804 198.195 9.24804 198.11 9.24804C198.025 9.22671 197.939 9.21604 197.854 9.21604C196.083 9.21604 194.697 9.76004 193.694 10.848C192.691 11.9147 192.19 13.44 192.19 15.424V24H189.918Z" fill="black"/>
<path d="M176.142 24.16C174.392 24.16 172.856 23.7974 171.534 23.072C170.211 22.3254 169.176 21.312 168.43 20.032C167.683 18.7307 167.31 17.248 167.31 15.584C167.31 13.92 167.662 12.448 168.366 11.168C169.091 9.88804 170.072 8.88537 171.31 8.16004C172.568 7.41337 173.976 7.04004 175.534 7.04004C177.112 7.04004 178.51 7.40271 179.726 8.12804C180.963 8.83204 181.934 9.83471 182.638 11.136C183.342 12.416 183.694 13.8987 183.694 15.584C183.694 15.6907 183.683 15.808 183.662 15.936C183.662 16.0427 183.662 16.16 183.662 16.288H169.038V14.592H182.446L181.55 15.264C181.55 14.048 181.283 12.9707 180.75 12.032C180.238 11.072 179.534 10.3254 178.638 9.79204C177.742 9.25871 176.707 8.99204 175.534 8.99204C174.382 8.99204 173.347 9.25871 172.43 9.79204C171.512 10.3254 170.798 11.072 170.286 12.032C169.774 12.992 169.518 14.0907 169.518 15.328V15.68C169.518 16.96 169.795 18.0907 170.35 19.072C170.926 20.032 171.715 20.7894 172.718 21.344C173.742 21.8774 174.904 22.144 176.206 22.144C177.23 22.144 178.179 21.9627 179.054 21.6C179.95 21.2374 180.718 20.6827 181.358 19.936L182.638 21.408C181.891 22.304 180.952 22.9867 179.822 23.456C178.712 23.9254 177.486 24.16 176.142 24.16Z" fill="black"/>
<path d="M157.227 24V5.08801C157.227 3.59468 157.664 2.38934 158.539 1.47201C159.414 0.554675 160.672 0.0960083 162.315 0.0960083C162.955 0.0960083 163.574 0.181342 164.171 0.352009C164.768 0.522676 165.27 0.789342 165.675 1.15201L164.907 2.84801C164.587 2.57068 164.214 2.36801 163.787 2.24001C163.36 2.09068 162.902 2.01601 162.411 2.01601C161.451 2.01601 160.715 2.28267 160.203 2.81601C159.691 3.34934 159.435 4.13868 159.435 5.18401V7.74401L159.499 8.80001V24H157.227ZM154.219 9.08801V7.20001H164.619V9.08801H154.219Z" fill="black"/>
<path d="M143.066 24.16C141.317 24.16 139.781 23.7974 138.458 23.072C137.136 22.3254 136.101 21.312 135.354 20.032C134.608 18.7307 134.234 17.248 134.234 15.584C134.234 13.92 134.586 12.448 135.29 11.168C136.016 9.88804 136.997 8.88537 138.234 8.16004C139.493 7.41337 140.901 7.04004 142.458 7.04004C144.037 7.04004 145.434 7.40271 146.65 8.12804C147.888 8.83204 148.858 9.83471 149.562 11.136C150.266 12.416 150.618 13.8987 150.618 15.584C150.618 15.6907 150.608 15.808 150.587 15.936C150.587 16.0427 150.587 16.16 150.587 16.288H135.962V14.592H149.37L148.475 15.264C148.475 14.048 148.208 12.9707 147.674 12.032C147.162 11.072 146.459 10.3254 145.562 9.79204C144.667 9.25871 143.632 8.99204 142.458 8.99204C141.306 8.99204 140.272 9.25871 139.354 9.79204C138.437 10.3254 137.722 11.072 137.21 12.032C136.698 12.992 136.442 14.0907 136.442 15.328V15.68C136.442 16.96 136.72 18.0907 137.274 19.072C137.85 20.032 138.64 20.7894 139.643 21.344C140.667 21.8774 141.829 22.144 143.13 22.144C144.154 22.144 145.104 21.9627 145.979 21.6C146.875 21.2374 147.643 20.6827 148.283 19.936L149.562 21.408C148.816 22.304 147.877 22.9867 146.746 23.456C145.637 23.9254 144.41 24.16 143.066 24.16Z" fill="black"/>
<path d="M121.893 24V7.20004H124.069V11.776L123.845 10.976C124.314 9.69604 125.104 8.72537 126.213 8.06404C127.322 7.38137 128.698 7.04004 130.341 7.04004V9.24804C130.256 9.24804 130.17 9.24804 130.085 9.24804C130 9.22671 129.914 9.21604 129.829 9.21604C128.058 9.21604 126.672 9.76004 125.669 10.848C124.666 11.9147 124.165 13.44 124.165 15.424V24H121.893Z" fill="black"/>
<path d="M98.5229 24V1.59998H106.907C108.806 1.59998 110.438 1.90931 111.803 2.52798C113.168 3.12531 114.214 3.99998 114.939 5.15198C115.686 6.28264 116.059 7.65864 116.059 9.27998C116.059 10.8586 115.686 12.224 114.939 13.376C114.214 14.5066 113.168 15.3813 111.803 16C110.438 16.6186 108.806 16.928 106.907 16.928H99.8349L100.891 15.808V24H98.5229ZM100.891 16L99.8349 14.848H106.843C109.083 14.848 110.779 14.368 111.931 13.408C113.104 12.4266 113.691 11.0506 113.691 9.27998C113.691 7.48798 113.104 6.10131 111.931 5.11998C110.779 4.13864 109.083 3.64798 106.843 3.64798H99.8349L100.891 2.52798V16Z" fill="black"/>
<path d="M71.4685 24.16C69.8685 24.16 68.4285 23.7973 67.1485 23.072C65.8898 22.3467 64.8978 21.344 64.1725 20.064C63.4471 18.7626 63.0845 17.2693 63.0845 15.584C63.0845 13.8773 63.4471 12.384 64.1725 11.104C64.8978 9.82398 65.8898 8.83198 67.1485 8.12798C68.4285 7.40265 69.8685 7.03998 71.4685 7.03998C72.9405 7.03998 74.2525 7.37065 75.4045 8.03198C76.5778 8.69332 77.5058 9.66398 78.1885 10.944C78.8925 12.2027 79.2445 13.7493 79.2445 15.584C79.2445 17.3973 78.9031 18.944 78.2205 20.224C77.5378 21.504 76.6098 22.4853 75.4365 23.168C74.2845 23.8293 72.9618 24.16 71.4685 24.16ZM71.6285 22.144C72.8231 22.144 73.8898 21.8773 74.8285 21.344C75.7885 20.7893 76.5351 20.0213 77.0685 19.04C77.6231 18.0373 77.9005 16.8853 77.9005 15.584C77.9005 14.2613 77.6231 13.1093 77.0685 12.128C76.5351 11.1466 75.7885 10.3893 74.8285 9.85598C73.8898 9.30132 72.8231 9.02398 71.6285 9.02398C70.4551 9.02398 69.3991 9.30132 68.4605 9.85598C67.5218 10.3893 66.7751 11.1466 66.2205 12.128C65.6658 13.1093 65.3885 14.2613 65.3885 15.584C65.3885 16.8853 65.6658 18.0373 66.2205 19.04C66.7751 20.0213 67.5218 20.7893 68.4605 21.344C69.3991 21.8773 70.4551 22.144 71.6285 22.144ZM77.9645 24V18.944L78.1885 15.552L77.8685 12.16V0.255981H80.1405V24H77.9645Z" fill="black"/>
<path d="M49.966 24.16C48.3447 24.16 46.8833 23.7974 45.582 23.072C44.302 22.3254 43.2887 21.312 42.542 20.032C41.7953 18.7307 41.422 17.248 41.422 15.584C41.422 13.8987 41.7953 12.416 42.542 11.136C43.2887 9.85604 44.302 8.85337 45.582 8.12804C46.862 7.40271 48.3233 7.04004 49.966 7.04004C51.63 7.04004 53.102 7.40271 54.382 8.12804C55.6833 8.85337 56.6967 9.85604 57.422 11.136C58.1687 12.416 58.542 13.8987 58.542 15.584C58.542 17.248 58.1687 18.7307 57.422 20.032C56.6967 21.312 55.6833 22.3254 54.382 23.072C53.0807 23.7974 51.6087 24.16 49.966 24.16ZM49.966 22.144C51.182 22.144 52.2593 21.8774 53.198 21.344C54.1367 20.7894 54.8727 20.0214 55.406 19.04C55.9607 18.0374 56.238 16.8854 56.238 15.584C56.238 14.2614 55.9607 13.1094 55.406 12.128C54.8727 11.1467 54.1367 10.3894 53.198 9.85604C52.2593 9.30137 51.1927 9.02404 49.998 9.02404C48.8033 9.02404 47.7367 9.30137 46.798 9.85604C45.8593 10.3894 45.1127 11.1467 44.558 12.128C44.0033 13.1094 43.726 14.2614 43.726 15.584C43.726 16.8854 44.0033 18.0374 44.558 19.04C45.1127 20.0214 45.8593 20.7894 46.798 21.344C47.7367 21.8774 48.7927 22.144 49.966 22.144Z" fill="black"/>
<path d="M28.3035 24.16C26.6822 24.16 25.2209 23.7974 23.9195 23.072C22.6395 22.3254 21.6262 21.312 20.8795 20.032C20.1329 18.7307 19.7595 17.248 19.7595 15.584C19.7595 13.8987 20.1329 12.416 20.8795 11.136C21.6262 9.85604 22.6395 8.85337 23.9195 8.12804C25.1995 7.40271 26.6609 7.04004 28.3035 7.04004C29.9675 7.04004 31.4395 7.40271 32.7195 8.12804C34.0209 8.85337 35.0342 9.85604 35.7595 11.136C36.5062 12.416 36.8795 13.8987 36.8795 15.584C36.8795 17.248 36.5062 18.7307 35.7595 20.032C35.0342 21.312 34.0209 22.3254 32.7195 23.072C31.4182 23.7974 29.9462 24.16 28.3035 24.16ZM28.3035 22.144C29.5195 22.144 30.5969 21.8774 31.5355 21.344C32.4742 20.7894 33.2102 20.0214 33.7435 19.04C34.2982 18.0374 34.5755 16.8854 34.5755 15.584C34.5755 14.2614 34.2982 13.1094 33.7435 12.128C33.2102 11.1467 32.4742 10.3894 31.5355 9.85604C30.5969 9.30137 29.5302 9.02404 28.3355 9.02404C27.1409 9.02404 26.0742 9.30137 25.1355 9.85604C24.1969 10.3894 23.4502 11.1467 22.8955 12.128C22.3409 13.1094 22.0635 14.2614 22.0635 15.584C22.0635 16.8854 22.3409 18.0374 22.8955 19.04C23.4502 20.0214 24.1969 20.7894 25.1355 21.344C26.0742 21.8774 27.1302 22.144 28.3035 22.144Z" fill="black"/>
<path d="M2.75995 12.448H14.5999V14.496H2.75995V12.448ZM3.01595 24H0.647949V1.59998H16.0079V3.64798H3.01595V24Z" fill="black"/>
</svg>
