<svg width="142" height="28" viewBox="0 0 142 28" fill="none" xmlns="http://www.w3.org/2000/svg">
<path d="M131.587 27V8.09998H134.035V13.248L133.783 12.348C134.311 10.908 135.199 9.81598 136.447 9.07198C137.695 8.30398 139.243 7.91998 141.091 7.91998V10.404C140.995 10.404 140.899 10.404 140.803 10.404C140.707 10.38 140.611 10.368 140.515 10.368C138.523 10.368 136.963 10.98 135.835 12.204C134.707 13.404 134.143 15.12 134.143 17.352V27H131.587Z" fill="black"/>
<path d="M116.089 27.18C114.121 27.18 112.393 26.772 110.905 25.956C109.417 25.116 108.253 23.976 107.413 22.536C106.573 21.072 106.153 19.404 106.153 17.532C106.153 15.66 106.549 14.004 107.341 12.564C108.157 11.124 109.261 9.99598 110.653 9.17998C112.069 8.33998 113.653 7.91998 115.405 7.91998C117.181 7.91998 118.753 8.32798 120.121 9.14398C121.513 9.93598 122.605 11.064 123.397 12.528C124.189 13.968 124.585 15.636 124.585 17.532C124.585 17.652 124.573 17.784 124.549 17.928C124.549 18.048 124.549 18.18 124.549 18.324H108.097V16.416H123.181L122.173 17.172C122.173 15.804 121.873 14.592 121.273 13.536C120.697 12.456 119.905 11.616 118.897 11.016C117.889 10.416 116.725 10.116 115.405 10.116C114.109 10.116 112.945 10.416 111.913 11.016C110.881 11.616 110.077 12.456 109.501 13.536C108.925 14.616 108.637 15.852 108.637 17.244V17.64C108.637 19.08 108.949 20.352 109.573 21.456C110.221 22.536 111.109 23.388 112.237 24.012C113.389 24.612 114.697 24.912 116.161 24.912C117.313 24.912 118.381 24.708 119.365 24.3C120.373 23.892 121.237 23.268 121.957 22.428L123.397 24.084C122.557 25.092 121.501 25.86 120.229 26.388C118.981 26.916 117.601 27.18 116.089 27.18Z" fill="black"/>
<path d="M89.3865 27.18C87.5865 27.18 85.9665 26.772 84.5265 25.956C83.1105 25.14 81.9945 24.012 81.1785 22.572C80.3625 21.108 79.9545 19.428 79.9545 17.532C79.9545 15.612 80.3625 13.932 81.1785 12.492C81.9945 11.052 83.1105 9.93603 84.5265 9.14403C85.9665 8.32803 87.5865 7.92003 89.3865 7.92003C91.0425 7.92003 92.5185 8.29203 93.8145 9.03603C95.1345 9.78003 96.1785 10.872 96.9465 12.312C97.7385 13.728 98.1345 15.468 98.1345 17.532C98.1345 19.572 97.7505 21.312 96.9825 22.752C96.2145 24.192 95.1705 25.296 93.8505 26.064C92.5545 26.808 91.0665 27.18 89.3865 27.18ZM89.5665 24.912C90.9105 24.912 92.1105 24.612 93.1665 24.012C94.2465 23.388 95.0865 22.524 95.6865 21.42C96.3105 20.292 96.6225 18.996 96.6225 17.532C96.6225 16.044 96.3105 14.748 95.6865 13.644C95.0865 12.54 94.2465 11.688 93.1665 11.088C92.1105 10.464 90.9105 10.152 89.5665 10.152C88.2465 10.152 87.0585 10.464 86.0025 11.088C84.9465 11.688 84.1065 12.54 83.4825 13.644C82.8585 14.748 82.5465 16.044 82.5465 17.532C82.5465 18.996 82.8585 20.292 83.4825 21.42C84.1065 22.524 84.9465 23.388 86.0025 24.012C87.0585 24.612 88.2465 24.912 89.5665 24.912ZM96.6945 27V21.312L96.9465 17.496L96.5865 13.68V0.288025H99.1425V27H96.6945Z" fill="black"/>
<path d="M65.3823 7.91998C66.9183 7.91998 68.2623 8.21998 69.4143 8.81998C70.5903 9.39598 71.5023 10.284 72.1503 11.484C72.8223 12.684 73.1583 14.196 73.1583 16.02V27H70.6023V16.272C70.6023 14.28 70.0983 12.78 69.0903 11.772C68.1063 10.74 66.7143 10.224 64.9143 10.224C63.5703 10.224 62.3943 10.5 61.3863 11.052C60.4023 11.58 59.6343 12.36 59.0823 13.392C58.5543 14.4 58.2903 15.624 58.2903 17.064V27H55.7343V8.09998H58.1823V13.284L57.7863 12.312C58.3863 10.944 59.3463 9.87598 60.6663 9.10798C61.9863 8.31598 63.5583 7.91998 65.3823 7.91998Z" fill="black"/>
<path d="M40.2358 27.18C38.2678 27.18 36.5398 26.772 35.0518 25.956C33.5638 25.116 32.3998 23.976 31.5598 22.536C30.7198 21.072 30.2998 19.404 30.2998 17.532C30.2998 15.66 30.6958 14.004 31.4878 12.564C32.3038 11.124 33.4078 9.99598 34.7998 9.17998C36.2158 8.33998 37.7998 7.91998 39.5518 7.91998C41.3278 7.91998 42.8998 8.32798 44.2678 9.14398C45.6598 9.93598 46.7518 11.064 47.5438 12.528C48.3358 13.968 48.7318 15.636 48.7318 17.532C48.7318 17.652 48.7198 17.784 48.6958 17.928C48.6958 18.048 48.6958 18.18 48.6958 18.324H32.2438V16.416H47.3278L46.3198 17.172C46.3198 15.804 46.0198 14.592 45.4198 13.536C44.8438 12.456 44.0518 11.616 43.0438 11.016C42.0358 10.416 40.8718 10.116 39.5518 10.116C38.2558 10.116 37.0918 10.416 36.0598 11.016C35.0278 11.616 34.2238 12.456 33.6478 13.536C33.0718 14.616 32.7838 15.852 32.7838 17.244V17.64C32.7838 19.08 33.0958 20.352 33.7198 21.456C34.3678 22.536 35.2558 23.388 36.3838 24.012C37.5358 24.612 38.8438 24.912 40.3078 24.912C41.4598 24.912 42.5278 24.708 43.5118 24.3C44.5198 23.892 45.3838 23.268 46.1038 22.428L47.5438 24.084C46.7038 25.092 45.6478 25.86 44.3758 26.388C43.1278 26.916 41.7478 27.18 40.2358 27.18Z" fill="black"/>
<path d="M14.1559 27.216C12.2359 27.216 10.4599 26.904 8.82795 26.28C7.21995 25.632 5.81595 24.732 4.61595 23.58C3.43995 22.428 2.51595 21.072 1.84395 19.512C1.19595 17.952 0.871948 16.248 0.871948 14.4C0.871948 12.552 1.19595 10.848 1.84395 9.28799C2.51595 7.72799 3.45195 6.37198 4.65195 5.21999C5.85195 4.06798 7.25595 3.17998 8.86395 2.55599C10.4959 1.90799 12.2719 1.58398 14.1919 1.58398C16.1119 1.58398 17.8639 1.88398 19.4479 2.48398C21.0559 3.08398 22.424 3.99599 23.552 5.21999L21.896 6.91198C20.8399 5.85598 19.6759 5.09998 18.4039 4.64398C17.1319 4.18798 15.7639 3.95998 14.2999 3.95998C12.7399 3.95998 11.2999 4.22398 9.97995 4.75198C8.68395 5.25599 7.54395 5.98798 6.55995 6.94798C5.59995 7.88398 4.84395 8.98798 4.29195 10.26C3.76395 11.508 3.49995 12.888 3.49995 14.4C3.49995 15.888 3.76395 17.268 4.29195 18.54C4.84395 19.812 5.59995 20.928 6.55995 21.888C7.54395 22.824 8.68395 23.556 9.97995 24.084C11.2999 24.588 12.7279 24.84 14.2639 24.84C15.7039 24.84 17.0599 24.624 18.3319 24.192C19.6279 23.76 20.8159 23.028 21.896 21.996L23.4079 24.012C22.2079 25.068 20.8039 25.872 19.1959 26.424C17.5879 26.952 15.9079 27.216 14.1559 27.216ZM20.8519 23.688V14.4H23.4079V24.012L20.8519 23.688Z" fill="black"/>
</svg>
