<svg width="280" height="280" viewBox="0 0 280 280" fill="none" xmlns="http://www.w3.org/2000/svg">
<g filter="url(#filter0_b_683_6394)">
<rect width="280" height="280" rx="16" fill="white" fill-opacity="0.5"/>
<rect x="4" y="4" width="272" height="272" rx="12" stroke="#E23744" stroke-width="8"/>
<rect x="86" y="45" width="108" height="102" rx="16" fill="#D9D9D9"/>
<path d="M142.995 87.7498C143.363 89.0987 142.657 90.6012 141.411 91.1614C141.037 91.311 140.758 91.3677 140.489 91.3737C139.472 91.398 138.556 90.7286 138.258 89.6326L134.661 76.5161L128.206 90.9652C131.716 93.216 134.343 96.7004 135.706 100.992C137.338 106.124 136.974 111.791 134.693 116.949C132.412 122.112 128.481 126.151 123.621 128.321C121.283 129.366 118.865 129.918 116.472 129.975C113.898 130.038 111.358 129.526 108.982 128.44C104.395 126.351 100.972 122.375 99.3438 117.247C97.7159 112.118 98.0759 106.452 100.357 101.289C102.642 96.1261 106.573 92.0916 111.429 89.9177C113.765 88.8742 116.179 88.3262 118.568 88.2675C120.339 88.2251 122.094 88.4536 123.791 88.9511L130.246 74.5019L118.204 80.4878C117.868 80.6537 117.522 80.7366 117.186 80.7447C116.242 80.7669 115.38 80.1966 115.023 79.2098C114.533 77.871 115.174 76.2694 116.446 75.6384L134.394 66.7202C134.657 66.6029 134.79 66.5584 134.924 66.5261C135.132 66.4876 135.27 66.4674 135.409 66.4634C135.607 66.4634 135.755 66.4755 135.896 66.5058C136.072 66.5443 136.222 66.5908 136.372 66.6595C136.515 66.7243 136.653 66.8051 136.776 66.9002C136.914 67.0074 137.023 67.1105 137.118 67.2217C137.247 67.3673 137.326 67.4866 137.397 67.612C137.492 67.792 137.549 67.9214 137.595 68.061L142.995 87.7498ZM131.029 103.085C129.822 99.2748 127.28 96.3202 123.874 94.7691C122.107 93.9622 120.218 93.5841 118.305 93.6306C116.529 93.6731 114.731 94.0836 112.994 94.8581C109.386 96.4719 106.468 99.4709 104.772 103.305C103.079 107.137 102.808 111.352 104.019 115.16C105.227 118.97 107.769 121.92 111.178 123.475C112.942 124.278 114.828 124.656 116.739 124.612C118.517 124.569 120.315 124.159 122.052 123.382C125.66 121.773 128.578 118.769 130.275 114.935C131.969 111.103 132.24 106.895 131.029 103.085Z" fill="#34ADE2"/>
<path d="M142.509 86.1317C142.877 87.4805 142.172 88.9831 140.926 89.5432C140.552 89.6929 140.273 89.7495 140.004 89.7556C138.986 89.7798 138.07 89.1105 137.773 88.0144L134.175 74.8979L127.72 89.3471C131.231 91.5979 133.858 95.0822 135.221 99.3735C136.853 104.506 136.489 110.172 134.208 115.331C131.927 120.494 127.995 124.533 123.136 126.703C120.798 127.748 118.379 128.3 115.987 128.357C113.413 128.419 110.873 127.908 108.497 126.822C103.91 124.733 100.486 120.757 98.8585 115.629C97.2306 110.5 97.5905 104.834 99.8717 99.6708C102.157 94.5079 106.088 90.4735 110.944 88.2995C113.279 87.256 115.694 86.708 118.082 86.6494C119.854 86.6069 121.609 86.8354 123.306 87.3329L129.761 72.8837L117.718 78.8697C117.383 79.0355 117.037 79.1184 116.701 79.1265C115.757 79.1488 114.895 78.5785 114.537 77.5916C114.048 76.2529 114.689 74.6512 115.961 74.0203L133.907 65.102C134.169 64.9848 134.303 64.9403 134.436 64.9079C134.645 64.8695 134.782 64.8493 134.922 64.8452C135.12 64.8452 135.267 64.8573 135.409 64.8877C135.585 64.9261 135.735 64.9726 135.884 65.0414C136.028 65.1061 136.165 65.187 136.289 65.282C136.426 65.3892 136.535 65.4923 136.631 65.6036C136.76 65.7492 136.839 65.8685 136.91 65.9939C137.005 66.1738 137.061 66.3033 137.108 66.4428L142.509 86.1317ZM130.543 101.467C129.336 97.6566 126.794 94.7021 123.389 93.151C121.621 92.3441 119.732 91.9659 117.819 92.0124C116.044 92.0549 114.246 92.4654 112.509 93.24C108.901 94.8537 105.983 97.8528 104.286 101.687C102.594 105.519 102.323 109.734 103.534 113.542C104.741 117.352 107.283 120.302 110.693 121.857C112.456 122.66 114.343 123.038 116.254 122.994C118.032 122.951 119.829 122.541 121.567 121.764C125.174 120.154 128.092 117.151 129.789 113.317C131.484 109.485 131.755 105.274 130.543 101.467Z" fill="#51BCF5"/>
<mask id="mask0_683_6394" style="mask-type:luminance" maskUnits="userSpaceOnUse" x="97" y="69" width="54" height="54">
<path d="M150.695 101.707L148.849 89.3979L119.156 69.5513L97 76.9366L103.33 104.454C102.551 107.485 102.61 110.63 103.536 113.54C104.743 117.35 107.285 120.3 110.695 121.855C112.458 122.658 114.345 123.036 116.256 122.992C118.034 122.949 119.831 122.539 121.569 121.762C124.378 120.509 126.768 118.405 128.489 115.728L145.312 112.169L150.695 101.707Z" fill="white"/>
</mask>
<g mask="url(#mask0_683_6394)">
<path d="M117.269 109.722C117.269 109.722 116.994 128.618 116.058 133.578C115.122 138.539 109.951 161.478 109.896 161.947C107.31 161.757 104.725 160.875 104.725 160.875C104.725 160.875 104.46 142.838 107.101 133.578C107.437 132.193 107.186 124.458 106.96 113.34C106.927 111.716 107.732 109.809 107.702 108.049C118.98 109.704 117.269 109.722 117.269 109.722Z" fill="#331A26"/>
<path d="M123.704 106.343C123.704 106.343 125.209 111.54 125.183 117.392C125.152 123.704 125.071 130.893 124.855 133.51C124.44 138.551 122.327 161.448 122.323 161.921C119.593 162.042 116.784 161.478 116.784 161.478C116.784 161.478 114.632 143.372 116.341 133.854C116.564 132.23 112.98 118.325 112.248 104.826C124.252 105.113 123.704 106.343 123.704 106.343Z" fill="#331A26"/>
<path d="M126.697 118.545C126.691 118.466 126.685 118.381 126.679 118.292C126.689 118.373 126.695 118.458 126.697 118.545Z" fill="#BFDED6"/>
<path d="M113.709 115.508C113.709 115.508 112.688 118.509 108.989 119.16C109.126 121.318 111.66 120.428 112.346 120.256C113.031 120.084 114.469 118.681 114.469 118.304C114.469 117.928 113.709 115.508 113.709 115.508Z" fill="#331A26"/>
<path d="M118.083 115.093C118.077 116.045 118.049 116.998 118.01 117.95C117.994 118.425 117.972 118.903 117.943 119.378C117.915 119.853 117.889 120.328 117.846 120.806L117.691 120.715C118.14 120.397 118.603 120.082 118.878 119.625C119.017 119.398 119.11 119.145 119.167 118.88C119.226 118.618 119.242 118.343 119.274 118.063C119.339 117.509 119.422 116.959 119.503 116.409C119.588 115.859 119.679 115.311 119.782 114.765L119.45 118.082C119.422 118.355 119.408 118.638 119.349 118.919C119.292 119.198 119.193 119.475 119.044 119.724C118.744 120.231 118.259 120.569 117.804 120.878L117.628 120.998L117.648 120.785C117.695 120.314 117.727 119.839 117.761 119.366C117.792 118.891 117.824 118.415 117.863 117.942C117.929 116.992 117.998 116.041 118.083 115.093Z" fill="#443B44"/>
<path d="M117.749 120.796C117.749 120.796 117.658 123.93 117.531 124.709C117.531 124.709 116.25 134.672 113.781 143.844" stroke="#443B44" stroke-width="0.205524" stroke-miterlimit="10"/>
<path d="M108.732 119.332C108.216 124.373 108.6 128.038 108.071 132.998C108.071 132.998 106.02 138.232 105.292 159.729" stroke="#443B44" stroke-width="0.205524" stroke-miterlimit="10"/>
<path d="M127.725 101.45C127.725 101.45 128.419 105.07 128.471 105.214C130.261 103.887 134.166 100.894 134.166 100.894C135.707 102.917 135.913 103.135 135.913 103.135C135.913 103.135 132.675 106.538 131.365 108.029C130.055 109.519 128.898 110.411 127.486 110.322C126.075 110.233 124.455 106.488 124.455 106.488L123.988 102.555L127.725 101.45Z" fill="#F9A58C"/>
<path d="M120.839 89.9766C120.839 89.9766 123.955 91.0625 125.086 92.0777C126.216 93.0929 128.681 100.662 128.681 100.662C128.681 100.662 127.413 103.107 124.76 103.305C122.105 103.506 121.969 99.7361 122.208 99.2224C122.449 98.7108 120.839 89.9766 120.839 89.9766Z" fill="white"/>
<path d="M115.834 84.9468C115.834 84.9468 115.569 85.3169 115.599 86.876C115.623 88.1541 115.231 88.5828 115.231 88.5828C115.231 90.411 116.568 91.7133 118.303 91.5637C119.468 91.4625 120.171 90.3564 120.062 89.3796C120.054 89.3028 119.767 89.1066 119.88 87.8224C119.927 87.2845 120.062 86.8275 120.062 86.8275C118.129 87.4645 115.834 84.9468 115.834 84.9468Z" fill="#F9A58C"/>
<path d="M107.712 119.142C108.024 119.17 108.333 119.18 108.643 119.166C108.952 119.158 109.259 119.131 109.565 119.081C110.171 118.982 110.768 118.814 111.312 118.535C111.585 118.397 111.844 118.236 112.087 118.052C112.327 117.865 112.548 117.653 112.756 117.427C112.954 117.194 113.146 116.951 113.3 116.682C113.47 116.424 113.599 116.14 113.733 115.859C113.557 116.458 113.27 117.03 112.877 117.53C112.681 117.779 112.451 118.001 112.208 118.205C111.959 118.403 111.688 118.573 111.405 118.719C110.837 119.004 110.214 119.174 109.587 119.237C108.958 119.301 108.323 119.281 107.712 119.142Z" fill="#443B44"/>
<path d="M122.159 81.4605C122.159 81.4605 122.499 87.6183 118.513 87.9661C117.435 88.0814 115.071 86.4191 114.622 85.3392C113.743 85.2886 113.365 84.504 113.494 83.6587C113.662 82.5626 114.614 82.504 114.908 82.781C113.998 81.9883 113.755 80.9751 114.137 79.3169C114.517 77.6566 117.543 78.419 118.188 78.5484C118.701 78.1763 122.008 77.8406 122.159 81.4605Z" fill="#F9A58C"/>
<path d="M120.552 87.0335C120.216 87.3672 119.818 87.6443 119.373 87.8263C118.926 88.0042 118.431 88.0629 117.951 87.9941C117.472 87.9213 117.019 87.7292 116.619 87.4703C116.22 87.2074 115.86 86.8859 115.573 86.5098C115.903 86.8475 116.273 87.1427 116.675 87.3793C117.078 87.6139 117.513 87.798 117.972 87.8566C118.2 87.891 118.431 87.8991 118.661 87.8768C118.892 87.8546 119.116 87.7939 119.337 87.7252C119.776 87.5694 120.18 87.3247 120.552 87.0335Z" fill="#BC6048"/>
<path d="M118.921 86.1525C118.921 86.1525 118.118 86.1747 117.62 85.5981C117.45 85.8874 117.325 86.5429 117.859 86.8079C118.5 87.1276 118.921 86.1525 118.921 86.1525Z" fill="white"/>
<path d="M119.763 83.1187C119.763 83.1187 119.737 84.3183 120.215 84.8868C120.215 84.8868 120.008 85.0406 119.658 85.2348" stroke="#E26B48" stroke-width="0.104107" stroke-miterlimit="10" stroke-linecap="round" stroke-linejoin="round"/>
<path d="M117.456 83.4464C117.468 83.6891 117.618 83.8813 117.792 83.8712C117.966 83.8631 118.095 83.6588 118.083 83.414C118.071 83.1712 117.921 82.979 117.747 82.9892C117.575 82.9972 117.444 83.2016 117.456 83.4464Z" fill="#382B28"/>
<path d="M118.524 81.6869C118.524 81.6869 117.574 81.3309 116.971 81.693C116.971 81.693 117.646 81.1387 118.524 81.6869Z" stroke="#4C0702" stroke-width="0.151529" stroke-miterlimit="10" stroke-linecap="round" stroke-linejoin="round"/>
<path d="M121.361 83.6931C121.331 83.9359 121.167 84.1139 120.995 84.0937C120.823 84.0735 120.708 83.859 120.738 83.6162C120.769 83.3735 120.932 83.1954 121.104 83.2157C121.274 83.2379 121.392 83.4504 121.361 83.6931Z" fill="#382B28"/>
<path d="M120.498 81.8002C120.498 81.8002 121.38 81.6303 121.849 82.0147C121.847 82.0147 121.347 81.4603 120.498 81.8002Z" stroke="#4C0702" stroke-width="0.151529" stroke-miterlimit="10" stroke-linecap="round" stroke-linejoin="round"/>
<path d="M117.932 84.8702C117.908 85.1089 117.511 85.2647 117.048 85.2161C116.585 85.1676 116.228 84.9349 116.255 84.6942C116.279 84.4554 116.676 84.2997 117.139 84.3482C117.602 84.3968 117.958 84.6315 117.932 84.8702Z" fill="#EA7754"/>
<path d="M121.748 84.7788C121.673 85.06 121.586 85.3391 121.489 85.6102C121.135 85.5232 120.888 85.327 120.91 85.1287C120.934 84.8981 121.303 84.7464 121.748 84.7788Z" fill="#EA7754"/>
<path d="M115.775 82.3583C115.633 82.5343 115.498 82.7183 115.389 82.9165C115.298 83.0783 115.1 83.4079 115.128 83.604C115.128 83.598 114.992 82.8518 114.665 82.7122C114.246 82.5343 113.795 82.8194 113.629 83.1814C113.385 83.7153 113.405 83.6243 113.1 83.0419C112.477 81.8568 112.274 80.6273 112.738 79.3553C113.185 78.1298 114.119 77.1065 115.302 76.5544C116.663 75.9194 118.234 75.9639 119.654 76.3704C120.412 76.5868 121.565 77.0256 122.267 76.4513C122.552 76.2187 122.576 75.8385 122.517 75.4988C122.521 75.517 122.568 75.5534 122.582 75.5675C123.522 76.5665 123.793 77.9922 123.662 79.3209C123.545 80.4999 123.227 81.7577 122.438 82.6819C122.382 82.7466 122.107 82.967 122.101 83.0419C122.165 81.8831 122.123 81.0641 121.87 80.5383C121.559 80.7243 121.027 80.5403 120.746 80.3886C120.533 80.2754 120.271 79.8871 120.064 80.0853C119.967 80.1783 119.923 80.3482 119.824 80.4533C119.729 80.5524 119.617 80.6354 119.498 80.7021C119.207 80.8618 118.875 80.9286 118.55 80.9953C118.23 81.06 117.909 81.1247 117.589 81.1895C117.233 81.2602 116.869 81.3371 116.566 81.5353C116.343 81.6829 116.167 81.8871 115.995 82.0914C115.923 82.1783 115.848 82.2673 115.775 82.3583Z" fill="#4C0702"/>
<path d="M117.965 91.6407C117.965 91.6407 119.709 89.1371 119.854 88.9915C120.23 88.9753 121.011 89.669 121.181 90.1482C121.353 90.6275 121.197 92.6821 120.667 93.1634C120.135 93.6427 119.64 92.9572 119.349 92.5466C119.057 92.1341 118.78 91.582 117.965 91.6407Z" fill="white"/>
<path d="M124.847 97.1269C125.274 100.085 125.419 103.113 125.628 106.096C125.812 108.729 125.975 111.362 126.095 113.999C126.121 114.569 126.143 115.141 126.164 115.712C126.194 116.585 126.38 116.674 125.607 117.285C125.258 117.56 124.815 117.655 124.384 117.677C122.869 117.752 121.429 117.014 119.931 116.767C117.486 116.365 114.689 116.336 112.505 117.184C110.881 117.813 108.984 117.693 107.393 116.923C106.796 116.634 106.45 116.379 106.329 115.685C106.196 114.925 106.479 114.067 106.499 113.303C106.527 112.258 106.556 111.212 106.582 110.169L110.238 99.4727C110.238 99.4727 112.002 95.1592 112.07 94.9165C112.139 94.6739 112.875 93.2745 112.978 93.0136C113.081 92.7527 114.675 91.6546 114.675 91.6546L116.131 91.2421L117.706 91.3351L120.659 90.2673C120.657 90.2633 124.437 94.2815 124.847 97.1269Z" fill="white"/>
<path d="M115.271 88.6313C115.271 88.6313 113.91 88.6576 113.233 89.6081C112.557 90.5586 114.125 92.7608 115.178 93.325C116.232 93.8893 116.487 92.6375 116.869 91.9964C117.251 91.3574 117.917 91.6587 117.917 91.6587L115.271 88.6313Z" fill="white"/>
<path d="M105.647 101.76C105.647 101.76 105.237 105.008 105.34 106.955C105.443 108.902 109.473 116.294 109.68 116.909C109.886 117.525 110.118 118.921 110.118 118.921C110.118 118.921 112.222 118.664 113.071 117.097C112.996 116.403 112.327 115.989 112.123 115.04C111.916 114.092 110.171 108.581 109.811 107.2C109.451 105.819 110.428 100.894 110.428 100.894L105.647 101.76Z" fill="#F9A58C"/>
<path d="M113.569 89.2483C113.569 89.2483 108.869 90.7812 107.378 92.6821C105.888 94.583 104.466 101.811 104.466 101.811C104.466 101.811 108.679 104.072 110.94 102.684C111.504 100.423 111.66 97.752 111.66 97.752L114.741 92.4091L113.569 89.2483Z" fill="white"/>
<path d="M113.5 89.2744C113.265 89.5515 113.191 89.9256 113.227 90.2734C113.257 90.6253 113.369 90.9671 113.52 91.2886C113.824 91.9276 114.25 92.5161 114.784 92.9792C115.047 93.2077 115.358 93.414 115.696 93.4201C115.864 93.416 116.02 93.3351 116.141 93.2138C116.262 93.0925 116.357 92.9448 116.444 92.7911C116.531 92.6375 116.604 92.4737 116.681 92.3119C116.762 92.1521 116.825 91.9822 116.95 91.8407C117.075 91.7011 117.253 91.6263 117.433 91.6C117.613 91.5758 117.795 91.5919 117.967 91.6385C117.793 91.6 117.611 91.594 117.437 91.6243C117.263 91.6567 117.1 91.7375 116.99 91.873C116.881 92.0045 116.819 92.1764 116.744 92.3382C116.671 92.502 116.602 92.6678 116.517 92.8275C116.434 92.9873 116.337 93.145 116.206 93.2785C116.076 93.412 115.894 93.5091 115.7 93.5151C115.31 93.5111 114.986 93.2886 114.713 93.0581C114.173 92.5748 113.739 91.9802 113.445 91.321C113.302 90.9913 113.197 90.6374 113.176 90.2754C113.154 89.9175 113.251 89.5393 113.5 89.2744Z" fill="#AFAFAF"/>
<path d="M117.965 91.6406C118.081 92.5446 118.196 93.4506 118.295 94.3586C118.319 94.5851 118.341 94.8136 118.358 95.0401C118.376 95.2706 118.36 95.4971 118.366 95.7256C118.368 96.1806 118.376 96.6377 118.388 97.0927C118.412 98.0047 118.449 98.9147 118.507 99.8248C118.568 100.733 118.647 101.643 118.792 102.541C118.865 102.986 118.976 103.435 119.025 103.89C119.055 104.116 119.08 104.345 119.098 104.571C119.12 104.798 119.138 105.026 119.152 105.255C119.217 106.167 119.256 107.079 119.28 107.991C119.306 108.903 119.324 109.815 119.332 110.727C119.334 111.639 119.332 112.551 119.32 113.463C119.314 112.551 119.3 111.639 119.28 110.727C119.264 109.815 119.241 108.903 119.209 107.991C119.177 107.079 119.132 106.169 119.063 105.261C119.047 105.034 119.027 104.806 119.005 104.579C118.985 104.353 118.96 104.126 118.926 103.902C118.875 103.451 118.762 103.012 118.685 102.557C118.544 101.653 118.473 100.741 118.416 99.8288C118.362 98.9168 118.331 98.0047 118.313 97.0927C118.303 96.6356 118.299 96.1806 118.299 95.7236C118.295 95.4951 118.313 95.2645 118.297 95.0421C118.283 94.8156 118.261 94.5891 118.24 94.3606C118.161 93.4566 118.064 92.5486 117.965 91.6406Z" fill="#AFAFAF"/>
<path d="M111.403 96.5708C111.391 97.5961 111.357 98.6194 111.312 99.6426C111.27 100.666 111.217 101.689 111.15 102.712L111.148 102.729L111.134 102.737C110.966 102.83 110.786 102.886 110.606 102.937C110.424 102.983 110.24 103.018 110.054 103.036C110.238 103.006 110.42 102.961 110.596 102.905C110.772 102.846 110.946 102.775 111.102 102.684L111.088 102.708C111.116 101.685 111.156 100.66 111.209 99.6366C111.261 98.6153 111.322 97.592 111.403 96.5708Z" fill="#AFAFAF"/>
<path d="M117.563 92.1745C117.707 92.1745 117.824 92.0767 117.824 91.956C117.824 91.8354 117.707 91.7375 117.563 91.7375C117.419 91.7375 117.302 91.8354 117.302 91.956C117.302 92.0767 117.419 92.1745 117.563 92.1745Z" fill="#AFAFAF"/>
<path d="M118.052 95.748C118.052 95.8694 117.935 95.9665 117.791 95.9665C117.648 95.9665 117.53 95.8694 117.53 95.748C117.53 95.6266 117.648 95.5295 117.791 95.5295C117.935 95.5295 118.052 95.6266 118.052 95.748Z" fill="#AFAFAF"/>
<path d="M118.228 99.6348C118.228 99.7561 118.111 99.8532 117.968 99.8532C117.824 99.8532 117.707 99.7561 117.707 99.6348C117.707 99.5134 117.824 99.4163 117.968 99.4163C118.111 99.4163 118.228 99.5154 118.228 99.6348Z" fill="#AFAFAF"/>
<path d="M118.647 103.523C118.647 103.645 118.53 103.742 118.386 103.742C118.242 103.742 118.125 103.645 118.125 103.523C118.125 103.402 118.242 103.305 118.386 103.305C118.53 103.305 118.647 103.402 118.647 103.523Z" fill="#AFAFAF"/>
<path d="M118.908 107.41C118.908 107.532 118.791 107.629 118.647 107.629C118.504 107.629 118.386 107.532 118.386 107.41C118.386 107.289 118.504 107.192 118.647 107.192C118.791 107.192 118.908 107.291 118.908 107.41Z" fill="#AFAFAF"/>
<path d="M119.065 111.23C119.065 111.352 118.948 111.449 118.804 111.449C118.661 111.449 118.543 111.352 118.543 111.23C118.543 111.109 118.661 111.012 118.804 111.012C118.948 111.012 119.065 111.111 119.065 111.23Z" fill="#AFAFAF"/>
<path d="M124.762 97.2888C124.861 97.7701 124.944 98.2555 125.023 98.7388C125.102 99.2241 125.167 99.7115 125.233 100.197C125.353 101.172 125.46 102.15 125.498 103.133L125.126 100.211C125.007 99.2383 124.871 98.2676 124.762 97.2888Z" fill="#AFAFAF"/>
<path d="M126.046 99.0889C126.028 99.4084 125.996 99.7259 125.961 100.043C125.927 100.361 125.883 100.676 125.84 100.994C125.79 101.309 125.743 101.625 125.684 101.938C125.626 102.252 125.563 102.565 125.476 102.875L125.735 100.98C125.83 100.347 125.921 99.7158 126.046 99.0889Z" fill="#AFAFAF"/>
<path d="M112.14 97.6831C112.085 98.0026 112.016 98.3181 111.947 98.6356C111.879 98.9511 111.802 99.2645 111.729 99.58C111.648 99.8935 111.571 100.207 111.486 100.518C111.401 100.83 111.314 101.141 111.215 101.451C111.27 101.131 111.339 100.816 111.405 100.498C111.474 100.183 111.551 99.8692 111.624 99.5537C111.705 99.2403 111.782 98.9268 111.867 98.6154C111.953 98.3039 112.04 97.9925 112.14 97.6831Z" fill="#AFAFAF"/>
<path d="M107.858 92.1745C108.244 92.1179 108.643 92.1866 109.013 92.3201C109.383 92.4556 109.716 92.678 110.012 92.9389L110.22 93.1472C110.287 93.22 110.345 93.2989 110.408 93.3737C110.539 93.5213 110.634 93.6932 110.742 93.857C110.839 94.0269 110.922 94.2048 111.011 94.3767C111.079 94.5587 111.15 94.7407 111.215 94.9228C111.128 94.7488 111.047 94.5729 110.962 94.399C110.863 94.2332 110.776 94.0613 110.671 93.8995C110.455 93.582 110.226 93.2685 109.939 93.0178C109.658 92.7589 109.336 92.5446 108.982 92.3969C108.63 92.2493 108.248 92.1623 107.858 92.1745Z" fill="#AFAFAF"/>
<path d="M129.695 104.341C129.538 104.49 129.374 104.628 129.208 104.765C129.042 104.903 128.872 105.034 128.7 105.164C128.528 105.291 128.354 105.421 128.176 105.54C127.998 105.662 127.82 105.783 127.634 105.892C127.792 105.743 127.955 105.605 128.121 105.467C128.287 105.33 128.457 105.198 128.629 105.069C128.801 104.941 128.975 104.812 129.153 104.693C129.331 104.571 129.509 104.45 129.695 104.341Z" fill="#BC6048"/>
<path d="M134.164 100.895C134.497 100.514 134.497 100.051 134.716 99.4872C134.934 98.9229 136.153 97.5094 136.333 97.0341C136.513 96.5589 137.233 96.931 136.873 97.8168C136.513 98.7025 136.321 98.9088 136.269 99.0888C137.066 97.9967 138.054 96.5326 138.414 96.4173C138.774 96.3021 138.993 96.7632 137.901 98.1504C137.258 99.1272 137.258 99.1272 137.258 99.1272C137.258 99.1272 139.082 97.3537 139.468 97.2141C139.854 97.0726 140.02 97.5478 139.25 98.3324C138.479 99.1151 137.682 100.13 137.682 100.13C137.682 100.13 139.276 97.9199 139.866 98.2799C140.085 98.4336 138.325 100.541 138.325 100.541C138.993 99.7703 139.367 99.2566 139.713 99.5782C140.061 99.8997 138.172 101.774 137.658 102.173C137.144 102.571 136.706 102.668 136.283 102.874C135.862 103.081 135.911 103.137 135.911 103.137L134.574 102.874L134.164 100.895Z" fill="#F9A58C"/>
<path d="M136.271 100.979C136.309 100.824 136.348 100.668 136.36 100.51C136.378 100.352 136.386 100.193 136.378 100.035C136.366 99.7194 136.319 99.3999 136.222 99.1046L136.216 99.0824L136.224 99.0662L136.443 98.6415L136.653 98.2189C136.722 98.0773 136.789 97.9358 136.845 97.7881C136.904 97.6425 136.958 97.4949 136.973 97.3372C136.983 97.4969 136.936 97.6526 136.892 97.8043C136.843 97.956 136.785 98.1036 136.724 98.2492C136.665 98.3968 136.594 98.5384 136.526 98.682L136.317 99.1026L136.319 99.0662C136.37 99.226 136.402 99.3837 136.425 99.5435C136.447 99.7032 136.461 99.867 136.457 100.029C136.455 100.358 136.394 100.684 136.271 100.979Z" fill="#BC6048"/>
<path d="M121.182 90.1479C121.267 90.4088 121.273 90.6859 121.28 90.9589C121.28 91.2319 121.261 91.5049 121.227 91.7759C121.195 92.0469 121.14 92.3178 121.057 92.5807C121.013 92.7122 120.964 92.8416 120.891 92.965L120.835 93.056L120.764 93.1389C120.719 93.1955 120.663 93.236 120.602 93.2825C120.481 93.3634 120.319 93.4018 120.173 93.3674C120.028 93.333 119.904 93.2501 119.799 93.1591C119.589 92.971 119.429 92.7466 119.277 92.5181C119.13 92.2835 119.027 92.0307 118.839 91.8406C118.746 91.7455 118.632 91.6727 118.503 91.6323C118.376 91.5919 118.238 91.5817 118.103 91.5838C118.369 91.5514 118.667 91.604 118.875 91.8022C119.081 91.9943 119.197 92.2531 119.346 92.4715C119.504 92.6879 119.662 92.9124 119.862 93.0843C119.961 93.1692 120.074 93.24 120.194 93.2663C120.315 93.2926 120.438 93.2622 120.541 93.1915C120.756 93.0479 120.877 92.8052 120.962 92.5504C121.047 92.2976 121.098 92.0307 121.142 91.7637C121.184 91.4968 121.211 91.2278 121.223 90.9569C121.237 90.6859 121.243 90.4129 121.182 90.1479Z" fill="#AFAFAF"/>
</g>
<path d="M141.666 116.343C141.666 116.343 141.939 117.809 143.719 118.681C144.651 119.138 145.043 116.608 145.043 116.608L141.666 116.343Z" fill="#DD4A97"/>
<path d="M144.249 130.935L145.541 132.434L146.599 131.055L144.249 130.935Z" fill="#DD4A97"/>
<path d="M183.195 83.6428C185.454 89.8107 184.746 96.8462 181.223 102.867C179.225 106.282 176.388 109.103 173.084 110.962C170.061 112.662 166.863 113.508 163.733 113.508C161.969 113.508 160.228 113.241 158.55 112.709L155.994 118.151L161.207 120.671C162.497 121.291 162.993 122.988 162.313 124.44C161.806 125.524 160.774 126.179 159.747 126.179C159.399 126.179 159.053 126.104 158.728 125.947L153.514 123.427L149.656 131.647C149.181 132.661 148.226 133.267 147.274 133.267C146.948 133.267 146.624 133.197 146.317 133.049C145.11 132.464 144.647 130.891 145.286 129.534L149.146 121.318L143.933 118.798C142.643 118.177 142.147 116.476 142.827 115.024C143.334 113.938 144.368 113.287 145.393 113.287C145.739 113.287 146.084 113.362 146.41 113.518L151.623 116.038L154.178 110.596C150.299 107.987 147.565 103.849 146.501 98.7896C145.629 94.648 146.016 90.1727 147.601 86.0634C149.876 80.1867 154.204 75.6285 159.605 73.3595C161.978 72.3625 164.418 71.863 166.823 71.863C169.907 71.863 172.928 72.6821 175.654 74.3201C179.082 76.3828 181.737 79.671 183.195 83.6428ZM178.599 97.0424C179.543 94.3386 179.794 91.4366 179.319 88.7167C178.394 83.4365 175.08 79.4102 170.376 77.851C169.104 77.4283 167.767 77.216 166.416 77.218C165.185 77.218 163.939 77.394 162.718 77.7479C157.761 79.1796 153.767 83.1028 151.937 88.3365C150.993 91.0403 150.742 93.9422 151.221 96.6662C152.145 101.942 155.46 105.969 160.164 107.532C161.434 107.953 162.766 108.163 164.117 108.163C165.351 108.163 166.596 107.987 167.818 107.633C172.774 106.199 176.768 102.276 178.599 97.0424Z" fill="#DD4A97"/>
<path d="M182.063 82.3461C184.322 88.5141 183.614 95.5496 180.091 101.57C178.093 104.985 175.256 107.807 171.952 109.665C168.928 111.366 165.731 112.211 162.601 112.211C160.837 112.211 159.096 111.944 157.417 111.412L154.861 116.854L160.075 119.374C161.365 119.995 161.86 121.691 161.181 123.143C160.673 124.227 159.642 124.883 158.615 124.883C158.267 124.883 157.921 124.808 157.595 124.65L152.382 122.13L148.523 130.351C148.048 131.364 147.094 131.971 146.141 131.971C145.816 131.971 145.492 131.9 145.185 131.752C143.977 131.168 143.514 129.595 144.153 128.238L148.014 120.021L142.8 117.501C141.51 116.881 141.015 115.18 141.694 113.728C142.202 112.642 143.235 111.991 144.261 111.991C144.606 111.991 144.952 112.065 145.278 112.221L150.491 114.741L153.045 109.299C149.167 106.69 146.432 102.553 145.369 97.493C144.497 93.3514 144.883 88.8761 146.469 84.7668C148.744 78.8901 153.072 74.3319 158.473 72.0629C160.845 71.0659 163.286 70.5664 165.691 70.5664C168.775 70.5664 171.796 71.3854 174.522 73.0235C177.948 75.0882 180.605 78.3744 182.063 82.3461ZM177.466 95.7457C178.411 93.0419 178.661 90.14 178.186 87.42C177.262 82.1399 173.948 78.1135 169.244 76.5544C167.972 76.1317 166.635 75.9194 165.284 75.9214C164.053 75.9214 162.807 76.0973 161.585 76.4512C156.629 77.883 152.635 81.8062 150.805 87.0398C149.86 89.7436 149.609 92.6456 150.089 95.3696C151.013 100.646 154.327 104.672 159.031 106.235C160.301 106.656 161.634 106.866 162.985 106.866C164.218 106.866 165.464 106.69 166.686 106.336C171.642 104.903 175.636 100.981 177.466 95.7457Z" fill="#FF59AB"/>
<mask id="mask1_683_6394" style="mask-type:luminance" maskUnits="userSpaceOnUse" x="148" y="58" width="32" height="49">
<path d="M171.841 67.7373L174.801 58L148.491 60.9242L152.186 84.0186C151.644 84.965 151.177 85.9741 150.805 87.0398C149.86 89.7436 149.61 92.6456 150.089 95.3696C151.013 100.646 154.327 104.672 159.031 106.235C160.301 106.656 161.634 106.866 162.985 106.866C164.218 106.866 165.464 106.69 166.686 106.336C171.642 104.905 175.636 100.981 177.466 95.7477C177.539 95.5395 177.606 95.3291 177.671 95.1188L179.341 67.7373H171.841Z" fill="white"/>
</mask>
<g mask="url(#mask1_683_6394)">
<path d="M160.807 147.021C160.807 147.021 160.59 146.677 160.716 146.016C160.813 145.506 163.899 129.293 162.948 123.398C162.892 121.864 167.624 107.451 168.261 105.214C168.898 102.978 165.019 101.584 165.019 101.584L158.398 102.87C158.398 102.87 157.85 119.362 158.034 122.927C158.216 126.495 159.48 144.964 159.413 146.003C159.383 146.733 159.521 146.992 158.02 147.995C157.161 148.572 157.419 148.802 158.53 148.732C159.64 148.661 160.637 147.676 160.637 147.676L160.807 147.021Z" fill="#F9A58C"/>
<path d="M174.384 146.436C174.384 146.436 174.091 146.155 174.051 145.484C174.049 145.445 174.047 145.38 174.045 145.296C173.925 138.956 172.991 132.652 171.179 126.575C170.659 124.834 170.123 123.235 169.646 122.189C169.217 120.713 171.379 106.395 171.452 104.072C171.527 101.748 167.426 101.337 167.426 101.337L161.314 104.193C161.314 104.193 163.521 119.754 164.564 123.17C165.608 126.585 169.642 136.966 169.642 136.966C171.218 141.065 172.595 144.764 172.783 145.787C172.93 146.503 173.025 146.954 171.693 147.89C170.862 148.507 171.529 148.988 172.589 148.648C173.648 148.309 174.376 147.114 174.376 147.114L174.384 146.436Z" fill="#F9A58C"/>
<path d="M166.412 77.521L166.206 77.5534V77.7334L166.53 77.8467L166.412 77.521Z" fill="#AFAFAF"/>
<path d="M162.392 77.8203C162.467 77.8223 162.603 77.8426 162.603 77.8426C162.603 77.8426 162.688 78.0064 162.686 78.0206C162.686 78.0368 162.645 78.1177 162.645 78.1177L162.485 78.1339L162.303 78.0368L162.392 77.8203Z" fill="#AFAFAF"/>
<path d="M170.489 73.27C170.859 73.8018 171.306 74.3013 171.795 74.9121C172.616 75.9333 172.972 77.3428 172.629 78.6088C172.285 79.8747 171.203 80.9364 169.911 81.1548C169.144 81.2843 168.349 81.1285 167.625 80.8454C167.013 80.6068 166.424 80.265 166.006 79.7574C165.642 79.3146 165.427 78.7706 165.152 78.269C164.687 77.4177 163.987 76.5461 163.156 76.0263C162.728 75.7594 162.463 75.8646 162.022 75.727C161.508 75.5673 161.063 75.0415 160.74 74.6391C159.961 73.6724 159.498 72.4671 159.385 71.2336C159.326 70.6067 159.358 69.9717 159.484 69.3549C159.712 68.2325 160.319 67.187 161.239 66.4913C162.817 65.3002 165.27 65.2234 166.946 66.2608C168.572 67.2659 169.229 69.276 169.561 71.0556C169.735 71.9919 170.06 72.6532 170.489 73.27Z" fill="#4C0702"/>
<path d="M164.109 68.7325C164.109 68.7325 164.186 67.9701 163.037 67.9317C161.888 67.8933 160.77 69.2543 160.657 71.3049C160.544 73.3554 163.674 70.2128 163.674 70.2128L164.109 68.7325Z" fill="#68393B"/>
<path d="M160.675 71.0336C160.675 71.0336 160.174 76.1843 163.502 76.6171C164.402 76.7526 166.443 75.4422 166.857 74.5524C167.596 74.5402 167.941 73.8972 167.865 73.1833C167.763 72.2571 166.952 72.5382 166.696 72.7606C165.842 72.249 165.367 71.5554 165.108 70.1519C164.847 68.7464 164.655 68.6473 164.111 68.7343C163.693 68.4026 160.93 68.0022 160.675 71.0336Z" fill="#F9A58C"/>
<path d="M164.109 68.7322C164.166 68.629 164.248 68.534 164.358 68.4774C164.467 68.4167 164.598 68.3985 164.724 68.4228C164.976 68.4753 165.173 68.6614 165.312 68.8616C165.583 69.2802 165.684 69.7554 165.773 70.2206C165.854 70.6877 165.895 71.1548 165.998 71.6018C166.099 72.0487 166.317 72.4713 166.693 72.7626C166.485 72.6513 166.303 72.4875 166.157 72.2954C166.018 72.0972 165.919 71.8728 165.846 71.6442C165.7 71.1852 165.656 70.712 165.573 70.2549C165.535 70.0264 165.488 69.7999 165.427 69.5775C165.365 69.357 165.294 69.1366 165.183 68.9445C165.071 68.7524 164.91 68.5825 164.701 68.5178C164.598 68.4854 164.485 68.4854 164.38 68.5259C164.275 68.5643 164.184 68.6412 164.109 68.7322Z" fill="#68393B"/>
<path d="M161.961 78.7183C161.961 78.7183 159.854 80.1076 158.438 80.9792C157.021 81.8508 157.411 83.9155 157.684 87.7275C160.736 85.7659 162.588 82.4494 162.588 82.4494L161.961 78.7183Z" fill="#F9A58C"/>
<path d="M153.462 86.5039L160.653 85.3472L162.125 97.8489L154.588 98.9995L153.462 86.5039Z" fill="#D55A3B"/>
<path d="M151.749 88.2935L158.661 85.9941L162.125 98.0954L154.871 100.445L151.749 88.2935Z" fill="#68393B"/>
<path d="M159.931 92.1706C159.931 92.1706 160.388 94.9998 159.488 96.4801C159.389 96.6439 159.191 97.3355 159.055 97.4609C160.796 99.1313 165.573 98.5873 165.573 98.5873L169.183 97.1717C169.183 97.1717 168.394 96.1282 168.801 92.7713C168.912 91.8552 159.931 92.1706 159.931 92.1706Z" fill="#F9A58C"/>
<path d="M166.429 74.1783C166.032 76.5323 166.093 77.3432 166.53 77.9317C164.544 78.4534 162.413 78.0995 162.413 78.0995C162.413 78.0995 162.908 77.4585 162.653 76.1521C163.266 76.1683 164.864 75.4079 164.864 75.4079C164.864 75.4079 166.512 73.6869 166.429 74.1783Z" fill="#F9A58C"/>
<path d="M159.296 96.8682C164.38 99.6528 169.041 96.6255 169.041 96.6255C169.041 96.6255 172.008 99.1068 172.552 101.891C173.242 105.414 172.39 111.74 171.826 116.296C171.812 116.403 160.426 119.823 156.42 115.511C156.317 112.345 156.829 107.364 156.997 104.433C157.175 101.305 157.775 99.3353 159.296 96.8682Z" fill="#331A26"/>
<path d="M162.651 76.3745C162.949 76.5362 163.282 76.5848 163.616 76.5787C163.784 76.5807 163.95 76.5868 164.113 76.5726C164.277 76.5585 164.439 76.5281 164.597 76.4837C164.912 76.3927 165.203 76.2309 165.468 76.0327C165.735 75.8345 165.972 75.5979 166.204 75.3552C166.01 75.6303 165.786 75.8851 165.523 76.1035C165.262 76.3219 164.957 76.4917 164.627 76.5949C164.293 76.6879 163.944 76.7 163.61 76.6657C163.278 76.6555 162.924 76.5767 162.651 76.3745Z" fill="#BC6048"/>
<path d="M169.201 84.8212C169.201 84.8212 171.199 90.9871 171.345 92.6575C170.625 95.6727 168.924 99.2177 168.593 99.9619C168.336 100.538 169.814 101.871 170.233 101.402C172.706 98.6272 174.32 95.8992 174.811 93.43C174.326 89.2904 172.795 83.1831 171.723 81.4743C171.307 80.811 166.746 78.3196 166.746 78.3196L165.24 78.8838L168.617 83.8768L169.201 84.8212Z" fill="#F9A58C"/>
<path d="M157.994 84.4937C158.002 84.9325 157.963 85.3673 157.907 85.8C157.876 86.0164 157.84 86.2308 157.793 86.4451C157.747 86.6575 157.688 86.8718 157.595 87.0721C157.64 86.8577 157.666 86.6433 157.696 86.429L157.783 85.7839C157.842 85.3531 157.903 84.9224 157.994 84.4937Z" fill="#BC6048"/>
<path d="M162.392 77.8202C162.392 77.8202 162.16 78.2287 164.526 78.0649C166.661 77.9172 166.412 77.5977 166.412 77.5209C166.722 77.4642 166.764 77.7777 166.841 78.0426C166.918 78.3055 167.159 78.3783 166.991 78.5563C166.067 79.5371 163.199 78.9789 161.961 78.7201C161.834 78.5927 162.026 78.4572 162.069 78.2711C162.119 78.0446 162.05 77.7716 162.392 77.8202Z" fill="white"/>
<path d="M170.293 90.9228C170.489 90.403 170.746 89.8954 170.811 89.3413C170.892 88.6659 170.677 87.9925 170.423 87.3615C169.828 85.8853 169.005 84.5162 168.307 83.0864C167.61 81.6567 167.098 80.0591 167.043 78.4696C165.609 78.326 164.089 78.4211 162.659 78.6152C162.437 78.6455 162.412 78.4453 162.222 78.5606C162.206 78.5707 161.975 78.7062 161.959 78.7163C161.723 78.8821 161.603 79.2724 161.484 79.5374C160.843 80.955 160.705 81.3392 159.86 82.6476C159.061 83.8832 157.615 85.3979 157.575 86.8701C157.551 87.7559 158.095 88.9915 158.315 89.8509C158.449 90.3747 158.465 91.0097 158.445 91.6447C158.39 92.4374 158.157 93.5194 157.89 94.2615C157.89 94.2615 157.892 94.2595 157.895 94.2575C157.895 94.2534 157.899 94.2494 157.905 94.2474C157.907 94.2454 157.909 94.2433 157.913 94.2413C158.01 94.1908 158.372 94.1948 158.436 94.1948C159.231 94.2049 159.979 94.6195 160.724 94.85C161.049 94.9511 161.393 95.0179 161.733 94.9997C162.255 94.9693 162.708 94.67 163.252 94.6458C164.054 94.6134 164.839 94.8803 165.64 94.7813C166.404 94.6862 167.144 94.6073 167.913 94.7064C168.754 94.8136 168.92 95.0138 169.739 94.6862C169.561 94.2858 169.436 93.5558 169.436 93.5558C169.322 93.0057 169.899 92.2372 170.109 91.4485C170.17 91.2746 170.226 91.0967 170.293 90.9228Z" fill="white"/>
<path d="M168.653 98.2234C168.653 98.2234 168.981 100.149 171.305 101.239C170.724 103.055 168.471 102.511 168.471 102.511C168.471 102.511 167.563 101.894 167.6 101.348C167.636 100.802 168.653 98.2234 168.653 98.2234Z" fill="#331A26"/>
<path d="M163.887 88.8801C164.103 89.1552 164.364 89.3897 164.647 89.5879C164.93 89.7861 165.234 89.956 165.557 90.0773C165.881 90.1986 166.214 90.2937 166.558 90.3382C166.728 90.3746 166.904 90.3726 167.076 90.3928C167.25 90.4049 167.424 90.3968 167.6 90.4049C167.426 90.4191 167.25 90.4353 167.076 90.4413C166.902 90.4312 166.724 90.4413 166.55 90.413L166.287 90.3786C166.2 90.3625 166.115 90.3402 166.028 90.322C165.941 90.3038 165.856 90.2816 165.773 90.2533C165.691 90.2249 165.604 90.2027 165.523 90.1683C165.195 90.0369 164.882 89.865 164.603 89.6486C164.324 89.4322 164.069 89.1794 163.887 88.8801Z" fill="#AFAFAF"/>
<path d="M162.133 78.7549C162.509 78.858 162.898 78.9187 163.284 78.9389C163.478 78.945 163.672 78.947 163.864 78.9308C164.054 78.9147 164.253 78.8884 164.449 78.8762C164.645 78.8661 164.843 78.8641 165.037 78.8681C165.233 78.8722 165.426 78.8762 165.614 78.8459C165.994 78.7751 166.37 78.6619 166.746 78.5547C166.382 78.7003 166.014 78.8317 165.628 78.9187C165.432 78.9612 165.229 78.9551 165.035 78.9571C164.841 78.9551 164.647 78.9612 164.453 78.9733C164.259 78.9814 164.069 79.0036 163.868 79.0178C163.67 79.0299 163.474 79.0299 163.278 79.0117C162.888 78.9794 162.499 78.8985 162.133 78.7549Z" fill="#AFAFAF"/>
<path d="M162.562 78.0002C162.53 78.065 162.516 78.1338 162.504 78.2005L162.475 78.4089C162.457 78.4797 162.439 78.5505 162.41 78.6173C162.382 78.684 162.35 78.7488 162.303 78.8075C162.317 78.6598 162.356 78.5262 162.38 78.3887C162.398 78.3239 162.402 78.2491 162.433 78.1783C162.459 78.1115 162.499 78.0407 162.562 78.0002Z" fill="#AFAFAF"/>
<path d="M163.146 78.0933C163.154 78.1681 163.154 78.2409 163.154 78.3118L163.152 78.5282C163.138 78.6759 163.114 78.8195 163.051 78.9571C163.033 78.8074 163.051 78.6658 163.055 78.5242C163.061 78.4554 163.065 78.3765 163.081 78.3057C163.095 78.2329 163.114 78.162 163.146 78.0933Z" fill="#AFAFAF"/>
<path d="M163.972 78.0952C163.959 78.1701 163.953 78.2389 163.953 78.3097C163.953 78.3784 163.955 78.4472 163.97 78.514C163.982 78.6597 163.996 78.8094 163.972 78.955C163.915 78.8134 163.895 78.6718 163.872 78.5302C163.856 78.3784 163.874 78.2146 163.972 78.0952Z" fill="#AFAFAF"/>
<path d="M164.667 78.0547C164.748 78.1821 164.779 78.3318 164.777 78.4856C164.767 78.5625 164.759 78.6272 164.75 78.698L164.728 78.9145C164.696 78.8457 164.682 78.7729 164.674 78.698C164.665 78.6252 164.676 78.5443 164.678 78.4795C164.692 78.342 164.672 78.2044 164.667 78.0547Z" fill="#AFAFAF"/>
<path d="M165.357 78.0002C165.438 78.1378 165.476 78.2895 165.503 78.4453C165.507 78.5303 165.507 78.595 165.523 78.6679C165.535 78.7407 165.557 78.8135 165.579 78.8884C165.521 78.8338 165.48 78.7629 165.45 78.6881C165.418 78.6153 165.416 78.5222 165.405 78.4554C165.393 78.3098 165.359 78.1601 165.357 78.0002Z" fill="#AFAFAF"/>
<path d="M166.064 77.8467C166.127 77.8932 166.174 77.9579 166.208 78.0308C166.245 78.1036 166.245 78.1906 166.261 78.2533C166.285 78.3949 166.334 78.5345 166.356 78.6863C166.307 78.6256 166.271 78.5588 166.238 78.49C166.206 78.4212 166.184 78.3484 166.166 78.2715C166.153 78.1886 166.155 78.1238 166.137 78.0551C166.121 77.9863 166.095 77.9175 166.064 77.8467Z" fill="#AFAFAF"/>
<path d="M169.054 86.981C169.339 87.2156 169.618 87.4503 169.916 87.6648C170.059 87.7781 170.211 87.8772 170.363 87.9804C170.514 88.0835 170.672 88.1746 170.83 88.2717C170.478 88.1564 170.156 87.9601 169.857 87.7437C169.562 87.5191 169.282 87.2743 169.054 86.981Z" fill="#AFAFAF"/>
<path d="M168.894 85.3472C169.136 85.7761 169.369 86.209 169.628 86.6278C169.879 87.0506 170.152 87.4552 170.461 87.8396C170.275 87.6757 170.113 87.4876 169.962 87.2913C169.81 87.0951 169.676 86.8867 169.545 86.6784C169.294 86.2515 169.063 85.8125 168.894 85.3472Z" fill="#AFAFAF"/>
<path d="M168.894 83.8469L171.108 90.7692H172.358L171.957 86.1645L168.894 83.8469Z" fill="#F9A58C"/>
<path d="M158.684 97.8835C159.442 98.3325 160.265 98.654 161.112 98.8603C161.96 99.0666 162.831 99.1738 163.705 99.192C164.579 99.2223 165.454 99.1636 166.324 99.0524C166.759 98.9958 167.191 98.927 167.622 98.8381C168.055 98.7592 168.479 98.648 168.904 98.5327C168.079 98.8421 167.218 99.0524 166.346 99.196C165.474 99.3376 164.587 99.3962 163.701 99.38C162.817 99.3477 161.929 99.2405 161.076 98.9998C160.225 98.7592 159.402 98.3972 158.684 97.8835Z" fill="#443B44"/>
<path d="M168.728 98.5872C168.898 98.8925 169.092 99.1777 169.296 99.4507C169.505 99.7237 169.731 99.9805 169.978 100.213C170.22 100.452 170.493 100.658 170.781 100.84C171.066 101.03 171.381 101.164 171.705 101.299C171.365 101.234 171.017 101.141 170.708 100.967C170.394 100.804 170.103 100.595 169.848 100.349C169.341 99.8592 168.94 99.2545 168.728 98.5872Z" fill="#443B44"/>
<path d="M171.705 101.301C171.83 102.563 171.899 103.829 171.945 105.097C171.992 106.365 171.996 107.633 171.986 108.901C171.955 110.169 171.903 111.437 171.804 112.703C171.692 113.967 171.539 115.226 171.304 116.474C171.373 115.843 171.464 115.218 171.51 114.585C171.579 113.956 171.614 113.323 171.66 112.692C171.731 111.429 171.783 110.165 171.8 108.899C171.826 107.633 171.818 106.367 171.802 105.101C171.796 104.468 171.781 103.835 171.763 103.202C171.751 102.567 171.727 101.934 171.705 101.301Z" fill="#443B44"/>
<path d="M152.843 94.4514C153.035 94.8235 152.849 94.9165 152.896 95.2138C152.942 95.511 153.246 95.4888 153.26 95.7072C153.276 95.9256 153.104 96.1278 153.324 96.3159C153.543 96.504 153.559 96.5262 153.605 96.7851C153.662 97.0924 153.717 97.2825 154.107 97.329C154.497 97.3756 155.466 96.7851 155.949 95.784C156.23 95.236 155.403 95.5798 155.403 95.5798C155.403 95.5798 155.654 95.4079 155.777 95.1733C155.903 94.9387 155.387 94.8133 155.021 94.9387C155.294 94.7668 155.731 94.2673 155.436 94.237C155.138 94.2067 154.499 94.4514 154.499 94.4514C154.857 94.3138 155.286 94.059 155.442 93.9498C155.585 93.8487 155.48 93.6303 155.051 93.6768C154.645 93.7213 152.522 93.8325 152.843 94.4514Z" fill="#F9A58C"/>
<path d="M163.264 74.9186C163.264 74.9186 163.97 74.9652 164.427 74.4756C164.567 74.7345 164.656 75.3152 164.176 75.5316C163.599 75.7906 163.264 74.9186 163.264 74.9186Z" fill="white"/>
<path d="M161.118 103.833C161.648 104.106 162.143 104.446 162.613 104.816C163.082 105.188 163.513 105.607 163.915 106.051C164.303 106.508 164.651 107.004 164.932 107.536C165.207 108.072 165.393 108.648 165.486 109.237C165.385 108.955 165.324 108.664 165.191 108.397C165.13 108.264 165.088 108.12 165.013 107.993L164.805 107.603C164.503 107.097 164.166 106.614 163.773 106.173C163.389 105.726 162.964 105.315 162.52 104.925C162.299 104.729 162.071 104.541 161.834 104.361C161.606 104.175 161.363 104.003 161.118 103.833Z" fill="#443B44"/>
<path d="M160.813 70.9125C160.829 70.595 160.94 70.2189 160.94 70.2189C160.94 70.2189 160.936 70.4231 160.94 70.8802C161.448 70.7507 161.941 70.682 162.408 70.6537C162.418 70.4858 162.445 70.1764 162.52 70.0268C162.473 70.2411 162.517 70.4959 162.556 70.6436C163.25 70.6092 163.88 70.6618 164.402 70.7244C164.356 70.318 164.461 69.8852 164.505 69.7396C164.459 70.2613 164.542 70.6011 164.59 70.7467C165.035 70.8053 165.391 70.868 165.618 70.8781C166.303 70.9408 167.43 70.4838 167.43 70.4838C167.43 70.4838 167.658 69.5192 167.8 68.1602C166.772 66.6577 164.471 66.781 164.174 66.8093C163.561 66.7305 162.598 67.0702 161.998 67.3877C159.973 68.415 160.59 70.9449 160.813 70.9125Z" fill="#4C0702"/>
<path d="M162.625 72.2227C162.625 72.2227 162.609 73.2787 162.167 73.7622C162.167 73.7622 162.343 73.9059 162.645 74.0859" stroke="#E26B48" stroke-width="0.0916292" stroke-miterlimit="10" stroke-linecap="round" stroke-linejoin="round"/>
<path d="M164.643 72.5889C164.625 72.8033 164.485 72.9652 164.334 72.951C164.182 72.9368 164.075 72.7527 164.093 72.5383C164.111 72.3238 164.251 72.162 164.402 72.1762C164.556 72.1903 164.663 72.3744 164.643 72.5889Z" fill="#382B28"/>
<path d="M163.763 71.0056C163.763 71.0056 164.61 70.7244 165.13 71.0643C165.13 71.0643 164.556 70.5524 163.763 71.0056Z" stroke="#4C0702" stroke-width="0.133389" stroke-miterlimit="10" stroke-linecap="round" stroke-linejoin="round"/>
<path d="M161.201 72.6735C161.219 72.888 161.356 73.0498 161.508 73.0377C161.66 73.0255 161.769 72.8414 161.751 72.627C161.733 72.4126 161.595 72.2507 161.443 72.2628C161.292 72.275 161.183 72.4591 161.201 72.6735Z" fill="#382B28"/>
<path d="M162.026 71.0381C162.026 71.0381 161.255 70.8601 160.831 71.1817C160.831 71.1797 161.29 70.7103 162.026 71.0381Z" stroke="#4C0702" stroke-width="0.133389" stroke-miterlimit="10" stroke-linecap="round" stroke-linejoin="round"/>
<path d="M164.178 73.8245C164.192 74.0369 164.534 74.1866 164.942 74.1583C165.351 74.132 165.673 73.9378 165.659 73.7274C165.644 73.515 165.303 73.3653 164.894 73.3936C164.483 73.4199 164.164 73.6141 164.178 73.8245Z" fill="#F4917A"/>
<path d="M160.823 73.614C160.879 73.8648 160.946 74.1117 161.023 74.3544C161.337 74.2897 161.561 74.1258 161.549 73.9498C161.535 73.7475 161.217 73.6018 160.823 73.614Z" fill="#F4917A"/>
</g>
<path d="M99.3323 187.877C98.7026 186.552 97.7905 185.531 96.5962 184.815C95.4019 184.076 94.0121 183.707 92.4269 183.707C90.8417 183.707 89.4085 184.076 88.1273 184.815C86.8678 185.531 85.8689 186.574 85.1306 187.942C84.414 189.288 84.0557 190.851 84.0557 192.632C84.0557 194.413 84.414 195.976 85.1306 197.323C85.8689 198.669 86.8678 199.711 88.1273 200.45C89.4085 201.166 90.8417 201.524 92.4269 201.524C94.6418 201.524 96.4659 200.862 97.8991 199.538C99.3323 198.213 100.168 196.421 100.407 194.163H91.352V191.753H103.567V194.033C103.393 195.9 102.807 197.616 101.808 199.179C100.809 200.721 99.4952 201.948 97.8665 202.86C96.2379 203.75 94.4247 204.195 92.4269 204.195C90.3205 204.195 88.3987 203.707 86.6615 202.73C84.9243 201.731 83.5454 200.352 82.5248 198.593C81.5259 196.834 81.0264 194.847 81.0264 192.632C81.0264 190.417 81.5259 188.43 82.5248 186.671C83.5454 184.891 84.9243 183.512 86.6615 182.535C88.3987 181.536 90.3205 181.036 92.4269 181.036C94.8373 181.036 96.9654 181.633 98.8111 182.828C100.679 184.022 102.036 185.705 102.883 187.877H99.3323ZM123.772 194.391C123.772 194.956 123.74 195.553 123.675 196.183H109.408C109.516 197.941 110.113 199.32 111.199 200.319C112.307 201.296 113.642 201.785 115.206 201.785C116.487 201.785 117.551 201.492 118.398 200.906C119.266 200.298 119.874 199.494 120.222 198.495H123.414C122.936 200.211 121.981 201.611 120.548 202.697C119.114 203.761 117.334 204.293 115.206 204.293C113.512 204.293 111.992 203.913 110.645 203.153C109.321 202.393 108.279 201.318 107.518 199.928C106.758 198.517 106.378 196.888 106.378 195.043C106.378 193.197 106.748 191.579 107.486 190.189C108.224 188.799 109.256 187.735 110.58 186.997C111.927 186.237 113.468 185.857 115.206 185.857C116.899 185.857 118.398 186.226 119.701 186.964C121.004 187.703 122.002 188.723 122.697 190.026C123.414 191.308 123.772 192.762 123.772 194.391ZM120.71 193.772C120.71 192.643 120.461 191.677 119.961 190.873C119.462 190.048 118.778 189.429 117.909 189.017C117.062 188.582 116.118 188.365 115.075 188.365C113.577 188.365 112.296 188.843 111.232 189.798C110.189 190.754 109.592 192.078 109.44 193.772H120.71ZM136.382 185.824C138.553 185.824 140.312 186.487 141.658 187.811C143.005 189.114 143.678 191.003 143.678 193.479V204H140.746V193.902C140.746 192.122 140.301 190.765 139.411 189.831C138.521 188.875 137.305 188.398 135.763 188.398C134.199 188.398 132.951 188.886 132.017 189.863C131.105 190.841 130.649 192.263 130.649 194.13V204H127.685V186.15H130.649V188.691C131.235 187.779 132.028 187.073 133.027 186.574C134.047 186.074 135.166 185.824 136.382 185.824ZM147.412 195.01C147.412 193.186 147.782 191.59 148.52 190.222C149.258 188.832 150.268 187.757 151.549 186.997C152.852 186.237 154.307 185.857 155.914 185.857C157.304 185.857 158.596 186.183 159.79 186.834C160.984 187.464 161.896 188.3 162.526 189.342V179.896H165.523V204H162.526V200.645C161.94 201.709 161.071 202.589 159.92 203.283C158.769 203.957 157.423 204.293 155.881 204.293C154.296 204.293 152.852 203.902 151.549 203.121C150.268 202.339 149.258 201.242 148.52 199.831C147.782 198.419 147.412 196.812 147.412 195.01ZM162.526 195.043C162.526 193.696 162.255 192.524 161.712 191.525C161.169 190.526 160.431 189.766 159.497 189.245C158.585 188.702 157.575 188.43 156.468 188.43C155.36 188.43 154.35 188.691 153.438 189.212C152.526 189.733 151.799 190.493 151.256 191.492C150.713 192.491 150.442 193.664 150.442 195.01C150.442 196.378 150.713 197.572 151.256 198.593C151.799 199.592 152.526 200.363 153.438 200.906C154.35 201.427 155.36 201.687 156.468 201.687C157.575 201.687 158.585 201.427 159.497 200.906C160.431 200.363 161.169 199.592 161.712 198.593C162.255 197.572 162.526 196.389 162.526 195.043ZM186.818 194.391C186.818 194.956 186.786 195.553 186.721 196.183H172.454C172.562 197.941 173.159 199.32 174.245 200.319C175.353 201.296 176.688 201.785 178.252 201.785C179.533 201.785 180.597 201.492 181.444 200.906C182.312 200.298 182.92 199.494 183.268 198.495H186.46C185.982 200.211 185.027 201.611 183.594 202.697C182.16 203.761 180.38 204.293 178.252 204.293C176.558 204.293 175.038 203.913 173.691 203.153C172.367 202.393 171.324 201.318 170.564 199.928C169.804 198.517 169.424 196.888 169.424 195.043C169.424 193.197 169.794 191.579 170.532 190.189C171.27 188.799 172.302 187.735 173.626 186.997C174.973 186.237 176.514 185.857 178.252 185.857C179.945 185.857 181.444 186.226 182.747 186.964C184.05 187.703 185.048 188.723 185.743 190.026C186.46 191.308 186.818 192.762 186.818 194.391ZM183.756 193.772C183.756 192.643 183.507 191.677 183.007 190.873C182.508 190.048 181.824 189.429 180.955 189.017C180.108 188.582 179.164 188.365 178.121 188.365C176.623 188.365 175.342 188.843 174.278 189.798C173.235 190.754 172.638 192.078 172.486 193.772H183.756ZM193.695 189.049C194.216 188.029 194.954 187.236 195.91 186.671C196.887 186.107 198.07 185.824 199.46 185.824V188.886H198.679C195.356 188.886 193.695 190.689 193.695 194.293V204H190.731V186.15H193.695V189.049ZM75.2728 252.228C73.7744 252.228 72.4281 251.967 71.2338 251.446C70.0612 250.903 69.1383 250.165 68.4651 249.231C67.7919 248.276 67.4445 247.179 67.4228 245.941H70.5823C70.6909 247.006 71.1252 247.907 71.8852 248.645C72.667 249.362 73.7962 249.72 75.2728 249.72C76.6843 249.72 77.7917 249.372 78.5952 248.678C79.4204 247.961 79.833 247.049 79.833 245.941C79.833 245.073 79.5941 244.367 79.1164 243.824C78.6386 243.281 78.0415 242.869 77.3249 242.586C76.6083 242.304 75.6419 242 74.4259 241.674C72.9276 241.284 71.7224 240.893 70.8103 240.502C69.92 240.111 69.1491 239.503 68.4977 238.678C67.8679 237.831 67.5531 236.702 67.5531 235.29C67.5531 234.052 67.8679 232.956 68.4977 232C69.1274 231.045 70.0069 230.307 71.1361 229.785C72.287 229.264 73.6007 229.004 75.0774 229.004C77.2054 229.004 78.9426 229.536 80.289 230.6C81.657 231.664 82.4279 233.075 82.6016 234.834H79.3444C79.2358 233.966 78.7798 233.206 77.9763 232.554C77.1729 231.881 76.1088 231.544 74.7842 231.544C73.5464 231.544 72.5367 231.87 71.7549 232.522C70.9732 233.151 70.5823 234.042 70.5823 235.192C70.5823 236.018 70.8103 236.691 71.2663 237.212C71.7441 237.733 72.3195 238.135 72.9927 238.417C73.6876 238.678 74.6539 238.982 75.8917 239.329C77.39 239.742 78.5952 240.154 79.5072 240.567C80.4193 240.958 81.201 241.577 81.8525 242.424C82.5039 243.249 82.8297 244.378 82.8297 245.811C82.8297 246.919 82.5365 247.961 81.9502 248.938C81.3639 249.915 80.4953 250.708 79.3444 251.316C78.1935 251.924 76.8363 252.228 75.2728 252.228ZM103.478 242.391C103.478 242.956 103.445 243.553 103.38 244.183H89.1134C89.222 245.941 89.8191 247.32 90.9049 248.319C92.0124 249.296 93.3478 249.785 94.9113 249.785C96.1925 249.785 97.2566 249.492 98.1035 248.906C98.9721 248.298 99.5801 247.494 99.9275 246.495H103.12C102.642 248.211 101.686 249.611 100.253 250.697C98.82 251.761 97.0394 252.293 94.9113 252.293C93.2175 252.293 91.6975 251.913 90.3511 251.153C89.0265 250.393 87.9842 249.318 87.2242 247.928C86.4641 246.517 86.0841 244.888 86.0841 243.043C86.0841 241.197 86.4533 239.579 87.1916 238.189C87.9299 236.799 88.9614 235.735 90.286 234.997C91.6323 234.237 93.1741 233.857 94.9113 233.857C96.6051 233.857 98.1035 234.226 99.4064 234.964C100.709 235.703 101.708 236.723 102.403 238.026C103.12 239.308 103.478 240.762 103.478 242.391ZM100.416 241.772C100.416 240.643 100.166 239.677 99.6669 238.873C99.1675 238.048 98.4835 237.429 97.6149 237.017C96.768 236.582 95.8234 236.365 94.781 236.365C93.2827 236.365 92.0015 236.843 90.9375 237.798C89.8951 238.754 89.298 240.078 89.146 241.772H100.416ZM110.355 227.896V252H107.39V227.896H110.355ZM131.693 242.391C131.693 242.956 131.66 243.553 131.595 244.183H117.328C117.437 245.941 118.034 247.32 119.12 248.319C120.227 249.296 121.563 249.785 123.126 249.785C124.407 249.785 125.471 249.492 126.318 248.906C127.187 248.298 127.795 247.494 128.142 246.495H131.334C130.857 248.211 129.901 249.611 128.468 250.697C127.035 251.761 125.254 252.293 123.126 252.293C121.432 252.293 119.912 251.913 118.566 251.153C117.241 250.393 116.199 249.318 115.439 247.928C114.679 246.517 114.299 244.888 114.299 243.043C114.299 241.197 114.668 239.579 115.406 238.189C116.145 236.799 117.176 235.735 118.501 234.997C119.847 234.237 121.389 233.857 123.126 233.857C124.82 233.857 126.318 234.226 127.621 234.964C128.924 235.703 129.923 236.723 130.618 238.026C131.334 239.308 131.693 240.762 131.693 242.391ZM128.631 241.772C128.631 240.643 128.381 239.677 127.882 238.873C127.382 238.048 126.698 237.429 125.83 237.017C124.983 236.582 124.038 236.365 122.996 236.365C121.498 236.365 120.216 236.843 119.152 237.798C118.11 238.754 117.513 240.078 117.361 241.772H128.631ZM134.498 243.043C134.498 241.197 134.867 239.59 135.605 238.222C136.344 236.832 137.364 235.757 138.667 234.997C139.992 234.237 141.501 233.857 143.195 233.857C145.388 233.857 147.19 234.389 148.602 235.453C150.035 236.517 150.98 237.994 151.436 239.883H148.244C147.94 238.797 147.342 237.939 146.452 237.31C145.583 236.68 144.498 236.365 143.195 236.365C141.501 236.365 140.133 236.951 139.091 238.124C138.048 239.275 137.527 240.914 137.527 243.043C137.527 245.192 138.048 246.854 139.091 248.026C140.133 249.199 141.501 249.785 143.195 249.785C144.498 249.785 145.583 249.481 146.452 248.873C147.321 248.265 147.918 247.396 148.244 246.267H151.436C150.958 248.091 150.002 249.557 148.569 250.665C147.136 251.75 145.345 252.293 143.195 252.293C141.501 252.293 139.992 251.913 138.667 251.153C137.364 250.393 136.344 249.318 135.605 247.928C134.867 246.539 134.498 244.91 134.498 243.043ZM159.006 236.593V247.114C159.006 247.983 159.191 248.602 159.56 248.971C159.929 249.318 160.57 249.492 161.482 249.492H163.664V252H160.993C159.343 252 158.105 251.62 157.28 250.86C156.455 250.1 156.042 248.851 156.042 247.114V236.593H153.729V234.15H156.042V229.655H159.006V234.15H163.664V236.593H159.006ZM168.786 231.251C168.222 231.251 167.744 231.056 167.353 230.665C166.962 230.274 166.767 229.796 166.767 229.232C166.767 228.667 166.962 228.189 167.353 227.798C167.744 227.408 168.222 227.212 168.786 227.212C169.329 227.212 169.785 227.408 170.155 227.798C170.545 228.189 170.741 228.667 170.741 229.232C170.741 229.796 170.545 230.274 170.155 230.665C169.785 231.056 169.329 231.251 168.786 231.251ZM170.22 234.15V252H167.256V234.15H170.22ZM183.056 252.293C181.384 252.293 179.864 251.913 178.496 251.153C177.15 250.393 176.086 249.318 175.304 247.928C174.544 246.517 174.164 244.888 174.164 243.043C174.164 241.218 174.555 239.612 175.337 238.222C176.14 236.81 177.226 235.735 178.594 234.997C179.962 234.237 181.493 233.857 183.187 233.857C184.88 233.857 186.411 234.237 187.779 234.997C189.147 235.735 190.222 236.799 191.004 238.189C191.808 239.579 192.209 241.197 192.209 243.043C192.209 244.888 191.797 246.517 190.972 247.928C190.168 249.318 189.071 250.393 187.682 251.153C186.292 251.913 184.75 252.293 183.056 252.293ZM183.056 249.687C184.12 249.687 185.119 249.438 186.053 248.938C186.987 248.439 187.736 247.69 188.301 246.691C188.887 245.692 189.18 244.476 189.18 243.043C189.18 241.609 188.898 240.393 188.333 239.394C187.769 238.395 187.03 237.657 186.118 237.179C185.206 236.68 184.218 236.43 183.154 236.43C182.068 236.43 181.069 236.68 180.157 237.179C179.267 237.657 178.55 238.395 178.008 239.394C177.465 240.393 177.193 241.609 177.193 243.043C177.193 244.497 177.454 245.724 177.975 246.723C178.518 247.722 179.234 248.471 180.125 248.971C181.015 249.448 181.992 249.687 183.056 249.687ZM204.803 233.824C206.975 233.824 208.734 234.487 210.08 235.811C211.427 237.114 212.1 239.003 212.1 241.479V252H209.168V241.902C209.168 240.122 208.723 238.765 207.833 237.831C206.942 236.875 205.726 236.398 204.185 236.398C202.621 236.398 201.372 236.886 200.439 237.863C199.527 238.841 199.071 240.263 199.071 242.13V252H196.107V234.15H199.071V236.691C199.657 235.779 200.45 235.073 201.448 234.574C202.469 234.074 203.587 233.824 204.803 233.824Z" fill="black"/>
</g>
<defs>
<filter id="filter0_b_683_6394" x="-60" y="-60" width="400" height="400" filterUnits="userSpaceOnUse" color-interpolation-filters="sRGB">
<feFlood flood-opacity="0" result="BackgroundImageFix"/>
<feGaussianBlur in="BackgroundImageFix" stdDeviation="30"/>
<feComposite in2="SourceAlpha" operator="in" result="effect1_backgroundBlur_683_6394"/>
<feBlend mode="normal" in="SourceGraphic" in2="effect1_backgroundBlur_683_6394" result="shape"/>
</filter>
</defs>
</svg>
