<svg width="148" height="218" viewBox="0 0 148 218" fill="none" xmlns="http://www.w3.org/2000/svg">
<path d="M36.7307 202.72L36.7358 202.726C45.7959 212.134 58.3983 216.795 74.432 216.795C90.493 216.795 103.349 211.605 112.91 201.175L112.914 201.17C122.461 190.582 127.2 176.638 127.2 159.419C127.2 150.801 126.823 145.091 125.289 140.387C123.743 135.649 121.048 131.999 116.576 127.44C112.04 122.641 105.828 120.603 98.8334 119.745C93.3185 119.069 87.2194 119.118 80.9692 119.168C79.3101 119.182 77.6403 119.195 75.968 119.195C73.4571 119.195 70.9537 119.133 68.4845 119.072C63.2413 118.943 58.1519 118.817 53.4706 119.295C46.5289 120.005 40.2836 122.051 35.408 127.457C30.6738 132.622 27.5989 137.136 25.7241 142.549C23.8539 147.949 23.2 154.182 23.2 162.747C23.2 179.782 27.6766 193.144 36.7307 202.72ZM103.328 164.027C103.328 176.499 101.075 185.708 96.6951 191.783C92.3498 197.809 85.8301 200.859 76.992 200.859C66.8687 200.859 59.3884 197.421 54.4051 190.626C49.3879 183.784 46.816 173.425 46.816 159.419C46.816 155.856 46.6832 153.463 46.5474 151.784C46.4868 151.035 46.4285 150.452 46.3813 149.98C46.3193 149.359 46.2763 148.929 46.2719 148.562C46.2685 148.272 46.2928 148.08 46.3413 147.911C46.3904 147.739 46.4762 147.551 46.6424 147.282C46.8493 146.947 47.1281 146.566 47.5264 146.021C47.7498 145.715 48.0109 145.358 48.3179 144.929C52.2673 146.071 56.8297 146.046 61.4562 145.743C63.0983 145.635 64.7438 145.494 66.3811 145.353C69.6392 145.073 72.8651 144.795 75.968 144.795C80.6368 144.795 84.6323 144.355 87.9841 143.985C88.4376 143.935 88.8793 143.887 89.3093 143.84C92.9737 143.447 95.6615 143.263 97.6812 143.894C98.6589 144.2 99.4702 144.697 100.154 145.469C100.846 146.25 101.438 147.347 101.916 148.893C102.877 152.007 103.328 156.781 103.328 164.027Z" fill="#E23744" stroke="#E23744" stroke-width="1.6"/>
<path d="M111.59 106.456C86.8281 95.797 67.557 92.3782 40.1444 95.4809L39.7948 79.8795C15.1067 76.5659 24.0005 50.8326 39.4597 51.3887C45.8089 51.6171 49.3029 56.1082 45.8424 60.1436C54.6402 54.0669 65.2018 54.2871 72.2643 59.0648C78.5075 47.5891 89.5186 40.9323 104.962 47.2259C117.961 52.5236 129.928 70.4096 110.472 92.5657L111.59 106.456Z" fill="#E23744"/>
<path d="M40.1444 95.4809C67.557 92.3782 86.8281 95.797 111.59 106.456L110.472 92.5656C129.928 70.4096 117.961 52.5236 104.962 47.2259C89.5186 40.9323 78.5075 47.5891 72.2643 59.0648C64.4001 53.7448 52.1972 54.0756 42.9222 62.459C50.5791 58.0621 47.0709 51.6625 39.4597 51.3887C24.0005 50.8326 15.1067 76.5659 39.7948 79.8795L40.1444 95.4809Z" stroke="#E23744" stroke-width="0.0640258"/>
<path d="M40.2403 97.1314C66.9593 94.751 83.1201 97.3578 111.915 108.046L112.717 112.94C81.8795 104.445 67.6579 111.045 43.102 111.699L40.2403 97.1314Z" fill="#E23744" stroke="#E23744" stroke-width="0.0647414"/>
</svg>
