<svg width="280" height="280" viewBox="0 0 280 280" fill="none" xmlns="http://www.w3.org/2000/svg">
<g filter="url(#filter0_b_683_7310)">
<rect width="280" height="280" rx="16" fill="white" fill-opacity="0.5"/>
<rect x="4" y="4" width="272" height="272" rx="12" stroke="#E23744" stroke-width="8"/>
<rect x="86" y="45" width="108" height="108" rx="16" fill="#D9D9D9"/>
<path d="M139.097 94.3408C142.888 94.3408 146.595 93.2165 149.747 91.11C152.9 89.0035 155.357 86.0095 156.808 82.5066C158.259 79.0037 158.638 75.1491 157.899 71.4304C157.159 67.7118 155.333 64.2959 152.652 61.6149C149.971 58.9339 146.555 57.1081 142.837 56.3684C139.118 55.6287 135.263 56.0083 131.76 57.4593C128.258 58.9102 125.264 61.3673 123.157 64.5199C121.051 67.6725 119.926 71.3789 119.926 75.1704C119.926 80.2547 121.946 85.1308 125.541 88.7259C129.136 92.3211 134.012 94.3408 139.097 94.3408Z" fill="#696969"/>
<path d="M167.852 142.267C169.123 142.267 170.342 141.762 171.241 140.863C172.14 139.965 172.645 138.746 172.645 137.474C172.645 128.577 169.11 120.044 162.819 113.752C156.527 107.461 147.994 103.926 139.097 103.926C130.199 103.926 121.666 107.461 115.374 113.752C109.083 120.044 105.548 128.577 105.548 137.474C105.548 138.746 106.053 139.965 106.952 140.863C107.851 141.762 109.07 142.267 110.341 142.267H167.852Z" fill="#696969"/>
<path d="M100.716 201.59H108.664V204H97.7523V181.297H100.716V201.59ZM119.597 204.293C117.925 204.293 116.405 203.913 115.037 203.153C113.69 202.393 112.626 201.318 111.845 199.928C111.085 198.517 110.704 196.888 110.704 195.043C110.704 193.218 111.095 191.612 111.877 190.222C112.681 188.81 113.766 187.735 115.134 186.997C116.502 186.237 118.033 185.857 119.727 185.857C121.421 185.857 122.952 186.237 124.32 186.997C125.688 187.735 126.763 188.799 127.545 190.189C128.348 191.579 128.75 193.197 128.75 195.043C128.75 196.888 128.337 198.517 127.512 199.928C126.709 201.318 125.612 202.393 124.222 203.153C122.832 203.913 121.291 204.293 119.597 204.293ZM119.597 201.687C120.661 201.687 121.66 201.438 122.594 200.938C123.527 200.439 124.276 199.69 124.841 198.691C125.427 197.692 125.721 196.476 125.721 195.043C125.721 193.609 125.438 192.393 124.874 191.394C124.309 190.395 123.571 189.657 122.659 189.179C121.747 188.68 120.759 188.43 119.695 188.43C118.609 188.43 117.61 188.68 116.698 189.179C115.808 189.657 115.091 190.395 114.548 191.394C114.005 192.393 113.734 193.609 113.734 195.043C113.734 196.497 113.994 197.724 114.516 198.723C115.058 199.722 115.775 200.471 116.665 200.971C117.556 201.448 118.533 201.687 119.597 201.687ZM140.432 204.293C138.76 204.293 137.24 203.913 135.872 203.153C134.525 202.393 133.461 201.318 132.68 199.928C131.92 198.517 131.54 196.888 131.54 195.043C131.54 193.218 131.93 191.612 132.712 190.222C133.516 188.81 134.601 187.735 135.969 186.997C137.338 186.237 138.868 185.857 140.562 185.857C142.256 185.857 143.787 186.237 145.155 186.997C146.523 187.735 147.598 188.799 148.38 190.189C149.183 191.579 149.585 193.197 149.585 195.043C149.585 196.888 149.172 198.517 148.347 199.928C147.544 201.318 146.447 202.393 145.057 203.153C143.667 203.913 142.126 204.293 140.432 204.293ZM140.432 201.687C141.496 201.687 142.495 201.438 143.429 200.938C144.362 200.439 145.112 199.69 145.676 198.691C146.262 197.692 146.556 196.476 146.556 195.043C146.556 193.609 146.273 192.393 145.709 191.394C145.144 190.395 144.406 189.657 143.494 189.179C142.582 188.68 141.594 188.43 140.53 188.43C139.444 188.43 138.445 188.68 137.533 189.179C136.643 189.657 135.926 190.395 135.383 191.394C134.84 192.393 134.569 193.609 134.569 195.043C134.569 196.497 134.829 197.724 135.351 198.723C135.893 199.722 136.61 200.471 137.5 200.971C138.391 201.448 139.368 201.687 140.432 201.687ZM163.449 204L156.446 196.117V204H153.482V179.896H156.446V194.065L163.319 186.15H167.456L159.052 195.043L167.488 204H163.449ZM176.565 204.293C175.197 204.293 173.97 204.065 172.884 203.609C171.798 203.131 170.941 202.48 170.311 201.655C169.681 200.808 169.334 199.842 169.268 198.756H172.33C172.417 199.646 172.83 200.374 173.568 200.938C174.328 201.503 175.316 201.785 176.532 201.785C177.661 201.785 178.552 201.535 179.203 201.036C179.855 200.536 180.18 199.907 180.18 199.147C180.18 198.365 179.833 197.789 179.138 197.42C178.443 197.029 177.368 196.649 175.913 196.28C174.589 195.933 173.503 195.585 172.656 195.238C171.831 194.869 171.114 194.337 170.506 193.642C169.92 192.925 169.627 191.992 169.627 190.841C169.627 189.929 169.898 189.093 170.441 188.333C170.984 187.573 171.755 186.975 172.754 186.541C173.753 186.085 174.893 185.857 176.174 185.857C178.15 185.857 179.746 186.356 180.962 187.355C182.178 188.354 182.83 189.722 182.916 191.46H179.952C179.887 190.526 179.507 189.777 178.812 189.212C178.139 188.647 177.227 188.365 176.076 188.365C175.012 188.365 174.165 188.593 173.535 189.049C172.906 189.505 172.591 190.102 172.591 190.841C172.591 191.427 172.775 191.916 173.145 192.306C173.535 192.676 174.013 192.98 174.578 193.218C175.164 193.436 175.968 193.685 176.988 193.968C178.269 194.315 179.312 194.662 180.115 195.01C180.919 195.336 181.603 195.835 182.167 196.508C182.754 197.181 183.058 198.061 183.079 199.147C183.079 200.124 182.808 201.003 182.265 201.785C181.722 202.567 180.951 203.186 179.952 203.642C178.975 204.076 177.846 204.293 176.565 204.293ZM75.2728 252.228C73.7744 252.228 72.4281 251.967 71.2338 251.446C70.0612 250.903 69.1383 250.165 68.4651 249.231C67.7919 248.276 67.4445 247.179 67.4228 245.941H70.5823C70.6909 247.006 71.1252 247.907 71.8852 248.645C72.667 249.362 73.7962 249.72 75.2728 249.72C76.6843 249.72 77.7917 249.372 78.5952 248.678C79.4204 247.961 79.833 247.049 79.833 245.941C79.833 245.073 79.5941 244.367 79.1164 243.824C78.6386 243.281 78.0415 242.869 77.3249 242.586C76.6083 242.304 75.6419 242 74.4259 241.674C72.9276 241.284 71.7224 240.893 70.8103 240.502C69.92 240.111 69.1491 239.503 68.4977 238.678C67.8679 237.831 67.5531 236.702 67.5531 235.29C67.5531 234.052 67.8679 232.956 68.4977 232C69.1274 231.045 70.0069 230.307 71.1361 229.785C72.287 229.264 73.6007 229.004 75.0774 229.004C77.2054 229.004 78.9426 229.536 80.289 230.6C81.657 231.664 82.4279 233.075 82.6016 234.834H79.3444C79.2358 233.966 78.7798 233.206 77.9763 232.554C77.1729 231.881 76.1088 231.544 74.7842 231.544C73.5464 231.544 72.5367 231.87 71.7549 232.522C70.9732 233.151 70.5823 234.042 70.5823 235.192C70.5823 236.018 70.8103 236.691 71.2663 237.212C71.7441 237.733 72.3195 238.135 72.9927 238.417C73.6876 238.678 74.6539 238.982 75.8917 239.329C77.39 239.742 78.5952 240.154 79.5072 240.567C80.4193 240.958 81.201 241.577 81.8525 242.424C82.5039 243.249 82.8297 244.378 82.8297 245.811C82.8297 246.919 82.5365 247.961 81.9502 248.938C81.3639 249.915 80.4953 250.708 79.3444 251.316C78.1935 251.924 76.8363 252.228 75.2728 252.228ZM103.478 242.391C103.478 242.956 103.445 243.553 103.38 244.183H89.1134C89.222 245.941 89.8191 247.32 90.9049 248.319C92.0124 249.296 93.3478 249.785 94.9113 249.785C96.1925 249.785 97.2566 249.492 98.1035 248.906C98.9721 248.298 99.5801 247.494 99.9275 246.495H103.12C102.642 248.211 101.686 249.611 100.253 250.697C98.82 251.761 97.0394 252.293 94.9113 252.293C93.2175 252.293 91.6975 251.913 90.3511 251.153C89.0265 250.393 87.9842 249.318 87.2242 247.928C86.4641 246.517 86.0841 244.888 86.0841 243.043C86.0841 241.197 86.4533 239.579 87.1916 238.189C87.9299 236.799 88.9614 235.735 90.286 234.997C91.6323 234.237 93.1741 233.857 94.9113 233.857C96.6051 233.857 98.1035 234.226 99.4064 234.964C100.709 235.703 101.708 236.723 102.403 238.026C103.12 239.308 103.478 240.762 103.478 242.391ZM100.416 241.772C100.416 240.643 100.166 239.677 99.6669 238.873C99.1675 238.048 98.4835 237.429 97.6149 237.017C96.768 236.582 95.8234 236.365 94.781 236.365C93.2827 236.365 92.0015 236.843 90.9375 237.798C89.8951 238.754 89.298 240.078 89.146 241.772H100.416ZM110.355 227.896V252H107.39V227.896H110.355ZM131.693 242.391C131.693 242.956 131.66 243.553 131.595 244.183H117.328C117.437 245.941 118.034 247.32 119.12 248.319C120.227 249.296 121.563 249.785 123.126 249.785C124.407 249.785 125.471 249.492 126.318 248.906C127.187 248.298 127.795 247.494 128.142 246.495H131.334C130.857 248.211 129.901 249.611 128.468 250.697C127.035 251.761 125.254 252.293 123.126 252.293C121.432 252.293 119.912 251.913 118.566 251.153C117.241 250.393 116.199 249.318 115.439 247.928C114.679 246.517 114.299 244.888 114.299 243.043C114.299 241.197 114.668 239.579 115.406 238.189C116.145 236.799 117.176 235.735 118.501 234.997C119.847 234.237 121.389 233.857 123.126 233.857C124.82 233.857 126.318 234.226 127.621 234.964C128.924 235.703 129.923 236.723 130.618 238.026C131.334 239.308 131.693 240.762 131.693 242.391ZM128.631 241.772C128.631 240.643 128.381 239.677 127.882 238.873C127.382 238.048 126.698 237.429 125.83 237.017C124.983 236.582 124.038 236.365 122.996 236.365C121.498 236.365 120.216 236.843 119.152 237.798C118.11 238.754 117.513 240.078 117.361 241.772H128.631ZM134.498 243.043C134.498 241.197 134.867 239.59 135.605 238.222C136.344 236.832 137.364 235.757 138.667 234.997C139.992 234.237 141.501 233.857 143.195 233.857C145.388 233.857 147.19 234.389 148.602 235.453C150.035 236.517 150.98 237.994 151.436 239.883H148.244C147.94 238.797 147.342 237.939 146.452 237.31C145.583 236.68 144.498 236.365 143.195 236.365C141.501 236.365 140.133 236.951 139.091 238.124C138.048 239.275 137.527 240.914 137.527 243.043C137.527 245.192 138.048 246.854 139.091 248.026C140.133 249.199 141.501 249.785 143.195 249.785C144.498 249.785 145.583 249.481 146.452 248.873C147.321 248.265 147.918 247.396 148.244 246.267H151.436C150.958 248.091 150.002 249.557 148.569 250.665C147.136 251.75 145.345 252.293 143.195 252.293C141.501 252.293 139.992 251.913 138.667 251.153C137.364 250.393 136.344 249.318 135.605 247.928C134.867 246.539 134.498 244.91 134.498 243.043ZM159.006 236.593V247.114C159.006 247.983 159.191 248.602 159.56 248.971C159.929 249.318 160.57 249.492 161.482 249.492H163.664V252H160.993C159.343 252 158.105 251.62 157.28 250.86C156.455 250.1 156.042 248.851 156.042 247.114V236.593H153.729V234.15H156.042V229.655H159.006V234.15H163.664V236.593H159.006ZM168.786 231.251C168.222 231.251 167.744 231.056 167.353 230.665C166.962 230.274 166.767 229.796 166.767 229.232C166.767 228.667 166.962 228.189 167.353 227.798C167.744 227.408 168.222 227.212 168.786 227.212C169.329 227.212 169.785 227.408 170.155 227.798C170.545 228.189 170.741 228.667 170.741 229.232C170.741 229.796 170.545 230.274 170.155 230.665C169.785 231.056 169.329 231.251 168.786 231.251ZM170.22 234.15V252H167.256V234.15H170.22ZM183.056 252.293C181.384 252.293 179.864 251.913 178.496 251.153C177.15 250.393 176.086 249.318 175.304 247.928C174.544 246.517 174.164 244.888 174.164 243.043C174.164 241.218 174.555 239.612 175.337 238.222C176.14 236.81 177.226 235.735 178.594 234.997C179.962 234.237 181.493 233.857 183.187 233.857C184.88 233.857 186.411 234.237 187.779 234.997C189.147 235.735 190.222 236.799 191.004 238.189C191.808 239.579 192.209 241.197 192.209 243.043C192.209 244.888 191.797 246.517 190.972 247.928C190.168 249.318 189.071 250.393 187.682 251.153C186.292 251.913 184.75 252.293 183.056 252.293ZM183.056 249.687C184.12 249.687 185.119 249.438 186.053 248.938C186.987 248.439 187.736 247.69 188.301 246.691C188.887 245.692 189.18 244.476 189.18 243.043C189.18 241.609 188.898 240.393 188.333 239.394C187.769 238.395 187.03 237.657 186.118 237.179C185.206 236.68 184.218 236.43 183.154 236.43C182.068 236.43 181.069 236.68 180.157 237.179C179.267 237.657 178.55 238.395 178.008 239.394C177.465 240.393 177.193 241.609 177.193 243.043C177.193 244.497 177.454 245.724 177.975 246.723C178.518 247.722 179.234 248.471 180.125 248.971C181.015 249.448 181.992 249.687 183.056 249.687ZM204.803 233.824C206.975 233.824 208.734 234.487 210.08 235.811C211.427 237.114 212.1 239.003 212.1 241.479V252H209.168V241.902C209.168 240.122 208.723 238.765 207.833 237.831C206.942 236.875 205.726 236.398 204.185 236.398C202.621 236.398 201.372 236.886 200.439 237.863C199.527 238.841 199.071 240.263 199.071 242.13V252H196.107V234.15H199.071V236.691C199.657 235.779 200.45 235.073 201.448 234.574C202.469 234.074 203.587 233.824 204.803 233.824Z" fill="black"/>
</g>
<defs>
<filter id="filter0_b_683_7310" x="-60" y="-60" width="400" height="400" filterUnits="userSpaceOnUse" color-interpolation-filters="sRGB">
<feFlood flood-opacity="0" result="BackgroundImageFix"/>
<feGaussianBlur in="BackgroundImageFix" stdDeviation="30"/>
<feComposite in2="SourceAlpha" operator="in" result="effect1_backgroundBlur_683_7310"/>
<feBlend mode="normal" in="SourceGraphic" in2="effect1_backgroundBlur_683_7310" result="shape"/>
</filter>
</defs>
</svg>
