<svg width="60" height="60" viewBox="0 0 60 60" fill="none" xmlns="http://www.w3.org/2000/svg">
<path d="M29.6069 13.482C29.5413 13.4531 29.0553 13.2286 29.0263 13.218C28.5882 13.0599 28.6059 12.7782 28.5503 12.463C28.4881 12.0894 28.4556 11.7114 28.4529 11.3326C29.2803 10.8023 29.9161 9.72433 30.0383 9.39296C30.0589 9.33002 30.1012 9.21154 30.1388 9.07089L30.2172 9.05879C30.3851 9.03073 30.5429 8.95957 30.6752 8.85227C30.838 8.71381 30.969 8.54186 31.0593 8.34815C31.2507 7.9649 31.3332 7.53638 31.2975 7.10944C31.2926 7.00027 31.2648 6.89336 31.2158 6.79565C31.1736 6.72487 31.1161 6.66443 31.0475 6.6188C30.9788 6.57316 30.9009 6.54348 30.8192 6.53193C30.7361 6.51979 30.6513 6.52573 30.5706 6.54934C30.4899 6.57296 30.4153 6.61369 30.3518 6.66876C30.3518 6.66876 30.4855 3.46185 26.495 3.46185C23.1571 3.46185 22.5534 5.69135 22.5139 6.43626C22.5091 6.51367 22.5084 6.59128 22.512 6.66876C22.4485 6.61368 22.3739 6.57294 22.2932 6.54933C22.2125 6.52572 22.1277 6.51978 22.0446 6.53193C21.963 6.5435 21.885 6.57319 21.8164 6.61882C21.7477 6.66446 21.6902 6.72488 21.648 6.79565C21.5991 6.89321 21.5713 6.99994 21.5663 7.10893C21.5306 7.53587 21.6131 7.96439 21.8045 8.34764C21.8948 8.54135 22.0259 8.7133 22.1887 8.85176C22.3209 8.95906 22.4787 9.03022 22.6467 9.05828L22.796 9.08108C22.9414 9.62198 23.1995 10.126 23.5534 10.5602C23.8257 10.8966 24.1574 11.1802 24.5321 11.3968C24.5237 11.7539 24.4919 12.1101 24.4369 12.463C24.3821 12.7777 24.3987 13.0593 23.9604 13.2185C23.9311 13.2287 23.7158 13.3052 23.6623 13.3281C23.6623 13.3281 24.0409 15.2253 26.4758 15.2253C28.9107 15.2253 29.6069 13.482 29.6069 13.482Z" fill="white"/>
<path d="M30.5321 6.8489C30.5656 6.82238 30.6041 6.80285 30.6453 6.79148C30.6865 6.78011 30.7295 6.77712 30.7719 6.78269C30.8142 6.78826 30.8551 6.80228 30.8919 6.82392C30.9288 6.84556 30.9609 6.87437 30.9864 6.90865C31.0366 7.01346 31.0586 7.12959 31.0501 7.2455C31.0548 7.382 31.0454 7.51862 31.0221 7.65318C30.9338 8.1373 30.687 8.7171 30.1491 8.81354C30.0842 8.83191 30.0291 8.87507 29.9957 8.9337C29.9624 8.99234 29.9534 9.06175 29.9708 9.12695C29.9899 9.19137 30.0332 9.24591 30.0916 9.27915C30.15 9.31239 30.219 9.32176 30.2842 9.30531C31.1009 9.15892 31.4905 8.23629 31.552 7.49622C31.5835 7.1167 31.5534 6.68252 31.2251 6.43651C31.0696 6.32411 30.8803 6.26813 30.6887 6.27782C30.497 6.2875 30.3143 6.36226 30.1709 6.48976C30.1236 6.53779 30.0971 6.6025 30.0971 6.66991C30.0971 6.73732 30.1236 6.80202 30.1709 6.85005C30.2194 6.89653 30.2839 6.92248 30.3511 6.92248C30.4183 6.92248 30.4828 6.89653 30.5313 6.85005L30.5321 6.8489Z" fill="#211715"/>
<path d="M29.9564 8.62384C29.9413 8.82749 29.898 9.02805 29.8278 9.21982C29.8162 9.25486 29.8023 9.28976 29.7925 9.32518C29.7878 9.34111 29.767 9.38608 29.7956 9.32059C29.7775 9.36238 29.7574 9.4034 29.7375 9.44404C29.6127 9.68679 29.4683 9.91892 29.3057 10.1381C28.9289 10.655 28.4174 11.2023 27.772 11.3538C27.4535 11.4287 27.588 11.9201 27.9075 11.8452C28.676 11.6649 29.2725 11.0363 29.7246 10.4241C30.1152 9.8953 30.4387 9.29601 30.466 8.62384C30.4787 8.29591 29.9691 8.29655 29.9564 8.62384Z" fill="#211715"/>
<path d="M22.6921 6.48862C22.5487 6.36119 22.3661 6.28648 22.1744 6.27679C21.9828 6.26711 21.7936 6.32305 21.638 6.43537C21.3093 6.68061 21.2796 7.11619 21.3111 7.49508C21.3725 8.2354 21.7621 9.15803 22.5789 9.30416C22.644 9.32023 22.7129 9.31069 22.7712 9.27751C22.8295 9.24432 22.8729 9.19002 22.8924 9.1258C22.9098 9.06061 22.9008 8.9912 22.8674 8.93256C22.834 8.87392 22.779 8.83076 22.714 8.8124C22.176 8.71596 21.9294 8.13616 21.8411 7.65204C21.819 7.52512 21.8095 7.39633 21.8127 7.26754C21.8043 7.15019 21.8231 7.03249 21.8676 6.92356C21.8917 6.88647 21.9233 6.85483 21.9604 6.83067C21.9975 6.80651 22.0392 6.79037 22.0829 6.78328C22.1265 6.77619 22.1712 6.77831 22.214 6.7895C22.2568 6.8007 22.2968 6.82071 22.3315 6.84827C22.3801 6.89439 22.4446 6.9201 22.5116 6.9201C22.5786 6.9201 22.6431 6.89439 22.6917 6.84827C22.739 6.80023 22.7655 6.73553 22.7655 6.66813C22.7655 6.60072 22.739 6.53602 22.6917 6.48798L22.6921 6.48862Z" fill="#211715"/>
<path d="M22.4245 8.58868C22.5478 9.38594 22.8814 10.1359 23.3909 10.7614C23.9348 11.4051 24.6546 11.8709 25.5024 11.9624C25.5699 11.962 25.6345 11.935 25.6822 11.8873C25.7299 11.8396 25.7568 11.775 25.7572 11.7076C25.7558 11.6404 25.7285 11.5765 25.681 11.529C25.6335 11.4815 25.5696 11.4542 25.5024 11.4528C24.7749 11.3742 24.1669 10.9085 23.7155 10.3581C23.2704 9.81529 23.0352 9.13676 22.9158 8.45325C22.8975 8.38833 22.8543 8.33324 22.7957 8.29987C22.737 8.2665 22.6676 8.25753 22.6024 8.27489C22.538 8.29408 22.4835 8.33738 22.4503 8.39578C22.4171 8.45417 22.4077 8.52314 22.4241 8.5883L22.4245 8.58868Z" fill="#211715"/>
<path d="M23.7301 13.5738C23.9085 13.5166 24.0825 13.4461 24.2505 13.363C24.3469 13.3049 24.4304 13.2277 24.496 13.1363C24.5616 13.0449 24.6079 12.941 24.6321 12.8311C24.7311 12.3589 24.7831 11.8779 24.7872 11.3954C24.7872 11.3279 24.7604 11.263 24.7126 11.2153C24.6648 11.1675 24.6 11.1406 24.5324 11.1406C24.4648 11.1406 24.4 11.1675 24.3523 11.2153C24.3045 11.263 24.2776 11.3279 24.2776 11.3954C24.2707 11.6302 24.2558 11.8649 24.2315 12.0986C24.2129 12.2756 24.1888 12.4425 24.1534 12.6336C24.1468 12.6711 24.1383 12.7082 24.1279 12.7449C24.1232 12.7612 24.1174 12.7771 24.1123 12.7933C24.1298 12.7384 24.1114 12.7945 24.1049 12.806C24.0952 12.8242 24.0841 12.8414 24.0726 12.8586C24.0926 12.8287 24.0814 12.8486 24.0647 12.865C24.0587 12.8707 24.0125 12.9125 24.03 12.8989C24.0515 12.8821 23.9986 12.919 23.9936 12.9221C23.8645 12.9842 23.7313 13.0374 23.5949 13.0813C23.5308 13.1011 23.4767 13.1445 23.4436 13.2028C23.4105 13.261 23.4008 13.3297 23.4165 13.3949C23.4347 13.4599 23.4779 13.5151 23.5366 13.5485C23.5952 13.5819 23.6647 13.5908 23.7299 13.5732L23.7301 13.5738Z" fill="#211715"/>
<path d="M28.1984 11.4063C28.2051 11.7495 28.2349 12.0919 28.2875 12.4312C28.323 12.6605 28.3391 12.9137 28.4709 13.1123C28.5515 13.2327 28.6623 13.3297 28.7923 13.3937C28.8357 13.4152 28.8815 13.4338 28.9259 13.4517C29.0256 13.4912 28.8908 13.4319 28.9155 13.4459C28.9428 13.4614 28.9742 13.4722 29.0028 13.4852C29.1613 13.557 29.3186 13.6314 29.4776 13.7018C29.5364 13.7338 29.6053 13.7422 29.6701 13.7252C29.7349 13.7082 29.7908 13.6671 29.8263 13.6103C29.8599 13.5518 29.8691 13.4825 29.852 13.4173C29.8349 13.352 29.7928 13.2962 29.7348 13.2617C29.5902 13.198 29.447 13.1301 29.3031 13.0645C29.2345 13.0332 29.1657 13.0031 29.0965 12.9734C29.0499 12.9547 29.0053 12.9314 28.9633 12.9039C28.9029 12.8626 28.9846 12.9293 28.9367 12.881C28.9256 12.8702 28.915 12.859 28.9048 12.8474C28.9191 12.8669 28.921 12.8695 28.9109 12.8549C28.8968 12.8339 28.8854 12.812 28.8727 12.7898C28.8936 12.828 28.8736 12.7926 28.8667 12.7719C28.8524 12.7269 28.8412 12.6811 28.8331 12.6347C28.8132 12.5279 28.7983 12.4196 28.7814 12.3123C28.7359 12.0123 28.7111 11.7095 28.7071 11.406C28.7008 11.0785 28.1912 11.0773 28.1975 11.406L28.1984 11.4063Z" fill="#211715"/>
<path d="M28.6599 13.701C28.8628 13.6462 29.0627 13.5808 29.2587 13.5049C29.3097 13.4895 29.3615 13.4767 29.4139 13.4667C29.4419 13.4616 29.4837 13.4691 29.4023 13.4667C29.4129 13.4667 29.4241 13.4643 29.4347 13.4635C29.4584 13.4619 29.4817 13.4624 29.5054 13.4629C29.5336 13.4629 29.5436 13.4833 29.4747 13.458C29.4827 13.461 29.4924 13.4615 29.5001 13.4638C29.5366 13.4737 29.5236 13.4893 29.4787 13.4526C29.4854 13.4572 29.4925 13.4612 29.4999 13.4647C29.5336 13.4811 29.4443 13.4163 29.4763 13.4477C29.5083 13.4792 29.4445 13.3906 29.4595 13.4253C29.463 13.4334 29.4672 13.4412 29.4722 13.4485C29.434 13.4002 29.4525 13.3965 29.4617 13.4332C29.4801 13.4981 29.5233 13.5531 29.5819 13.5865C29.6405 13.6199 29.7099 13.6289 29.7751 13.6116C29.8396 13.5925 29.8941 13.5492 29.9274 13.4908C29.9607 13.4324 29.97 13.3633 29.9534 13.2982C29.9343 13.219 29.8939 13.1466 29.8365 13.0889C29.7791 13.0311 29.7069 12.9902 29.6279 12.9706C29.4844 12.9434 29.3363 12.9512 29.1964 12.9933C29.0718 13.0273 28.949 13.0676 28.8285 13.1139C28.7299 13.1543 28.6281 13.1862 28.5241 13.2095C28.4591 13.2276 28.4038 13.2707 28.3704 13.3294C28.337 13.3881 28.3281 13.4577 28.3458 13.5229C28.3652 13.5871 28.4085 13.6415 28.4668 13.6747C28.5252 13.7079 28.594 13.7174 28.6592 13.7012L28.6599 13.701Z" fill="#211715"/>
<path d="M20.3919 23.4568C20.3494 25.0748 20.0087 29.1099 19.8112 29.9446L19.5863 30.8956C19.6943 31.7873 19.7362 32.6858 19.7117 33.5837C19.7099 33.6369 19.692 33.6884 19.6604 33.7313C19.6288 33.7742 19.585 33.8065 19.5347 33.8241C19.4844 33.8416 19.43 33.8435 19.3786 33.8296C19.3272 33.8157 19.2812 33.7865 19.2466 33.746C19.1725 33.6581 19.0609 33.5266 19.0096 33.4522C18.9385 33.3325 18.8558 33.2201 18.7629 33.1164C18.6867 33.3412 18.6415 33.5754 18.6287 33.8125C18.5711 34.6279 18.5335 34.5769 18.6333 35.4222C18.6608 35.6554 18.6025 35.8361 18.5388 35.8726C18.1321 36.1051 17.7116 35.7834 17.521 35.4704C17.4356 35.3253 17.3709 35.1689 17.329 35.0059C17.0997 34.165 17.2908 33.4006 17.5772 32.5772C17.8768 31.7146 18.2675 30.8701 18.3525 29.9583C18.3189 29.5393 18.3847 24.8483 18.4137 23.3107" fill="white"/>
<path d="M18.1589 23.3112C18.1223 25.2617 18.0915 27.2132 18.0884 29.1642C18.0884 29.4293 18.0757 29.7 18.0981 29.9645C18.126 30.2889 18.6359 30.2918 18.6077 29.9645C18.5886 29.7413 18.598 29.5134 18.5979 29.2893C18.5979 28.8532 18.6012 28.4171 18.605 27.9812C18.6145 26.8909 18.628 25.8006 18.6454 24.7104C18.6524 24.2439 18.6601 23.7773 18.6685 23.3108C18.6746 22.9827 18.165 22.9826 18.1589 23.3108V23.3112Z" fill="#211715"/>
<path d="M20.1371 23.4568C20.1133 24.3385 20.0479 25.2199 19.979 26.0991C19.9044 27.0534 19.8209 28.0079 19.7065 28.9583C19.6772 29.2669 19.6301 29.5736 19.5655 29.8769C19.4912 30.1954 19.9825 30.3322 20.0569 30.0124C20.2198 29.3125 20.2644 28.5728 20.3343 27.8594C20.4337 26.846 20.5156 25.8311 20.5801 24.8145C20.6086 24.3621 20.6345 23.91 20.6467 23.4563C20.6556 23.1282 20.146 23.1285 20.1371 23.4563V23.4568Z" fill="#211715"/>
<path d="M19.3204 30.8004C19.414 31.5491 19.4618 32.3028 19.4636 33.0573C19.4636 33.1507 19.463 33.2437 19.4619 33.3363C19.4735 33.4193 19.4714 33.5037 19.4558 33.586C19.4539 33.5889 19.4642 33.5933 19.4396 33.5798C19.3479 33.5015 19.2714 33.4069 19.214 33.3009C19.1338 33.1723 19.0432 33.0505 18.943 32.9368C18.9112 32.9059 18.872 32.8838 18.8291 32.8726C18.7862 32.8614 18.7412 32.8614 18.6983 32.8727C18.6555 32.884 18.6163 32.9062 18.5846 32.9371C18.5528 32.968 18.5296 33.0066 18.5171 33.0491C18.3955 33.5257 18.3297 34.0147 18.3209 34.5065C18.3133 34.7059 18.3207 34.9056 18.3431 35.1038C18.3574 35.2465 18.3845 35.3911 18.3854 35.5345C18.3756 35.5863 18.3685 35.6387 18.3641 35.6913C18.3491 35.6038 18.4509 35.6594 18.3918 35.6629C18.3619 35.6647 18.3281 35.6912 18.2951 35.6957C18.0239 35.734 17.7944 35.4581 17.6866 35.2445C17.5505 34.9487 17.4809 34.6267 17.4828 34.3011C17.47 33.6152 17.7072 32.9521 17.9414 32.3168C18.2111 31.5838 18.4928 30.8622 18.5952 30.0827C18.5949 30.0153 18.5679 29.9507 18.5202 29.9029C18.4725 29.8552 18.4079 29.8283 18.3404 29.8279C18.2734 29.8296 18.2095 29.857 18.1621 29.9044C18.1146 29.9518 18.0873 30.0157 18.0856 30.0827C17.8866 31.5975 16.8306 32.9644 16.9873 34.5332C17.0525 35.1854 17.3352 36.0559 18.0848 36.1902C18.4091 36.2482 18.7803 36.1392 18.8664 35.7894C18.9416 35.4845 18.85 35.1581 18.8323 34.8501C18.8246 34.6139 18.8334 34.3774 18.8587 34.1425C18.8755 33.8189 18.9259 33.4979 19.0091 33.1847L18.5832 33.2971C18.804 33.5264 18.9287 33.9053 19.2321 34.0457C19.309 34.0798 19.3929 34.0949 19.4769 34.0896C19.5608 34.0843 19.6422 34.0588 19.7142 34.0153C19.7862 33.9718 19.8466 33.9116 19.8903 33.8397C19.934 33.7678 19.9597 33.6865 19.9653 33.6026C19.9906 33.1421 19.9866 32.6806 19.9533 32.2207C19.9309 31.7458 19.8899 31.2724 19.8305 30.8004C19.8285 30.7335 19.801 30.6698 19.7536 30.6225C19.7063 30.5751 19.6426 30.5476 19.5757 30.5456C19.5082 30.546 19.4437 30.573 19.396 30.6207C19.3483 30.6684 19.3213 30.7329 19.3209 30.8004H19.3204Z" fill="#211715"/>
<path d="M33.4101 24.5309C33.1371 24.2927 32.8978 24.0184 32.6989 23.7155C32.5363 23.4279 32.1617 22.6359 32.0661 22.1585L31.9912 21.7839L31.9687 21.9623C31.9135 22.3994 31.8718 22.763 31.8592 22.9716C31.8235 23.5623 31.9182 25.8382 31.9797 26.4261C31.9841 26.5502 31.9774 26.6743 31.9599 26.7972C30.3586 26.7972 23.4969 26.7891 21.1181 26.7884C21.1153 26.6408 21.0827 26.5169 21.0926 26.4261C21.1436 25.942 21.2163 24.368 21.22 23.4959H20.9568C20.4973 23.4959 17.9795 23.3006 17.7336 23.1835C17.622 23.15 17.6844 22.8548 17.7448 22.6337C17.9455 21.8989 18.3627 19.9618 18.4701 19.5233C18.6369 18.8425 19.0754 16.8798 19.2229 16.3138C19.3127 15.9692 19.5048 15.4405 19.7768 15.1183C19.8673 15.0448 19.9636 14.9787 20.0648 14.9207C20.2545 14.7923 20.4544 14.6795 20.6624 14.5834C21.6345 14.04 22.6338 13.5468 23.6563 13.1055C23.8273 12.7159 24.0728 12.3634 24.379 12.068C24.9073 12.5962 25.5251 13.0267 26.2035 13.3394C26.2418 13.3565 26.2834 13.3777 26.2955 13.4171H26.6228C26.6356 13.3775 26.6771 13.3565 26.7149 13.3394C27.3934 13.0267 28.011 12.5962 28.5393 12.068C28.8129 12.3299 29.0373 12.6388 29.2018 12.98C30.3297 13.4505 31.4294 13.9859 32.4953 14.5836C32.6673 14.6642 32.8351 14.7535 32.998 14.8512C33.0617 14.8861 33.1318 14.924 33.1318 14.924C33.2315 14.981 33.3264 15.046 33.4154 15.1186C33.6874 15.4408 33.8794 15.9695 33.9692 16.3141C34.1169 16.88 34.3501 17.8693 34.5905 18.8915C34.7208 19.2019 34.8314 19.52 34.9218 19.8442L35.648 21.6741L33.4101 24.5309Z" fill="white"/>
<path d="M36.4132 17.0162C36.5306 16.7795 36.6828 16.5461 36.7463 16.3964C36.8341 16.1894 36.7751 15.8406 36.8372 15.6259C36.9526 15.2017 37.1661 14.8106 37.4603 14.484C37.7866 14.0976 38.1364 13.7316 38.5077 13.3884C38.675 13.2299 38.8433 13.123 39.0523 13.2654C39.2848 13.4239 39.199 13.637 39.0977 13.8749C38.9091 14.3177 38.4472 14.6843 38.3 15.0641C38.3 15.0641 38.2911 15.0872 38.2772 15.1218C38.6379 15.0453 39.6727 14.8662 39.8676 14.8217C40.0449 14.762 40.2148 14.6821 40.374 14.5838C40.7161 14.4231 41.098 14.1793 41.4686 14.1061C41.5696 14.0861 41.6779 14.1436 41.739 14.1353C41.9129 14.0232 42.2724 14.044 42.4723 14.0984C43.1857 14.4282 42.4611 15.418 42.0445 15.74C41.7573 15.9622 41.3347 16.3088 41.0211 16.4995C40.6832 16.7224 40.3157 16.8969 39.9294 17.0177C39.4661 17.1351 39.012 17.2859 38.5706 17.469C38.3319 17.6346 38.0577 17.8002 37.9119 18.2771C37.6358 19.7093 37.375 22.4585 37.1052 23.3696C36.8393 24.2677 36.7421 24.959 35.9127 25.4788C35.4611 25.762 35.0498 25.8864 34.5584 25.6269C34.263 25.4733 34.0261 25.2269 33.8843 24.9256C33.7425 24.6243 33.7036 24.2847 33.7735 23.9591C33.8797 23.4194 34.0491 22.8941 34.2783 22.394C34.7214 21.4807 35.9764 17.9876 36.3897 17.0651C36.3973 17.0488 36.4052 17.0325 36.4132 17.0162Z" fill="white"/>
<path d="M23.8162 12.7645C23.132 13.049 22.4594 13.359 21.7985 13.6945C21.4907 13.8512 21.1854 14.013 20.8813 14.1765C20.5662 14.346 20.2144 14.4904 19.9291 14.7076C19.8723 14.7431 19.8313 14.799 19.8143 14.8637C19.7973 14.9285 19.8056 14.9973 19.8376 15.0562C19.872 15.1142 19.9279 15.1563 19.9932 15.1734C20.0584 15.1905 20.1278 15.1813 20.1863 15.1476C20.4739 14.9564 20.7759 14.7877 21.0894 14.6429C21.3939 14.4786 21.6997 14.3165 22.0077 14.1587C22.6447 13.8335 23.2917 13.5303 23.9517 13.2559C24.0158 13.2362 24.0699 13.1928 24.1031 13.1345C24.1362 13.0763 24.1459 13.0076 24.1301 12.9425C24.1119 12.8774 24.0687 12.8222 24.0101 12.7888C23.9514 12.7554 23.8819 12.7466 23.8167 12.7641L23.8162 12.7645Z" fill="#211715"/>
<path d="M29.2069 13.2559C29.8585 13.5268 30.4981 13.8257 31.1268 14.1464C31.4264 14.2993 31.7239 14.4566 32.0201 14.6161C32.323 14.7791 32.6653 14.9149 32.9396 15.1229C32.998 15.1566 33.0674 15.166 33.1326 15.1489C33.1979 15.1318 33.2538 15.0896 33.2881 15.0316C33.3206 14.9728 33.3292 14.9039 33.3122 14.839C33.2952 14.7741 33.2538 14.7182 33.1967 14.683C32.9222 14.4747 32.5803 14.339 32.2773 14.1761C31.9652 14.008 31.6518 13.8424 31.3359 13.6819C30.6832 13.3506 30.0187 13.0449 29.3423 12.7646C29.2771 12.7471 29.2076 12.756 29.1489 12.7894C29.0903 12.8228 29.0471 12.878 29.0289 12.943C29.0127 13.0081 29.0221 13.077 29.0553 13.1354C29.0886 13.1937 29.143 13.2371 29.2073 13.2564L29.2069 13.2559Z" fill="#211715"/>
<path d="M33.0035 15.1443C33.1512 15.2143 33.2737 15.3282 33.3541 15.4705C33.4659 15.6577 33.5573 15.8564 33.6268 16.0631C33.7651 16.4616 33.8506 16.8808 33.9495 17.2902C34.0112 17.5463 34.0724 17.8026 34.1329 18.059C34.2027 18.3538 34.2476 18.673 34.3452 18.9594C34.4482 19.2614 34.5953 19.5828 34.6764 19.9123C34.755 20.2308 35.2465 20.0956 35.1678 19.7767C35.1237 19.5984 35.0621 19.423 35.0013 19.2497C34.9235 19.072 34.8588 18.8889 34.8076 18.7018C34.7005 18.1325 34.541 17.568 34.4043 17.0045C34.3164 16.5794 34.1989 16.1609 34.0528 15.7521C33.9674 15.5211 33.8548 15.3011 33.7175 15.0967C33.5969 14.933 33.4407 14.7989 33.2606 14.7045C32.9754 14.5418 32.7183 14.982 33.0034 15.1446L33.0035 15.1443Z" fill="#211715"/>
<path d="M19.9321 14.7043C19.8107 14.7675 19.698 14.8463 19.5969 14.9387C19.4573 15.096 19.3443 15.275 19.2621 15.4687C19.1258 15.7616 19.0191 16.0674 18.9436 16.3816C18.7973 16.9707 18.665 17.5634 18.5288 18.1548C18.2809 19.2315 18.0334 20.3082 17.7863 21.385C17.7118 21.7087 17.6368 22.0325 17.5548 22.3544C17.4817 22.6419 17.2442 23.2225 17.605 23.404C17.8973 23.5509 18.1557 23.111 17.8623 22.964C17.9756 23.021 17.9058 23.0839 17.9281 23.0002C17.9369 22.9671 17.9382 22.9222 17.9452 22.8882C17.96 22.8175 17.9784 22.7481 17.9971 22.678C18.0276 22.5641 18.0567 22.4498 18.085 22.3352C18.155 22.0509 18.2214 21.7658 18.2869 21.4804C18.4134 20.9297 18.5346 20.3779 18.6607 19.8272C18.8962 18.7988 19.1332 17.77 19.3793 16.7441C19.4397 16.4685 19.518 16.1971 19.6139 15.9318C19.6849 15.7419 19.7772 15.5607 19.8889 15.3916C19.966 15.2847 20.0694 15.1995 20.1891 15.1443C20.474 14.9819 20.2175 14.5415 19.9319 14.7043H19.9321Z" fill="#211715"/>
<path d="M31.8203 22.2257C31.9375 22.6988 32.1134 23.1554 32.3438 23.5848C32.5626 24.0146 32.8637 24.3973 33.2299 24.711C33.2784 24.7574 33.3429 24.7833 33.41 24.7833C33.4772 24.7833 33.5417 24.7574 33.5902 24.711C33.6374 24.663 33.6639 24.5983 33.6639 24.5309C33.6639 24.4635 33.6374 24.3988 33.5902 24.3508C33.2562 24.0665 32.9822 23.7187 32.7839 23.3276C32.5756 22.9365 32.4172 22.5208 32.3125 22.0903C32.3036 22.058 32.2884 22.0278 32.2679 22.0014C32.2473 21.975 32.2217 21.9529 32.1926 21.9364C32.1635 21.9198 32.1314 21.9092 32.0982 21.9051C32.065 21.9009 32.0313 21.9034 31.999 21.9123C31.9668 21.9211 31.9366 21.9363 31.9101 21.9569C31.8837 21.9774 31.8616 22.003 31.8451 22.0321C31.8286 22.0612 31.8179 22.0933 31.8138 22.1265C31.8096 22.1597 31.8121 22.1935 31.821 22.2257H31.8203Z" fill="#211715"/>
<path d="M37.6661 18.2094C37.4285 19.4512 37.3057 20.7132 37.117 21.9628C37.0498 22.4609 36.9504 22.9543 36.8194 23.4396C36.6552 24.0129 36.5264 24.6235 36.0692 25.0441C35.8238 25.2699 35.4695 25.4997 35.1273 25.5135C34.7783 25.5278 34.4266 25.297 34.2303 25.0186C33.8198 24.4364 34.0585 23.7157 34.2672 23.1036C34.4187 22.6595 34.6317 22.2387 34.8094 21.8042C35.0122 21.3084 35.2044 20.8084 35.3966 20.3084C35.632 19.6947 35.8644 19.0798 36.1005 18.4665C36.1995 18.2096 36.2989 17.9527 36.4009 17.697C36.4822 17.4932 36.5386 17.353 36.6096 17.1933C36.6417 17.1345 36.6501 17.0657 36.6331 17.0009C36.6161 16.9361 36.575 16.8802 36.5182 16.8447C36.4598 16.8111 36.3904 16.8019 36.3252 16.819C36.26 16.8361 36.2041 16.8782 36.1697 16.9362C35.742 17.895 35.3948 18.8926 35.0201 19.8726C34.8111 20.4196 34.6018 20.9665 34.3831 21.5095C34.2063 21.9479 33.9988 22.3522 33.8278 22.8217C33.5696 23.5312 33.328 24.3277 33.6636 25.0512C34.0026 25.7829 34.8675 26.2233 35.6357 25.9081C35.9717 25.7706 36.2739 25.5621 36.5218 25.2969C36.7697 25.0317 36.9573 24.7161 37.0719 24.3717C37.2616 23.8396 37.4065 23.2926 37.5051 22.7365C37.7652 21.2793 37.8798 19.7987 38.158 18.3445C38.2194 18.0241 37.7283 17.8867 37.6666 18.209L37.6661 18.2094Z" fill="#211715"/>
<path d="M33.3637 22.5981C33.4062 22.5404 33.4489 22.4826 33.4911 22.4251C33.5115 22.3978 33.5319 22.3706 33.5523 22.3434L33.5831 22.3029C33.588 22.2964 33.6303 22.2418 33.5927 22.2902C33.6775 22.1813 33.7645 22.0736 33.8567 21.9717C33.9484 21.8689 34.0462 21.7718 34.1497 21.681C34.1752 21.6588 34.2007 21.637 34.2276 21.6157C34.2276 21.6157 34.2785 21.5765 34.25 21.5978C34.2215 21.619 34.2681 21.585 34.2734 21.5807C34.3352 21.5355 34.399 21.4934 34.4645 21.4533C34.4934 21.4364 34.5187 21.414 34.5389 21.3873C34.5592 21.3607 34.574 21.3303 34.5824 21.2979C34.5909 21.2655 34.593 21.2318 34.5884 21.1987C34.5839 21.1655 34.5728 21.1336 34.5559 21.1047C34.5391 21.0758 34.5166 21.0505 34.49 21.0303C34.4633 21.01 34.4329 20.9952 34.4006 20.9868C34.3352 20.9696 34.2657 20.9791 34.2073 21.0133C33.666 21.3402 33.2923 21.8414 32.9226 22.3408C32.8887 22.3991 32.8792 22.4686 32.8963 22.5339C32.9135 22.5992 32.9557 22.6551 33.014 22.6893C33.0727 22.7215 33.1416 22.73 33.2065 22.713C33.2713 22.6961 33.3272 22.6549 33.3626 22.598L33.3637 22.5981Z" fill="#211715"/>
<path d="M36.6096 17.1937C36.7089 16.9888 36.833 16.7976 36.9342 16.5939C37.022 16.396 37.0641 16.181 37.0575 15.9646C37.0834 15.5781 37.2227 15.2077 37.4579 14.8998C37.7541 14.5031 38.0858 14.1342 38.449 13.7977C38.528 13.7213 38.607 13.6433 38.6879 13.5684C38.7351 13.5248 38.8056 13.4431 38.8761 13.4568C39.029 13.4866 38.8889 13.7308 38.8379 13.8309C38.6233 14.2528 38.2372 14.5546 38.0544 14.9961C38.0368 15.0614 38.0457 15.1309 38.0791 15.1896C38.1125 15.2483 38.1677 15.2915 38.2328 15.3097C38.2979 15.3259 38.3668 15.3164 38.4252 15.2832C38.4835 15.25 38.5269 15.1956 38.5462 15.1313C38.6473 14.9367 38.7747 14.7569 38.9249 14.5971C39.0861 14.4107 39.2214 14.2034 39.3274 13.9809C39.4259 13.7531 39.5174 13.5029 39.3921 13.265C39.3271 13.1488 39.2264 13.0566 39.105 13.002C38.9835 12.9474 38.8477 12.9333 38.7177 12.9618C38.4556 13.0301 38.2551 13.2745 38.0691 13.4564C37.8525 13.6679 37.6419 13.8855 37.4424 14.1133C37.1011 14.4736 36.8336 14.8972 36.6547 15.3601C36.6029 15.5004 36.5696 15.6467 36.5556 15.7956C36.5449 15.928 36.5556 16.0631 36.5367 16.1951C36.5126 16.3037 36.4684 16.4067 36.4062 16.499C36.325 16.6434 36.2423 16.7868 36.17 16.9361C36.0276 17.2299 36.4669 17.4886 36.61 17.1932L36.6096 17.1937Z" fill="#211715"/>
<path d="M38.3041 15.3764C38.833 15.2587 39.3721 15.1909 39.9012 15.0749C40.0882 15.0208 40.2669 14.9415 40.4325 14.8392C40.6326 14.7338 40.8358 14.6313 41.0392 14.5322C41.1424 14.4802 41.2493 14.4357 41.3588 14.3989C41.4478 14.366 41.5444 14.3596 41.6371 14.3803C41.7296 14.3922 41.8237 14.3766 41.9075 14.3356C41.9982 14.3097 42.0931 14.3013 42.1869 14.3109C42.4896 14.3254 42.5681 14.4727 42.4821 14.7355C42.3738 15.0204 42.1965 15.2739 41.966 15.4734C41.6762 15.7314 41.3681 15.968 41.044 16.1813C40.6822 16.4372 40.2836 16.6364 39.8617 16.772C39.3979 16.9106 38.8945 17.0111 38.4635 17.239C38.0813 17.446 37.7951 17.7943 37.6661 18.2094C37.5642 18.5221 38.0567 18.6561 38.1575 18.3449C38.2292 18.1147 38.3753 17.9148 38.573 17.7768C38.8158 17.6253 39.0818 17.5145 39.3604 17.4487C39.6624 17.3564 39.9732 17.2854 40.2681 17.1716C40.5672 17.0515 40.8549 16.9046 41.1276 16.7329C41.3914 16.5647 41.6452 16.3814 41.8879 16.184C42.0812 16.0456 42.2639 15.8928 42.4343 15.727C42.7369 15.4073 43.0657 14.9431 43.0243 14.4785C42.9658 13.8244 42.1158 13.6267 41.6102 13.9149L41.7388 13.8801C41.6493 13.8655 41.5591 13.8557 41.4685 13.8509C41.3581 13.8641 41.25 13.8918 41.1469 13.9334C40.9449 14.0115 40.748 14.1025 40.5576 14.2058C40.275 14.3523 39.9933 14.5392 39.6785 14.6007C39.1759 14.6985 38.6682 14.7737 38.1685 14.8849C37.8484 14.9561 37.9839 15.4475 38.3039 15.3763L38.3041 15.3764Z" fill="#211715"/>
<path d="M39.2593 15.6804C39.225 15.686 39.1905 15.6909 39.1561 15.6962C39.1157 15.7025 39.1952 15.6914 39.1544 15.6962L39.0962 15.7036C39.0298 15.7118 38.9634 15.7193 38.8971 15.7273C38.7423 15.7459 38.587 15.7655 38.4341 15.7963C38.1354 15.8514 37.8566 15.9842 37.6255 16.1812C37.5781 16.2292 37.5515 16.2939 37.5515 16.3614C37.5515 16.4288 37.5781 16.4936 37.6255 16.5415C37.674 16.5878 37.7385 16.6137 37.8056 16.6137C37.8727 16.6137 37.9372 16.5878 37.9858 16.5415C37.9979 16.5311 38.0098 16.5206 38.0221 16.5103C38.0363 16.4984 38.0476 16.4918 38.0265 16.5069C38.0552 16.4869 38.084 16.4674 38.1139 16.4495C38.1402 16.4337 38.1672 16.4191 38.1946 16.4053C38.2081 16.3986 38.2223 16.3926 38.2359 16.3856C38.2703 16.3671 38.2016 16.3983 38.238 16.3842C38.3604 16.3379 38.4867 16.3026 38.6154 16.2787C38.6769 16.2671 38.7388 16.2579 38.8007 16.2487C38.8416 16.2428 38.7625 16.2533 38.8033 16.2487L38.8502 16.2429C38.8853 16.2384 38.9205 16.2343 38.9558 16.2301C39.1023 16.2128 39.2488 16.1956 39.3948 16.1718C39.4599 16.1537 39.5152 16.1106 39.5486 16.0519C39.5821 15.9932 39.5909 15.9236 39.5732 15.8584C39.5537 15.7942 39.5103 15.7399 39.452 15.7067C39.3937 15.6736 39.3249 15.664 39.2598 15.68L39.2593 15.6804Z" fill="#211715"/>
<path d="M41.3791 14.2351C41.3334 14.2815 41.2857 14.3258 41.236 14.3679C41.2113 14.3888 41.1862 14.4092 41.1607 14.4291C41.1892 14.4068 41.1676 14.4236 41.1509 14.436C41.1389 14.4448 41.1269 14.4536 41.1148 14.4622C40.9964 14.5467 40.8734 14.6244 40.7463 14.6951C40.6237 14.7639 40.4984 14.8273 40.3702 14.8852C40.3405 14.8987 40.3104 14.9116 40.281 14.9247C40.2516 14.9378 40.3192 14.9095 40.2735 14.9277L40.2353 14.9434C40.1746 14.9676 40.1134 14.9905 40.0516 15.0119C40.0193 15.0208 39.9891 15.036 39.9627 15.0566C39.9363 15.0772 39.9142 15.1027 39.8977 15.1318C39.8812 15.1609 39.8705 15.193 39.8664 15.2262C39.8623 15.2594 39.8647 15.2932 39.8736 15.3254C39.8916 15.3906 39.9347 15.4459 39.9935 15.4793C40.0226 15.4958 40.0547 15.5064 40.0879 15.5106C40.1211 15.5147 40.1549 15.5122 40.1871 15.5033C40.7439 15.3099 41.323 15.0202 41.74 14.5953C41.7864 14.5473 41.8121 14.4829 41.8115 14.4161C41.8109 14.3493 41.7841 14.2854 41.7369 14.2382C41.6897 14.1909 41.6257 14.1641 41.5589 14.1635C41.4921 14.163 41.4278 14.1886 41.3797 14.2351H41.3791Z" fill="#211715"/>
<path d="M41.8567 14.5873C41.8165 14.635 41.7721 14.679 41.7241 14.7188C41.708 14.7326 41.6912 14.7454 41.675 14.7592C41.6307 14.7966 41.7214 14.725 41.6732 14.7606C41.6393 14.7861 41.6056 14.8105 41.5713 14.8345C41.4171 14.942 41.2562 15.0398 41.0933 15.1334C40.9366 15.2233 40.7774 15.309 40.6158 15.3903C40.5521 15.4224 40.4884 15.454 40.4236 15.4837C40.3999 15.4947 40.3759 15.505 40.3521 15.5159C40.3039 15.538 40.4095 15.4934 40.3714 15.5079C40.3611 15.5119 40.3509 15.5162 40.3407 15.5207C40.2763 15.5398 40.2218 15.5831 40.1886 15.6415C40.1553 15.6999 40.146 15.7689 40.1624 15.8341C40.1809 15.8989 40.2241 15.9538 40.2827 15.9872C40.3413 16.0205 40.4106 16.0296 40.4758 16.0124C40.778 15.889 41.0703 15.7425 41.3501 15.5743C41.5184 15.4777 41.6847 15.3766 41.8433 15.2648C41.9813 15.1765 42.1069 15.0702 42.2168 14.9486C42.2632 14.9001 42.2891 14.8356 42.2891 14.7684C42.2891 14.7013 42.2632 14.6367 42.2168 14.5882C42.1687 14.5412 42.104 14.5148 42.0367 14.5148C41.9694 14.5148 41.9047 14.5412 41.8566 14.5882L41.8567 14.5873Z" fill="#211715"/>
<path d="M17.6053 23.4041C17.8058 23.4761 18.0156 23.519 18.2283 23.5315C18.5609 23.5743 18.895 23.6065 19.229 23.6363C19.8014 23.6873 20.3815 23.7498 20.9568 23.7517C21.2849 23.7529 21.2853 23.2433 20.9568 23.2421C20.4056 23.2402 19.85 23.1811 19.3014 23.1331C18.9759 23.1045 18.6506 23.0736 18.3263 23.0341C18.2451 23.0241 18.219 23.0213 18.1674 23.0136C18.1158 23.0058 18.0646 22.9985 18.0134 22.9896C17.9737 22.9827 17.9337 22.9759 17.8945 22.9666C17.8643 22.9596 17.7631 22.9202 17.8625 22.9645C17.8037 22.9324 17.7349 22.924 17.6701 22.941C17.6053 22.9579 17.5494 22.9991 17.514 23.0559C17.4803 23.1143 17.4711 23.1837 17.4882 23.2489C17.5053 23.3142 17.5473 23.3701 17.6053 23.4046V23.4041Z" fill="#211715"/>
<path d="M17.9237 22.2782C18.7875 22.3632 19.6563 22.4726 20.5238 22.5014C20.8517 22.5122 20.8513 22.0026 20.5238 21.9918C19.6558 21.963 18.7875 21.8536 17.9237 21.7686C17.8563 21.7691 17.7917 21.7961 17.744 21.8438C17.6963 21.8914 17.6694 21.956 17.6689 22.0234C17.6703 22.0906 17.6976 22.1546 17.7451 22.202C17.7925 22.2495 17.8565 22.2768 17.9237 22.2782Z" fill="#211715"/>
<path d="M24.9676 14.837C24.4517 14.1334 24.1761 13.6316 23.7433 12.9272C23.9043 12.6064 24.1193 12.3159 24.379 12.0682C24.9073 12.5965 25.5251 13.027 26.2035 13.3397C26.2418 13.3568 26.2834 13.3779 26.2955 13.4174C26.3015 13.4531 26.294 13.4898 26.2745 13.5203C26.2508 13.5694 25.14 14.6246 24.9676 14.837Z" fill="#F2635F"/>
<path d="M27.9508 14.837C28.4667 14.1334 28.7424 13.6316 29.1751 12.9272C29.014 12.6064 28.7988 12.3158 28.5389 12.0682C28.0106 12.5965 27.393 13.027 26.7145 13.3397C26.6763 13.3568 26.6347 13.3779 26.6224 13.4174C26.6165 13.4532 26.624 13.4898 26.6436 13.5203C26.6675 13.5694 27.7783 14.6246 27.9508 14.837Z" fill="#F2635F"/>
<path d="M25.1883 14.7084C24.741 14.0962 24.3602 13.4442 23.964 12.7986V13.0558C24.1159 12.7551 24.3173 12.4821 24.56 12.2484H24.1989C24.4876 12.5367 24.8025 12.7976 25.1395 13.0277C25.2969 13.1358 25.4588 13.2369 25.6253 13.331C25.7061 13.3765 25.788 13.4201 25.8709 13.462C25.9181 13.4858 25.9658 13.5089 26.0139 13.5314C26.0341 13.5411 26.0545 13.5504 26.0749 13.5597C26.1134 13.582 26.1134 13.5774 26.0749 13.546L26.0401 13.4174C26.0388 13.4001 26.1165 13.3268 26.0755 13.3624C26.062 13.374 26.05 13.3894 26.0373 13.4022C25.9935 13.4479 25.9481 13.4922 25.9034 13.5368C25.7681 13.6708 25.6317 13.8043 25.4957 13.9373C25.247 14.1647 25.0103 14.4048 24.7865 14.6568C24.7404 14.7054 24.7147 14.7699 24.7147 14.837C24.7147 14.904 24.7404 14.9685 24.7865 15.0172C24.8345 15.0645 24.8992 15.091 24.9666 15.091C25.034 15.091 25.0987 15.0645 25.1468 15.0172C25.4617 14.6667 25.7945 14.3327 26.1438 14.0164C26.2747 13.9094 26.3921 13.7867 26.4934 13.6512C26.5214 13.6066 26.5396 13.5565 26.5466 13.5043C26.5536 13.4522 26.5493 13.3991 26.5341 13.3487C26.5188 13.2983 26.4929 13.2517 26.458 13.2122C26.4232 13.1727 26.3803 13.1412 26.3322 13.1197C26.14 13.0213 25.9462 12.9305 25.7601 12.82C25.3221 12.5613 24.9187 12.2481 24.5595 11.888C24.5111 11.8413 24.4465 11.8152 24.3792 11.8152C24.312 11.8152 24.2474 11.8413 24.199 11.888C23.9786 12.0981 23.7884 12.3379 23.634 12.6005C23.542 12.7547 23.4404 12.9007 23.5372 13.0778C23.611 13.2125 23.698 13.3417 23.7775 13.4733C24.0844 13.9829 24.3973 14.4854 24.7481 14.9656C24.7836 15.0224 24.8394 15.0636 24.9042 15.0806C24.969 15.0976 25.0379 15.0892 25.0967 15.057C25.1547 15.0226 25.1969 14.9667 25.214 14.9015C25.2312 14.8362 25.2219 14.7668 25.1883 14.7084Z" fill="#211715"/>
<path d="M28.1709 14.9656C28.5216 14.4854 28.8345 13.9823 29.1415 13.4733C29.2167 13.3487 29.2957 13.2258 29.3683 13.0995C29.4729 12.9176 29.3929 12.7842 29.2966 12.6203C29.1399 12.35 28.9456 12.1034 28.7194 11.888C28.6711 11.8413 28.6065 11.8152 28.5393 11.8152C28.4721 11.8152 28.4075 11.8413 28.3592 11.888C28.0451 12.2031 27.6969 12.4823 27.321 12.7203C27.1364 12.8378 26.9456 12.9453 26.7495 13.0423C26.5498 13.1409 26.313 13.2454 26.3745 13.5198C26.4144 13.6982 26.5791 13.8236 26.7031 13.9459C26.8942 14.1343 27.0862 14.3213 27.2764 14.5097C27.4493 14.6705 27.614 14.8398 27.7699 15.0172C27.818 15.0645 27.8827 15.091 27.9501 15.091C28.0176 15.091 28.0823 15.0645 28.1303 15.0172C28.1768 14.9687 28.2027 14.9041 28.2027 14.837C28.2027 14.7698 28.1768 14.7053 28.1303 14.6568C27.9065 14.4048 27.6698 14.1647 27.4211 13.9373C27.2878 13.8065 27.1536 13.676 27.0213 13.5447C26.9753 13.4991 26.9292 13.4536 26.8841 13.4071C26.8714 13.3935 26.8586 13.3783 26.8445 13.3654C26.8046 13.3289 26.8784 13.3994 26.877 13.4174L26.8422 13.546C26.8042 13.5774 26.8044 13.582 26.8428 13.5597L26.8836 13.541C26.9314 13.5186 26.9792 13.4959 27.0264 13.4722C27.1094 13.4309 27.1913 13.3876 27.2721 13.3424C27.4456 13.2455 27.6143 13.1407 27.7783 13.0277C28.1152 12.7975 28.43 12.5366 28.7188 12.2484H28.3592C28.6017 12.4822 28.8032 12.7551 28.9551 13.0558V12.7986C28.5592 13.4442 28.178 14.0962 27.7308 14.7084C27.6972 14.7668 27.6879 14.8362 27.705 14.9014C27.7221 14.9667 27.7642 15.0226 27.8222 15.057C27.8809 15.0896 27.9499 15.0983 28.0149 15.0813C28.0798 15.0642 28.1357 15.0228 28.1709 14.9656Z" fill="#211715"/>
<path d="M26.2056 13.4998C26.2056 14.1424 26.2011 14.785 26.1984 15.4276C26.1929 16.7043 26.1872 17.9809 26.1812 19.2574L26.1606 23.7493C26.1545 25.0533 26.1485 26.3572 26.1426 27.6611C26.1394 28.3576 26.1365 29.0543 26.134 29.7512C26.134 29.7751 26.134 29.7989 26.134 29.8227C26.134 30.1507 26.6436 30.1512 26.6436 29.8227C26.6436 29.2279 26.648 28.6329 26.6507 28.038C26.6562 26.7857 26.6619 25.5335 26.6678 24.2815C26.6748 22.7856 26.6818 21.2898 26.6885 19.7939C26.6947 18.4683 26.7006 17.1427 26.7065 15.8171C26.7097 15.0757 26.7126 14.3343 26.7152 13.593C26.7152 13.5619 26.7152 13.5309 26.7152 13.4998C26.7152 13.1719 26.2056 13.1714 26.2056 13.4998Z" fill="#211715"/>
<path d="M31.0783 17.8418H29.0293C28.962 17.8427 28.8977 17.8698 28.8501 17.9174C28.8025 17.965 28.7754 18.0293 28.7745 18.0966C28.7745 18.3363 28.7775 18.5761 28.7778 18.8159C28.7787 18.8831 28.8059 18.9474 28.8534 18.995C28.901 19.0426 28.9653 19.0697 29.0326 19.0707C29.7144 19.0707 30.3958 19.0738 31.0783 19.074C31.1455 19.073 31.2098 19.0458 31.2573 18.9983C31.3049 18.9507 31.3321 18.8864 31.3331 18.8192C31.3331 18.5793 31.3197 18.3361 31.3331 18.0966C31.3331 18.029 31.3062 17.9642 31.2584 17.9164C31.2106 17.8686 31.1458 17.8418 31.0783 17.8418C31.0107 17.8418 30.9459 17.8686 30.8981 17.9164C30.8503 17.9642 30.8235 18.029 30.8235 18.0966C30.8101 18.3361 30.8235 18.5793 30.8235 18.8192L31.0783 18.5644C30.3963 18.5644 29.7151 18.5611 29.0326 18.5611L29.2874 18.8159C29.2874 18.5761 29.2842 18.3363 29.2841 18.0966L29.0293 18.3514H31.0783C31.4062 18.3514 31.4067 17.8418 31.0783 17.8418Z" fill="#211715"/>
<path d="M32.3174 16.3542C32.2461 17.0077 32.2213 17.6665 32.161 18.3208C32.0761 19.2453 31.9501 20.165 31.8281 21.0854C31.7419 21.7364 31.6243 22.3967 31.6006 23.0541C31.5795 23.6478 31.61 24.2457 31.6336 24.8388C31.6479 25.1981 31.6646 25.5574 31.6865 25.9163C31.6944 26.0449 31.7027 26.1737 31.7135 26.3021C31.7313 26.5155 31.6934 26.7242 31.7058 26.9363C31.7251 27.2622 32.2348 27.2644 32.2154 26.9363C32.204 26.741 32.2454 26.5499 32.2275 26.354C32.2175 26.2433 32.21 26.1323 32.2027 26.0215C32.1826 25.7128 32.1674 25.4038 32.1539 25.0949C32.1265 24.4687 32.0999 23.8405 32.1069 23.2136C32.1333 22.6155 32.1952 22.0196 32.2924 21.4288C32.4129 20.5116 32.5439 19.5943 32.6364 18.673C32.7142 17.9015 32.7426 17.125 32.8266 16.3544C32.8261 16.2869 32.7991 16.2224 32.7514 16.1747C32.7038 16.127 32.6392 16.1 32.5718 16.0996C32.5047 16.1011 32.4407 16.1284 32.3933 16.1758C32.3458 16.2233 32.3185 16.2873 32.317 16.3544L32.3174 16.3542Z" fill="#211715"/>
<path d="M20.2379 16.1935C20.3181 16.8752 20.3551 17.5625 20.4233 18.2456C20.5145 19.1591 20.636 20.0693 20.7425 20.9812C20.8223 21.6643 20.9159 22.3503 20.9571 23.0373C20.9917 23.6144 20.955 24.2006 20.9323 24.7775C20.9174 25.1568 20.8997 25.536 20.8762 25.9147C20.8679 26.0498 20.859 26.1847 20.8472 26.3195C20.8302 26.5168 20.8727 26.7087 20.8582 26.9055C20.8342 27.2327 21.344 27.2311 21.3678 26.9055C21.3813 26.7223 21.3362 26.5436 21.3531 26.3609C21.3636 26.2481 21.3715 26.135 21.3786 26.022C21.3999 25.7007 21.416 25.3791 21.4296 25.0574C21.457 24.4317 21.4883 23.802 21.4718 23.1756C21.4553 22.5556 21.3608 21.9323 21.2902 21.3169C21.1883 20.4231 21.0687 19.5312 20.9727 18.6369C20.8853 17.8238 20.8424 17.0052 20.7467 16.1932C20.7447 16.1263 20.7173 16.0626 20.6699 16.0152C20.6225 15.9679 20.5589 15.9404 20.4919 15.9384C20.4245 15.9388 20.3599 15.9658 20.3122 16.0135C20.2645 16.0612 20.2375 16.1257 20.2371 16.1932L20.2379 16.1935Z" fill="#211715"/>
<path d="M29.7099 53.759C29.7136 54.3772 29.8646 54.9856 30.1503 55.5337L27.3249 55.4788L27.3357 53.8915L29.7099 53.759Z" fill="white"/>
<path d="M23.464 53.759C23.4603 54.3772 23.3093 54.9856 23.0235 55.5337L25.849 55.4788L25.838 53.8915L23.464 53.759Z" fill="white"/>
<path d="M23.2093 53.759C23.2048 54.3319 23.0659 54.8957 22.8036 55.4051C22.771 55.4637 22.7622 55.5328 22.7793 55.5977C22.7963 55.6627 22.8377 55.7186 22.895 55.7538C22.9535 55.7871 23.0228 55.7963 23.0879 55.7792C23.1531 55.7621 23.209 55.7201 23.2435 55.6623C23.5491 55.0739 23.7119 54.422 23.7189 53.759C23.7189 53.6915 23.692 53.6267 23.6442 53.5789C23.5964 53.5311 23.5316 53.5042 23.4641 53.5042C23.3965 53.5042 23.3317 53.5311 23.2839 53.5789C23.2361 53.6267 23.2093 53.6915 23.2093 53.759Z" fill="#211715"/>
<path d="M25.5832 53.8915L25.5941 55.4788C25.5941 55.5464 25.6209 55.6112 25.6687 55.659C25.7165 55.7068 25.7813 55.7336 25.8489 55.7336C25.9164 55.7336 25.9812 55.7068 26.029 55.659C26.0768 55.6112 26.1037 55.5464 26.1037 55.4788L26.0928 53.8915C26.0928 53.824 26.066 53.7592 26.0182 53.7114C25.9704 53.6636 25.9056 53.6367 25.838 53.6367C25.7704 53.6367 25.7056 53.6636 25.6579 53.7114C25.6101 53.7592 25.5832 53.824 25.5832 53.8915Z" fill="#211715"/>
<path d="M20.5842 59.1762C20.5695 59.1569 20.5555 59.137 20.5424 59.1163C20.4625 58.9744 20.4145 58.8168 20.4016 58.6544C20.3888 58.4921 20.4115 58.3289 20.4681 58.1761C20.5835 57.8718 20.7463 57.5877 20.9506 57.3344C21.4163 56.6984 21.9083 56.0831 22.4268 55.4884C22.6289 55.2565 22.8575 55.0148 23.1597 54.9579C23.1431 55.051 23.1559 55.1469 23.1965 55.2324C23.237 55.3178 23.3031 55.3885 23.3857 55.4346C23.5532 55.5233 23.7413 55.5658 23.9307 55.5577C24.7193 55.5635 25.4791 55.2611 26.048 54.7149C26.0444 55.3519 26.0508 55.5639 26.048 56.2011C26.0562 56.3563 26.0373 56.5118 25.9921 56.6606C25.8611 57.0146 25.4729 57.1852 25.1613 57.3985C24.3506 57.9532 23.9236 58.9655 23.0742 59.4587C22.7671 59.6331 22.4224 59.7308 22.0694 59.7435C21.7164 59.7561 21.3656 59.6833 21.0468 59.5313C20.8673 59.4501 20.709 59.3286 20.5842 59.1762Z" fill="#645D5C"/>
<path d="M29.455 53.759C29.4619 54.422 29.6247 55.0739 29.9303 55.6623C29.9471 55.6912 29.9696 55.7165 29.9962 55.7367C30.0229 55.7569 30.0533 55.7717 30.0856 55.7802C30.118 55.7887 30.1517 55.7907 30.1849 55.7862C30.2181 55.7816 30.25 55.7706 30.2789 55.7537C30.3078 55.7368 30.3331 55.7144 30.3533 55.6877C30.3735 55.6611 30.3883 55.6307 30.3968 55.5983C30.4053 55.5659 30.4073 55.5322 30.4028 55.499C30.3982 55.4659 30.3872 55.434 30.3703 55.4051C30.108 54.8957 29.9691 54.3319 29.9646 53.759C29.9646 53.6915 29.9378 53.6267 29.89 53.5789C29.8422 53.5311 29.7774 53.5042 29.7098 53.5042C29.6423 53.5042 29.5775 53.5311 29.5297 53.5789C29.4819 53.6267 29.455 53.6915 29.455 53.759Z" fill="#211715"/>
<path d="M27.081 53.8915L27.0701 55.4788C27.0701 55.5464 27.097 55.6112 27.1448 55.659C27.1925 55.7068 27.2574 55.7336 27.3249 55.7336C27.3925 55.7336 27.4573 55.7068 27.5051 55.659C27.5529 55.6112 27.5797 55.5464 27.5797 55.4788L27.5906 53.8915C27.5906 53.824 27.5637 53.7592 27.5159 53.7114C27.4681 53.6636 27.4033 53.6367 27.3358 53.6367C27.2682 53.6367 27.2034 53.6636 27.1556 53.7114C27.1078 53.7592 27.081 53.824 27.081 53.8915Z" fill="#211715"/>
<path d="M32.5902 59.1762C32.605 59.1569 32.619 59.137 32.6321 59.1163C32.712 58.9744 32.7601 58.8168 32.7729 58.6544C32.7857 58.4921 32.763 58.3289 32.7064 58.1761C32.5911 57.8718 32.4282 57.5877 32.224 57.3344C31.7583 56.6984 31.2662 56.0831 30.7476 55.4884C30.5456 55.2565 30.317 55.0148 30.0148 54.9579C30.0314 55.051 30.0186 55.1469 29.9781 55.2324C29.9376 55.3178 29.8714 55.3885 29.7888 55.4346C29.6213 55.5233 29.4332 55.5658 29.2438 55.5577C28.4552 55.5635 27.6955 55.2611 27.1265 54.7149C27.13 55.3519 27.1237 55.5639 27.1265 56.2011C27.1183 56.3563 27.1372 56.5118 27.1825 56.6606C27.3133 57.0146 27.7016 57.1852 28.0133 57.3985C28.8239 57.9532 29.2508 58.9655 30.1003 59.4587C30.4074 59.6331 30.7522 59.7308 31.1051 59.7435C31.4581 59.7561 31.809 59.6833 32.1278 59.5313C32.3072 59.4501 32.4655 59.3286 32.5902 59.1762Z" fill="#645D5C"/>
<path d="M20.8042 59.0476C20.5795 58.7404 20.6386 58.3535 20.8029 58.0315C21.0142 57.6589 21.2589 57.3062 21.5341 56.9778C21.8036 56.6262 22.0822 56.2817 22.3697 55.9442C22.6027 55.6699 22.8547 55.2867 23.2275 55.2035L22.9139 54.8901C22.8821 55.0658 22.9146 55.247 23.0054 55.4007C23.0963 55.5544 23.2395 55.6701 23.4088 55.7269C23.7441 55.8582 24.1451 55.8237 24.4929 55.768C25.1469 55.6613 25.7525 55.3566 26.2281 54.8952L25.7932 54.7149C25.7904 55.2578 25.8142 55.8047 25.7905 56.3471C25.7787 56.6194 25.6404 56.7811 25.4221 56.9286C25.1929 57.0696 24.9718 57.2231 24.7596 57.3884C23.9892 58.0419 23.5323 59.1537 22.4848 59.4268C21.9156 59.5754 21.155 59.4789 20.7649 58.9958C20.7169 58.9485 20.6522 58.9219 20.5847 58.9219C20.5173 58.9219 20.4525 58.9485 20.4045 58.9958C20.3582 59.0444 20.3323 59.1089 20.3323 59.176C20.3323 59.2431 20.3582 59.3076 20.4045 59.3561C20.8007 59.8466 21.5411 60.0366 22.147 59.9939C22.775 59.9425 23.3628 59.6643 23.8006 59.2111C24.2083 58.8089 24.524 58.3246 24.9314 57.922C25.1365 57.7311 25.3613 57.5626 25.6021 57.4193C25.8516 57.2831 26.0574 57.079 26.1956 56.8305C26.3562 56.4839 26.3047 56.0608 26.3038 55.6884C26.303 55.3638 26.3016 55.0393 26.3038 54.7147C26.3025 54.6649 26.2868 54.6165 26.2586 54.5754C26.2304 54.5344 26.1909 54.5024 26.1448 54.4833C26.0988 54.4642 26.0482 54.4589 25.9993 54.468C25.9503 54.4771 25.905 54.5002 25.8689 54.5345C25.5337 54.8578 25.1215 55.0899 24.6713 55.2089C24.4137 55.28 24.1468 55.3111 23.8798 55.3012C23.7348 55.2954 23.3624 55.2503 23.4061 55.0253C23.4169 54.982 23.4164 54.9366 23.4045 54.8935C23.3926 54.8505 23.3697 54.8113 23.3381 54.7797C23.3065 54.7482 23.2673 54.7253 23.2243 54.7134C23.1812 54.7015 23.1359 54.701 23.0925 54.7119C22.6367 54.8138 22.3371 55.2002 22.0493 55.5374C21.7073 55.9383 21.3768 56.3487 21.0578 56.7685C20.5431 57.4437 19.7342 58.4428 20.3648 59.3045C20.4002 59.3614 20.4561 59.4026 20.5209 59.4196C20.5858 59.4366 20.6547 59.4282 20.7135 59.396C20.7713 59.3614 20.8132 59.3055 20.8302 59.2403C20.8471 59.1752 20.8378 59.1059 20.8042 59.0476Z" fill="#211715"/>
<path d="M32.8096 59.3048C33.4402 58.4432 32.6312 57.4435 32.1167 56.7687C31.797 56.3498 31.4665 55.9394 31.1252 55.5377C30.8375 55.2005 30.5378 54.8138 30.082 54.7121C30.0387 54.7013 29.9933 54.7018 29.9502 54.7137C29.9072 54.7256 29.868 54.7484 29.8364 54.78C29.8048 54.8116 29.782 54.8508 29.77 54.8938C29.7581 54.9368 29.7576 54.9822 29.7684 55.0255C29.8121 55.2506 29.439 55.2957 29.2948 55.3015C29.0277 55.3114 28.7608 55.2802 28.5032 55.2091C28.0531 55.0901 27.6408 54.858 27.3057 54.5348C27.2695 54.5005 27.2242 54.4774 27.1753 54.4683C27.1263 54.4592 27.0757 54.4645 27.0297 54.4836C26.9836 54.5026 26.9441 54.5346 26.9159 54.5757C26.8877 54.6168 26.872 54.6651 26.8707 54.7149C26.8722 55.004 26.8715 55.2929 26.8707 55.582C26.8527 55.9081 26.8608 56.235 26.8948 56.5598C26.9982 57.2074 27.6553 57.399 28.0894 57.7792C28.5213 58.1573 28.8411 58.6408 29.2281 59.0606C29.6401 59.5065 30.1454 59.8596 30.755 59.9611C31.4394 60.0758 32.3102 59.9252 32.7697 59.3564C32.8157 59.3077 32.8413 59.2432 32.8413 59.1762C32.8413 59.1092 32.8157 59.0448 32.7697 58.9961C32.7217 58.9487 32.657 58.9222 32.5895 58.9222C32.5221 58.9222 32.4573 58.9487 32.4093 58.9961C32.0676 59.4191 31.4235 59.5463 30.9076 59.4723C30.3615 59.3941 29.9364 59.08 29.5726 58.6831C29.2232 58.3009 28.9285 57.871 28.5534 57.5131C28.3616 57.3352 28.1522 57.1773 27.9284 57.0418C27.7453 56.9271 27.517 56.8021 27.4278 56.5931C27.3775 56.4185 27.3614 56.2359 27.3806 56.0553C27.3806 55.9046 27.3806 55.7539 27.3806 55.6032C27.3815 55.3072 27.3824 55.0113 27.3806 54.7152L26.9464 54.8952C27.4219 55.3567 28.0275 55.6613 28.6815 55.768C29.0211 55.8224 29.4125 55.8572 29.7419 55.7359C29.9169 55.6828 30.0663 55.5674 30.1618 55.4115C30.2574 55.2556 30.2925 55.0701 30.2605 54.8901L29.9471 55.2035C30.3118 55.2849 30.5568 55.6529 30.7851 55.9212C31.0787 56.2663 31.3638 56.6185 31.6405 56.9778C31.9091 57.2998 32.1495 57.6443 32.3592 58.0075C32.5303 58.3351 32.6013 58.7313 32.3703 59.0476C32.3367 59.106 32.3274 59.1754 32.3445 59.2406C32.3616 59.3059 32.4037 59.3618 32.4617 59.3962C32.5203 59.4287 32.5892 59.4373 32.654 59.4203C32.7188 59.4032 32.7745 59.3619 32.8096 59.3048Z" fill="#211715"/>
<path d="M26.5594 54.4364C27.7559 54.6851 30.558 54.7149 31.1863 54.5054C31.2431 53.5671 31.3467 44.2531 31.5998 40.0493C31.8128 36.5102 31.9805 32.2638 32.1883 30.0473C29.7429 30.0101 23.3168 29.9709 20.8771 29.9308C21.0873 32.1308 21.3214 36.4791 21.5364 40.0493C21.7894 44.2535 21.8931 53.5671 21.9498 54.5054C22.5782 54.7149 25.0222 54.7297 26.4798 54.4512L26.5594 54.4364Z" fill="#908B8A"/>
<path d="M20.6583 30.0752C20.8429 32.0158 20.9366 33.9659 21.0457 35.9117C21.1534 37.8291 21.2809 39.7464 21.3623 41.6646C21.4327 43.3215 21.4783 44.9796 21.5189 46.6375C21.5586 48.2549 21.5933 49.8723 21.623 51.4897C21.6421 52.4513 21.6501 53.4142 21.6887 54.3753C21.6905 54.4186 21.6924 54.462 21.695 54.5054C21.6965 54.5607 21.7153 54.6143 21.7489 54.6584C21.7825 54.7025 21.829 54.7349 21.882 54.7511C22.1547 54.8259 22.4352 54.8689 22.7177 54.8793C23.1127 54.9101 23.5084 54.9184 23.9038 54.9161C24.7898 54.9225 25.6746 54.8491 26.5474 54.6968C26.8693 54.6362 26.733 54.1449 26.412 54.2055C25.5836 54.3475 24.7442 54.4148 23.9038 54.4065C23.5201 54.4087 23.1359 54.4008 22.7532 54.3723C22.5042 54.3663 22.257 54.3285 22.0176 54.2597L22.2046 54.5054C22.155 53.6704 22.1592 52.8298 22.1427 51.9938C22.1114 50.4245 22.0785 48.8552 22.0441 47.2858C22.0046 45.5994 21.9602 43.913 21.8947 42.2274C21.8242 40.4089 21.7052 38.5927 21.6036 36.7756C21.489 34.7244 21.3879 32.6716 21.2168 30.6246C21.2016 30.4414 21.1853 30.2583 21.1679 30.0752C21.1662 30.0082 21.1388 29.9444 21.0914 29.897C21.044 29.8496 20.9802 29.8222 20.9131 29.8204C20.8457 29.8209 20.7812 29.8479 20.7335 29.8956C20.6858 29.9433 20.6588 30.0078 20.6583 30.0752Z" fill="#211715"/>
<path d="M31.939 29.99C31.7553 31.9219 31.6763 33.8647 31.5758 35.8023C31.476 37.7269 31.3509 39.6506 31.268 41.576C31.1962 43.2414 31.1502 44.9079 31.1091 46.5744C31.0691 48.2013 31.0341 49.8285 31.0041 51.4558C30.9849 52.4286 30.9769 53.4027 30.9377 54.375C30.936 54.4183 30.9342 54.4618 30.9315 54.5051L31.1186 54.2595C31.0391 54.2838 30.9579 54.302 30.8756 54.314C30.7951 54.3267 30.7026 54.3369 30.5817 54.3473C30.2814 54.3727 29.9797 54.3832 29.6784 54.3876C28.9751 54.3991 28.2717 54.3752 27.5708 54.316C27.2541 54.2925 26.939 54.2505 26.6272 54.1904C26.307 54.1251 26.17 54.6161 26.4916 54.6818C27.1388 54.8003 27.7944 54.8666 28.4522 54.8803C29.136 54.9144 29.8213 54.9086 30.5045 54.8631C30.7578 54.8548 31.0094 54.8172 31.2541 54.7509C31.3071 54.7347 31.3536 54.7022 31.3872 54.6581C31.4208 54.614 31.4396 54.5605 31.4411 54.5051C31.4913 53.6597 31.4868 52.8085 31.5037 51.9619C31.5351 50.3822 31.5682 48.8024 31.6032 47.2227C31.643 45.5263 31.6879 43.8299 31.7546 42.1343C31.8265 40.3074 31.9457 38.4825 32.041 36.6561C32.1473 34.6132 32.2344 32.5674 32.4011 30.5281C32.4158 30.3483 32.4316 30.1686 32.4486 29.9889C32.448 29.9214 32.421 29.8569 32.3734 29.8093C32.3257 29.7616 32.2612 29.7346 32.1938 29.7341C32.1266 29.7355 32.0626 29.7627 32.0152 29.8102C31.9677 29.8577 31.9404 29.9217 31.939 29.9889V29.99Z" fill="#211715"/>
<path d="M26.3321 33.9789C26.2756 34.5969 26.2821 35.2235 26.2772 35.8434C26.2695 36.772 26.2731 37.7008 26.2783 38.6294C26.286 39.9449 26.301 41.2602 26.2991 42.5757C26.297 44.0187 26.2942 45.4616 26.2907 46.9047C26.2877 48.5354 26.2861 50.1664 26.2858 51.7977C26.2858 52.3878 26.2872 52.9777 26.29 53.5676C26.2916 53.8471 26.2802 54.1316 26.3014 54.4104C26.301 54.4589 26.3126 54.5068 26.3352 54.5497C26.3578 54.5926 26.3906 54.6293 26.4308 54.6565C26.4893 54.6902 26.5586 54.6995 26.6239 54.6824C26.6892 54.6652 26.745 54.6231 26.7794 54.565C26.8118 54.5063 26.8204 54.4373 26.8034 54.3724C26.7864 54.3076 26.7451 54.2517 26.688 54.2164L26.7794 54.3079C26.8022 54.3502 26.8114 54.4856 26.8097 54.3794C26.8097 54.3348 26.8072 54.2902 26.8063 54.2455C26.8033 54.0882 26.8023 53.9312 26.8012 53.7741C26.7973 53.2302 26.7966 52.6862 26.7959 52.1423C26.7942 50.5502 26.7955 48.958 26.7998 47.3659C26.8023 45.8778 26.8052 44.3898 26.8084 42.9019C26.8105 41.6847 26.8007 40.4676 26.7921 39.2505C26.7808 37.5987 26.7394 35.9381 26.8214 34.2873C26.8265 34.1845 26.8326 34.0817 26.8419 33.9793C26.8415 33.9119 26.8145 33.8473 26.7668 33.7996C26.7191 33.7519 26.6546 33.725 26.5871 33.7245C26.52 33.7259 26.456 33.7532 26.4085 33.8007C26.361 33.8481 26.3337 33.9121 26.3323 33.9793L26.3321 33.9789Z" fill="#211715"/>
<path d="M21.0934 26.803C21.0509 27.7488 20.3048 38.9746 20.2555 41.0125C21.1542 41.3163 30.8198 41.4997 32.8207 41.0745C32.5942 38.2964 32.1804 27.948 32.0954 26.7971L21.0934 26.803Z" fill="#645D5C"/>
<path d="M20.8386 26.803C20.8145 27.3317 20.7767 27.8604 20.7435 28.3882C20.6796 29.4107 20.6152 30.4332 20.5503 31.4557C20.473 32.6823 20.3966 33.909 20.321 35.1357C20.2514 36.2716 20.1841 37.4076 20.1192 38.5436C20.0762 39.3109 20.031 40.0783 20.0054 40.8463C20.0036 40.9017 20.002 40.9571 20.0005 41.0125C20.0014 41.0681 20.02 41.1219 20.0537 41.1661C20.0873 41.2103 20.1343 41.2426 20.1876 41.2583C20.37 41.3081 20.5569 41.3394 20.7456 41.3515C21.0499 41.3861 21.3557 41.4081 21.6612 41.428C22.5524 41.4854 23.4448 41.516 24.338 41.5391C26.4192 41.5928 28.506 41.6093 30.5866 41.5263C31.3496 41.4958 32.1383 41.4783 32.8883 41.3208C32.9421 41.3059 32.9894 41.2738 33.0232 41.2294C33.0569 41.185 33.0753 41.1308 33.0754 41.0751C32.9205 39.1671 32.8461 37.2512 32.7543 35.3394C32.6483 33.128 32.5512 30.9162 32.4479 28.7047C32.4184 28.0692 32.397 27.4323 32.3501 26.7977C32.3263 26.4726 31.8165 26.4701 31.8405 26.7977C31.9518 28.3188 31.9911 29.8474 32.0605 31.3706C32.1661 33.6916 32.2708 36.0126 32.3952 38.3327C32.4442 39.247 32.4916 40.1623 32.5658 41.0751L32.7528 40.8295C32.7004 40.8404 32.6477 40.8502 32.5949 40.8591C32.5682 40.8636 32.5414 40.8679 32.5147 40.8719L32.4637 40.8793C32.4563 40.8804 32.384 40.8902 32.4272 40.8845C32.4623 40.8798 32.3669 40.892 32.3498 40.8941C32.3171 40.898 32.2845 40.9017 32.2517 40.9054C32.1668 40.9146 32.0821 40.9231 31.9977 40.9309C31.6212 40.9651 31.2437 40.9872 30.8661 41.0048C29.8952 41.0499 28.9228 41.0648 27.9508 41.0685C25.9556 41.0774 23.9562 41.05 21.9639 40.9366C21.5965 40.9156 21.2288 40.8919 20.8627 40.8544C20.7976 40.8478 20.7327 40.8404 20.6677 40.8328L20.6238 40.8272C20.5728 40.821 20.69 40.837 20.6291 40.8279C20.6018 40.8239 20.5744 40.82 20.547 40.8152C20.4711 40.8049 20.3962 40.7886 20.3229 40.7664L20.5099 41.012C20.5272 40.3113 20.5696 39.6115 20.6081 38.912C20.669 37.8009 20.734 36.69 20.8032 35.5794C20.8781 34.3479 20.9545 33.1164 21.0325 31.8848C21.099 30.8266 21.1657 29.7682 21.2326 28.7099C21.2709 28.1036 21.3115 27.4973 21.3433 26.8906C21.345 26.8614 21.3464 26.8321 21.3478 26.8028C21.3627 26.4749 20.853 26.4757 20.8382 26.8028L20.8386 26.803Z" fill="#211715"/>
<path d="M21.1092 27.0436C22.5021 27.0436 23.895 27.0445 25.2879 27.0464C26.8954 27.0479 28.5028 27.0494 30.1101 27.0509C30.6997 27.0514 31.2894 27.0517 31.8791 27.0519C32.207 27.0519 32.2077 26.5423 31.8791 26.5423C30.6273 26.5423 29.3754 26.5414 28.1235 26.5395C26.4767 26.538 24.8299 26.5365 23.1831 26.535C22.4919 26.5345 21.8008 26.5342 21.1096 26.534C20.7816 26.534 20.7811 27.0436 21.1096 27.0436H21.1092Z" fill="#211715"/>
<path d="M22.2504 28.7638C24.6238 28.6978 27.0025 28.7027 29.3757 28.736C29.8933 28.7431 30.4111 28.752 30.9284 28.7721C31.2564 28.7848 31.2559 28.2752 30.9284 28.2625C28.625 28.1733 26.313 28.1967 24.0086 28.2226C23.4225 28.2291 22.8365 28.2379 22.2504 28.2542C21.9233 28.2632 21.9219 28.7728 22.2504 28.7638Z" fill="#211715"/>
<path d="M29.1133 28.4739C29.1312 28.8451 29.16 29.2168 29.2025 29.5859C29.2048 29.653 29.2313 29.717 29.2772 29.766C29.3252 29.8134 29.3898 29.8402 29.4573 29.8407C29.5822 29.8351 29.7287 29.7277 29.7121 29.5859C29.6691 29.2164 29.6403 28.8451 29.6229 28.4739C29.6229 28.4064 29.5961 28.3416 29.5483 28.2938C29.5005 28.246 29.4357 28.2191 29.3681 28.2191C29.3006 28.2191 29.2358 28.246 29.188 28.2938C29.1402 28.3416 29.1133 28.4064 29.1133 28.4739Z" fill="#211715"/>
<path d="M22.1969 2.75681C22.8258 1.69443 23.8274 0.903995 25.0069 0.539287C26.9125 -0.0101898 29.366 0.112114 30.5934 2.04821C31.2365 3.0627 31.3771 4.29797 30.9677 5.7562C31.0174 5.85946 31.0309 5.97647 31.0059 6.08833C30.9809 6.20019 30.919 6.30037 30.8301 6.37269C30.5918 6.55105 30.0997 6.40683 29.8539 6.33701C28.5553 5.96755 27.536 5.99456 26.1987 6.05673C25.5 6.0699 24.8051 6.1643 24.1282 6.33803C23.8283 6.42377 22.353 6.93337 22.3259 6.26299L22.2223 6.06986C21.0572 5.99342 21.7152 3.65804 22.0237 3.06436C22.078 2.95981 22.1358 2.85729 22.1969 2.75681Z" fill="#645D5C"/>
<path d="M22.2223 5.81544C22.1694 5.81206 22.1179 5.79724 22.0713 5.77201C22.0247 5.74678 21.9841 5.71174 21.9523 5.66931C21.877 5.54024 21.8321 5.39565 21.8212 5.2466C21.7982 4.82663 21.8462 4.40578 21.9632 4.00177C22.0102 3.81732 22.0664 3.63533 22.1316 3.4565C22.1443 3.42185 22.1578 3.38745 22.1711 3.35292C22.1774 3.33207 22.1859 3.31195 22.1966 3.29292C22.24 3.19928 22.2883 3.10831 22.3394 3.0185C22.6599 2.45211 23.0873 1.95336 23.598 1.54996C24.5047 0.837916 25.6668 0.539672 26.8054 0.512791C27.8871 0.487311 29.0142 0.75345 29.822 1.51123C30.3085 1.97158 30.6554 2.55985 30.8227 3.20845C31.0214 3.97196 30.9558 4.77038 30.7655 5.52828C30.6855 5.84678 31.1769 5.98221 31.2569 5.66383C31.4665 4.89639 31.5042 4.09214 31.3672 3.30846C31.2312 2.62944 30.926 1.99572 30.48 1.466C29.6668 0.493936 28.4226 0.0518571 27.1835 0.00510119C25.9211 -0.0426739 24.564 0.243467 23.5201 0.976527C22.5503 1.63996 21.8385 2.61712 21.5045 3.74366C21.2804 4.54628 20.986 6.22325 22.2223 6.32504C22.5491 6.35205 22.5473 5.84232 22.2223 5.81544Z" fill="#211715"/>
<path d="M22.4259 6.21509C22.8508 5.92083 23.3057 5.67238 23.7829 5.47387C24.4116 5.23203 25.0729 5.08559 25.7449 5.03944C26.9388 4.94822 28.2165 4.92822 29.381 5.25092C29.479 5.27806 29.5761 5.30813 29.6719 5.34227C29.7109 5.35616 29.7495 5.37093 29.7879 5.38597C29.8007 5.39094 29.8462 5.40992 29.7955 5.38839C29.8141 5.39629 29.8325 5.40419 29.8507 5.41272C29.9695 5.46536 30.0825 5.52999 30.1881 5.60561C30.2465 5.63931 30.3159 5.64861 30.3811 5.63152C30.4464 5.61442 30.5023 5.57229 30.5367 5.51426C30.5692 5.45555 30.5779 5.38656 30.5608 5.32163C30.5438 5.25671 30.5024 5.20086 30.4452 5.16569C30.2077 5.00343 29.9452 4.8814 29.6681 4.80451C29.2024 4.66689 28.7237 4.57791 28.2396 4.53901C27.5115 4.47454 26.7796 4.46513 26.05 4.51086C25.3007 4.53734 24.559 4.67103 23.8476 4.90783C23.2543 5.12632 22.6904 5.41762 22.1689 5.77505C21.8972 5.95583 22.152 6.3974 22.4261 6.21509H22.4259Z" fill="#211715"/>
<path d="M22.0711 6.26338C22.1141 6.87923 22.7696 6.89426 23.2405 6.82394C23.7464 6.7475 24.224 6.55499 24.7261 6.46034C25.5892 6.29777 26.4943 6.27943 27.3707 6.27548C28.2082 6.26762 29.0427 6.37732 29.8497 6.60137C30.1898 6.69628 30.6415 6.81094 30.9581 6.59334C31.3006 6.35842 31.3927 5.81136 31.0904 5.50942C30.858 5.27743 30.4974 5.63759 30.7299 5.86971C30.7541 5.90319 30.7673 5.94339 30.7675 5.98469C30.7677 6.026 30.755 6.06633 30.7311 6.10005C30.6724 6.2077 30.5665 6.20783 30.4537 6.20324C30.1558 6.1905 29.8609 6.06985 29.5734 6.0008C28.842 5.83286 28.0931 5.75402 27.3428 5.76601C26.5503 5.76201 25.7585 5.80933 24.9722 5.90767C24.4811 5.99466 23.995 6.10843 23.5163 6.24847C23.2937 6.31256 23.0636 6.34684 22.832 6.35039C22.8129 6.35039 22.7938 6.34924 22.7748 6.34861C22.7702 6.34861 22.6915 6.33943 22.7349 6.34619C22.7095 6.34224 22.5963 6.30491 22.6348 6.32364C22.6188 6.31586 22.6037 6.30376 22.5877 6.29663C22.5724 6.28626 22.5759 6.28869 22.5981 6.30389C22.5788 6.28291 22.5788 6.28435 22.5981 6.30822C22.6011 6.30822 22.5747 6.2728 22.5771 6.27166C22.5851 6.26783 22.5835 6.30758 22.5804 6.26427C22.5577 5.93901 22.048 5.93647 22.0708 6.26427L22.0711 6.26338Z" fill="#211715"/>
<path d="M27.9614 2.69248C28.1101 2.67934 28.2594 2.67581 28.4085 2.6819C28.4908 2.68534 28.5726 2.69248 28.6545 2.70127L28.6806 2.70445C28.6608 2.70165 28.6601 2.70165 28.6783 2.70445C28.6965 2.70726 28.7131 2.70968 28.7305 2.71261C28.7741 2.71983 28.8175 2.72832 28.8607 2.73809C28.9382 2.7549 29.015 2.77503 29.0901 2.79937C29.1283 2.81134 29.1643 2.82485 29.2013 2.83848C29.2786 2.86651 29.1817 2.82879 29.2245 2.8474C29.2443 2.85589 29.2638 2.86493 29.2832 2.87453C29.3521 2.90788 29.4185 2.9462 29.4818 2.98919C29.4805 2.9883 29.5351 3.02741 29.5171 3.01365C29.4991 2.99989 29.551 3.04194 29.55 3.04104C29.5816 3.06831 29.6114 3.09735 29.6404 3.12742C29.6885 3.17383 29.7528 3.19952 29.8197 3.19894C29.8865 3.19836 29.9504 3.17156 29.9976 3.12432C30.0449 3.07708 30.0717 3.01317 30.0722 2.94636C30.0728 2.87955 30.0471 2.81519 30.0007 2.76713C29.4929 2.23944 28.6586 2.12313 27.961 2.18402C27.894 2.18573 27.8302 2.21313 27.7828 2.26054C27.7353 2.30796 27.7079 2.37178 27.7062 2.43882C27.7068 2.50624 27.7338 2.57074 27.7815 2.6184C27.8291 2.66607 27.8936 2.69309 27.961 2.69362L27.9614 2.69248Z" fill="#211715"/>
<path d="M25.7106 9.87351C25.9526 9.99907 26.2222 10.0618 26.4948 10.0561C26.7818 10.0671 27.0643 9.98193 27.2974 9.81402C27.3211 9.79035 27.3398 9.76226 27.3527 9.73134C27.3655 9.70042 27.3721 9.66728 27.3721 9.63381C27.3721 9.60034 27.3655 9.5672 27.3527 9.53628C27.3398 9.50536 27.3211 9.47726 27.2974 9.4536C27.2486 9.4077 27.1842 9.38214 27.1172 9.38214C27.0502 9.38214 26.9858 9.4077 26.937 9.4536C27.0242 9.38557 26.9282 9.45577 26.9003 9.47042C26.8785 9.48176 26.8191 9.49959 26.8972 9.47437C26.8756 9.48137 26.8546 9.49068 26.8329 9.49768C26.8054 9.50647 26.7776 9.51399 26.7496 9.52049C26.7345 9.52405 26.6604 9.52826 26.6528 9.53883C26.6614 9.52673 26.7027 9.5331 26.6512 9.53819C26.6335 9.53998 26.6159 9.54138 26.5982 9.54253C26.5555 9.54533 26.5129 9.54648 26.4708 9.54622C26.4326 9.54622 26.3944 9.54482 26.3562 9.54202C26.3387 9.54087 26.3211 9.53947 26.3037 9.53769C26.2937 9.53667 26.2838 9.53565 26.2737 9.53437C26.2539 9.53199 26.2607 9.53289 26.294 9.53705C26.2361 9.53485 26.1791 9.52221 26.1257 9.49972C26.1021 9.49259 26.0792 9.48418 26.0559 9.47628C25.9969 9.45602 26.1068 9.50087 26.0536 9.47628C26.0247 9.46265 25.9963 9.4485 25.9681 9.4336C25.9392 9.41669 25.9073 9.40564 25.8741 9.40108C25.841 9.39651 25.8072 9.39852 25.7749 9.40699C25.7425 9.41546 25.7121 9.43023 25.6854 9.45044C25.6587 9.47066 25.6363 9.49593 25.6194 9.52482C25.6025 9.5537 25.5915 9.58564 25.5869 9.61879C25.5823 9.65195 25.5843 9.68568 25.5928 9.71806C25.6013 9.75044 25.616 9.78083 25.6363 9.8075C25.6565 9.83418 25.6817 9.85661 25.7106 9.87351Z" fill="#211715"/>
<path d="M26.339 8.06087C26.3737 8.18634 26.4015 8.31364 26.4223 8.44217L26.4132 8.3744C26.4157 8.39183 26.4161 8.40948 26.4146 8.42701L26.4237 8.35924C26.4226 8.3673 26.4206 8.37524 26.4179 8.38293L26.4434 8.32204C26.4411 8.32737 26.4384 8.33248 26.4351 8.33732L26.475 8.28636C26.4713 8.29107 26.467 8.29534 26.4623 8.2991L26.5139 8.25936C26.5042 8.26529 26.4941 8.27061 26.4837 8.27528L26.5445 8.2498C26.5282 8.25687 26.511 8.26187 26.4935 8.26471L26.5613 8.25553C26.5454 8.25738 26.5294 8.25738 26.5135 8.25553L26.5811 8.26458C26.5632 8.26216 26.5455 8.2577 26.5275 8.25528C26.4946 8.2447 26.4594 8.24312 26.4256 8.25069C26.3919 8.25219 26.3592 8.26266 26.3309 8.28101C26.302 8.29789 26.2767 8.3203 26.2565 8.34695C26.2363 8.3736 26.2215 8.40398 26.213 8.43635C26.2045 8.46872 26.2025 8.50244 26.207 8.5356C26.2115 8.56875 26.2226 8.60069 26.2395 8.62958C26.2556 8.65839 26.2774 8.68363 26.3036 8.70376C26.3297 8.72388 26.3597 8.73848 26.3917 8.74666C26.4381 8.7529 26.4829 8.7645 26.5301 8.76653C26.6033 8.76686 26.6755 8.74937 26.7405 8.71558C26.7826 8.69577 26.8198 8.66693 26.8494 8.63113C26.8791 8.59533 26.9005 8.55343 26.9121 8.50842C26.9275 8.43698 26.9269 8.36302 26.9103 8.29184C26.8896 8.16903 26.8612 8.04723 26.8296 7.92684C26.8113 7.86289 26.7695 7.80825 26.7125 7.77396C26.6542 7.73985 26.5847 7.73031 26.5193 7.74744C26.4539 7.76457 26.398 7.80697 26.3639 7.86531C26.3306 7.92508 26.3215 7.99534 26.3384 8.06163L26.339 8.06087Z" fill="#211715"/>
<path d="M24.3804 6.96548C24.3167 7.17238 24.3583 7.64835 24.7499 7.68886C25.2679 7.68567 25.2956 7.11034 25.1211 6.83974C24.9786 6.61832 24.5588 6.52608 24.3804 6.96548Z" fill="#211715"/>
<path d="M28.5289 6.96548C28.5926 7.17237 28.551 7.64834 28.1594 7.68886C27.6413 7.68567 27.6137 7.11033 27.7881 6.83973C27.9306 6.61818 28.3505 6.52607 28.5289 6.96548Z" fill="#211715"/>
</svg>
