<svg width="202" height="31" viewBox="0 0 202 31" fill="none" xmlns="http://www.w3.org/2000/svg">
<path d="M193.23 24V7.19998H195.406V11.776L195.182 10.976C195.652 9.69598 196.441 8.72531 197.55 8.06398C198.66 7.38131 200.036 7.03998 201.678 7.03998V9.24798C201.593 9.24798 201.508 9.24798 201.422 9.24798C201.337 9.22665 201.252 9.21598 201.166 9.21598C199.396 9.21598 198.009 9.75998 197.006 10.848C196.004 11.9146 195.502 13.44 195.502 15.424V24H193.23Z" fill="black"/>
<path d="M179.454 24.16C177.705 24.16 176.169 23.7973 174.846 23.072C173.523 22.3253 172.489 21.312 171.742 20.032C170.995 18.7306 170.622 17.248 170.622 15.584C170.622 13.92 170.974 12.448 171.678 11.168C172.403 9.88798 173.385 8.88531 174.622 8.15998C175.881 7.41331 177.289 7.03998 178.846 7.03998C180.425 7.03998 181.822 7.40264 183.038 8.12798C184.275 8.83198 185.246 9.83464 185.95 11.136C186.654 12.416 187.006 13.8986 187.006 15.584C187.006 15.6906 186.995 15.808 186.974 15.936C186.974 16.0426 186.974 16.16 186.974 16.288H172.35V14.592H185.758L184.862 15.264C184.862 14.048 184.595 12.9706 184.062 12.032C183.55 11.072 182.846 10.3253 181.95 9.79198C181.054 9.25865 180.019 8.99198 178.846 8.99198C177.694 8.99198 176.659 9.25865 175.742 9.79198C174.825 10.3253 174.11 11.072 173.598 12.032C173.086 12.992 172.83 14.0906 172.83 15.328V15.68C172.83 16.96 173.107 18.0906 173.662 19.072C174.238 20.032 175.027 20.7893 176.03 21.344C177.054 21.8773 178.217 22.144 179.518 22.144C180.542 22.144 181.491 21.9626 182.366 21.6C183.262 21.2373 184.03 20.6826 184.67 19.936L185.95 21.408C185.203 22.304 184.265 22.9866 183.134 23.456C182.025 23.9253 180.798 24.16 179.454 24.16Z" fill="black"/>
<path d="M163.624 24.16C162.045 24.16 160.829 23.7333 159.976 22.88C159.122 22.0266 158.696 20.8213 158.696 19.264V3.48798H160.968V19.136C160.968 20.1173 161.213 20.8746 161.704 21.408C162.216 21.9413 162.941 22.208 163.88 22.208C164.882 22.208 165.714 21.92 166.376 21.344L167.176 22.976C166.728 23.3813 166.184 23.68 165.544 23.872C164.925 24.064 164.285 24.16 163.624 24.16ZM155.688 9.08798V7.19998H166.088V9.08798H155.688Z" fill="black"/>
<path d="M144.535 24.16C142.786 24.16 141.25 23.7973 139.927 23.072C138.605 22.3253 137.57 21.312 136.823 20.032C136.077 18.7306 135.703 17.248 135.703 15.584C135.703 13.92 136.055 12.448 136.759 11.168C137.485 9.88798 138.466 8.88531 139.703 8.15998C140.962 7.41331 142.37 7.03998 143.927 7.03998C145.506 7.03998 146.903 7.40264 148.119 8.12798C149.357 8.83198 150.327 9.83464 151.031 11.136C151.735 12.416 152.087 13.8986 152.087 15.584C152.087 15.6906 152.077 15.808 152.055 15.936C152.055 16.0426 152.055 16.16 152.055 16.288H137.431V14.592H150.839L149.943 15.264C149.943 14.048 149.677 12.9706 149.143 12.032C148.631 11.072 147.927 10.3253 147.031 9.79198C146.135 9.25865 145.101 8.99198 143.927 8.99198C142.775 8.99198 141.741 9.25865 140.823 9.79198C139.906 10.3253 139.191 11.072 138.679 12.032C138.167 12.992 137.911 14.0906 137.911 15.328V15.68C137.911 16.96 138.189 18.0906 138.743 19.072C139.319 20.032 140.109 20.7893 141.111 21.344C142.135 21.8773 143.298 22.144 144.599 22.144C145.623 22.144 146.573 21.9626 147.447 21.6C148.343 21.2373 149.111 20.6826 149.751 19.936L151.031 21.408C150.285 22.304 149.346 22.9866 148.215 23.456C147.106 23.9253 145.879 24.16 144.535 24.16Z" fill="black"/>
<path d="M105.717 24V1.59998H107.669L117.909 19.072H116.885L127.029 1.59998H128.981V24H126.709V5.15198H127.253L117.909 21.152H116.789L107.381 5.15198H107.989V24H105.717Z" fill="black"/>
<path d="M76.446 30.368C75.6566 30.368 74.8993 30.24 74.174 29.984C73.47 29.728 72.862 29.344 72.35 28.832L73.406 27.136C73.8326 27.5413 74.2913 27.8507 74.782 28.064C75.294 28.2987 75.8593 28.416 76.478 28.416C77.2246 28.416 77.8646 28.2027 78.398 27.776C78.9526 27.3707 79.4753 26.6453 79.966 25.6L81.054 23.136L81.31 22.784L88.222 7.20001H90.462L82.046 26.016C81.5766 27.104 81.054 27.968 80.478 28.608C79.9233 29.248 79.3153 29.696 78.654 29.952C77.9926 30.2293 77.2566 30.368 76.446 30.368ZM80.926 24.48L73.182 7.20001H75.55L82.398 22.624L80.926 24.48Z" fill="black"/>
<path d="M63.9127 24.16C62.2487 24.16 60.7554 23.7973 59.4327 23.072C58.1314 22.3253 57.1074 21.312 56.3607 20.032C55.6141 18.7306 55.2407 17.248 55.2407 15.584C55.2407 13.8986 55.6141 12.416 56.3607 11.136C57.1074 9.85598 58.1314 8.85331 59.4327 8.12798C60.7554 7.40264 62.2487 7.03998 63.9127 7.03998C65.3421 7.03998 66.6327 7.31731 67.7847 7.87198C68.9367 8.42665 69.8434 9.25865 70.5047 10.368L68.8087 11.52C68.2327 10.6666 67.5181 10.0373 66.6647 9.63198C65.8114 9.22665 64.8834 9.02398 63.8807 9.02398C62.6861 9.02398 61.6087 9.30131 60.6487 9.85598C59.6887 10.3893 58.9314 11.1466 58.3767 12.128C57.8221 13.1093 57.5447 14.2613 57.5447 15.584C57.5447 16.9066 57.8221 18.0586 58.3767 19.04C58.9314 20.0213 59.6887 20.7893 60.6487 21.344C61.6087 21.8773 62.6861 22.144 63.8807 22.144C64.8834 22.144 65.8114 21.9413 66.6647 21.536C67.5181 21.1306 68.2327 20.512 68.8087 19.68L70.5047 20.832C69.8434 21.92 68.9367 22.752 67.7847 23.328C66.6327 23.8826 65.3421 24.16 63.9127 24.16Z" fill="black"/>
<path d="M46.743 24V7.19998H49.015V24H46.743ZM47.895 3.48798C47.4256 3.48798 47.031 3.32798 46.711 3.00798C46.391 2.68798 46.231 2.30398 46.231 1.85598C46.231 1.40798 46.391 1.03465 46.711 0.735981C47.031 0.415981 47.4256 0.255981 47.895 0.255981C48.3643 0.255981 48.759 0.405315 49.079 0.703981C49.399 1.00265 49.559 1.37598 49.559 1.82398C49.559 2.29332 49.399 2.68798 49.079 3.00798C48.7803 3.32798 48.3856 3.48798 47.895 3.48798Z" fill="black"/>
<path d="M32.1274 24.16C30.6768 24.16 29.3648 23.8293 28.1914 23.168C27.0181 22.4853 26.0794 21.5146 25.3754 20.256C24.6928 18.976 24.3514 17.4186 24.3514 15.584C24.3514 13.7493 24.6928 12.2026 25.3754 10.944C26.0581 9.66398 26.9861 8.69331 28.1594 8.03198C29.3328 7.37064 30.6554 7.03998 32.1274 7.03998C33.7274 7.03998 35.1568 7.40264 36.4154 8.12798C37.6954 8.83198 38.6981 9.83464 39.4234 11.136C40.1488 12.416 40.5114 13.8986 40.5114 15.584C40.5114 17.2906 40.1488 18.784 39.4234 20.064C38.6981 21.344 37.6954 22.3466 36.4154 23.072C35.1568 23.7973 33.7274 24.16 32.1274 24.16ZM23.4554 30.208V7.19998H25.6314V12.256L25.4074 15.616L25.7274 19.008V30.208H23.4554ZM31.9674 22.144C33.1621 22.144 34.2288 21.8773 35.1674 21.344C36.1061 20.7893 36.8528 20.0213 37.4074 19.04C37.9621 18.0373 38.2394 16.8853 38.2394 15.584C38.2394 14.2826 37.9621 13.1413 37.4074 12.16C36.8528 11.1786 36.1061 10.4106 35.1674 9.85598C34.2288 9.30131 33.1621 9.02398 31.9674 9.02398C30.7728 9.02398 29.6954 9.30131 28.7354 9.85598C27.7968 10.4106 27.0501 11.1786 26.4954 12.16C25.9621 13.1413 25.6954 14.2826 25.6954 15.584C25.6954 16.8853 25.9621 18.0373 26.4954 19.04C27.0501 20.0213 27.7968 20.7893 28.7354 21.344C29.6954 21.8773 30.7728 22.144 31.9674 22.144Z" fill="black"/>
<path d="M8.82403 24.192C7.16003 24.192 5.56003 23.9254 4.02403 23.392C2.50936 22.8374 1.33603 22.1334 0.504028 21.28L1.43203 19.456C2.22136 20.224 3.27736 20.8747 4.60003 21.408C5.94403 21.92 7.35203 22.176 8.82403 22.176C10.232 22.176 11.3734 22.0054 12.248 21.664C13.144 21.3014 13.7947 20.8214 14.2 20.224C14.6267 19.6267 14.84 18.9654 14.84 18.24C14.84 17.3654 14.584 16.6614 14.072 16.128C13.5814 15.5947 12.9307 15.1787 12.12 14.88C11.3094 14.56 10.4134 14.2827 9.43203 14.048C8.4507 13.8134 7.46936 13.568 6.48803 13.312C5.5067 13.0347 4.60003 12.672 3.76803 12.224C2.95736 11.776 2.29603 11.1894 1.78403 10.464C1.29336 9.71735 1.04803 8.74669 1.04803 7.55202C1.04803 6.44269 1.33603 5.42935 1.91203 4.51202C2.50936 3.57335 3.41603 2.82669 4.63203 2.27202C5.84803 1.69602 7.40536 1.40802 9.30403 1.40802C10.5627 1.40802 11.8107 1.58935 13.048 1.95202C14.2854 2.29335 15.352 2.77335 16.248 3.39202L15.448 5.28002C14.488 4.64002 13.464 4.17069 12.376 3.87202C11.3094 3.57335 10.2747 3.42402 9.27203 3.42402C7.92803 3.42402 6.8187 3.60535 5.94403 3.96802C5.06936 4.33069 4.4187 4.82135 3.99203 5.44002C3.5867 6.03735 3.38403 6.72002 3.38403 7.48802C3.38403 8.36269 3.62936 9.06669 4.12003 9.60002C4.63203 10.1334 5.29336 10.5494 6.10403 10.848C6.93603 11.1467 7.8427 11.4134 8.82403 11.648C9.80536 11.8827 10.776 12.1387 11.736 12.416C12.7174 12.6934 13.6134 13.056 14.424 13.504C15.256 13.9307 15.9174 14.5067 16.408 15.232C16.92 15.9574 17.176 16.9067 17.176 18.08C17.176 19.168 16.8774 20.1814 16.28 21.12C15.6827 22.0374 14.7654 22.784 13.528 23.36C12.312 23.9147 10.744 24.192 8.82403 24.192Z" fill="black"/>
</svg>
