<svg width="179" height="25" viewBox="0 0 179 25" fill="none" xmlns="http://www.w3.org/2000/svg">
<path d="M172.017 24.16C170.631 24.16 169.319 23.968 168.081 23.584C166.844 23.1786 165.873 22.6773 165.169 22.08L166.193 20.288C166.876 20.8 167.751 21.248 168.817 21.632C169.884 21.9946 171.004 22.176 172.177 22.176C173.777 22.176 174.929 21.9306 175.633 21.44C176.337 20.928 176.689 20.256 176.689 19.424C176.689 18.8053 176.487 18.3253 176.081 17.984C175.697 17.6213 175.185 17.3546 174.545 17.184C173.905 16.992 173.191 16.832 172.401 16.704C171.612 16.576 170.823 16.4266 170.033 16.256C169.265 16.0853 168.561 15.84 167.921 15.52C167.281 15.1786 166.759 14.72 166.353 14.144C165.969 13.568 165.777 12.8 165.777 11.84C165.777 10.9226 166.033 10.1013 166.545 9.37598C167.057 8.65064 167.804 8.08531 168.785 7.67998C169.788 7.25331 171.004 7.03998 172.433 7.03998C173.521 7.03998 174.609 7.18931 175.697 7.48798C176.785 7.76531 177.681 8.13864 178.385 8.60798L177.393 10.432C176.647 9.91998 175.847 9.55731 174.993 9.34398C174.14 9.10931 173.287 8.99198 172.433 8.99198C170.919 8.99198 169.799 9.25865 169.073 9.79198C168.369 10.304 168.017 10.9653 168.017 11.776C168.017 12.416 168.209 12.9173 168.593 13.28C168.999 13.6426 169.521 13.9306 170.161 14.144C170.823 14.336 171.537 14.496 172.305 14.624C173.095 14.752 173.873 14.912 174.641 15.104C175.431 15.2746 176.145 15.52 176.785 15.84C177.447 16.1386 177.969 16.576 178.353 17.152C178.759 17.7066 178.961 18.4426 178.961 19.36C178.961 20.3413 178.684 21.1946 178.129 21.92C177.596 22.624 176.807 23.1786 175.761 23.584C174.737 23.968 173.489 24.16 172.017 24.16Z" fill="black"/>
<path d="M158.217 24.16C156.639 24.16 155.423 23.7333 154.569 22.88C153.716 22.0266 153.289 20.8213 153.289 19.264V3.48798H155.561V19.136C155.561 20.1173 155.807 20.8746 156.297 21.408C156.809 21.9413 157.535 22.208 158.473 22.208C159.476 22.208 160.308 21.92 160.969 21.344L161.769 22.976C161.321 23.3813 160.777 23.68 160.137 23.872C159.519 24.064 158.879 24.16 158.217 24.16ZM150.281 9.08798V7.19998H160.681V9.08798H150.281Z" fill="black"/>
<path d="M138.091 24.16C136.47 24.16 135.008 23.7973 133.707 23.072C132.427 22.3253 131.414 21.312 130.667 20.032C129.92 18.7306 129.547 17.248 129.547 15.584C129.547 13.8986 129.92 12.416 130.667 11.136C131.414 9.85598 132.427 8.85331 133.707 8.12798C134.987 7.40264 136.448 7.03998 138.091 7.03998C139.755 7.03998 141.227 7.40264 142.507 8.12798C143.808 8.85331 144.822 9.85598 145.547 11.136C146.294 12.416 146.667 13.8986 146.667 15.584C146.667 17.248 146.294 18.7306 145.547 20.032C144.822 21.312 143.808 22.3253 142.507 23.072C141.206 23.7973 139.734 24.16 138.091 24.16ZM138.091 22.144C139.307 22.144 140.384 21.8773 141.323 21.344C142.262 20.7893 142.998 20.0213 143.531 19.04C144.086 18.0373 144.363 16.8853 144.363 15.584C144.363 14.2613 144.086 13.1093 143.531 12.128C142.998 11.1466 142.262 10.3893 141.323 9.85598C140.384 9.30131 139.318 9.02398 138.123 9.02398C136.928 9.02398 135.862 9.30131 134.923 9.85598C133.984 10.3893 133.238 11.1466 132.683 12.128C132.128 13.1093 131.851 14.2613 131.851 15.584C131.851 16.8853 132.128 18.0373 132.683 19.04C133.238 20.0213 133.984 20.7893 134.923 21.344C135.862 21.8773 136.918 22.144 138.091 22.144Z" fill="black"/>
<path d="M121.049 24V0.255981H123.321V24H121.049Z" fill="black"/>
<path d="M106.418 24.192C104.754 24.192 103.154 23.9253 101.618 23.392C100.103 22.8373 98.9297 22.1333 98.0977 21.28L99.0257 19.456C99.815 20.224 100.871 20.8746 102.194 21.408C103.538 21.92 104.946 22.176 106.418 22.176C107.826 22.176 108.967 22.0053 109.842 21.664C110.738 21.3013 111.388 20.8213 111.794 20.224C112.22 19.6266 112.434 18.9653 112.434 18.24C112.434 17.3653 112.178 16.6613 111.666 16.128C111.175 15.5946 110.524 15.1786 109.714 14.88C108.903 14.56 108.007 14.2826 107.026 14.048C106.044 13.8133 105.063 13.568 104.082 13.312C103.1 13.0346 102.194 12.672 101.362 12.224C100.551 11.776 99.8897 11.1893 99.3777 10.464C98.887 9.71729 98.6417 8.74663 98.6417 7.55196C98.6417 6.44263 98.9297 5.42929 99.5057 4.51196C100.103 3.57329 101.01 2.82663 102.226 2.27196C103.442 1.69596 104.999 1.40796 106.898 1.40796C108.156 1.40796 109.404 1.58929 110.642 1.95196C111.879 2.29329 112.946 2.77329 113.842 3.39196L113.042 5.27996C112.082 4.63996 111.058 4.17063 109.97 3.87196C108.903 3.57329 107.868 3.42396 106.866 3.42396C105.522 3.42396 104.412 3.60529 103.538 3.96796C102.663 4.33063 102.012 4.82129 101.586 5.43996C101.18 6.03729 100.978 6.71996 100.978 7.48796C100.978 8.36263 101.223 9.06662 101.714 9.59996C102.226 10.1333 102.887 10.5493 103.698 10.848C104.53 11.1466 105.436 11.4133 106.418 11.648C107.399 11.8826 108.37 12.1386 109.33 12.416C110.311 12.6933 111.207 13.056 112.018 13.504C112.85 13.9306 113.511 14.5066 114.002 15.232C114.514 15.9573 114.77 16.9066 114.77 18.08C114.77 19.168 114.471 20.1813 113.874 21.12C113.276 22.0373 112.359 22.784 111.122 23.36C109.906 23.9146 108.338 24.192 106.418 24.192Z" fill="black"/>
<path d="M76.0102 24.16C74.2609 24.16 72.7249 23.7973 71.4022 23.072C70.0796 22.3253 69.0449 21.312 68.2982 20.032C67.5516 18.7306 67.1782 17.248 67.1782 15.584C67.1782 13.92 67.5302 12.448 68.2342 11.168C68.9596 9.88798 69.9409 8.88531 71.1782 8.15998C72.4369 7.41331 73.8449 7.03998 75.4022 7.03998C76.9809 7.03998 78.3782 7.40264 79.5942 8.12798C80.8316 8.83198 81.8022 9.83464 82.5062 11.136C83.2102 12.416 83.5622 13.8986 83.5622 15.584C83.5622 15.6906 83.5516 15.808 83.5302 15.936C83.5302 16.0426 83.5302 16.16 83.5302 16.288H68.9062V14.592H82.3142L81.4182 15.264C81.4182 14.048 81.1516 12.9706 80.6182 12.032C80.1062 11.072 79.4022 10.3253 78.5062 9.79198C77.6102 9.25865 76.5756 8.99198 75.4022 8.99198C74.2502 8.99198 73.2156 9.25865 72.2982 9.79198C71.3809 10.3253 70.6662 11.072 70.1542 12.032C69.6422 12.992 69.3862 14.0906 69.3862 15.328V15.68C69.3862 16.96 69.6636 18.0906 70.2182 19.072C70.7942 20.032 71.5836 20.7893 72.5862 21.344C73.6102 21.8773 74.7729 22.144 76.0742 22.144C77.0982 22.144 78.0476 21.9626 78.9222 21.6C79.8182 21.2373 80.5862 20.6826 81.2262 19.936L82.5062 21.408C81.7596 22.304 80.8209 22.9866 79.6902 23.456C78.5809 23.9253 77.3542 24.16 76.0102 24.16Z" fill="black"/>
<path d="M54.3287 7.03998C55.694 7.03998 56.878 7.30665 57.8807 7.83998C58.9047 8.35198 59.694 9.14131 60.2487 10.208C60.8247 11.2746 61.1127 12.6186 61.1127 14.24V24H58.8407V14.464C58.8407 12.6933 58.414 11.36 57.5607 10.464C56.7287 9.54665 55.5447 9.08798 54.0087 9.08798C52.8567 9.08798 51.854 9.33331 51.0007 9.82398C50.1687 10.2933 49.518 10.9866 49.0487 11.904C48.6007 12.8 48.3767 13.888 48.3767 15.168V24H46.1047V14.464C46.1047 12.6933 45.678 11.36 44.8247 10.464C43.9713 9.54665 42.7767 9.08798 41.2407 9.08798C40.11 9.08798 39.118 9.33331 38.2647 9.82398C37.4113 10.2933 36.75 10.9866 36.2807 11.904C35.8327 12.8 35.6087 13.888 35.6087 15.168V24H33.3367V7.19998H35.5127V11.744L35.1607 10.944C35.6727 9.72798 36.494 8.77864 37.6247 8.09598C38.7767 7.39198 40.1313 7.03998 41.6887 7.03998C43.3313 7.03998 44.7287 7.45598 45.8807 8.28798C47.0327 9.09865 47.7793 10.3253 48.1207 11.968L47.2247 11.616C47.7153 10.2506 48.5793 9.15198 49.8167 8.31998C51.0753 7.46664 52.5793 7.03998 54.3287 7.03998Z" fill="black"/>
<path d="M23.143 24V7.19998H25.415V24H23.143ZM24.295 3.48798C23.8256 3.48798 23.431 3.32798 23.111 3.00798C22.791 2.68798 22.631 2.30398 22.631 1.85598C22.631 1.40798 22.791 1.03465 23.111 0.735981C23.431 0.415981 23.8256 0.255981 24.295 0.255981C24.7643 0.255981 25.159 0.405315 25.479 0.703981C25.799 1.00265 25.959 1.37598 25.959 1.82398C25.959 2.29332 25.799 2.68798 25.479 3.00798C25.1803 3.32798 24.7856 3.48798 24.295 3.48798Z" fill="black"/>
<path d="M7.99993 24V3.64798H0.12793V1.59998H18.2399V3.64798H10.3679V24H7.99993Z" fill="black"/>
</svg>
