<svg width="280" height="280" viewBox="0 0 280 280" fill="none" xmlns="http://www.w3.org/2000/svg">
<g clip-path="url(#clip0_681_5907)">
<g filter="url(#filter0_b_681_5907)">
<rect width="280" height="280" rx="16" fill="white" fill-opacity="0.5"/>
<rect x="0.5" y="0.5" width="279" height="279" rx="15.5" stroke="white" stroke-opacity="0.19"/>
</g>
<rect x="72" y="63" width="136" height="77" rx="12" fill="#D9D9D9"/>
<rect x="72" y="63" width="136" height="77" rx="12" fill="#D9D9D9"/>
<path d="M134.072 121.072H95V82H134.072V121.072ZM100.716 115.356H128.356V87.716H100.716V115.356Z" fill="#57B543"/>
<path d="M122.239 101.536C122.239 105.789 118.789 109.239 114.536 109.239C110.283 109.239 106.834 105.789 106.834 101.536C106.834 97.2833 110.283 93.834 114.536 93.834C118.789 93.834 122.239 97.2833 122.239 101.536Z" fill="#57B543"/>
<path d="M145.035 82V121.072H184.107V82H145.035ZM178.391 115.356H150.751V87.7236H178.391V115.356Z" fill="#E30D16"/>
<path d="M164.571 109.246C168.824 109.246 172.273 105.797 172.273 101.544C172.273 97.2909 168.824 93.8416 164.571 93.8416C160.318 93.8416 156.869 97.2909 156.869 101.544C156.869 105.797 160.318 109.246 164.571 109.246Z" fill="#E30D16"/>
<path d="M64.8932 193.484L57.5292 213H54.5892L47.2252 193.484H49.9412L56.0732 210.312L62.2052 193.484H64.8932ZM81.6871 204.74C81.6871 205.225 81.6591 205.739 81.6031 206.28H69.3391C69.4324 207.792 69.9458 208.977 70.8791 209.836C71.8311 210.676 72.9791 211.096 74.3231 211.096C75.4244 211.096 76.3391 210.844 77.0671 210.34C77.8138 209.817 78.3364 209.127 78.6351 208.268H81.3791C80.9684 209.743 80.1471 210.947 78.9151 211.88C77.6831 212.795 76.1524 213.252 74.3231 213.252C72.8671 213.252 71.5604 212.925 70.4031 212.272C69.2644 211.619 68.3684 210.695 67.7151 209.5C67.0618 208.287 66.7351 206.887 66.7351 205.3C66.7351 203.713 67.0524 202.323 67.6871 201.128C68.3218 199.933 69.2084 199.019 70.3471 198.384C71.5044 197.731 72.8298 197.404 74.3231 197.404C75.7791 197.404 77.0671 197.721 78.1871 198.356C79.3071 198.991 80.1658 199.868 80.7631 200.988C81.3791 202.089 81.6871 203.34 81.6871 204.74ZM79.0551 204.208C79.0551 203.237 78.8404 202.407 78.4111 201.716C77.9818 201.007 77.3938 200.475 76.6471 200.12C75.9191 199.747 75.1071 199.56 74.2111 199.56C72.9231 199.56 71.8218 199.971 70.9071 200.792C70.0111 201.613 69.4978 202.752 69.3671 204.208H79.0551ZM91.3784 197.404C92.7037 197.404 93.8611 197.693 94.8504 198.272C95.8584 198.851 96.6051 199.579 97.0904 200.456V197.656H99.6664V213.336C99.6664 214.736 99.3677 215.977 98.7704 217.06C98.1731 218.161 97.3144 219.02 96.1944 219.636C95.0931 220.252 93.8051 220.56 92.3304 220.56C90.3144 220.56 88.6344 220.084 87.2904 219.132C85.9464 218.18 85.1531 216.883 84.9104 215.24H87.4304C87.7104 216.173 88.2891 216.92 89.1664 217.48C90.0437 218.059 91.0984 218.348 92.3304 218.348C93.7304 218.348 94.8691 217.909 95.7464 217.032C96.6424 216.155 97.0904 214.923 97.0904 213.336V210.116C96.5864 211.012 95.8397 211.759 94.8504 212.356C93.8611 212.953 92.7037 213.252 91.3784 213.252C90.0157 213.252 88.7744 212.916 87.6544 212.244C86.5531 211.572 85.6851 210.629 85.0504 209.416C84.4157 208.203 84.0984 206.821 84.0984 205.272C84.0984 203.704 84.4157 202.332 85.0504 201.156C85.6851 199.961 86.5531 199.037 87.6544 198.384C88.7744 197.731 90.0157 197.404 91.3784 197.404ZM97.0904 205.3C97.0904 204.143 96.8571 203.135 96.3904 202.276C95.9237 201.417 95.2891 200.764 94.4864 200.316C93.7024 199.849 92.8344 199.616 91.8824 199.616C90.9304 199.616 90.0624 199.84 89.2784 200.288C88.4944 200.736 87.8691 201.389 87.4024 202.248C86.9357 203.107 86.7024 204.115 86.7024 205.272C86.7024 206.448 86.9357 207.475 87.4024 208.352C87.8691 209.211 88.4944 209.873 89.2784 210.34C90.0624 210.788 90.9304 211.012 91.8824 211.012C92.8344 211.012 93.7024 210.788 94.4864 210.34C95.2891 209.873 95.9237 209.211 96.3904 208.352C96.8571 207.475 97.0904 206.457 97.0904 205.3ZM113.492 186.624L105.82 217.76H103.3L110.944 186.624H113.492ZM132.633 213H130.085L119.837 197.46V213H117.289V193.456H119.837L130.085 208.968V193.456H132.633V213ZM143.668 213.252C142.231 213.252 140.924 212.925 139.748 212.272C138.591 211.619 137.676 210.695 137.004 209.5C136.351 208.287 136.024 206.887 136.024 205.3C136.024 203.732 136.36 202.351 137.032 201.156C137.723 199.943 138.656 199.019 139.832 198.384C141.008 197.731 142.324 197.404 143.78 197.404C145.236 197.404 146.552 197.731 147.728 198.384C148.904 199.019 149.828 199.933 150.5 201.128C151.191 202.323 151.536 203.713 151.536 205.3C151.536 206.887 151.182 208.287 150.472 209.5C149.782 210.695 148.839 211.619 147.644 212.272C146.45 212.925 145.124 213.252 143.668 213.252ZM143.668 211.012C144.583 211.012 145.442 210.797 146.244 210.368C147.047 209.939 147.691 209.295 148.176 208.436C148.68 207.577 148.932 206.532 148.932 205.3C148.932 204.068 148.69 203.023 148.204 202.164C147.719 201.305 147.084 200.671 146.3 200.26C145.516 199.831 144.667 199.616 143.752 199.616C142.819 199.616 141.96 199.831 141.176 200.26C140.411 200.671 139.795 201.305 139.328 202.164C138.862 203.023 138.628 204.068 138.628 205.3C138.628 206.551 138.852 207.605 139.3 208.464C139.767 209.323 140.383 209.967 141.148 210.396C141.914 210.807 142.754 211.012 143.668 211.012ZM162.362 197.376C164.229 197.376 165.741 197.945 166.898 199.084C168.056 200.204 168.634 201.828 168.634 203.956V213H166.114V204.32C166.114 202.789 165.732 201.623 164.966 200.82C164.201 199.999 163.156 199.588 161.83 199.588C160.486 199.588 159.413 200.008 158.61 200.848C157.826 201.688 157.434 202.911 157.434 204.516V213H154.886V197.656H157.434V199.84C157.938 199.056 158.62 198.449 159.478 198.02C160.356 197.591 161.317 197.376 162.362 197.376ZM196.389 193.484L189.025 213H186.085L178.721 193.484H181.437L187.569 210.312L193.701 193.484H196.389ZM213.183 204.74C213.183 205.225 213.155 205.739 213.099 206.28H200.835C200.929 207.792 201.442 208.977 202.375 209.836C203.327 210.676 204.475 211.096 205.819 211.096C206.921 211.096 207.835 210.844 208.563 210.34C209.31 209.817 209.833 209.127 210.131 208.268H212.875C212.465 209.743 211.643 210.947 210.411 211.88C209.179 212.795 207.649 213.252 205.819 213.252C204.363 213.252 203.057 212.925 201.899 212.272C200.761 211.619 199.865 210.695 199.211 209.5C198.558 208.287 198.231 206.887 198.231 205.3C198.231 203.713 198.549 202.323 199.183 201.128C199.818 199.933 200.705 199.019 201.843 198.384C203.001 197.731 204.326 197.404 205.819 197.404C207.275 197.404 208.563 197.721 209.683 198.356C210.803 198.991 211.662 199.868 212.259 200.988C212.875 202.089 213.183 203.34 213.183 204.74ZM210.551 204.208C210.551 203.237 210.337 202.407 209.907 201.716C209.478 201.007 208.89 200.475 208.143 200.12C207.415 199.747 206.603 199.56 205.707 199.56C204.419 199.56 203.318 199.971 202.403 200.792C201.507 201.613 200.994 202.752 200.863 204.208H210.551ZM222.874 197.404C224.2 197.404 225.357 197.693 226.346 198.272C227.354 198.851 228.101 199.579 228.586 200.456V197.656H231.162V213.336C231.162 214.736 230.864 215.977 230.266 217.06C229.669 218.161 228.81 219.02 227.69 219.636C226.589 220.252 225.301 220.56 223.826 220.56C221.81 220.56 220.13 220.084 218.786 219.132C217.442 218.18 216.649 216.883 216.406 215.24H218.926C219.206 216.173 219.785 216.92 220.662 217.48C221.54 218.059 222.594 218.348 223.826 218.348C225.226 218.348 226.365 217.909 227.242 217.032C228.138 216.155 228.586 214.923 228.586 213.336V210.116C228.082 211.012 227.336 211.759 226.346 212.356C225.357 212.953 224.2 213.252 222.874 213.252C221.512 213.252 220.27 212.916 219.15 212.244C218.049 211.572 217.181 210.629 216.546 209.416C215.912 208.203 215.594 206.821 215.594 205.272C215.594 203.704 215.912 202.332 216.546 201.156C217.181 199.961 218.049 199.037 219.15 198.384C220.27 197.731 221.512 197.404 222.874 197.404ZM228.586 205.3C228.586 204.143 228.353 203.135 227.886 202.276C227.42 201.417 226.785 200.764 225.982 200.316C225.198 199.849 224.33 199.616 223.378 199.616C222.426 199.616 221.558 199.84 220.774 200.288C219.99 200.736 219.365 201.389 218.898 202.248C218.432 203.107 218.198 204.115 218.198 205.272C218.198 206.448 218.432 207.475 218.898 208.352C219.365 209.211 219.99 209.873 220.774 210.34C221.558 210.788 222.426 211.012 223.378 211.012C224.33 211.012 225.198 210.788 225.982 210.34C226.785 209.873 227.42 209.211 227.886 208.352C228.353 207.475 228.586 206.457 228.586 205.3ZM84.3204 255.196C83.0324 255.196 81.8751 254.972 80.8484 254.524C79.8404 254.057 79.0471 253.423 78.4684 252.62C77.8898 251.799 77.5911 250.856 77.5724 249.792H80.2884C80.3818 250.707 80.7551 251.481 81.4084 252.116C82.0804 252.732 83.0511 253.04 84.3204 253.04C85.5338 253.04 86.4858 252.741 87.1764 252.144C87.8858 251.528 88.2404 250.744 88.2404 249.792C88.2404 249.045 88.0351 248.439 87.6244 247.972C87.2138 247.505 86.7004 247.151 86.0844 246.908C85.4684 246.665 84.6378 246.404 83.5924 246.124C82.3044 245.788 81.2684 245.452 80.4844 245.116C79.7191 244.78 79.0564 244.257 78.4964 243.548C77.9551 242.82 77.6844 241.849 77.6844 240.636C77.6844 239.572 77.9551 238.629 78.4964 237.808C79.0378 236.987 79.7938 236.352 80.7644 235.904C81.7538 235.456 82.8831 235.232 84.1524 235.232C85.9818 235.232 87.4751 235.689 88.6324 236.604C89.8084 237.519 90.4711 238.732 90.6204 240.244H87.8204C87.7271 239.497 87.3351 238.844 86.6444 238.284C85.9538 237.705 85.0391 237.416 83.9004 237.416C82.8364 237.416 81.9684 237.696 81.2964 238.256C80.6244 238.797 80.2884 239.563 80.2884 240.552C80.2884 241.261 80.4844 241.84 80.8764 242.288C81.2871 242.736 81.7818 243.081 82.3604 243.324C82.9578 243.548 83.7884 243.809 84.8524 244.108C86.1404 244.463 87.1764 244.817 87.9604 245.172C88.7444 245.508 89.4164 246.04 89.9764 246.768C90.5364 247.477 90.8164 248.448 90.8164 249.68C90.8164 250.632 90.5644 251.528 90.0604 252.368C89.5564 253.208 88.8098 253.889 87.8204 254.412C86.8311 254.935 85.6644 255.196 84.3204 255.196ZM108.566 246.74C108.566 247.225 108.538 247.739 108.482 248.28H96.218C96.3114 249.792 96.8247 250.977 97.758 251.836C98.71 252.676 99.858 253.096 101.202 253.096C102.303 253.096 103.218 252.844 103.946 252.34C104.693 251.817 105.215 251.127 105.514 250.268H108.258C107.847 251.743 107.026 252.947 105.794 253.88C104.562 254.795 103.031 255.252 101.202 255.252C99.746 255.252 98.4394 254.925 97.282 254.272C96.1434 253.619 95.2474 252.695 94.594 251.5C93.9407 250.287 93.614 248.887 93.614 247.3C93.614 245.713 93.9314 244.323 94.566 243.128C95.2007 241.933 96.0874 241.019 97.226 240.384C98.3834 239.731 99.7087 239.404 101.202 239.404C102.658 239.404 103.946 239.721 105.066 240.356C106.186 240.991 107.045 241.868 107.642 242.988C108.258 244.089 108.566 245.34 108.566 246.74ZM105.934 246.208C105.934 245.237 105.719 244.407 105.29 243.716C104.861 243.007 104.273 242.475 103.526 242.12C102.798 241.747 101.986 241.56 101.09 241.56C99.802 241.56 98.7007 241.971 97.786 242.792C96.89 243.613 96.3767 244.752 96.246 246.208H105.934ZM114.477 234.28V255H111.929V234.28H114.477ZM132.82 246.74C132.82 247.225 132.792 247.739 132.736 248.28H120.472C120.565 249.792 121.079 250.977 122.012 251.836C122.964 252.676 124.112 253.096 125.456 253.096C126.557 253.096 127.472 252.844 128.2 252.34C128.947 251.817 129.469 251.127 129.768 250.268H132.512C132.101 251.743 131.28 252.947 130.048 253.88C128.816 254.795 127.285 255.252 125.456 255.252C124 255.252 122.693 254.925 121.536 254.272C120.397 253.619 119.501 252.695 118.848 251.5C118.195 250.287 117.868 248.887 117.868 247.3C117.868 245.713 118.185 244.323 118.82 243.128C119.455 241.933 120.341 241.019 121.48 240.384C122.637 239.731 123.963 239.404 125.456 239.404C126.912 239.404 128.2 239.721 129.32 240.356C130.44 240.991 131.299 241.868 131.896 242.988C132.512 244.089 132.82 245.34 132.82 246.74ZM130.188 246.208C130.188 245.237 129.973 244.407 129.544 243.716C129.115 243.007 128.527 242.475 127.78 242.12C127.052 241.747 126.24 241.56 125.344 241.56C124.056 241.56 122.955 241.971 122.04 242.792C121.144 243.613 120.631 244.752 120.5 246.208H130.188ZM135.231 247.3C135.231 245.713 135.549 244.332 136.183 243.156C136.818 241.961 137.695 241.037 138.815 240.384C139.954 239.731 141.251 239.404 142.707 239.404C144.593 239.404 146.142 239.861 147.355 240.776C148.587 241.691 149.399 242.96 149.791 244.584H147.047C146.786 243.651 146.273 242.913 145.507 242.372C144.761 241.831 143.827 241.56 142.707 241.56C141.251 241.56 140.075 242.064 139.179 243.072C138.283 244.061 137.835 245.471 137.835 247.3C137.835 249.148 138.283 250.576 139.179 251.584C140.075 252.592 141.251 253.096 142.707 253.096C143.827 253.096 144.761 252.835 145.507 252.312C146.254 251.789 146.767 251.043 147.047 250.072H149.791C149.381 251.64 148.559 252.9 147.327 253.852C146.095 254.785 144.555 255.252 142.707 255.252C141.251 255.252 139.954 254.925 138.815 254.272C137.695 253.619 136.818 252.695 136.183 251.5C135.549 250.305 135.231 248.905 135.231 247.3ZM156.299 241.756V250.8C156.299 251.547 156.458 252.079 156.775 252.396C157.092 252.695 157.643 252.844 158.427 252.844H160.303V255H158.007C156.588 255 155.524 254.673 154.815 254.02C154.106 253.367 153.751 252.293 153.751 250.8V241.756H151.763V239.656H153.751V235.792H156.299V239.656H160.303V241.756H156.299ZM164.706 237.164C164.221 237.164 163.81 236.996 163.474 236.66C163.138 236.324 162.97 235.913 162.97 235.428C162.97 234.943 163.138 234.532 163.474 234.196C163.81 233.86 164.221 233.692 164.706 233.692C165.173 233.692 165.565 233.86 165.882 234.196C166.218 234.532 166.386 234.943 166.386 235.428C166.386 235.913 166.218 236.324 165.882 236.66C165.565 236.996 165.173 237.164 164.706 237.164ZM165.938 239.656V255H163.39V239.656H165.938ZM176.973 255.252C175.536 255.252 174.229 254.925 173.053 254.272C171.896 253.619 170.981 252.695 170.309 251.5C169.656 250.287 169.329 248.887 169.329 247.3C169.329 245.732 169.665 244.351 170.337 243.156C171.028 241.943 171.961 241.019 173.137 240.384C174.313 239.731 175.629 239.404 177.085 239.404C178.541 239.404 179.857 239.731 181.033 240.384C182.209 241.019 183.133 241.933 183.805 243.128C184.496 244.323 184.841 245.713 184.841 247.3C184.841 248.887 184.486 250.287 183.777 251.5C183.086 252.695 182.144 253.619 180.949 254.272C179.754 254.925 178.429 255.252 176.973 255.252ZM176.973 253.012C177.888 253.012 178.746 252.797 179.549 252.368C180.352 251.939 180.996 251.295 181.481 250.436C181.985 249.577 182.237 248.532 182.237 247.3C182.237 246.068 181.994 245.023 181.509 244.164C181.024 243.305 180.389 242.671 179.605 242.26C178.821 241.831 177.972 241.616 177.057 241.616C176.124 241.616 175.265 241.831 174.481 242.26C173.716 242.671 173.1 243.305 172.633 244.164C172.166 245.023 171.933 246.068 171.933 247.3C171.933 248.551 172.157 249.605 172.605 250.464C173.072 251.323 173.688 251.967 174.453 252.396C175.218 252.807 176.058 253.012 176.973 253.012ZM195.667 239.376C197.534 239.376 199.046 239.945 200.203 241.084C201.36 242.204 201.939 243.828 201.939 245.956V255H199.419V246.32C199.419 244.789 199.036 243.623 198.271 242.82C197.506 241.999 196.46 241.588 195.135 241.588C193.791 241.588 192.718 242.008 191.915 242.848C191.131 243.688 190.739 244.911 190.739 246.516V255H188.191V239.656H190.739V241.84C191.243 241.056 191.924 240.449 192.783 240.02C193.66 239.591 194.622 239.376 195.667 239.376Z" fill="black"/>
</g>
<rect x="4" y="4" width="272" height="272" rx="8" stroke="#E23744" stroke-width="8"/>
<defs>
<filter id="filter0_b_681_5907" x="-60" y="-60" width="400" height="400" filterUnits="userSpaceOnUse" color-interpolation-filters="sRGB">
<feFlood flood-opacity="0" result="BackgroundImageFix"/>
<feGaussianBlur in="BackgroundImageFix" stdDeviation="30"/>
<feComposite in2="SourceAlpha" operator="in" result="effect1_backgroundBlur_681_5907"/>
<feBlend mode="normal" in="SourceGraphic" in2="effect1_backgroundBlur_681_5907" result="shape"/>
</filter>
<clipPath id="clip0_681_5907">
<rect width="280" height="280" rx="12" fill="white"/>
</clipPath>
</defs>
</svg>
